<?xml version="1.0" encoding="utf-8"?>
<!-- Generator: Adobe Illustrator 23.0.2, SVG Export Plug-In . SVG Version: 6.00 Build 0)  -->
<svg version="1.1" id="Layer_1" xmlns="http://www.w3.org/2000/svg" xmlns:xlink="http://www.w3.org/1999/xlink" x="0px" y="0px"
	 viewBox="0 0 750 1624" style="enable-background:new 0 0 750 1624;" xml:space="preserve">
<path d="M569.5,20.4v20c0,11.05-8.95,20-20,20h-350c-11.05,0-20-8.95-20-20v-20c0-11.05-8.95-20-20-20h-79c-44.18,0-80,35.82-80,80
	v1464c0,44.18,35.82,80,80,80h589c44.18,0,80-35.82,80-80V80.4c0-44.18-35.82-80-80-80h-80C578.45,0.4,569.5,9.36,569.5,20.4z"/>
</svg>
