<svg width="421" height="245" viewBox="0 0 421 245" fill="none" xmlns="http://www.w3.org/2000/svg">
<path d="M37.2682 33.7838C34.5481 40.5703 31.3335 47.1919 27.7067 53.4838C26.4154 55.7093 25.0141 57.9898 23.1183 59.5009C21.2225 61.0121 18.7222 61.5616 17.2385 60.1878C15.4526 58.5118 15.8373 54.9125 16.8539 52.0001C17.8705 49.0602 19.4366 46.2027 19.7113 43.2079C17.3759 45.1037 14.8207 46.8072 12.238 47.1644C9.62779 47.5216 7.01761 46.2852 6.27577 43.5376C5.80868 41.8341 6.11091 39.8284 6.74285 37.9601C8.50129 32.7397 12.6501 28.5634 17.0187 26.3654C21.3873 24.1673 25.9483 23.6728 30.3444 23.6178C32.8996 23.5904 35.5922 23.7827 37.4056 25.5686C39.1915 27.3545 39.5487 31.311 37.4605 33.6189" fill="#BA9BC9"/>
<path d="M235.202 94.0378C233.636 98.9834 231.933 103.901 231.438 109.067C231.053 112.996 231.191 117.172 233.087 120.634C234.982 124.096 239.076 126.596 242.895 125.58C244.764 112.913 249.27 108.05 246.907 95.4665C250.891 94.3125 250.534 97.9668 251.495 101.978C255.781 119.947 247.704 132.778 254.682 149.896C255.891 152.89 257.705 155.913 261.744 155.94C265.123 155.968 268.036 153.55 269.244 150.39C272.761 141.186 265.068 131.872 267.678 122.997C271.388 121.156 274.85 125.992 275.949 129.976C278.806 140.307 279.493 151.242 277.899 161.847C277.157 166.821 275.949 172.096 279.163 176.492C280.977 178.965 284.356 180.091 286.994 178.58C290.703 176.437 289.879 171.684 290.346 167.755C290.758 164.155 294.879 160.199 297.489 162.727C298.204 163.414 298.506 164.403 298.726 165.364C302.627 181.657 290.346 199.654 299.77 213.502C305.512 218.09 306.227 207.237 307.436 202.814C308.864 197.621 313.535 191.686 319.003 195.807C320.981 197.291 321.943 199.764 321.86 202.264C321.558 210.424 323.289 218.667 326.833 226.03C328.07 228.586 330.103 230.811 332.796 231.718C340.873 234.493 345.901 224.519 345.379 216.799C344.967 210.699 342.879 204.709 339.39 199.681C346.011 198.445 352.743 202.511 359.502 200.451C361.727 199.764 363.733 198.28 364.695 196.137C366.426 192.181 363.898 188.801 361.205 186.246C351.644 177.096 337.906 172.508 324.745 174.074C325.734 167.617 338.62 171.574 339.5 162.974C339.829 159.842 338.153 156.819 335.571 155.006C330.35 151.379 323.838 152.231 317.849 151.022C312.601 149.978 306.941 146.049 307.408 140.691C311.804 143.878 318.865 140.526 320.019 135.224C321.201 129.921 317.272 124.343 312.134 122.612C305.237 120.277 296.967 123.601 290.73 119.81C289.302 118.931 287.983 117.502 288.12 115.853C288.258 113.985 290.071 112.749 291.252 111.292C296.528 104.918 289.109 95.1917 281.059 93.2135C273.036 91.2353 264.216 92.9937 256.578 89.8615C259.958 86.1798 264.381 83.4597 269.19 82.1408C266.827 76.3984 260.562 72.5244 254.38 72.964C254.463 72.964 241.164 75.162 235.202 94.0378Z" fill="#BA9BC9"/>
<path d="M298.369 74.7774C300.484 84.2565 306.831 92.6915 315.349 97.3898C316.832 98.2141 319.058 98.7361 319.909 97.2799C321.008 95.3841 318.151 93.5982 317.492 91.51C316.502 88.2954 321.531 86.0699 324.36 87.9107C327.19 89.7516 328.125 93.3509 329.169 96.5381C330.213 99.7252 332.136 103.242 335.461 103.764C338.071 104.176 340.818 102.226 341.285 99.6153C341.753 97.0051 339.829 94.2301 337.219 93.7081C340.956 90.466 346.973 93.2959 349.913 97.2524C352.853 101.236 354.419 106.264 358.21 109.452C360.299 111.21 363.788 112.117 365.601 110.056C368.239 107.089 365.519 100.357 369.393 99.6153C373.542 104.479 377.691 109.342 381.839 114.205C383.708 116.403 386.648 118.793 389.12 117.31C392.61 115.221 389.642 108.765 392.802 106.237C394.231 105.083 396.347 105.33 398.077 105.962C400.99 107.061 403.463 109.094 406.403 110.138C409.315 111.183 413.189 110.825 414.728 108.133C417.091 103.984 412.172 99.5879 407.969 97.3349C411.348 96.071 414.728 94.8071 418.135 93.5432C419.096 93.186 420.14 92.7739 420.635 91.8672C421.432 90.4385 420.443 88.6526 419.344 87.4436C413.739 81.4265 403.792 80.0802 396.814 84.3939C397.446 80.4649 398.077 76.5359 398.709 72.6069C391.703 73.4311 384.779 74.7499 377.965 76.5633C376.124 72.387 383.131 66.782 379.614 63.8971C378.872 63.2926 377.883 63.1278 376.949 63.0728C368.843 62.5783 361.727 68.2108 353.924 70.4363C353.072 70.6836 352.111 70.8759 351.287 70.5736C346.753 68.8976 353.732 59.3636 349.171 57.7975C342.302 60.4901 335.406 63.1827 328.537 65.8753C326.256 64.1169 329.993 60.5726 329.251 57.7975C328.564 55.2148 324.855 55.2423 322.327 56.149C317.327 57.9349 312.711 60.7924 308.864 64.4741C307.793 58.9515 298.479 59.1988 296.061 64.2817C293.643 69.3647 296.638 75.5742 300.951 79.1735" fill="#BA9BC9"/>
<path d="M229.872 207.045C230.586 207.237 230.806 205.918 230.174 205.561C229.542 205.204 228.745 205.506 228.086 205.836C223.855 207.869 219.404 210.15 217.041 214.188C214.678 218.227 215.722 224.574 220.173 226.058C224.185 227.377 228.251 224.217 230.971 220.975C233.389 218.117 235.587 214.518 234.79 210.891C233.993 207.265 228.498 205.039 226.41 208.116" fill="#BA9BC9"/>
<path d="M261.304 207.017C257.595 209.298 256.716 214.628 258.337 218.667C259.958 222.706 263.502 225.646 267.184 228.009C269.684 229.63 273.256 230.949 275.399 228.888C276.223 228.091 276.608 226.992 276.855 225.866C277.954 220.783 276.141 215.178 272.267 211.716C268.393 208.254 262.65 207.017 257.705 208.638" fill="#BA9BC9"/>
</svg>
