<svg width="421" height="245" viewBox="0 0 421 245" fill="none" xmlns="http://www.w3.org/2000/svg">
<path d="M147.116 69.8315C155.551 67.7159 169.508 71.013 178.053 69.282C188.384 67.1664 195.116 60.0227 202.561 67.4961C207.04 72.0021 202.644 79.6953 203.853 85.9322C205.336 93.5979 212.618 100.192 214.101 107.858C216.272 119.095 218.442 130.498 217.7 141.927C216.327 163.001 205.172 182.207 192.258 198.939C186.268 206.715 179.674 214.298 171.239 219.354C163.271 224.107 154.04 226.36 144.863 227.706C130.301 229.849 115.409 229.932 100.819 227.926C95.9013 227.239 94.8297 224.079 89.8292 224.079C84.3341 224.079 75.377 225.755 72.3547 226.58C63.8922 228.888 60.4303 226.442 58.3971 217.925C56.3639 209.407 62.9855 204.956 65.7056 196.631C68.3982 188.306 67.2443 175.09 65.5682 166.491C65.5682 166.436 56.5288 92.5538 147.116 69.8315Z" fill="#FECB29"/>
<path d="M187.065 143.686C185.169 144.868 185.307 147.752 186.351 149.758C187.395 151.736 189.346 153.467 191.571 153.412C193.797 153.357 195.72 151.379 195.912 149.154C196.105 146.956 194.676 144.758 192.643 143.851C190.609 142.944 189.098 142.367 187.257 143.604" fill="#FFDD70"/>
<path d="M193.549 125.14C190.39 125.937 189.044 130.223 190.637 133.053C192.231 135.883 195.912 137.092 199.1 136.487C201.298 136.075 203.523 134.729 204.183 132.586C204.622 131.13 204.292 129.509 203.606 128.107C202.644 126.157 200.94 124.535 198.852 123.931C196.764 123.327 194.319 123.876 192.863 125.497" fill="#FFDD70"/>
<path d="M171.02 145.472C168.986 146.736 169.124 149.84 170.25 151.956C171.349 154.072 173.437 155.94 175.828 155.857C178.191 155.803 180.251 153.687 180.444 151.324C180.636 148.961 179.125 146.626 176.954 145.664C174.784 144.702 173.163 144.07 171.212 145.389" fill="#FFDD70"/>
<path d="M176.624 161.463C173.465 162.26 172.118 166.546 173.712 169.376C175.306 172.206 178.987 173.415 182.175 172.81C184.373 172.398 186.598 171.052 187.257 168.909C187.697 167.453 187.367 165.832 186.681 164.43C185.719 162.48 184.015 160.859 181.927 160.254C179.839 159.65 177.394 160.199 175.938 161.82" fill="#FFDD70"/>
</svg>
