<svg width="421" height="245" viewBox="0 0 421 245" fill="none" xmlns="http://www.w3.org/2000/svg">
<g clip-path="url(#clip0)">
<path d="M70.9808 36.1467C61.2819 51.0659 64.0844 75.5192 80.9819 81.1242C82.493 81.6188 84.1141 82.0034 85.1581 83.2123C86.9715 85.3005 85.9549 88.5426 84.5262 90.9055C72.6842 110.221 44.1096 108.875 25.1515 121.266C-0.0710881 137.779 -2.24166 173.662 1.35764 203.61C3.39083 220.398 7.48469 229.437 21.3873 239.054C42.1589 253.396 70.0191 239.658 91.6149 226.58C126.866 205.204 164.095 194.516 204.869 188.416C245.643 182.317 266.057 180.503 300.622 198.417C311.035 203.803 331.944 225.948 341.285 233.009C350.655 240.07 364.887 242.79 373.707 235.042C378.048 231.223 380.301 225.618 382.279 220.178C394.231 187.345 402.089 169.898 405.578 135.114C407.172 119.37 407.831 103.27 404.04 87.9107C392.995 43.153 339.5 14.1937 295.978 29.3877C275.646 36.5039 255.122 51.6978 234.79 44.5817C225.888 41.4495 219.102 34.3608 211.573 28.6459C134.971 -29.2727 84.6361 15.1004 70.9808 36.1467Z" fill="#828BC5"/>
</g>
<defs>
<clipPath id="clip0">
<rect width="421" height="245" fill="white"/>
</clipPath>
</defs>
</svg>
