<?xml version="1.0" encoding="utf-8"?>
<!-- Generator: Adobe Illustrator 22.1.0, SVG Export Plug-In . SVG Version: 6.00 Build 0)  -->
<svg version="1.1" id="Layer_1" xmlns="http://www.w3.org/2000/svg" xmlns:xlink="http://www.w3.org/1999/xlink" x="0px" y="0px"
	 viewBox="0 0 29 29" style="enable-background:new 0 0 29 29;" xml:space="preserve">
<style type="text/css">
	.st0{fill:#EA7109;}
</style>
<path class="st0" d="M28.3,4.2c0,0.4-0.1,0.9-0.2,1.4l0.2,2.7v2.5c-0.7,0.3-1.2,0.5-1.5,0.5l0.2,4.2c0,0.2,0,0.5,0.1,1.1
	s0,1-0.1,1.4v0.5c0,0.2,0,0.2-0.1,0.2s-0.1,0.1-0.1,0.2v0.2l0.2,1.7c-0.2-0.3-0.5-0.3-0.9,0.1s-0.7,0.6-0.9,0.6V22
	c0,0.3-0.1,0.6-0.2,0.9c-0.2,0.2-0.2,0.5-0.2,0.9l-1.2,1.5h-0.2c-0.2,0-0.3,0-0.4,0.1s-0.2,0.1-0.4,0.1c-0.7,0.2-1.1,0.4-1.4,0.6
	c-0.2,0.2-0.6,0.5-1.1,0.9c-0.8,0.3-1.7,0.7-2.5,1s-1.9,0.6-3.2,0.7c-1.2,0-2.1,0.1-2.7,0.2c-1,0.2-2.2-0.2-3.5-1.2
	c-0.2,0-0.5-0.1-0.9-0.2c-0.4-0.2-0.7-0.2-0.9-0.2c-0.3,0-0.7-0.1-1-0.2c-0.3-0.2-0.6-0.2-0.7-0.2l-1.2-1c-0.7-0.7-1-1.1-1-1.2
	c-1-0.7-1.6-1.9-1.7-3.7c-0.2-1.8-0.3-3.4-0.5-4.7C0,15,0.1,13.7,0.5,12.6c0.5-1.2,0.9-2.4,1.2-3.7v0.2c0-0.2,0.1-0.3,0.4-0.4
	c0.2-0.1,0.4-0.2,0.4-0.4c0-0.8,0.3-1.9,1-3.2c0.2-0.7,0.4-1.2,0.7-1.5l0.2-0.2c0.2,0,0.2-0.1,0.2-0.2c0-0.2,0.1-0.4,0.2-0.7
	C4.6,2.2,5.7,1.3,6.7,1c2.8-0.9,6.7-0.8,9.7-1c3.1-0.2,6.7-0.1,9.2,1.3C27,2.1,27.8,3,28.4,3.8C28.3,4,28.3,4.1,28.3,4.2z M4.9,27.2
	l-0.2-0.5C4.5,26.7,4.6,26.9,4.9,27.2z"/>
</svg>
