<?xml version="1.0" encoding="utf-8"?>
<!-- Generator: Adobe Illustrator 22.1.0, SVG Export Plug-In . SVG Version: 6.00 Build 0)  -->
<svg version="1.1" id="Layer_1" xmlns="http://www.w3.org/2000/svg" xmlns:xlink="http://www.w3.org/1999/xlink" x="0px" y="0px"
	 viewBox="0 0 75.7 136" style="enable-background:new 0 0 75.7 136;" xml:space="preserve">
<style type="text/css">
	.st0{fill:url(#SVGID_1_);}
</style>
<linearGradient id="SVGID_1_" gradientUnits="userSpaceOnUse" x1="0" y1="68" x2="75.6667" y2="68">
	<stop  offset="0" style="stop-color:#EA7109"/>
	<stop  offset="1" style="stop-color:#FF005B"/>
</linearGradient>
<path class="st0" d="M74.3,13.2l-0.7-1.3c-0.9-0.8-1.6-1.5-2.1-2.1C71,9.2,70.5,8.6,70.1,8c-0.7-1.6-1.9-3-3.5-4.1
	c-0.8-0.1-1.6-0.2-2.3-0.3c-0.6-0.1-1.2-0.2-1.9-0.2c-0.7-0.1-1.3-0.1-1.9-0.2l-3.5,1.5c0-0.1-0.1-0.3-0.2-0.5l-0.5-1v0.3l-0.7-1.1
	h0.2c-0.6-0.9-1.2-1.5-1.9-2s-1.6-0.4-2.6,0.4c-0.2,0.4-0.4,0.7-0.5,0.8c-0.1,0.1-0.2,0.2-0.4,0.3L50.1,2V1.8
	c-0.2,0.1-0.4,0.2-0.5,0.2c-0.1,0.1-0.4,0.1-0.9,0.1l-1.9,1.8c-0.6,0.9-1.2,1.8-1.9,2.8c-0.7,1-1.2,2.1-1.4,3.4V10l-0.7,0.8
	l-2.6,4.9c-1.6,3.7-3,7.2-4.2,10.4h-0.5c-0.6,2.2-1.2,4.1-1.9,5.7c-0.7,1.6-1.4,3.2-2.1,4.7l-2.8,6.8c-1.3,2.5-2.4,5.1-3.3,7.7
	c-0.9,2.7-1.9,5.4-3,8.2c-0.5,1.3-0.9,2.4-1.3,3.3c-0.4,0.9-0.8,1.7-1.1,2.4c-0.4,0.7-0.7,1.4-1.1,2.1c-0.4,0.7-0.8,1.5-1.3,2.5
	c-0.3,1.4-0.7,2.8-0.9,3.7c-0.5,2.2-1.1,4.5-2,6.7c-0.6,1.4-2,7.3-3.7,10.1c0.1,0,0.1,0,0.2,0.1c-1.8,6.7-3.8,13.3-6.1,19.8
	c-2.3,6.5-3.9,13.3-4.7,20.4l1.2,2.6l0.2,2.3c0.5,0,0.8,0.2,1.1,0.7c1.6,0.2,2.6,0.2,2.9,0c0.3-0.2,0.8-0.4,1.5-0.7
	c0.2,0,0.6-0.1,1.1-0.2c0.5-0.2,1-0.3,1.4-0.5c0.4-0.2,0.7-0.3,1-0.5c0.2-0.2,0.2-0.2,0-0.2c1.6-0.4,2.5-1.1,2.5-2.1
	c0.4,0.2,0.5,0.4,0.5,0.5c0.4,0,0.7-0.2,1.1-0.7c0.4-0.5,0.6-1,0.6-1.4c0.7-0.3,1.2-1.2,1.6-2.8c0-0.3,0.1-0.6,0.2-0.8
	c0.1-0.1,0.2-0.3,0.4-0.5v0.2l1.9-0.5l1.1-0.5l0.4,0.5c0.8-0.2,1.3-0.4,1.4-0.6c0.1-0.2,0.1-0.5,0-1.1l0.2-0.5
	c0.2,0.4,0.2,0.9,0,1.3c0,0.2,0,0.5-0.1,0.8c-0.1,0.3-0.1,0.7-0.1,1c0.9-0.2,1.6-1.1,1.9-2.6v-0.5c0.5-0.3,0.7-0.7,0.8-1.2
	c0.1-0.5,0.1-1.1,0.3-1.7c0.2-0.4,0.4-0.9,0.5-1.3c0.1-0.4,0.3-0.8,0.5-1.1c0-0.1,0-0.2-0.1-0.3c-0.1-0.1-0.1-0.3-0.1-0.5h0.4v-0.2
	l1.4-2c0.2-0.4,0.4-0.8,0.5-1.1c0.1-0.3,0.1-0.8,0-1.3l1.1-0.7c0.6-1.2,1.1-2.4,1.5-3.6c0.4-1.2,0.9-2.5,1.5-4.1
	c1.2-2.5,2.3-5,3.4-7.5c1.1-2.5,1.8-4.7,2.2-6.5c0.6-0.7,1-1.2,1.3-1.8c0.3-0.5,0.6-1.1,1-1.8l1.4-2.9l0.4-0.1
	c1.2-7,6.6-15.2,9.9-20.6c-0.1,0-0.2,0-0.3,0c0.8-2.2,1.6-3.9,2.3-5.3c0.7-1.4,1.4-2.6,2.1-3.7c0.7-1.1,1.4-2.4,2.2-3.7
	c0.8-1.3,1.6-3,2.5-5l4.6-8.8c0.9-0.2,1.6-1,1.9-2.4l0.2-1.3c1.2-1.5,2.1-3,2.7-4.3c0.6-1.4,1.5-2.7,2.5-4l3-5.5
	C76,16.8,75.7,14.9,74.3,13.2z"/>
</svg>
