<?xml version="1.0" encoding="utf-8"?>
<!-- Generator: Adobe Illustrator 22.1.0, SVG Export Plug-In . SVG Version: 6.00 Build 0)  -->
<svg version="1.1" id="Layer_1" xmlns="http://www.w3.org/2000/svg" xmlns:xlink="http://www.w3.org/1999/xlink" x="0px" y="0px"
	 viewBox="0 0 782 117" style="enable-background:new 0 0 782 117;" xml:space="preserve">
<style type="text/css">
	.st0{fill:url(#SVGID_1_);}
</style>
<linearGradient id="SVGID_1_" gradientUnits="userSpaceOnUse" x1="391.1552" y1="-28.6195" x2="391.1552" y2="134.831">
	<stop  offset="0" style="stop-color:#EA7109"/>
	<stop  offset="1" style="stop-color:#FF005B"/>
</linearGradient>
<path class="st0" d="M77.5,74.9c0.2,0.2,0.3,0.4,0.3,0.6c0,0.2-0.2,0.4-0.6,0.6c-0.1,0.2-0.2,0.4-0.4,0.6c-0.2,0.2-0.3,0.4-0.3,0.6
	l-0.6,1c-0.2,0.3-0.4,0.6-0.6,0.9c-0.2,0.3-0.4,0.7-0.6,1c-0.3,0.4-0.5,0.8-0.6,1.2l-3,4.4c-1.8,2.1-3,3.4-3.9,3.7
	c-0.3,0.4-0.6,0.7-0.8,1c-0.3,0.3-0.7,1-1.4,2.1c-0.9,1.1-1.6,1.9-1.9,2.4c-0.4,0.5-0.7,0.8-1,1c-0.2,0.1-0.4,0.2-0.6,0.3
	c-0.2,0.1-0.2,0,0-0.4c-0.6,0.3-1.4,0.7-2.4,1.4c-0.9,0.6-1.5,1.1-1.7,1.2c0.1-0.1,0.6-0.1,1.7-0.1c-0.4,0.2-0.8,0.6-1.2,1.1
	c-0.4,0.6-0.8,1.1-1,1.5c-0.7,0.2-1.4,0.5-1.9,0.9c-0.5,0.4-0.9,0.9-1.3,1.3c0-0.1-0.2,0-0.6,0.1c-0.4,0.2-0.6,0.3-0.8,0.4v-0.1
	c-0.2,0.2-0.5,0.3-0.8,0.3v0.6c-0.2,0.4-0.6,0.8-1.1,1.2s-1.2,0.8-2,1.2c-0.8,0.4-1.6,0.8-2.4,1.2c-0.8,0.4-1.5,0.8-2.1,1l-1.8,0.7
	c-0.4,0.1-0.7,0.2-1.1,0.2c-0.4,0-0.8,0.2-1.2,0.3c-0.8,0.5-1.8,0.9-2.8,1.2c-1,0.3-2,0.6-2.9,0.8c-0.1,0-0.1,0-0.1,0.1
	c0,0,0,0.1-0.1,0.1h-0.3c-1,0.1-2.2,0.2-3.7,0.4c-1.4,0.2-3.1,0.3-4.9,0.3c-1.1,0-2.1-0.1-3-0.3c-0.9-0.2-1.8-0.4-2.5-0.5
	c-2.8-0.6-5.4-1.7-7.8-3.3c-2.4-1.7-4.5-3.7-6.3-6c-1.8-2.4-3.1-5-4.1-7.9c-1-2.9-1.4-5.9-1.3-9.1c0.1-3.9,0.7-7.5,1.8-10.8
	s2.2-6.4,3.3-9.3C7.4,60.3,10,55,12.9,50.2c2.9-4.9,6.2-9.7,10.1-14.5c2-2.3,4.1-4.7,6.3-7.1c2.2-2.4,4.3-4.9,6.3-7.3l1.7-1.5
	l2.5-2.5c1.3-1.3,2.6-2.5,3.8-3.7c1.2-1.2,2.2-2,3-2.4c0.7-0.4,1.2-0.7,1.5-1c0.2-0.3,0.5-0.6,0.9-0.8l2.4-2.2l1.2-0.7
	c0.6-0.5,1-0.9,1.5-1.2c0.4-0.3,1-0.6,1.9-0.8c0.2-0.1,0.5-0.1,1-0.1c0.2,0,0.4,0,0.7,0c0.3,0,0.5,0,0.7-0.1c0.2,0.1,0.4,0,0.6-0.1
	c0.2-0.2,0.4-0.3,0.6-0.3c0.1,0,0.4,0,0.8,0c0.5,0,0.8,0,1.1-0.1c0.4,0.4,0.6,0.7,0.6,1.1c0,0.2,0.1,0.4,0.3,0.7
	c0.2,0.2,0.9,0.5,2,0.8c1.2,0.4,2.4,0.7,3.7,1c1.4,0.2,2.7,0.4,4,0.6c1.3,0.2,2.1,0.6,2.5,1.4l0.6,1c0.2,0.5,0.4,0.9,0.8,1.3
	c0.3,0.4,0.6,0.9,0.9,1.3l1.1,1.5c0.5,0.7,0.9,1.9,1.2,3.5c0.4,1.6,0.6,3,0.6,4.2c-0.3,0.2-0.4,0.4-0.4,0.6c0.2,0.2,0.4,0.4,0.8,0.7
	c0.3,0.3,0.6,0.3,0.8,0.1l-0.1-0.1c-0.2-0.2-0.3-0.3-0.3-0.4c0-0.1,0-0.4,0-0.8c0.4,0.5,0.7,0.9,1,1.2c0.3,0.3,0.5,0.7,0.6,1.2
	c0.2,0.8,0.6,1.4,1.2,1.8h0.4c0,0.2,0,0.4,0,0.8c0,0.3,0.1,0.6,0.3,0.8c0,0.2,0.1,0.3,0.4,0.3c0.3,0,0.5,0.1,0.7,0.1
	c0.6,1.6,1.2,3.3,1.8,5.2c0.6,1.9,0.9,4,1.1,6.4c0.2,0.7,0.3,1.6,0.3,2.6c0,1,0,1.8-0.1,2.5c0,0.2,0,0.4-0.1,0.6
	c0,0.2-0.1,0.3-0.1,0.4c0,0.2,0,0.4,0,0.6c0,0.2,0,0.4-0.1,0.6c0,0.3,0,0.7-0.1,1.2c0,0.6-0.2,0.9-0.3,1.1c-0.1,0.1-0.1,0.2-0.1,0.3
	c0,0.1,0,0.1-0.1,0.1c0.3,0.3,0.3,0.6,0.1,1.1c0.2,0.5,0,1.1-0.4,1.9v-0.1c-0.4,1.5-0.6,2.6-0.8,3.4c-0.2,0.8-0.3,1.4-0.4,1.9
	c-0.1,0.5-0.2,0.9-0.3,1.1c-0.1,0.2-0.2,0.5-0.3,0.9l-1.1,1.4c0,0.1,0,0.2-0.1,0.3c0,0.1-0.1,0.3-0.1,0.6l-0.6,1.2l0.1-0.1
	c0,0.1,0,0.3-0.1,0.5c-0.1,0.2-0.1,0.4-0.1,0.5c-0.5,0.6-0.8,1.1-1,1.5c-0.2,0.3-0.4,0.7-0.6,1.2l-1.1,2.6c0,0.3-0.1,0.5-0.3,0.6
	c-0.2,0.1-0.4,0.4-0.6,0.9c0-0.1-0.1,0.2-0.3,0.8c-0.2,0.6-0.4,1-0.6,1.3c-0.2,0.5-0.3,0.8-0.5,0.9c-0.1,0.1-0.2,0.3-0.2,0.5
	L77.2,75L77.5,74.9z M28.9,96.6c1.6-0.2,3-0.6,4.4-1.4c1.4-0.7,2.8-1.6,4.3-2.6v0.3l3.3-2.5c0.8-0.6,1.6-1.3,2.4-2
	c0.8-0.7,1.5-1.4,2.3-2.1c1.6-1.8,3.1-3.4,4.7-5c1.6-1.6,3.2-3.7,5-6.3l2.9-4.3c1.7-2.5,3.3-5.2,5-8.2c1.7-3,3.1-6.3,4.4-10.1
	c0.6-1.3,0.9-2.7,1.2-4.3c0.2-1.6,0.3-2.9,0.3-4c0-1.6-0.1-3-0.2-4.2c-0.1-1.2-0.4-2.5-0.9-3.8c-0.1-0.7-0.2-1.3-0.2-1.6
	c0-0.3-0.2-0.6-0.3-0.9c-0.5-0.4-0.7-1.2-0.8-2.5c-0.7-0.1-1.1-0.3-1.2-0.7c0-0.4-0.2-0.7-0.5-1.1c-0.3-0.3-0.5-0.6-0.6-1
	c-0.1-0.4-0.3-0.6-0.6-0.6c-0.3,0.2-0.6,0.4-0.9,0.8c-0.3,0.3-0.7,0.6-1.2,0.8c-1.3,0.6-2.4,1.3-3.2,1.9c-0.8,0.6-1.8,1.4-2.8,2.3
	c-2.8,2.3-5.6,5.2-8.4,8.7c-2.9,3.5-5.7,7-8.6,10.4c-0.4,0.6-0.8,1.2-1.2,1.7c-0.4,0.5-0.8,0.9-1.2,1.4c-1.9,2.5-3.8,5.2-5.6,8.2
	c-1.8,3-3.4,6.2-4.8,9.6c-0.8,1.5-1.6,3.1-2.3,4.9c-0.7,1.8-1.3,3.6-1.8,5.5c-0.5,1.8-0.9,3.7-1.2,5.6c-0.3,1.9-0.5,3.7-0.6,5.5
	l0.6,1c0.5,0.8,1.3,1.4,2.4,1.6C24.2,97.6,26.2,97.4,28.9,96.6z M101.5,85c1.8-0.2,3.6-0.5,5.4-1c1.8-0.5,3.6-0.9,5.5-1.3
	c2-0.4,3.5-0.6,4.6-0.8c1-0.2,1.9-0.3,2.7-0.5c0.8-0.1,1.7-0.3,2.7-0.4c1-0.1,2.6-0.3,4.8-0.6c0.5-0.1,1-0.2,1.6-0.3
	c0.6-0.1,1.2-0.1,1.7-0.1c0.4,0,0.8,0,1.2,0.1c0.5,0.1,1,0.2,1.5,0.3c0.1,0,0.2,0,0.3-0.1c0.1,0,0.3,0,0.6,0.1
	c0.6,0.2,0.9,0.4,0.9,0.6c0,0.2,0.1,0.7,0.3,1.3c-0.3-0.3-0.5-0.3-0.6,0.1c-0.1,0.3-0.3,0.4-0.5,0.2c-0.2,0.2-0.4,0.2-0.8,0.1
	c-0.3-0.1-0.5-0.1-0.6,0.2c0.2,0.2,0.4,0.3,0.8,0.3c0.3,0,0.6,0.1,0.8,0.1c-0.1,0.3-0.3,0.4-0.7,0.4c-0.4,0-0.6,0.1-0.8,0.3
	c-0.1,0.1-0.1,0.2,0.1,0.3c0.1,0.1,0.2,0.2,0.2,0.4c-0.7-0.1-1.3,0-1.7,0.2c-0.4,0.2-0.8,0.4-1,0.6c0.5,0.3,0.9,0.3,1.4,0.2
	c0.5-0.1,0.9-0.3,1.4-0.5c-0.4,0.3-0.7,0.5-1,0.6c-0.3,0.1-0.8,0.2-1.3,0.2c0,0.2,0,0.3,0.1,0.2c0.1,0,0.2,0,0.4,0.1
	c-0.2,0.1-0.3,0.3-0.4,0.5c-0.1,0.2-0.3,0.3-0.6,0.3c0.2,0.6,0.8,1.1,1.9,1.5l-0.3,0.1h-0.1v0.1c0,0.6,0.2,0.8,0.7,0.8
	c-0.3,0.2-0.3,0.3,0.1,0.3c0.3,0,0.5,0.1,0.5,0.2c-0.2,0.5-0.6,0.7-1.3,0.7c-0.7,0-1.3,0-1.7,0.1c-0.6,0.2-1.1,0.4-1.7,0.8
	c-0.6,0.3-1.1,0.5-1.7,0.6l0.1,0.3c-1.2,0-2.7,0.2-4.6,0.6c-1.9,0.4-3.4,0.8-4.6,1c-0.1,0-0.2,0-0.2,0.1c0,0.1-0.2,0.2-0.3,0.3
	l-1,0.4c-1.8,0.6-3,0.9-3.5,1.2c-0.5,0.2-0.9,0.4-1.1,0.6c-0.2,0.1-0.6,0.3-1.1,0.6c-0.5,0.2-1.7,0.5-3.5,0.9l-5.3,1.8
	c-1.8,0.6-3.5,1.4-4.9,2.5c-1.4,1.1-3,2.1-4.6,2.9c-1.2,0.2-2.5,0.5-3.9,0.8c-1.4,0.4-2.8,0.6-4.1,0.8c-0.4,0-0.6-0.1-0.6-0.3
	c0-0.2-0.1-0.3-0.4-0.3c-0.8-0.1-1.2-0.3-1-0.6c0.2-0.3,0-0.6-0.6-1.1c-0.2-0.7-0.3-1.4-0.3-1.9c0-0.5-0.1-1-0.3-1.5
	c-0.2-0.6-0.4-0.9-0.7-0.7c-0.3,0.2-0.4,0-0.4-0.6c0-0.5-0.1-0.9-0.4-1.4c-0.3-0.5-0.5-0.9-0.7-1.5c-0.2-0.5-0.3-1.1-0.4-1.7
	c-0.1-0.6,0-1.2,0.4-1.9c0.2-0.7,0.5-1.3,0.8-1.7c0.2-0.2,0.3-0.3,0.3-0.5c0-0.1,0.1-0.3,0.3-0.5l1.9-0.8c-0.4,0-0.7,0-1.1-0.1
	c1.4-3.8,2.7-7.2,4.1-10.2c1.3-3,2.7-5.9,4.1-8.6c1.4-2.7,2.8-5.5,4.2-8.3c1.4-2.8,2.8-5.9,4.2-9.2c2.1-4.9,4.2-9.7,6.4-14.5
	c2.1-4.8,4.4-9.6,6.8-14.4c0.2-0.5,0.4-1,0.6-1.5c0.2-0.6,0.5-1.1,0.8-1.5c0.2-0.1,0.5-0.3,0.8-0.7c0.1-0.2,0.1-0.4,0.1-0.6
	c0-0.2,0.1-0.5,0.3-0.8c0.5-0.5,1-0.9,1.7-1.2c0.6-0.4,1.3-0.6,2.1-0.8c0.2-0.2,0.4-0.3,0.6-0.4c0.2-0.1,0.5-0.2,0.8-0.4
	c0.4-0.5,1-0.6,1.8-0.3c0.5,0.2,0.8,0.5,0.9,0.8c0.1,0.4,0.3,0.7,0.5,1c0.4,0.5,0.7,0.7,1,0.8c0.3,0.1,0.6,0.3,0.8,0.6l1.2,1.7
	c0.5,0.6,1,1.2,1.7,1.8c0.7,0.6,1.2,1.3,1.5,2.1c0.3,0.6,0.5,1.2,0.8,2c0.2,0.8,0.3,1.5,0.3,2.1c-0.4,1.6-1,2.9-1.9,3.9
	c-0.9,1-1.7,2.2-2.2,3.5c-0.7,1.1-1.4,2.2-2.1,3.2c-0.6,1-1.2,2.2-1.7,3.5c-0.9,1.1-1.8,2.4-2.6,3.8c-0.8,1.4-1.5,2.8-2.1,4.2
	c-1,2.4-2.2,4.8-3.5,7.1c-1.3,2.3-2.4,4.7-3.3,7.1c-0.4,0.6-0.7,1.1-0.9,1.7c-0.2,0.6-0.5,1.2-0.8,1.9c-0.2,0.7-0.4,1.2-0.6,1.5
	c-0.2,0.2-0.5,0.6-0.8,1.2c-0.4,1-0.7,1.8-1,2.4c-0.3,0.6-0.6,1.1-0.8,1.6c-0.3,0.5-0.6,1-0.8,1.5c-0.3,0.5-0.6,1.2-1,2.1
	c-0.2,0.9-0.5,1.8-0.8,2.6C102,83.3,101.7,84.2,101.5,85z M96.6,81.5c-0.2,0.1-0.4,0.3-0.6,0.6c-0.2,0.3-0.1,0.5,0.3,0.6
	C96.3,82.2,96.4,81.8,96.6,81.5z M97.4,82.5c-0.3,0-0.4,0-0.3,0.1c0,0,0.1,0.2,0.1,0.3c0.2,0,0.3,0,0.5-0.1
	C97.7,82.8,97.7,82.7,97.4,82.5z M97.9,82.4c0-0.2-0.1-0.3-0.3-0.3c-0.2,0-0.3,0.1-0.2,0.3c0.2,0.1,0.3,0.1,0.2-0.1
	C97.5,82.2,97.7,82.2,97.9,82.4z M102.6,72.3c-0.2-0.1-0.4-0.1-0.6,0.1c-0.2,0.1-0.4,0.1-0.6-0.1c-0.2,0.2-0.2,0.3-0.1,0.5
	c0.1,0.1,0.1,0.3-0.1,0.6v0.1c-0.4,0.6-0.6,1.1-0.8,1.5c-0.2,0.5-0.3,1-0.4,1.7h0.1c-0.3,0.7-0.7,1.5-1.3,2.4
	c-0.6,0.9-1.1,1.8-1.6,2.7c0.2,0,0.3,0,0.3,0.1c0,0.1,0.1,0.1,0.3,0c0.6-0.6,0.9-1,1.1-1.4c0.9-0.2,1.4-0.3,1.5-0.4
	c0-0.2-0.1-0.2-0.3-0.1c-0.2,0.1-0.3,0-0.4-0.1c0.6,0,0.8-0.1,0.8-0.3c0-0.2,0-0.4-0.1-0.6c0-0.1,0-0.3,0.1-0.5
	c0.1-0.2,0.1-0.4,0.1-0.6c0.4-0.5,0.7-0.9,1.1-1.2c0.4-0.4,0.5-0.9,0.4-1.5c-0.3,0-0.4,0.1-0.4,0.2c0,0.1,0,0.3-0.1,0.3
	c-0.1-0.1-0.2-0.1-0.3,0c-0.1,0.1-0.2,0.1-0.4,0c0-0.3,0.1-0.6,0.3-0.9c0.2-0.3,0.4-0.7,0.5-1.2h-0.3c0.5-0.1,0.6-0.3,0.5-0.6
	C102,72.7,102.2,72.5,102.6,72.3z M99.5,81.1c-0.4,0.3-0.6,0.6-0.6,1c0,0.4,0,0.8,0,1.2H99c0-0.5,0.1-0.8,0.3-1.1
	C99.6,82,99.6,81.6,99.5,81.1z M100.6,71.7h-0.4c0,0.3,0,0.4-0.1,0.4C100.4,72.1,100.6,72,100.6,71.7z M103.2,70.3
	c-0.5,0.2-0.8,0.4-0.9,0.8c-0.1,0.3-0.3,0.6-0.6,0.8c0.7,0.3,1.1,0.2,1.2-0.3C102.9,71,103,70.6,103.2,70.3z M102.8,74.4
	c-0.2,0-0.3,0-0.4,0.1c-0.1,0-0.2,0.1-0.4,0.2c0.2,0.2,0.4,0.2,0.6,0.1C102.7,74.6,102.8,74.4,102.8,74.4z M103.3,70.2
	c0.2-0.6,0.4-1.1,0.7-1.5c0.3-0.5,0.6-0.9,0.8-1.4c-0.2,0-0.3,0-0.5,0.1c-0.1,0-0.2,0-0.1-0.2h0.7c0.3-0.5,0.4-0.9,0.5-1.3
	c0-0.4,0.3-0.9,0.8-1.3c-0.2,0-0.3,0.1-0.4,0.3c-0.1,0.2-0.3,0.2-0.6,0.1c0.3-0.6,0.6-1.1,0.9-1.7c0.3-0.6,0.5-1.1,0.6-1.7
	c0.5-0.3,0.8-0.7,1-1.2c0.2-0.5,0.3-0.9,0.2-1.2l-0.1,0.1h-0.3c-0.5,0.7-0.9,1.5-1.2,2.2c-0.4,0.7-0.8,1.5-1.2,2.2
	c0,0.1,0,0.2,0.1,0.2c0,0,0.1,0.1,0.1,0.2h-0.1c0,0.6-0.2,1.1-0.6,1.5c-0.4,0.3-0.5,0.8-0.4,1.5h-0.6c0,0.1,0.1,0.1,0.3,0.1
	c0.2,0,0.3,0.1,0.3,0.3c-0.5,0-0.7,0-0.8,0.1c0,0.1-0.1,0.2-0.1,0.4c-0.4,0.4-0.6,0.7-0.6,1c0,0.3-0.2,0.7-0.3,1.2
	c0.2,0,0.3,0,0.4-0.1C102.9,70.2,103.1,70.2,103.3,70.2z M103.2,72.6c0,0.1,0,0.2-0.1,0.3c-0.1,0.1-0.1,0.2-0.1,0.4
	c0.2,0,0.3-0.1,0.4-0.3C103.4,72.7,103.4,72.6,103.2,72.6z M104.9,70.6c0-0.2,0-0.3-0.1-0.5c-0.1-0.1,0-0.3,0.3-0.6
	c-0.5,0.3-0.8,0.6-1,1c-0.2,0.4-0.5,0.8-0.8,1.2c0.3,0,0.3,0.1,0.2,0.2c-0.1,0.1-0.2,0.3-0.2,0.5c0.5-0.2,0.7-0.5,0.8-0.9
	C104,71.1,104.3,70.8,104.9,70.6z M106,58.9c0.3,0,0.4-0.2,0.4-0.7c-0.2,0-0.3,0-0.4,0.1c-0.1,0.1-0.3,0.2-0.6,0.4
	c0.3,0.2,0.3,0.3,0.2,0.2c-0.1,0-0.2,0-0.2,0.1c-0.1,0.1-0.1,0.2,0,0.4c0.1,0.2,0.1,0.3,0,0.4c0,0.1,0,0.1-0.1,0.1H105
	c-0.5,0.5-0.6,0.9-0.4,1.4c0.3-0.6,0.6-1,0.9-1.4C105.8,59.6,106,59.2,106,58.9z M106.6,59.7c-0.3,0.1-0.4,0.2-0.3,0.2
	c0,0,0,0.2-0.2,0.3C106.5,60.2,106.6,60.1,106.6,59.7z M107.5,56.2c-0.3,0.3-0.5,0.6-0.8,0.9c-0.2,0.3-0.3,0.6-0.1,0.8
	c0.2-0.3,0.4-0.6,0.7-0.8C107.6,56.8,107.7,56.5,107.5,56.2z M107.1,58.9c-0.3,0-0.4,0.1-0.4,0.4C107.3,59.3,107.4,59.1,107.1,58.9z
	 M107.5,54.3c-0.3,0-0.5,0.1-0.6,0.2c-0.1,0.1-0.1,0.3,0,0.3c0.2,0,0.3,0,0.3-0.1C107.2,54.6,107.3,54.5,107.5,54.3z M107.9,57.8
	c-0.3,0-0.4,0.1-0.4,0.3C107.8,57.8,107.9,57.7,107.9,57.8z M108.9,55.5c0.3,0,0.4,0,0.5-0.1c0-0.1,0.1-0.1,0.2-0.1
	c0.1-0.6,0.3-1.2,0.6-1.7c0.3-0.5,0.5-1,0.7-1.5c-0.3,0-0.4-0.1-0.4-0.3c0.2-0.2,0.4-0.5,0.6-1c0.2-0.5,0.2-0.8,0.1-1
	c-0.4,0.7-0.8,1.5-1.2,2.1c-0.4,0.7-0.8,1.4-1,2c0,0.3,0.1,0.4,0.3,0.3c0.2,0,0.3,0,0.3,0.2c-0.6,0-0.8,0.1-0.8,0.3h0.1l0.1,0.1
	c-0.5,0.2-0.7,0.3-0.8,0.5c-0.1,0.1-0.2,0.3-0.3,0.5c0.2,0,0.3,0,0.3-0.1c0-0.1,0.1-0.1,0.4-0.1c-0.3,0.3-0.4,0.5-0.5,0.8
	c0,0.2-0.2,0.5-0.3,0.8c0.6-0.2,0.8-0.5,0.7-0.8C108.2,56,108.4,55.7,108.9,55.5z M109.3,56.8c-0.4,0-0.6,0.1-0.6,0.3
	c0,0.2,0,0.4-0.1,0.6h0.1c0.2-0.2,0.3-0.3,0.4-0.4C109.2,57.1,109.3,57,109.3,56.8z M111.2,55c-0.4,0-0.6,0.1-0.8,0.3
	c-0.1,0.2-0.1,0.4,0.1,0.5C110.9,55.5,111.1,55.3,111.2,55z M111.9,53.2c-0.3,0.1-0.4,0.2-0.5,0.3c0,0.1-0.1,0.2-0.2,0.3l0.1,0.1
	c0-0.2,0.1-0.3,0.3-0.3C111.8,53.5,111.9,53.4,111.9,53.2z M113.2,51.4c-0.1,0-0.1,0-0.1-0.1c-0.5,0.2-0.7,0.3-0.6,0.5
	c0,0.1,0,0.3-0.2,0.6c0.5-0.1,0.7-0.2,0.7-0.4C112.9,51.8,113,51.6,113.2,51.4z M112.5,53.1c-0.2,0-0.3,0-0.2,0.1
	c0,0.1,0,0.2-0.1,0.3c0.3,0,0.4,0,0.3-0.1C112.4,53.2,112.4,53.1,112.5,53.1z M113.8,49.9c0.9-0.9,1.5-1.9,1.8-3h-0.8
	c-0.1,0.3-0.1,0.6-0.1,0.8c0,0.3-0.2,0.5-0.6,0.7c0,0.2,0.1,0.2,0.3,0.1c0.2-0.1,0.3,0,0.3,0.1c-0.5,0.2-0.7,0.4-0.8,0.7
	c0,0.3-0.3,0.6-0.6,1h0.6V49.9z M116.2,45.7c-0.8,0.2-1.2,0.5-1.1,1C115.8,46.5,116.2,46.2,116.2,45.7z M152.8,85
	c1.8-0.2,3.6-0.5,5.4-1c1.8-0.5,3.6-0.9,5.5-1.3c2-0.4,3.5-0.6,4.6-0.8c1-0.2,1.9-0.3,2.7-0.5c0.8-0.1,1.7-0.3,2.7-0.4
	c1-0.1,2.6-0.3,4.8-0.6c0.5-0.1,1-0.2,1.6-0.3c0.6-0.1,1.2-0.1,1.7-0.1c0.4,0,0.8,0,1.2,0.1c0.5,0.1,1,0.2,1.5,0.3
	c0.1,0,0.2,0,0.3-0.1c0.1,0,0.3,0,0.6,0.1c0.6,0.2,0.9,0.4,0.9,0.6c0,0.2,0.1,0.7,0.3,1.3c-0.3-0.3-0.5-0.3-0.6,0.1
	c-0.1,0.3-0.3,0.4-0.5,0.2c-0.2,0.2-0.4,0.2-0.8,0.1c-0.3-0.1-0.5-0.1-0.6,0.2c0.2,0.2,0.4,0.3,0.8,0.3c0.3,0,0.6,0.1,0.8,0.1
	c-0.1,0.3-0.3,0.4-0.7,0.4c-0.4,0-0.6,0.1-0.8,0.3c-0.1,0.1-0.1,0.2,0.1,0.3c0.1,0.1,0.2,0.2,0.2,0.4c-0.7-0.1-1.3,0-1.7,0.2
	c-0.4,0.2-0.8,0.4-1,0.6c0.5,0.3,0.9,0.3,1.4,0.2c0.5-0.1,0.9-0.3,1.4-0.5c-0.4,0.3-0.7,0.5-1,0.6c-0.3,0.1-0.8,0.2-1.3,0.2
	c0,0.2,0,0.3,0.1,0.2c0.1,0,0.2,0,0.4,0.1c-0.2,0.1-0.3,0.3-0.4,0.5c-0.1,0.2-0.3,0.3-0.6,0.3c0.2,0.6,0.8,1.1,1.9,1.5l-0.3,0.1
	h-0.1v0.1c0,0.6,0.2,0.8,0.7,0.8c-0.3,0.2-0.3,0.3,0.1,0.3c0.3,0,0.5,0.1,0.5,0.2c-0.2,0.5-0.6,0.7-1.3,0.7c-0.7,0-1.3,0-1.7,0.1
	c-0.6,0.2-1.1,0.4-1.7,0.8c-0.6,0.3-1.1,0.5-1.7,0.6l0.1,0.3c-1.2,0-2.7,0.2-4.6,0.6c-1.9,0.4-3.4,0.8-4.6,1c-0.1,0-0.2,0-0.2,0.1
	c0,0.1-0.2,0.2-0.3,0.3l-1,0.4c-1.8,0.6-3,0.9-3.5,1.2c-0.5,0.2-0.9,0.4-1.1,0.6c-0.2,0.1-0.6,0.3-1.1,0.6c-0.5,0.2-1.7,0.5-3.5,0.9
	l-5.3,1.8c-1.8,0.6-3.5,1.4-4.9,2.5c-1.4,1.1-3,2.1-4.6,2.9c-1.2,0.2-2.5,0.5-3.9,0.8c-1.4,0.4-2.8,0.6-4.1,0.8
	c-0.4,0-0.6-0.1-0.6-0.3c0-0.2-0.1-0.3-0.4-0.3c-0.8-0.1-1.2-0.3-1-0.6c0.2-0.3,0-0.6-0.6-1.1c-0.2-0.7-0.3-1.4-0.3-1.9
	c0-0.5-0.1-1-0.3-1.5c-0.2-0.6-0.4-0.9-0.7-0.7c-0.3,0.2-0.4,0-0.4-0.6c0-0.5-0.1-0.9-0.4-1.4c-0.3-0.5-0.5-0.9-0.7-1.5
	c-0.2-0.5-0.3-1.1-0.4-1.7c-0.1-0.6,0-1.2,0.4-1.9c0.2-0.7,0.5-1.3,0.8-1.7c0.2-0.2,0.3-0.3,0.3-0.5c0-0.1,0.1-0.3,0.3-0.5l1.9-0.8
	c-0.4,0-0.7,0-1.1-0.1c1.4-3.8,2.7-7.2,4.1-10.2c1.3-3,2.7-5.9,4.1-8.6c1.4-2.7,2.8-5.5,4.2-8.3c1.4-2.8,2.8-5.9,4.2-9.2
	c2.1-4.9,4.2-9.7,6.4-14.5c2.1-4.8,4.4-9.6,6.8-14.4c0.2-0.5,0.4-1,0.6-1.5c0.2-0.6,0.5-1.1,0.8-1.5c0.2-0.1,0.5-0.3,0.8-0.7
	c0.1-0.2,0.1-0.4,0.1-0.6c0-0.2,0.1-0.5,0.3-0.8c0.5-0.5,1-0.9,1.7-1.2c0.6-0.4,1.3-0.6,2.1-0.8c0.2-0.2,0.4-0.3,0.6-0.4
	c0.2-0.1,0.5-0.2,0.8-0.4c0.4-0.5,1-0.6,1.8-0.3c0.5,0.2,0.8,0.5,0.9,0.8c0.1,0.4,0.3,0.7,0.5,1c0.4,0.5,0.7,0.7,1,0.8
	c0.3,0.1,0.6,0.3,0.8,0.6l1.2,1.7c0.5,0.6,1,1.2,1.7,1.8c0.7,0.6,1.2,1.3,1.5,2.1c0.3,0.6,0.5,1.2,0.8,2c0.2,0.8,0.3,1.5,0.3,2.1
	c-0.4,1.6-1,2.9-1.9,3.9c-0.9,1-1.7,2.2-2.2,3.5c-0.7,1.1-1.4,2.2-2.1,3.2c-0.6,1-1.2,2.2-1.7,3.5c-0.9,1.1-1.8,2.4-2.6,3.8
	c-0.8,1.4-1.5,2.8-2.1,4.2c-1,2.4-2.2,4.8-3.5,7.1c-1.3,2.3-2.4,4.7-3.3,7.1c-0.4,0.6-0.7,1.1-0.9,1.7c-0.2,0.6-0.5,1.2-0.8,1.9
	c-0.2,0.7-0.4,1.2-0.6,1.5c-0.2,0.2-0.5,0.6-0.8,1.2c-0.4,1-0.7,1.8-1,2.4c-0.3,0.6-0.6,1.1-0.8,1.6c-0.3,0.5-0.6,1-0.8,1.5
	c-0.3,0.5-0.6,1.2-1,2.1c-0.2,0.9-0.5,1.8-0.8,2.6C153.3,83.3,153,84.2,152.8,85z M147.9,81.5c-0.2,0.1-0.4,0.3-0.6,0.6
	c-0.2,0.3-0.1,0.5,0.3,0.6C147.6,82.2,147.7,81.8,147.9,81.5z M148.7,82.5c-0.3,0-0.4,0-0.3,0.1c0,0,0.1,0.2,0.1,0.3
	c0.2,0,0.3,0,0.5-0.1C149,82.8,149,82.7,148.7,82.5z M149.2,82.4c0-0.2-0.1-0.3-0.3-0.3c-0.2,0-0.3,0.1-0.2,0.3
	c0.2,0.1,0.3,0.1,0.2-0.1C148.9,82.2,149,82.2,149.2,82.4z M154,72.3c-0.2-0.1-0.4-0.1-0.6,0.1c-0.2,0.1-0.4,0.1-0.6-0.1
	c-0.2,0.2-0.2,0.3-0.1,0.5c0.1,0.1,0.1,0.3-0.1,0.6v0.1c-0.4,0.6-0.6,1.1-0.8,1.5c-0.2,0.5-0.3,1-0.4,1.7h0.1
	c-0.3,0.7-0.7,1.5-1.3,2.4c-0.6,0.9-1.1,1.8-1.6,2.7c0.2,0,0.3,0,0.3,0.1c0,0.1,0.1,0.1,0.3,0c0.6-0.6,0.9-1,1.1-1.4
	c0.9-0.2,1.4-0.3,1.5-0.4c0-0.2-0.1-0.2-0.3-0.1c-0.2,0.1-0.3,0-0.4-0.1c0.6,0,0.8-0.1,0.8-0.3c0-0.2,0-0.4-0.1-0.6
	c0-0.1,0-0.3,0.1-0.5c0.1-0.2,0.1-0.4,0.1-0.6c0.4-0.5,0.7-0.9,1.1-1.2c0.4-0.4,0.5-0.9,0.4-1.5c-0.3,0-0.4,0.1-0.4,0.2
	c0,0.1,0,0.3-0.1,0.3c-0.1-0.1-0.2-0.1-0.3,0c-0.1,0.1-0.2,0.1-0.4,0c0-0.3,0.1-0.6,0.3-0.9c0.2-0.3,0.4-0.7,0.5-1.2H153
	c0.5-0.1,0.6-0.3,0.5-0.6C153.3,72.7,153.5,72.5,154,72.3z M150.8,81.1c-0.4,0.3-0.6,0.6-0.6,1c0,0.4,0,0.8,0,1.2h0.1
	c0-0.5,0.1-0.8,0.3-1.1C150.9,82,151,81.6,150.8,81.1z M151.9,71.7h-0.4c0,0.3,0,0.4-0.1,0.4C151.7,72.1,151.9,72,151.9,71.7z
	 M154.5,70.3c-0.5,0.2-0.8,0.4-0.9,0.8c-0.1,0.3-0.3,0.6-0.6,0.8c0.7,0.3,1.1,0.2,1.2-0.3C154.2,71,154.3,70.6,154.5,70.3z
	 M154.1,74.4c-0.2,0-0.3,0-0.4,0.1c-0.1,0-0.2,0.1-0.4,0.2c0.2,0.2,0.4,0.2,0.6,0.1C154,74.6,154.1,74.4,154.1,74.4z M154.6,70.2
	c0.2-0.6,0.4-1.1,0.7-1.5c0.3-0.5,0.6-0.9,0.8-1.4c-0.2,0-0.3,0-0.5,0.1c-0.1,0-0.2,0-0.1-0.2h0.7c0.3-0.5,0.4-0.9,0.5-1.3
	c0-0.4,0.3-0.9,0.8-1.3c-0.2,0-0.3,0.1-0.4,0.3c-0.1,0.2-0.3,0.2-0.6,0.1c0.3-0.6,0.6-1.1,0.9-1.7c0.3-0.6,0.5-1.1,0.6-1.7
	c0.5-0.3,0.8-0.7,1-1.2c0.2-0.5,0.3-0.9,0.2-1.2l-0.1,0.1h-0.3c-0.5,0.7-0.9,1.5-1.2,2.2c-0.4,0.7-0.8,1.5-1.2,2.2
	c0,0.1,0,0.2,0.1,0.2c0,0,0.1,0.1,0.1,0.2h-0.1c0,0.6-0.2,1.1-0.6,1.5c-0.4,0.3-0.5,0.8-0.4,1.5h-0.6c0,0.1,0.1,0.1,0.3,0.1
	c0.2,0,0.3,0.1,0.3,0.3c-0.5,0-0.7,0-0.8,0.1c0,0.1-0.1,0.2-0.1,0.4c-0.4,0.4-0.6,0.7-0.6,1c0,0.3-0.2,0.7-0.3,1.2
	c0.2,0,0.3,0,0.4-0.1C154.2,70.2,154.4,70.2,154.6,70.2z M154.5,72.6c0,0.1,0,0.2-0.1,0.3c-0.1,0.1-0.1,0.2-0.1,0.4
	c0.2,0,0.3-0.1,0.4-0.3C154.7,72.7,154.7,72.6,154.5,72.6z M156.2,70.6c0-0.2,0-0.3-0.1-0.5c-0.1-0.1,0-0.3,0.3-0.6
	c-0.5,0.3-0.8,0.6-1,1c-0.2,0.4-0.5,0.8-0.8,1.2c0.3,0,0.3,0.1,0.2,0.2c-0.1,0.1-0.2,0.3-0.2,0.5c0.5-0.2,0.7-0.5,0.8-0.9
	C155.3,71.1,155.6,70.8,156.2,70.6z M157.3,58.9c0.3,0,0.4-0.2,0.4-0.7c-0.2,0-0.3,0-0.4,0.1c-0.1,0.1-0.3,0.2-0.6,0.4
	c0.3,0.2,0.3,0.3,0.2,0.2c-0.1,0-0.2,0-0.2,0.1c-0.1,0.1-0.1,0.2,0,0.4c0.1,0.2,0.1,0.3,0,0.4c0,0.1,0,0.1-0.1,0.1h-0.3
	c-0.5,0.5-0.6,0.9-0.4,1.4c0.3-0.6,0.6-1,0.9-1.4C157.1,59.6,157.3,59.2,157.3,58.9z M158,59.7c-0.3,0.1-0.4,0.2-0.3,0.2
	c0,0,0,0.2-0.2,0.3C157.8,60.2,158,60.1,158,59.7z M158.8,56.2c-0.3,0.3-0.5,0.6-0.8,0.9c-0.2,0.3-0.3,0.6-0.1,0.8
	c0.2-0.3,0.4-0.6,0.7-0.8C158.9,56.8,159,56.5,158.8,56.2z M158.4,58.9c-0.3,0-0.4,0.1-0.4,0.4C158.6,59.3,158.7,59.1,158.4,58.9z
	 M158.8,54.3c-0.3,0-0.5,0.1-0.6,0.2c-0.1,0.1-0.1,0.3,0,0.3c0.2,0,0.3,0,0.3-0.1C158.5,54.6,158.6,54.5,158.8,54.3z M159.2,57.8
	c-0.3,0-0.4,0.1-0.4,0.3C159.1,57.8,159.2,57.7,159.2,57.8z M160.2,55.5c0.3,0,0.4,0,0.5-0.1c0-0.1,0.1-0.1,0.2-0.1
	c0.1-0.6,0.3-1.2,0.6-1.7c0.3-0.5,0.5-1,0.7-1.5c-0.3,0-0.4-0.1-0.4-0.3c0.2-0.2,0.4-0.5,0.6-1c0.2-0.5,0.2-0.8,0.1-1
	c-0.4,0.7-0.8,1.5-1.2,2.1c-0.4,0.7-0.8,1.4-1,2c0,0.3,0.1,0.4,0.3,0.3c0.2,0,0.3,0,0.3,0.2c-0.6,0-0.8,0.1-0.8,0.3h0.1l0.1,0.1
	c-0.5,0.2-0.7,0.3-0.8,0.5c-0.1,0.1-0.2,0.3-0.3,0.5c0.2,0,0.3,0,0.3-0.1c0-0.1,0.1-0.1,0.4-0.1c-0.3,0.3-0.4,0.5-0.5,0.8
	c0,0.2-0.2,0.5-0.3,0.8c0.6-0.2,0.8-0.5,0.7-0.8C159.5,56,159.7,55.7,160.2,55.5z M160.6,56.8c-0.4,0-0.6,0.1-0.6,0.3
	c0,0.2,0,0.4-0.1,0.6h0.1c0.2-0.2,0.3-0.3,0.4-0.4C160.5,57.1,160.6,57,160.6,56.8z M162.5,55c-0.4,0-0.6,0.1-0.8,0.3
	c-0.1,0.2-0.1,0.4,0.1,0.5C162.2,55.5,162.4,55.3,162.5,55z M163.2,53.2c-0.3,0.1-0.4,0.2-0.5,0.3c0,0.1-0.1,0.2-0.2,0.3l0.1,0.1
	c0-0.2,0.1-0.3,0.3-0.3C163.1,53.5,163.2,53.4,163.2,53.2z M164.5,51.4c-0.1,0-0.1,0-0.1-0.1c-0.5,0.2-0.7,0.3-0.6,0.5
	c0,0.1,0,0.3-0.2,0.6c0.5-0.1,0.7-0.2,0.7-0.4C164.2,51.8,164.3,51.6,164.5,51.4z M163.8,53.1c-0.2,0-0.3,0-0.2,0.1
	c0,0.1,0,0.2-0.1,0.3c0.3,0,0.4,0,0.3-0.1C163.7,53.2,163.7,53.1,163.8,53.1z M165.2,49.9c0.9-0.9,1.5-1.9,1.8-3h-0.8
	c-0.1,0.3-0.1,0.6-0.1,0.8c0,0.3-0.2,0.5-0.6,0.7c0,0.2,0.1,0.2,0.3,0.1c0.2-0.1,0.3,0,0.3,0.1c-0.5,0.2-0.7,0.4-0.8,0.7
	c0,0.3-0.3,0.6-0.6,1h0.6V49.9z M167.5,45.7c-0.8,0.2-1.2,0.5-1.1,1C167.1,46.5,167.5,46.2,167.5,45.7z M201.3,24.1
	c0.5,0.3,0.7,0.6,0.7,1.1h0.4c-0.1,0.4-0.1,0.6,0,0.6c0.1,0,0.2,0.1,0.4,0.3c0,0.1,0,0.2,0.1,0.2c0,0,0,0.2-0.1,0.3
	c2.4,2.5,4.4,5,6.1,7.5c1.7,2.5,3.4,5.2,5.3,8c0.2,1.2,0.6,2.2,1.4,3c0.7,0.8,1.2,1.8,1.4,2.8c0,0.4,0,0.7,0,1
	c0,0.3,0.1,0.5,0.4,0.7c0,0.4,0.1,0.6,0.2,0.8c0.1,0.2,0.3,0.4,0.5,0.6c0.1-0.2,0-0.4-0.1-0.6c-0.2-0.2-0.2-0.4-0.1-0.7
	c0.2,0.2,0.3,0.3,0.3,0.5s0,0.3,0.1,0.5c1.2-1.5,2.3-3,3.3-4.6c1-1.6,2.1-3.1,3.4-4.6c0.8-1.6,1.8-3,2.9-4.4c1.1-1.4,2.1-2.8,3-4.3
	c0.5-0.5,0.8-0.9,1.1-1.5c0.3-0.5,0.6-1,1-1.5c0.1-0.3,0.3-0.4,0.6-0.4c0.5-0.8,1-1.7,1.7-2.5c0.6-0.8,1.3-1.7,2.1-2.5
	c0.5-0.7,0.9-1.6,1.4-2.5c0.5-0.9,0.9-1.8,1.4-2.5c0-0.6,0.1-0.9,0.4-1.2c0.3-0.2,0.4-0.6,0.4-1.2c0.3-0.2,0.6-0.4,0.9-0.6
	c0.3-0.2,0.7-0.5,1-0.8c0.6-0.5,1.3-0.8,1.9-1.1c0.6-0.1,1.1,0,1.5,0.3c0.3,0.3,0.7,0.6,1.2,1.1c0.2,0.4,0.4,0.6,0.7,0.8
	c0.3,0.1,0.5,0.3,0.7,0.5c0.5,0.6,0.9,1.5,1.5,2.7c0.5,1.2,0.9,2.1,1.3,3c0,0.3,0.1,0.7,0.3,1.2c0,0.2,0.1,0.5,0.4,0.8
	c0.2,0.9,0.4,1.7,0.6,2.4c0.2,0.6,0.2,1.3,0.1,2.1c-0.3,1-0.7,1.8-1.2,2.5c-0.6,0.6-1.1,1.2-1.7,1.8c-0.4,0.6-0.8,1.1-1.2,1.6
	c-0.5,0.5-0.9,1-1.4,1.6c-0.2,0.2-0.3,0.4-0.5,0.6c-0.1,0.2-0.3,0.4-0.6,0.6c-0.5,0.7-1,1.4-1.7,2.1c-0.6,0.6-1.2,1.5-1.8,2.5
	c-0.6,0.4-1.1,0.9-1.4,1.5c-0.3,0.6-0.7,1.2-1.4,1.7c0.1,0.2,0.1,0.3-0.1,0.3s-0.2,0.1-0.2,0.3c-2.2,3.2-4.4,6.5-6.4,9.8
	c-2.1,3.3-4.3,6.4-6.7,9.3c0,0.2,0,0.3-0.1,0.3c-0.1,0-0.1,0.2,0,0.3c-1,1.3-1.6,2.1-1.8,2.3c-0.2,0.2-0.3,0.4-0.3,0.4
	c0,0-0.2,0.2-0.4,0.4c-0.2,0.2-0.8,1-1.7,2.3c-0.3,0.6-0.6,1.2-1,1.8s-0.9,1.1-1.3,1.5c-0.2,0-0.3,0-0.3,0.1c0,0.1-0.1,0.1-0.3,0.1
	l-0.3,0.3c-0.7,0.1-1.2,0.5-1.2,1.1c0,0.6-0.2,1-0.6,1.2c-0.4,0.3-0.6,0.6-0.8,1.1c0,0.2,0,0.4,0.1,0.6l-1,0.8
	c-0.5,1.4-1.1,2.6-1.9,3.7c-0.8,1.1-1.5,2.2-2.1,3.4c0,0.3,0,0.4,0.1,0.4c-0.2,0.1-0.3,0.3-0.3,0.5c0,0.2,0,0.5-0.1,0.8
	c-0.2-0.1-0.3-0.1-0.2,0c0,0.1,0,0.1-0.1,0.1c-0.2,0-0.3,0.2-0.3,0.6c-0.7,0.9-1.2,2-1.5,3.2l-0.4,0.3c-0.3,0.6-0.6,1.2-0.9,1.7
	c-0.3,0.5-0.6,1-0.8,1.7c-0.6,0.7-1.1,1.5-1.4,2.4c-0.3,0.9-0.8,1.5-1.5,2c-0.2,0.2-0.2,0.3-0.1,0.4c-0.2-0.2-0.3-0.3-0.3-0.5
	c0-0.1-0.2-0.3-0.3-0.3c-0.2,0.1-0.3,0.2-0.4,0.3c-0.1,0.1-0.2,0.3-0.4,0.3c0.5-0.7,0.9-1.8,1.4-3.3c-0.6,0.7-1,1.6-1.5,2.6
	c-0.4,1-1.1,1.7-2,2.1c0-0.3,0.1-0.5,0.2-0.6c0.1-0.1,0.2-0.4,0.2-0.8c-0.4,0.4-0.7,0.9-1,1.6c-0.3,0.7-0.5,1.4-0.7,2.1
	c-0.4,0.1-0.6,0.3-0.6,0.5c0,0.2-0.2,0.5-0.3,0.8c-0.2-0.3-0.2-0.5-0.1-0.8c0.1-0.2,0.2-0.5,0.3-0.9c-0.3,0.1-0.4,0.4-0.4,1
	c-0.2,0-0.3,0.2-0.4,0.6c-0.1,0.4-0.3,0.6-0.7,0.7c0-0.3,0-0.6,0.1-0.8c0.1-0.3,0-0.6-0.1-0.8c0.1-0.3,0.2-0.5,0.4-0.6
	c0.2-0.1,0.2-0.2,0-0.4c-0.1,0.1-0.2,0.3-0.3,0.5c-0.1,0.2-0.2,0.3-0.4,0.1c0.1,0.6-0.1,1-0.6,1.4c-0.2,0-0.3,0-0.2-0.1
	c0-0.1,0-0.1-0.2,0c-0.4,0.4-0.6,0.8-0.8,1.3c-0.1,0.5-0.4,0.8-0.9,0.9c-0.2,0.1-0.3,0.2-0.2,0.4c0,0.2,0,0.3-0.2,0.3
	c-0.2,0-0.3-0.1-0.3-0.3c0-0.2-0.1-0.4-0.3-0.5c-0.6,0.4-1.1,0.4-1.6,0.2c-0.5-0.2-1-0.4-1.5-0.6c-0.6-1.4-0.6-2.7-0.1-3.9
	c0.5-1.2,0.9-2.3,1.3-3.3c0.1-0.2,0.1-0.4,0.1-0.6c1.5-3.5,3.1-6.8,4.8-10c1.7-3.1,3.3-6.3,4.6-9.5c0.2,0.1,0.3,0,0.3-0.1
	c0-0.2,0.1-0.2,0.3-0.1c0.2-0.6,0.4-0.9,0.6-1.1c0.2-0.6,0.4-1.2,0.8-1.6c0.3-0.4,0.6-0.9,0.9-1.5c1.2-2.1,2.1-3.7,2.6-4.6
	c0.5-1,0.9-1.8,1.3-2.6c0.4-0.8,0.8-1.6,1.3-2.6c0.5-0.9,1.4-2.4,2.7-4.6c-0.7-0.9-1.5-1.8-2.4-2.6c-0.9-0.8-1.7-1.8-2.4-2.8
	c-0.8-1-1.6-2.1-2.3-3.1c-0.7-1.1-1.4-2.1-2.1-3.1c-2.4-3.6-4.9-7.1-7.5-10.5c-2.6-3.4-4.8-7.1-6.6-11.1c-0.2-0.2-0.3-0.4-0.4-0.8
	c-0.1-0.3-0.3-0.7-0.6-1c-0.1-0.2-0.2-0.4-0.3-0.6c-0.1-0.2-0.2-0.4-0.2-0.6c-0.1-0.1-0.1-0.3,0.1-0.6c0.1-0.3,0.3-0.6,0.6-0.9
	c0.2-0.3,0.4-0.6,0.6-0.8c0.2-0.2,0.3-0.4,0.3-0.5c0-0.2,0-0.3-0.1-0.5c0-0.1-0.1-0.3-0.1-0.5c0-0.5,0.2-0.8,0.6-1.1
	c0.4,0.1,0.9,0.1,1.5-0.1c0.6-0.1,1.3-0.3,2.1-0.6c0.7-0.2,1.4-0.4,2.1-0.6c0.6-0.1,1.2-0.2,1.7-0.2c0,0.2,0.1,0.3,0.2,0.2
	c0.1,0,0.1,0-0.1,0.1c0.7,0,1.5,0.2,2.4,0.6c0.8,0.4,1.5,0.9,1.9,1.3c-0.1,0.3-0.2,0.4-0.4,0.3c-0.2,0-0.4-0.1-0.6-0.1v0.4
	c0-0.3-0.1-0.4-0.4-0.4c-0.3,0.4-0.2,0.6,0.3,0.6c0.5,0,0.8,0.3,0.8,0.8c0.2,0,0.2,0,0.1-0.1c-0.1-0.1-0.1-0.2,0.1-0.3
	c0.2,0.1,0.3,0.3,0.5,0.6c0.1,0.3,0.1,0.6-0.1,0.8c0,0.3,0.2,0.4,0.6,0.4l0.1-0.1c0,0.3,0,0.5-0.1,0.6c0.2,0,0.3,0.1,0.5,0.2
	s0.3,0.2,0.6,0.2c-0.1-0.2-0.2-0.4-0.3-0.6C201.6,24.7,201.4,24.4,201.3,24.1z M200.1,93.3c0.4-0.6,0.7-1.3,0.9-1.9
	c0.2-0.6,0.5-1.2,0.8-1.9c0.6-1.2,1.3-2.3,2.1-3.4c0.7-1.1,1.3-2.2,1.8-3.5c-0.4,0.2-0.6,0.5-0.7,0.9c-0.1,0.4-0.4,0.7-0.8,0.9
	c-0.2,0.8-0.5,1.5-0.9,2.1c-0.4,0.6-0.7,1.2-0.9,1.9c-0.5,0.5-0.8,1-1,1.5c-0.2,0.6-0.6,1.1-1.1,1.5c0,0.5,0,0.7-0.1,0.8
	c-0.1,0.1-0.2,0.3-0.4,0.6c-0.1-0.2-0.2-0.2-0.2-0.1c0,0.1-0.2,0.2-0.3,0.2l-0.1,0.1v0.4c0.2-0.1,0.4-0.2,0.6-0.3
	C199.8,93.1,200,93.1,200.1,93.3z M200.1,100.2l-1.1,2.1c0.5-0.3,0.7-0.6,0.8-0.9C200,101.1,200.1,100.7,200.1,100.2z M199.9,98.1
	c0.1,0.1,0.2,0.1,0.3,0v-0.3c0.3-0.1,0.4-0.3,0.3-0.6c0-0.3-0.1-0.6-0.1-0.8c0.2-0.2,0.3-0.4,0.5-0.6c0.1-0.2,0.3-0.3,0.6-0.3
	c-0.1-0.2,0.1-0.5,0.6-1c0-0.2,0-0.4-0.1-0.6c0-0.2,0.1-0.4,0.3-0.6c0,0.2,0,0.3-0.1,0.4c-0.1,0.1,0,0.2,0.1,0.4
	c0.3-0.2,0.3-0.4,0.2-0.8c-0.1-0.3-0.1-0.6,0.2-0.8c0,0.2,0,0.3-0.1,0.3c0,0-0.1,0.1-0.1,0.3c0.5-0.2,0.8-0.5,1-0.8
	c0.2-0.4,0.5-0.7,0.8-1c-0.5,0.8-0.9,1.7-1.3,2.6c-0.4,0.9-0.9,1.7-1.5,2.4c0,0.4-0.2,0.6-0.6,0.6c0,0.4-0.1,0.6-0.3,0.8
	c-0.2,0.2-0.2,0.5,0,0.8c-0.1,0.2-0.2,0.3-0.3,0.4c-0.1,0.1-0.1,0.2,0.1,0.4c0.4-0.2,0.6-0.4,0.7-0.7c0.1-0.3,0.2-0.6,0.3-0.8
	c0.2-0.5,0.4-0.8,0.6-1.1c0.2-0.3,0.3-0.6,0.4-1.1c1.4-1.8,2.5-3.9,3.5-6.5c0.2-0.1,0.3-0.2,0.3-0.3c0-0.1,0.1-0.2,0.3-0.3
	c-0.1-0.5,0-0.7,0.3-0.7c0.2-0.7,0.5-1.3,0.9-1.7c0.4-0.4,0.5-1,0.3-1.9c0.2-0.1,0.3-0.2,0.5-0.3c0.1-0.1,0.3-0.3,0.3-0.6
	c0.3-0.3,0.4-0.6,0.3-1.1c-0.2,0-0.4,0.1-0.7,0.3c-0.3,0.2-0.5,0.4-0.7,0.5c0-0.3,0.1-0.6,0.4-0.9c0.3-0.3,0.2-0.6-0.3-0.9
	c-1.3,2.7-2.7,5.3-4.1,8c-1.5,2.6-2.9,5.3-4.1,8.1c0,0.3-0.1,0.5-0.3,0.8c-0.2,0.2-0.2,0.5-0.1,0.8c0.2,0,0.3-0.1,0.4-0.3
	C199.7,98.5,199.8,98.3,199.9,98.1z M203,96.5c-0.2,0.5-0.4,0.9-0.7,1.4c-0.3,0.5-0.5,0.9-0.7,1.4C202.5,98.3,203,97.4,203,96.5z
	 M204.3,81.8c-0.1-0.2-0.1-0.3,0.1-0.4c0.1-0.1,0.2-0.2,0.2-0.4c-0.8,0.5-1.2,1.2-1.2,2.1c0.2-0.2,0.3-0.4,0.3-0.6
	C203.7,82.2,203.9,82,204.3,81.8z M205.1,95.7c0.3-0.2,0.6-0.6,0.9-1.2c0.3-0.6,0.4-1.1,0.2-1.5c0,0.2-0.1,0.3-0.3,0.4
	c-0.2,0.1-0.2,0.3,0,0.6c-0.2-0.2-0.3-0.1-0.3,0.1c-0.2,0.7-0.5,1.4-1,1.9c-0.5,0.6-0.7,1.2-0.8,1.9c0.2-0.4,0.4-0.7,0.6-1.1
	C204.7,96.5,204.9,96.1,205.1,95.7z M205.5,91.4c-0.2,0.7-0.5,1.4-0.8,1.9c-0.4,0.6-0.6,1.1-0.7,1.7c0.3-0.6,0.6-1.1,1-1.6
	C205.5,92.9,205.6,92.2,205.5,91.4z M204.8,98c-0.2,0.3-0.4,0.6-0.6,0.8c-0.2,0.3-0.2,0.6-0.1,0.8c0.2-0.2,0.4-0.4,0.6-0.7
	C204.9,98.7,204.9,98.4,204.8,98z M211.2,83.5c0.1,0.3,0.1,0.4,0,0.4c0.3-0.6,0.6-1.1,1-1.5c0.4-0.5,0.7-1.1,0.9-1.8l0.3,0.3
	c0.6-0.6,0.9-1.2,1-1.8c-0.2,0-0.3,0-0.2-0.1c0-0.1,0-0.1-0.2-0.1c-0.5,0.5-0.9,1.1-1.2,1.8c-0.4,0.7-0.8,1.4-1.2,1.9
	c-0.1-0.3-0.2-0.3-0.3-0.2c-0.1,0.1-0.2,0.1-0.4-0.2c-0.3,0.7-0.6,1.4-1.1,1.9c-0.5,0.6-0.9,1.2-1.4,1.9c-0.3,0.4-0.4,0.9-0.4,1.7
	l-0.4,0.3c-0.4,0.6-0.7,1.3-1,1.9c-0.3,0.6-0.5,1.3-0.6,2c0.9-1.4,1.8-2.8,2.6-4.1C209.3,86.3,210.2,84.9,211.2,83.5z M208.2,91.1
	c-0.2,0.2-0.3,0.4-0.4,0.6c-0.1,0.2-0.2,0.5-0.3,0.8c0.2-0.1,0.4-0.3,0.8-0.6c0.3-0.3,0.3-0.7-0.1-1.2c0.1,0,0.1,0,0.1-0.1
	c0-0.1,0.1-0.2,0.3-0.3c0.2,0.2,0.2,0.3,0.1,0.3c0.3-0.6,0.6-1.2,1-1.8s0.8-1.2,1-1.9c-0.5,0.2-0.8,0.5-0.9,1c-0.1,0.5-0.5,0.9-1,1
	v0.4c-0.4-0.2-0.5-0.3-0.4-0.3c-0.3,0.7-0.7,1.4-1.2,2c-0.5,0.6-0.8,1.3-0.8,2c0.4-0.3,0.6-0.6,0.8-1.1
	C207.5,91.5,207.8,91.2,208.2,91.1z M209,79.5c-0.2,0.4-0.4,0.8-0.6,1.4c-0.2,0.6-0.1,0.9,0.3,1.1c0.2-0.2,0.3-0.7,0.3-1.7
	c0.3-0.5,0.6-0.9,0.8-1.3c0.3-0.4,0.5-0.9,0.7-1.3c0.2-0.2,0.3-0.3,0.5-0.3c0.1,0,0.2-0.2,0.2-0.5c-0.4,0.4-0.8,0.8-1.2,1.2
	C209.6,78.6,209.3,79,209,79.5z M322.7,64.4l-2.4,0.3c-0.6,0.1-1.2,0.3-1.7,0.6c-0.5,0.3-0.9,0.4-1.4,0.4c-0.4,0-0.6,0-0.8,0.1
	c-0.1,0-0.3,0.1-0.5,0.1c-0.8,0.2-1.6,0.5-2.4,1c-0.2,0-0.3,0-0.4,0c-0.1,0-0.2-0.1-0.4-0.3l-0.8,0.3c-1.2,0.1-2.1,0.4-2.6,1
	c-0.7-0.3-1.3-0.3-1.7-0.1c-0.4,0.2-0.7,0.4-1,0.6c-0.2,0.2-0.3,0.3-0.4,0.2c-0.1,0-0.1,0-0.1,0.2c-0.2,0-0.3,0-0.5,0.1
	c-0.1,0-0.4,0.1-0.8,0.1c-0.2-0.1-0.5,0-1,0.4c-0.2,0.2-0.4,0.3-0.6,0.3c-0.1,0-0.2,0-0.2,0.1c0,0-0.1,0.1-0.2,0.1h-0.3
	c0.1-0.1,0,0.1-0.2,0.6c-0.2,0.5-0.4,0.9-0.6,1.4l-0.6,0.4l-1.1,1.9c-0.3,0.3-0.4,0.6-0.4,1l-1,1.1l-1.4,4.1l-1.4,3.2
	c-0.2,0.5-0.4,0.9-0.7,1.5c-0.3,0.5-0.5,1.1-0.7,1.9c-0.2,0.2-0.4,0.6-0.7,1.2c-0.3,0.6-0.5,1.2-0.8,1.9c-0.2,0.7-0.4,1.3-0.6,1.9
	c-0.2,0.6-0.3,1-0.4,1.3c-0.4,0.3-0.7,0.6-0.9,1.1c-0.2,0.5-0.4,0.9-0.6,1.2l-0.1,1.4l-2.4,3.6l-0.4,1.7l-0.6,1.5l-1.2,1.2
	c-0.1,0.1-0.2,0.3-0.3,0.5c-0.1,0.2-0.3,0.7-0.6,1.5c0,0.4-0.2,0.5-0.6,0.4l-0.8,1.2c-0.5,1.2-0.9,2.3-1.3,3.4
	c-0.4,1.1-0.9,2.5-1.6,4.4c-0.7-1.2-1.1-1.9-1-2.2c0.1-0.3,0.2-0.6,0.3-1c0.2-0.3,0.3-0.9,0.3-1.8h-0.3l-0.6,1.7
	c-0.2,0.3-0.4,0.6-0.6,1c-0.2,0.4-0.3,0.8-0.4,1.4l-1.1,0.1c-0.1-0.2-0.2-0.3-0.2-0.4c0-0.1-0.1-0.3-0.1-0.6c-0.2,0-0.3,0.2-0.3,0.6
	c-0.2,0.5-0.4,0.7-0.7,0.8c-1.6,0-2.6-0.2-3.2-0.7h-0.1c0,0.2-0.1,0.3-0.4,0.3c-0.3,0-0.5,0.1-0.6,0.1c0,0.2-0.1,0.4-0.3,0.6
	c-0.1,0.1-0.1,0.3,0,0.7c-0.5,0.6-0.8,0.9-1,0.9c-0.2,0-0.8-0.2-1.7-0.3h-1c-0.9,0-1.7,0-2.3-0.1c-0.6,0-1-0.6-1.2-1.6
	c-0.5-1.1-0.6-2.4-0.5-4c0.1-1.6,0.4-3,0.8-4.3c0.3-1.3,0.6-2.7,1-4.1c0.4-1.5,1-3,1.9-4.4c0.7-2,1.5-4,2.4-6c0.9-2,1.5-3.7,1.7-5
	c0.7-1.5,1.3-3,1.7-4.6c0.4-1.6,1-3.2,1.9-4.6c0.7-1.9,1.8-4.3,3.2-7.2c1.4-2.9,2.9-5.9,4.4-9.3c1.3-2.9,2.7-5.6,4.2-8.2
	c1.5-2.6,3-5.3,4.5-8l7.5-12.7l-0.3-0.6c-0.5-0.2-1-0.6-1.6-1.2c-0.6-0.6-0.8-0.7-0.6-0.1c-0.4-0.3-0.7-0.7-1-1.2
	c-0.3-0.5-0.6-1-1.1-1.5c0.1,0.2-0.5-0.1-1.7-0.8c-0.4-1-1-1.7-1.9-2.1c-1.2-0.6-2-1.5-2.5-2.6c0.3-0.2,0.5-0.6,0.6-1.2
	c0.1-0.6,0.3-1.1,0.5-1.6c0.9-1.3,1.9-2.3,2.8-3.1c1-0.8,2.4-1.4,4.2-1.7c1.5-0.2,3-0.6,4.6-1.2c1.6-0.6,3.2-1.1,4.8-1.6
	c0.8-0.3,1.9-0.6,3.2-0.9c1.3-0.3,2.6-0.7,3.9-1.2l0.8-1c-0.1,0.1-0.1,0.1-0.1,0c0-0.1,0.2-0.2,0.3-0.4l1.1-1.4l1.2-1
	c0.3-0.1,0.6-0.1,0.9-0.1c0.3,0,0.7-0.4,1-1.1c0.6,0.3,1.1,0.3,1.4,0l1,0.4l2.5,1.4l9.3-2.2c1.8-0.5,3.7-0.9,5.7-1.4
	c1.9-0.5,3.9-0.9,5.8-1.2c2.6-0.5,4.3-0.8,5-0.9c0.8-0.1,1.5-0.2,2.1-0.1c0.5,0,1.2,0,2.1-0.1c0.9,0,2.7-0.3,5.3-0.8l3.5-0.1
	c1.4-0.2,2.9-0.3,4.5-0.3c1.6,0,3,0,4.2,0.2c0.6,0.1,1.2,0.1,1.6,0.1c0.4,0,0.7-0.1,1-0.1c0.2,0,0.4,0.1,0.6,0.2
	c0.2,0.1,0.4,0.4,0.7,0.9c0.4,0.7,0.5,1.2,0.4,1.3c-0.1,0.1-0.4,0.2-0.8,0.2c-0.5,0-0.6,0-0.4,0.1c0.2,0,0.4,0.3,0.6,0.8
	c-0.3,0.2-0.5,0.3-0.6,0.3c-0.1,0-0.3,0.1-0.5,0.3c-0.2,0.1-0.3,0.2-0.4,0.3c-0.1,0.1-0.2,0.1-0.3,0.1c0.4,0.4,0.4,1,0.1,1.8
	c-0.2,0.6,0,1.2,0.7,1.7c-0.2,0.4-0.3,0.6-0.3,0.8c0,0.1-0.1,0.3-0.1,0.5c0,0.2,0,0.3-0.1,0.5c0,0.1-0.3,0.3-0.8,0.3
	c-0.1,0-0.2,0-0.2,0.1c0,0.1-0.2,0-0.3-0.1c-0.7,0.4-1.4,0.9-1.9,1.5c-0.6,0.6-1.2,1.2-1.9,1.7c-0.1,0.1-0.1,0.2-0.1,0.3
	c0,0.1,0.3,0.4,0.8,0.8c-1.5,0.3-2.1,0.9-1.9,1.8c-1.2,0.2-2.4,0.5-3.5,0.8c-1.2,0.4-2.3,0.7-3.4,1c-1.8,0.5-3.6,0.9-5.4,1.2
	c-1.8,0.3-3.9,0.7-6.5,1.2c-0.9,0.2-1.9,0.5-2.9,0.8c-1,0.4-2,0.7-3,1.1c-1.4,0.6-2.6,1-3.5,1.2c-1,0.3-1.9,0.6-2.9,0.9
	c-1,0.3-2.1,0.8-3.3,1.3c-1.2,0.6-2.9,1.3-4.9,2.2c0,0.2,0,0.3-0.1,0.3c-0.1,0-0.2,0.2-0.3,0.3c-0.1,0.2-0.3,0.3-0.6,0.5
	c-0.3,0.1-0.4,0.3-0.4,0.5c-0.6,0.6-0.9,1.2-1.2,1.5c-0.2,0.4-0.4,0.9-0.6,1.5c-0.3,0.9-0.8,1.7-1.5,2.2c-0.2,0.7-0.5,1.4-1,2.1
	c-0.5,0.6-0.8,1.2-1,1.7c-0.2,0.7-0.5,1.4-1,1.9c-0.5,0.6-0.7,1.2-0.8,2.1c-0.3,0.2-0.4,0.3-0.4,0.4c-0.1,0.4-0.4,0.6-0.8,0.7
	c-0.3,0.9-0.6,1.8-1,2.7c-0.4,0.9-0.9,1.7-1.3,2.6c-0.6,0.6-1.2,1.3-1.7,1.9c-0.5,0.6-0.9,1.3-1,1.9c0.4-0.5,0.4-0.5,0.2-0.1
	c-0.2,0.4-0.5,0.9-0.9,1.3c1.1-0.2,2.3-0.4,3.5-0.8c1.2-0.3,2.4-0.6,3.7-0.8c1.5-0.4,3-0.7,4.4-0.9c1.5-0.2,3-0.4,4.6-0.6l8.7-1.5
	c0.8,0,1.6,0.1,2.4,0.2c0.8,0.1,1.3,0.7,1.6,1.6v-0.1c0.1,0.1,0.1,0.3,0.1,0.6c0.2,0,0.3,0,0.5-0.1c0.1,0,0.3-0.1,0.5-0.1
	c0.4-0.1,0.6-0.1,0.7-0.1c0.1,0,0.1,0.1,0.1,0.2c0,0.1,0,0.2,0.1,0.3c0.1,0.1,0.3,0.3,0.7,0.3c0.4,0.5,0.6,0.9,0.6,1.3
	s-0.5,0.7-1.5,0.8l-0.4,0.6l1,0.6c-0.3,0.3-0.6,0.4-1,0.4c0.2,0.2,0.3,0.2,0.4,0.1c0.1-0.1,0.3-0.1,0.6-0.1c0.4,0,0.7,0.1,0.9,0.2
	c0.2,0.1,0.4,0.6,0.6,1.3h-1.1l-0.6,0.4c0.1,0.1,0.3,0.1,0.6,0.1c0.3,0.5,0.4,0.7,0.3,0.7c-0.7,0.8-1.7,1.4-2.8,1.7
	c-1.1,0.3-2,0.4-2.6,0.3c-0.1,0-0.2,0-0.3,0.1c-0.1,0-0.2,0.1-0.3,0.1c-0.4,0-0.6,0-0.7,0.1c-2.1,0.3-4.3,0.7-6.6,1.4
	c-2.3,0.6-4.4,1.2-6.3,1.8c-0.2,0.2-0.6,0.3-1.4,0.3V64.4z M296.8,30.9l0.3,0.1C297,31.1,296.9,31,296.8,30.9c0,0,0,0-0.1,0H296.8z
	 M420.2,41.7v0.4c0,0.1,0,0.2-0.1,0.3c0,0.1,0,0.3,0.1,0.5l-2.2,2.4l-0.8,0.7c-1.1,0.5-1.7,0.9-1.7,1.2l-1,0.4
	c-0.5,0-0.8,0.2-1.1,0.7l-1.8,0.7l-0.6,0.3l-1.1,0.3c0,0.2-0.2,0.3-0.5,0.4c-0.3,0.1-0.6,0.1-0.9,0.1l-1,0.3h-0.3
	c-0.4,0.4-0.6,0.6-0.8,0.6c-0.1,0-0.3,0.1-0.5,0.1c-0.3,0-0.5,0.1-0.7,0.3v0.1c-0.1,0.2-0.3,0.3-0.6,0.3l-0.6,0.3l-0.1,0.1
	c-0.3,0.3-0.8,0.5-1.7,0.6c-0.1,0.1-0.2,0.1-0.2,0.1c0,0-0.1,0-0.2,0.1l-0.3,0.3l-1,0.7l-1.2,0.6c-0.4,0.2-0.8,0.3-1.2,0.4
	c-0.5,0.1-0.6,0.1-0.4,0.1c-0.4,0-0.6,0-0.7,0.1c-0.1,0.1-0.2,0.2-0.3,0.3l-1.4,0.8l-0.4,0.6v-0.1l-0.4,0.6v0.1h0.1
	c0.3-0.3,0.5-0.4,0.7-0.4v0.4l-0.3,0.1c0,0.2-0.1,0.3-0.4,0.3c-0.3,0-0.4,0.2-0.4,0.7c-0.4,0.1-0.6,0.2-0.6,0.3V59
	c-0.1,0.1-0.4,0.1-0.8,0.1c0,0.2,0,0.3-0.1,0.3c0,0-0.1,0-0.1,0.1v0.1c0,0.2,0,0.3,0.1,0.4c0,0.1,0.1,0.3,0.1,0.6
	c0,0.1,0,0.3,0.1,0.8c0,0.4,0.1,0.9,0.1,1.5c0,0.6,0.1,1.1,0.2,1.6c0.1,0.5,0.2,0.8,0.3,0.9c0.2,1.3,0.5,3.1,0.8,5.4
	c0.4,2.3,0.7,4.7,1,7.1c0.3,2.4,0.6,4.5,0.9,6.4c0.3,1.9,0.4,3.1,0.4,3.5h-0.4c0.2,0.6,0.3,0.9,0.3,0.7c0-0.2,0.1,0.1,0.2,0.8
	c0,0.1,0,0.2,0.1,0.3c0,0.1,0.1,0.2,0.1,0.3c0.1,0.3,0.2,0.6,0.3,1c0.1,0.4,0,0.8-0.1,1.2l-0.6,0.3c-0.1-0.1-0.1-0.2-0.1-0.3
	c0,0.3,0,0.5-0.1,0.6c0,0.1-0.1,0.3-0.1,0.3h-0.4c0-0.6,0-1.1-0.1-1.2c0-0.2-0.1-0.4-0.2-0.6c0.3,0.9,0.3,2.2,0,3.7v0.7
	c0,0.2-0.1,0.4-0.2,0.6c-0.1,0.2-0.2,0.4-0.2,0.6c-0.2-0.1-0.3-0.1-0.3,0c0,0.1-0.1,0.1-0.3,0.1h-0.1l-0.1,0.1c-0.1,0-0.1,0-0.1,0.1
	c0,0,0,0.1-0.1,0.1v0.8h-0.3c-0.1,0.5-0.1,0.7-0.1,0.8c0,0.1,0.1,0.2,0.1,0.3v1.2c0,0.2-0.3,0.3-0.8,0.4c-0.6,0.1-0.8,0.1-0.7,0.1
	c-0.5,0-0.7,0-0.8-0.1c-0.1,0-0.5-0.2-1.2-0.3c-0.7-0.1-1.4-0.2-2.1-0.3c-0.6-0.1-1.2-0.4-1.5-0.9l-1.4-2.4
	c-0.2-0.5-0.4-0.9-0.8-1.2c-0.3-0.3-0.5-0.7-0.5-1c-0.1-0.6-0.2-1.2-0.3-1.6c-0.1-0.4-0.3-0.8-0.4-1.2c-0.1-0.4-0.3-0.8-0.4-1.2
	c-0.1-0.5-0.3-1.2-0.3-2.1c0-0.2,0-0.3-0.1-0.5c0-0.1-0.1-0.3-0.1-0.5l-0.7-4.6c0-0.2,0-0.4-0.1-0.6c0-0.2-0.1-0.5-0.1-0.9
	c0-0.1-0.1-0.7-0.4-1.7c-0.3-1.1-0.6-2.2-0.8-3.5c-0.3-1.2-0.5-2.4-0.8-3.5c-0.2-1.1-0.3-1.6-0.3-1.7l-0.1-2.8l-2.5-6.8l-0.1,0.3
	c-0.2,0.2-0.3,0.3-0.3,0.2c0,0-0.2,0-0.3,0.2l-0.1-0.3l0.1-0.4l-0.8,1h-0.3l-2.8,0.3c-0.1-0.1-0.2-0.2-0.2-0.3c0-0.1-0.2,0-0.3,0.3
	c-0.2,0-0.3-0.1-0.2-0.3c0-0.2-0.1-0.1-0.3,0.1l-0.3,0.1v0.3h0.3c-0.2,0.2-0.4,0.4-0.6,0.6c-0.2,0.2-0.4,0.3-0.6,0.3l-0.4,0.7
	c0.4-0.4,1.1-0.7,2.2-1l-0.3,0.4l-1.5,1.1l-1.5,0.8c-0.1,0.7-0.5,1.2-1.1,1.4l-2.1,4.4c-0.3,0.6-0.6,1.3-1,2c-0.4,0.7-0.8,1.7-1.2,3
	c-0.8,1.3-1.5,2.6-2,4c-0.5,1.4-1.1,3-1.9,4.7h-0.8c-0.2,0.6-0.3,1.5-0.5,2.5c-0.1,1-0.3,1.6-0.3,1.7c-0.2,0.2-0.3,0.3-0.4,0.5
	c-0.1,0.1-0.2,0.4-0.4,0.9c-0.4,0-0.7,0.1-1,0.4c-0.3,0-0.4,0.1-0.5,0.4c0,0.3-0.1,0.5-0.2,0.7c0,0.1,0,0.2-0.1,0.2
	c-0.1,0-0.1,0.1-0.1,0.2c0.2,0.2,0.3,0.4,0.2,0.6c0,0.2-0.1,0.5-0.2,0.8v0.6h-0.4c-0.2-0.4-0.3-0.6-0.3-0.8l-0.3,0.7
	c-0.3,0.4-0.6,0.8-0.8,1.2c-0.3,0.4-0.5,1-0.7,1.7l-0.8,0.7c-0.2,0.2-0.3,0.3-0.4,0.4c-0.1,0.1-0.1,0.4-0.1,0.8
	c-0.2,0.1-0.3,0-0.3-0.2c0-0.2-0.1-0.4-0.1-0.6c0-0.1,0-0.1,0.1-0.1c0,0,0.1,0,0.1-0.1c-0.2,0-0.3,0-0.3,0.1c0,0-0.1,0.1-0.2,0.1
	l-0.1,0.1c-0.1,0.1-0.2,0.2-0.3,0.2c-0.1,0-0.4,0.1-0.9,0.1l-0.1,0.1h-0.7c-0.2,0.2-0.2,0,0-0.4c0.2-0.5,0.1-0.6-0.1-0.4
	c-0.3,0.5-0.5,0.8-0.7,1.1c-0.2,0.3-0.5,0.5-1,0.6h-0.6c-0.1,0-0.2,0-0.3-0.1c-0.4,0-0.8,0-1.4,0s-1.1,0-1.7-0.1
	c-0.6,0-1.1-0.1-1.6-0.2c-0.5-0.1-0.7-0.2-0.8-0.4L339,97c0-0.5,0-0.8,0.1-1c0.1-0.2,0.1-0.4,0.1-0.6v-0.7c0.5-1.2,0.9-2.3,1.2-3.3
	c0.4-1,0.7-2,1-3c0.3-1,0.6-2.1,1-3.3c0.3-1.2,0.8-2.6,1.3-4.1c0.7-2.1,1.4-4.2,2-6.3c0.6-2.1,1.5-4.3,2.7-6.7
	c-0.1-0.2-0.1-0.4-0.1-0.8c0-0.3-0.1-0.5-0.5-0.5c0.5-0.6,0.6-0.9,0.3-0.9c-0.3,0-0.3-0.2,0-0.3l2.2-1.1c1.1-2.6,2.3-5.1,3.5-7.6
	c1.2-2.5,2.5-4.9,3.8-7.3c1-1.8,2.1-4.1,3.4-6.6c1.2-2.6,2.3-4.9,3.2-6.9l-0.7,0.6l-1.7,0.4c-0.5,0.4-1,0.8-1.7,1.2
	c-0.6,0.4-1.2,0.7-1.7,0.9h-1c-0.5-0.2-0.9-0.5-1.2-0.9c-0.3-0.4-0.7-0.8-1-1.2l-1.1-0.4l-0.4-0.8l-0.6-0.1c-0.1,0-0.2,0-0.2-0.1
	c0,0-0.3-0.2-0.6-0.3h-2.6l-0.3-0.6v-0.8l-0.3-0.1c-0.4-0.5-0.7-1.3-1.1-2.5c0.1-0.7,0.4-1.4,1-1.9l0.7-1.2c0.6-0.1,1-0.3,1.4-0.5
	c0.4-0.2,0.7-0.4,1.1-0.6c0.6-0.1,1.4-0.3,2.3-0.5c0.9-0.2,1.6-0.6,2.1-1c0.7-0.2,1.4-0.3,1.9-0.3c0.6,0,1.1-0.2,1.5-0.3
	c0.6-0.2,1.5-0.4,2.5-0.6c1-0.2,2.2-0.5,3.6-1c1.2-0.5,2.6-0.8,4.4-1.1c1.7-0.3,3.3-0.6,4.9-0.8c0.6-0.1,1.3-0.2,1.9-0.3
	c0.6-0.1,1.2-0.2,1.9-0.4c3.5-0.7,7.4-1.2,11.5-1.5c4.2-0.2,8.5-0.3,12.8-0.3h2.2c4.1,0.2,7.9,0.8,11.6,1.9c3.7,1.1,6.5,3.1,8.3,6.1
	c0,0.1,0,0.2,0.1,0.2c0,0,0,0.2-0.1,0.3c0.1,0.2,0.2,0.4,0.3,0.8c0.1,0.3,0,0.7-0.1,1h0.3c0.2,0.3,0.2,0.5,0.1,0.8
	c-0.1,0.2-0.2,0.4-0.4,0.6c-0.1,0.1-0.1,0.2-0.1,0.4c0,0.1,0,0.2-0.1,0.3l0.6,2.1c0.1,0.1,0.1,0.3,0.1,0.7c0.2,1,0.1,2.1-0.2,3.1
	c-0.3,1.1-0.9,1.8-1.6,2.3c-0.4,0.7-0.6,1.1-0.8,1.1v0.3l-0.7,1c-0.2,0-0.3,0-0.4-0.1c-0.1,0-0.2-0.1-0.4-0.1
	c-0.4,0.2-0.8,0.3-1.2,0.3l-0.1-0.3v0.4H420.2z M350.2,99.3v-0.1v-0.3V99.3z M358.1,85.7l0.3-0.4C358.3,85.3,358.2,85.4,358.1,85.7z
	 M391.8,45.9c0.5-0.3,0.9-0.5,1.5-0.6c0.5-0.1,1-0.4,1.5-0.8c0.5-0.2,1-0.4,1.5-0.6c0.6-0.2,1.1-0.4,1.5-0.6c2.7-1,4.9-2.1,6.7-3.1
	c1.8-1.1,3.8-2.4,6.2-3.9l0.8-0.7c1.9-1.4,2.9-2.4,2.9-2.9c0-0.7-0.7-1.2-2-1.5c-1.3-0.3-2.9-0.4-4.8-0.4c-0.6,0-1.3,0-1.9,0
	c-0.6,0-1.2,0-1.9,0.1c-1.8,0.1-3.6,0.3-5.6,0.5c-2,0.2-3.9,0.5-5.7,0.8l-2.9,0.6l-1.1,0.3c-0.9,0.2-1.8,0.3-2.6,0.4
	c-0.8,0.1-1.5,0.4-2.1,0.8c0.5,1,0.6,1.8,0.5,2.5c-0.1,0.6-0.4,1.3-0.9,1.9c-0.5,0.9-0.9,1.7-1.4,2.4c-0.5,0.7-0.8,1.3-1,1.9
	c-0.2,0.9-0.6,1.7-1.2,2.4l-1.8,2.6l-0.8,1.2c-0.2,0.5-0.5,1.1-0.8,1.9c-0.4,0.8-0.7,1.5-1.1,1.9c2.7-1.3,5.4-2.5,8.3-3.7
	C386.4,48,389.2,46.9,391.8,45.9z M393.9,58.9c-0.1,0-0.2,0-0.2,0.1c0,0-0.1,0.1-0.2,0.1L393.9,58.9z M421.7,40.3
	c-0.3,0.2-0.4,0.4-0.4,0.7l0.7-0.7H421.7z M407.2,96.5c-0.6-0.1-1-0.4-1.2-0.8c-0.1-0.5-0.2-0.9-0.1-1.5c0.1-0.5,0.2-1,0.4-1.6
	c0.2-0.6,0.3-1.1,0.4-1.5c0.4-1,0.7-2,1-3c0.3-1,0.7-2,1.2-3c0.1-0.6,0.3-1.1,0.5-1.5c0.2-0.5,0.4-1,0.6-1.5
	c1.3-3.9,2.7-7.6,4.3-11.2c1.6-3.6,3.2-7,5-10.2c0.1-0.3,0.2-0.5,0.3-0.7c0.1-0.2,0.2-0.4,0.4-0.6c0.3-0.6,0.5-1.2,0.8-1.8
	c0.2-0.6,0.6-1.2,1-1.8c1.8-3.3,3.8-6.6,5.8-9.9c2-3.3,4.1-6.6,6.1-9.9c1-1.8,2-3.5,3-5.3c1-1.8,2-3.5,3-5.4c0.2-1.2,0.6-2.2,1.4-3
	c0.7-0.8,1.5-1.7,2.4-2.6c0.5,0,0.9-0.1,1.2-0.3c0.3-0.2,0.7-0.3,1-0.2c0.2,0,0.5,0.1,0.8,0.3c0.4,0.2,0.6,0.4,0.8,0.6
	c0.6,0.5,1.3,1.1,1.9,1.9c0.6,0.8,1.2,1.5,1.8,2.1c5-0.9,9.8-1.9,14.6-2.8c4.7-1,9.9-1.5,15.4-1.6c0.7-0.1,1.5-0.1,2.3-0.1
	c0.8,0,1.6,0.1,2.4,0.2c0.4,0.4,0.6,0.6,0.8,0.6c0.1,0,0.3,0.3,0.6,0.8c-0.5,0.4-0.7,0.7-0.8,0.9c0,0.2,0,0.7,0.2,1.5
	c-0.5,0-0.7,0.1-0.8,0.4c0,0.3-0.1,0.6-0.1,1c-0.2,0.1-0.4,0.1-0.6,0.1c-0.2,0-0.3,0-0.4,0.2c-0.2,0.5-0.3,1-0.3,1.7
	c0,0.6-0.3,1.2-0.8,1.7c0.2,0.6,0.1,1-0.1,1.2c-0.3,0.1-0.5,0.4-0.7,0.9c-0.3,0.1-0.5,0.2-0.6,0.3c-0.1,0.1-0.3,0.2-0.7,0.2
	c-1.2,0.9-2.5,1.5-3.8,1.9c-1.3,0.3-2.8,0.6-4.4,0.8c-0.4,0.1-0.7,0.2-1,0.3c-0.3,0.1-0.7,0.2-1.2,0.2H470c-0.6,0.1-1.1,0.2-1.7,0.3
	c-0.6,0.1-1.1,0.2-1.7,0.4c-1.5,0.3-2.9,0.6-4.1,0.9c-1.3,0.3-2.6,0.7-3.9,1.2c-0.6,0.2-1.1,0.3-1.5,0.5c-0.5,0.1-1,0.3-1.5,0.5
	c-1.1,0.4-2.3,0.6-3.5,0.8c-1.2,0.2-1.9,0.8-2.2,1.9c-0.2,0.1-0.3,0.2-0.3,0.3c0,0.1-0.2,0.2-0.3,0.2c-0.7,2-1.9,3.9-3.4,5.7
	c-1.5,1.8-2.8,3.5-3.8,5.3c3.1-0.7,6.4-1.4,9.9-1.9c3.5-0.6,7-1.1,10.7-1.5c1.8-0.2,3.7-0.3,5.6-0.5c1.9-0.1,3.8,0,5.6,0.5
	c0,0.4,0.1,0.6,0.2,0.7c0.1,0.1,0.2,0.2,0.2,0.4c-0.2,0.2-0.3,0.2-0.5,0.1c-0.1-0.1-0.3-0.1-0.5-0.1c-0.5,0.2-0.9,0.4-1.2,0.7
	c-0.3,0.3-0.7,0.5-1,0.7c-0.2,0-0.3,0-0.3,0.1c0,0.1-0.1,0.2-0.3,0.3h-0.3h-0.1c-0.3,0.2-0.6,0.5-0.9,0.8c-0.3,0.4-0.4,0.7-0.3,1.1
	c0.6,0,1.2,0,1.7,0c0.5,0,1-0.1,1.6-0.3c-0.1,0.2-0.4,0.3-0.8,0.3v1.9c-0.3,0.1-0.6,0.2-1,0.2c-0.4,0-0.5,0.2-0.4,0.5
	c-0.3,0.2-0.6,0.3-1,0.3c-0.4,0-0.7,0-1,0.1c0,0.3,0.1,0.5,0.3,0.6c0.2,0.1,0.3,0.3,0.3,0.6c-0.7,0.3-1.5,0.5-2.4,0.6
	c-0.8,0.1-1.6,0.4-2.4,0.8c0,0.2,0,0.3,0.1,0.3c0,0,0,0.2-0.1,0.3c-0.7-0.1-1.5,0-2.4,0.1c-0.9,0.2-1.8,0.4-2.7,0.6
	c-2.6,0.3-4.5,0.9-5.8,1.8c-1.1,0.5-2.2,0.9-3.3,1.3c-1.1,0.4-2.3,0.8-3.6,1c-0.9,0.2-1.8,0.4-2.6,0.6c-0.8,0.2-1.6,0.4-2.4,0.5
	c-0.7,0-1.5,0-2.1,0s-1.5,0-2.4-0.1c-0.5,0-0.9,0-1.2,0c-0.3,0-0.7,0.1-1.2,0.3c-0.7,0.9-1.4,1.9-1.9,2.8c-0.5,1-1,2-1.6,3
	c-0.5,0.7-0.9,1.5-1.2,2.3c-0.4,0.8-0.7,1.5-1,2.3c-0.6,1.3-1.1,2.6-1.5,3.9c-0.5,1.3-1,2.7-1.5,4.1c-0.2,0.5-0.1,0.8,0.1,1
	c0.3,0.2,0.3,0.6,0,1.1c0.9-0.2,1.6-0.3,1.9-0.2c0.4,0,1-0.1,1.8-0.3l2.6-0.8l6.8-2.5c0.2,0,0.4-0.1,0.6-0.3
	c2.2-0.6,4.5-1.4,6.9-2.2c2.4-0.8,4.8-1.7,7.3-2.5c1.5-0.5,3-0.9,4.4-1.5c1.5-0.5,3-1,4.6-1.5c0.7-0.2,1.3-0.3,1.6-0.4
	c0.3-0.1,0.9-0.2,1.9-0.4l5.4-0.8c0.6-0.1,1.4-0.1,2.3-0.1c0.9,0,1.3,0.5,1.2,1.4c0,0.2-0.1,0.3-0.3,0.4c-0.2,0.1-0.2,0.3,0,0.6
	c-0.5,0-0.7,0-0.8,0.1c0.1,0.2,0.3,0.2,0.5,0.1c0.2-0.1,0.4-0.1,0.5,0.1c0.1,0.2,0.1,0.3-0.1,0.3c-0.1,0-0.3,0-0.5,0.1h0.8
	c-0.1,0.2-0.2,0.3-0.4,0.3c-0.2,0-0.4,0.1-0.6,0.3c-0.1-0.2-0.5-0.3-1.2-0.3c0,0.5,0.1,0.7,0.4,0.7c0.3,0,0.5-0.1,0.7-0.3
	c0.4,0.4,0.8,0.5,1.2,0.3c0.3,0,0.3,0,0.1,0.1c-0.2,0-0.2,0.1,0,0.2h0.7c0.1,0.3,0.1,0.5,0,0.6c-0.1,0.1-0.1,0.3-0.1,0.5
	c-0.6,0.1-1.1,0.3-1.5,0.8c-0.3,0.4-0.9,0.6-1.6,0.6c0,0.2,0.1,0.3,0.3,0.5c0.2,0.1,0.4,0.2,0.7,0.1c-0.1,0.1-0.2,0.2-0.3,0.2
	c-0.1,0-0.3,0.2-0.3,0.3c0,0.2,0.1,0.2,0.3,0.1c0.2-0.1,0.3,0,0.3,0.1c-0.6,0-1.2,0.1-1.5,0.4c0.2,0.3,0.5,0.3,1,0.2
	c0.5-0.1,0.8-0.1,1,0.1c-0.2,0.3-0.5,0.4-0.8,0.5c-0.4,0-0.7,0.1-1.1,0.2c-0.7,0.2-1.4,0.4-2.1,0.6c-0.6,0.2-1.2,0.4-1.7,0.6
	c-1.3,0.4-2.2,0.7-2.8,0.9c-0.6,0.2-1.3,0.6-2.4,1c0.2,0.1,0.4,0.1,0.7-0.1c0.3-0.1,0.6-0.2,0.8-0.1c-0.2,0.2-0.4,0.3-0.8,0.3
	c-0.3,0-0.6,0-0.9,0.1c-0.2-0.1-0.2-0.1-0.1-0.1c0.1,0,0,0-0.1,0c-0.9,0.1-1.8,0.3-2.6,0.7c-0.8,0.4-1.6,0.7-2.4,1.1
	c0.5,0.2,0.9,0.1,1.2-0.2c0.4-0.3,0.8-0.4,1.4-0.3c0.2,0,0.2,0,0.1,0s-0.2,0-0.2,0.1c0.3,0.1,0.5,0.1,0.8,0c0.2-0.1,0.5-0.1,0.9-0.1
	c-0.6,0.5-1.2,0.8-1.9,1c-0.7,0.2-1.4,0.4-2.1,0.6c0,0.2,0.1,0.2,0.3,0.1c0.2-0.1,0.3-0.1,0.3,0c-0.2,0.2-0.5,0.3-0.8,0.2
	c-0.4,0-0.6,0-0.8,0.1c-0.7,0.2-1.6,0.4-2.5,0.8c-0.9,0.3-1.8,0.6-2.6,0.9c-0.4,0.2-0.7,0.3-1,0.5c-0.3,0.1-0.6,0.3-0.8,0.5l1.1-0.3
	c0.2-0.1,0.4-0.2,0.6-0.3c0.2-0.1,0.3-0.2,0.4-0.1c-0.2,0.2-0.5,0.4-1,0.6c-0.5,0.2-0.8,0.3-1,0.4c-0.2,0-0.3,0-0.3-0.1
	c0-0.1,0-0.1-0.1-0.1c-0.5,0.5-1.1,0.7-1.8,0.7c-0.7,0-1.3,0.3-1.8,0.8c-0.5,0-0.9,0.1-1.3,0.4c-0.4,0.3-0.9,0.6-1.3,0.8
	c-0.9,0.2-1.8,0.5-2.6,0.8c-0.8,0.4-1.6,0.8-2.4,1.2c-0.3,0.2-0.6,0.4-1,0.6c-0.4,0.2-0.9,0.4-1.3,0.6l-3.5,1.5
	c-0.6,0.2-1.3,0.3-1.9,0.5c-0.6,0.1-1.2,0.3-1.9,0.6c-0.9,0.4-1.8,0.8-2.7,1.2c-0.9,0.4-1.8,0.8-2.7,1.2c-1,0.3-2.1,0.5-3.3,0.6
	c-1.2,0.1-2.3-0.1-3.3-0.6c-0.3-0.1-0.5-0.2-0.8-0.4c-0.2-0.2-0.5-0.3-0.9-0.3c-0.5-0.2-1-0.3-1.6-0.3s-1-0.3-1.2-0.8
	C409.6,100.4,407.7,99,407.2,96.5z M453.7,89.4c0,0.2,0.1,0.2,0.2,0.1c0.1-0.1,0.3-0.2,0.3-0.3c-0.1,0-0.2,0-0.2,0.1
	C454,89.4,453.9,89.4,453.7,89.4z M454.8,88.9c0.2-0.2,0.4-0.3,0.7-0.3c0.3,0,0.5-0.2,0.6-0.3c-0.3-0.1-0.6-0.1-0.9,0.1
	C454.8,88.4,454.7,88.6,454.8,88.9z M454.9,89.2c0.2-0.1,0.4-0.2,0.7-0.2c0.3,0,0.4-0.2,0.4-0.3c-0.2,0.2-0.4,0.3-0.6,0.3
	C455.2,88.9,455,89,454.9,89.2z M459.5,87.8c0.2,0,0.4-0.1,0.6-0.4c-0.1,0.1-0.2,0.1-0.3,0.1C459.7,87.5,459.6,87.6,459.5,87.8z
	 M471.8,96.5c-0.6-0.1-1-0.4-1.2-0.8c-0.1-0.5-0.2-0.9-0.1-1.5c0.1-0.5,0.2-1,0.4-1.6c0.2-0.6,0.3-1.1,0.4-1.5c0.4-1,0.7-2,1-3
	c0.3-1,0.7-2,1.2-3c0.1-0.6,0.3-1.1,0.5-1.5c0.2-0.5,0.4-1,0.6-1.5c1.3-3.9,2.7-7.6,4.3-11.2c1.6-3.6,3.2-7,5-10.2
	c0.1-0.3,0.2-0.5,0.3-0.7c0.1-0.2,0.2-0.4,0.4-0.6c0.3-0.6,0.5-1.2,0.8-1.8c0.2-0.6,0.6-1.2,1-1.8c1.8-3.3,3.8-6.6,5.8-9.9
	c2-3.3,4.1-6.6,6.1-9.9c1-1.8,2-3.5,3-5.3c1-1.8,2-3.5,3-5.4c0.2-1.2,0.6-2.2,1.4-3c0.7-0.8,1.5-1.7,2.4-2.6c0.5,0,0.9-0.1,1.2-0.3
	c0.3-0.2,0.7-0.3,1-0.2c0.2,0,0.5,0.1,0.8,0.3c0.4,0.2,0.6,0.4,0.8,0.6c0.6,0.5,1.3,1.1,1.9,1.9c0.6,0.8,1.2,1.5,1.8,2.1
	c5-0.9,9.8-1.9,14.6-2.8c4.7-1,9.9-1.5,15.4-1.6c0.7-0.1,1.5-0.1,2.3-0.1c0.8,0,1.6,0.1,2.4,0.2c0.4,0.4,0.6,0.6,0.8,0.6
	c0.1,0,0.3,0.3,0.6,0.8c-0.5,0.4-0.7,0.7-0.8,0.9c0,0.2,0,0.7,0.2,1.5c-0.5,0-0.7,0.1-0.8,0.4c0,0.3-0.1,0.6-0.1,1
	c-0.2,0.1-0.4,0.1-0.6,0.1c-0.2,0-0.3,0-0.4,0.2c-0.2,0.5-0.3,1-0.3,1.7c0,0.6-0.3,1.2-0.8,1.7c0.2,0.6,0.1,1-0.1,1.2
	c-0.3,0.1-0.5,0.4-0.7,0.9c-0.3,0.1-0.5,0.2-0.6,0.3c-0.1,0.1-0.3,0.2-0.7,0.2c-1.2,0.9-2.5,1.5-3.8,1.9c-1.3,0.3-2.8,0.6-4.4,0.8
	c-0.4,0.1-0.7,0.2-1,0.3c-0.3,0.1-0.7,0.2-1.2,0.2h-1.4c-0.6,0.1-1.1,0.2-1.7,0.3c-0.6,0.1-1.1,0.2-1.7,0.4
	c-1.5,0.3-2.9,0.6-4.1,0.9c-1.3,0.3-2.6,0.7-3.9,1.2c-0.6,0.2-1.1,0.3-1.5,0.5c-0.5,0.1-1,0.3-1.5,0.5c-1.1,0.4-2.3,0.6-3.5,0.8
	c-1.2,0.2-1.9,0.8-2.2,1.9c-0.2,0.1-0.3,0.2-0.3,0.3c0,0.1-0.2,0.2-0.3,0.2c-0.7,2-1.9,3.9-3.4,5.7c-1.5,1.8-2.8,3.5-3.8,5.3
	c3.1-0.7,6.4-1.4,9.9-1.9c3.5-0.6,7-1.1,10.7-1.5c1.8-0.2,3.7-0.3,5.6-0.5c1.9-0.1,3.8,0,5.6,0.5c0,0.4,0.1,0.6,0.2,0.7
	c0.1,0.1,0.2,0.2,0.2,0.4c-0.2,0.2-0.3,0.2-0.5,0.1c-0.1-0.1-0.3-0.1-0.5-0.1c-0.5,0.2-0.9,0.4-1.2,0.7c-0.3,0.3-0.7,0.5-1,0.7
	c-0.2,0-0.3,0-0.3,0.1c0,0.1-0.1,0.2-0.3,0.3h-0.3h-0.1c-0.3,0.2-0.6,0.5-0.9,0.8c-0.3,0.4-0.4,0.7-0.3,1.1c0.6,0,1.2,0,1.7,0
	c0.5,0,1-0.1,1.6-0.3c-0.1,0.2-0.4,0.3-0.8,0.3v1.9c-0.3,0.1-0.6,0.2-1,0.2c-0.4,0-0.5,0.2-0.4,0.5c-0.3,0.2-0.6,0.3-1,0.3
	c-0.4,0-0.7,0-1,0.1c0,0.3,0.1,0.5,0.3,0.6c0.2,0.1,0.3,0.3,0.3,0.6c-0.7,0.3-1.5,0.5-2.3,0.6c-0.8,0.1-1.6,0.4-2.4,0.8
	c0,0.2,0,0.3,0.1,0.3c0,0,0,0.2-0.1,0.3c-0.7-0.1-1.5,0-2.4,0.1c-0.9,0.2-1.8,0.4-2.7,0.6c-2.6,0.3-4.5,0.9-5.8,1.8
	c-1.1,0.5-2.2,0.9-3.3,1.3c-1.1,0.4-2.3,0.8-3.6,1c-0.9,0.2-1.8,0.4-2.6,0.6c-0.8,0.2-1.6,0.4-2.4,0.5c-0.7,0-1.5,0-2.1,0
	s-1.5,0-2.4-0.1c-0.5,0-0.9,0-1.2,0c-0.3,0-0.7,0.1-1.2,0.3c-0.7,0.9-1.4,1.9-1.9,2.8c-0.5,1-1,2-1.6,3c-0.5,0.7-0.9,1.5-1.2,2.3
	c-0.4,0.8-0.7,1.5-1,2.3c-0.6,1.3-1.1,2.6-1.5,3.9c-0.5,1.3-1,2.7-1.5,4.1c-0.2,0.5-0.1,0.8,0.1,1c0.3,0.2,0.3,0.6,0,1.1
	c0.9-0.2,1.6-0.3,1.9-0.2c0.4,0,1-0.1,1.8-0.3l2.6-0.8l6.8-2.5c0.2,0,0.4-0.1,0.6-0.3c2.2-0.6,4.5-1.4,6.9-2.2
	c2.4-0.8,4.8-1.7,7.3-2.5c1.5-0.5,2.9-0.9,4.4-1.5c1.5-0.5,3-1,4.6-1.5c0.7-0.2,1.3-0.3,1.6-0.4c0.3-0.1,0.9-0.2,1.9-0.4l5.4-0.8
	c0.6-0.1,1.4-0.1,2.3-0.1c0.9,0,1.3,0.5,1.2,1.4c0,0.2-0.1,0.3-0.3,0.4c-0.2,0.1-0.2,0.3,0,0.6c-0.5,0-0.7,0-0.8,0.1
	c0.1,0.2,0.3,0.2,0.5,0.1c0.2-0.1,0.4-0.1,0.5,0.1c0.1,0.2,0.1,0.3-0.1,0.3s-0.3,0-0.5,0.1h0.8c-0.1,0.2-0.2,0.3-0.4,0.3
	c-0.2,0-0.4,0.1-0.6,0.3c-0.1-0.2-0.5-0.3-1.2-0.3c0,0.5,0.1,0.7,0.4,0.7c0.3,0,0.5-0.1,0.7-0.3c0.4,0.4,0.8,0.5,1.2,0.3
	c0.3,0,0.3,0,0.1,0.1c-0.2,0-0.2,0.1,0,0.2h0.7c0.1,0.3,0.1,0.5,0,0.6c-0.1,0.1-0.1,0.3-0.1,0.5c-0.6,0.1-1.1,0.3-1.5,0.8
	c-0.3,0.4-0.9,0.6-1.6,0.6c0,0.2,0.1,0.3,0.3,0.5c0.2,0.1,0.4,0.2,0.7,0.1c-0.1,0.1-0.2,0.2-0.3,0.2c-0.1,0-0.3,0.2-0.3,0.3
	c0,0.2,0.1,0.2,0.3,0.1c0.2-0.1,0.3,0,0.3,0.1c-0.6,0-1.2,0.1-1.5,0.4c0.2,0.3,0.5,0.3,1,0.2c0.5-0.1,0.8-0.1,1,0.1
	c-0.2,0.3-0.5,0.4-0.8,0.5c-0.4,0-0.7,0.1-1.1,0.2c-0.7,0.2-1.4,0.4-2.1,0.6c-0.6,0.2-1.2,0.4-1.7,0.6c-1.3,0.4-2.2,0.7-2.8,0.9
	c-0.6,0.2-1.3,0.6-2.3,1c0.2,0.1,0.4,0.1,0.7-0.1c0.3-0.1,0.6-0.2,0.8-0.1c-0.2,0.2-0.4,0.3-0.8,0.3c-0.3,0-0.6,0-0.9,0.1
	c-0.2-0.1-0.2-0.1-0.1-0.1c0.1,0,0,0-0.1,0c-0.9,0.1-1.8,0.3-2.6,0.7c-0.8,0.4-1.6,0.7-2.4,1.1c0.5,0.2,0.9,0.1,1.2-0.2
	c0.4-0.3,0.8-0.4,1.4-0.3c0.2,0,0.2,0,0.1,0s-0.2,0-0.2,0.1c0.3,0.1,0.5,0.1,0.8,0c0.2-0.1,0.5-0.1,0.9-0.1c-0.6,0.5-1.2,0.8-1.9,1
	c-0.7,0.2-1.4,0.4-2.1,0.6c0,0.2,0.1,0.2,0.3,0.1c0.2-0.1,0.3-0.1,0.3,0c-0.2,0.2-0.5,0.3-0.8,0.2c-0.4,0-0.6,0-0.8,0.1
	c-0.7,0.2-1.6,0.4-2.5,0.8c-0.9,0.3-1.8,0.6-2.6,0.9c-0.4,0.2-0.7,0.3-1,0.5c-0.3,0.1-0.6,0.3-0.8,0.5l1.1-0.3
	c0.2-0.1,0.4-0.2,0.6-0.3c0.2-0.1,0.3-0.2,0.4-0.1c-0.2,0.2-0.5,0.4-1,0.6c-0.5,0.2-0.8,0.3-1,0.4c-0.2,0-0.3,0-0.3-0.1
	c0-0.1,0-0.1-0.1-0.1c-0.5,0.5-1.1,0.7-1.8,0.7c-0.7,0-1.3,0.3-1.8,0.8c-0.5,0-0.9,0.1-1.3,0.4c-0.4,0.3-0.9,0.6-1.3,0.8
	c-0.9,0.2-1.8,0.5-2.6,0.8c-0.8,0.4-1.6,0.8-2.4,1.2c-0.3,0.2-0.6,0.4-1,0.6c-0.4,0.2-0.9,0.4-1.3,0.6l-3.5,1.5
	c-0.6,0.2-1.3,0.3-1.9,0.5c-0.6,0.1-1.2,0.3-1.9,0.6c-0.9,0.4-1.8,0.8-2.7,1.2c-0.9,0.4-1.8,0.8-2.7,1.2c-1,0.3-2.1,0.5-3.3,0.6
	c-1.2,0.1-2.3-0.1-3.3-0.6c-0.3-0.1-0.5-0.2-0.8-0.4c-0.2-0.2-0.5-0.3-0.9-0.3c-0.5-0.2-1-0.3-1.6-0.3s-1-0.3-1.2-0.8
	C474.2,100.4,472.3,99,471.8,96.5z M518.3,89.4c0,0.2,0.1,0.2,0.2,0.1c0.1-0.1,0.3-0.2,0.3-0.3c-0.1,0-0.2,0-0.2,0.1
	C518.6,89.4,518.4,89.4,518.3,89.4z M519.4,88.9c0.2-0.2,0.4-0.3,0.7-0.3c0.3,0,0.5-0.2,0.6-0.3c-0.3-0.1-0.6-0.1-0.9,0.1
	C519.4,88.4,519.3,88.6,519.4,88.9z M519.5,89.2c0.2-0.1,0.4-0.2,0.7-0.2c0.3,0,0.4-0.2,0.4-0.3c-0.2,0.2-0.4,0.3-0.6,0.3
	C519.8,88.9,519.6,89,519.5,89.2z M524.1,87.8c0.2,0,0.4-0.1,0.6-0.4c-0.1,0.1-0.2,0.1-0.3,0.1S524.2,87.6,524.1,87.8z M628.8,17.8
	c0-0.1,0-0.1,0.1-0.1l0.3-0.1c0.2-0.1,0.4-0.1,0.6-0.1l1.1,0.4c0.3,0.2,0.5,0.4,0.6,0.6c0.1,0.2,0.3,0.5,0.7,0.9
	c0.4,0.6,0.8,1,1.2,1.3c0.5,0.3,0.8,0.6,1.1,0.8c1.7,0.9,2.8,2.1,3.5,3.6c0.4,0.7,0.5,1.5,0.3,2.4c-0.1,0.9-0.3,1.7-0.6,2.4l-1,2.4
	c-0.2,0-0.3,0.1-0.2,0.2c0,0.1,0,0.2-0.2,0.2c-0.6,1.6-1,2.9-1.3,4.1c-0.3,1.2-0.6,2.3-0.9,3.3c-0.3,1.1-0.6,2.2-1,3.3
	c-0.4,1.2-0.9,2.5-1.7,3.9c-0.7,1.8-1.5,3.7-2.4,5.6c-0.9,1.9-1.7,3.8-2.6,5.6c-0.5,0.4-0.7,0.9-0.8,1.5c-0.1,0.6-0.4,1.1-0.8,1.5
	c-0.2,0.6-0.5,1.3-0.8,2.1c-0.4,0.7-0.7,1.6-1,2.6c-0.2,0.2-0.3,0.3-0.3,0.3c0,0-0.2,0.1-0.3,0.2c0.2-0.6,0.5-1.2,0.8-1.5
	c-0.5,0.2-0.8,0.5-0.9,1c-0.1,0.5-0.3,0.8-0.6,1.1c0.1,0.3,0.1,0.6,0,1c0.2-0.1,0.3-0.3,0.2-0.5c0-0.2,0-0.3,0.2-0.3
	c0.1-0.1,0.2-0.1,0.3,0c0.2,0,0.3,0,0.3-0.1c0,0,0-0.1,0.1-0.2c-0.4,1.2-1,2.5-1.9,4c0-0.4,0.1-0.9,0.4-1.5c0.3-0.6,0.5-1.1,0.6-1.5
	c-0.3,0.1-0.4,0.4-0.4,0.9c0,0.5-0.2,0.9-0.7,1c-0.2,0.7-0.4,1.7-0.8,2.8c-0.3,1.1-0.7,2.1-1.2,2.9c0.1,0,0.1,0,0.1-0.1
	c0-0.1,0.1-0.1,0.3-0.1c-0.6,1.2-1.1,2.5-1.5,4c-0.3,1.5-0.9,2.9-1.6,4.3c0.2-1,0.5-2,0.9-3c0.4-1,0.8-2.1,1.2-3.2c0-1,0.2-2,0.6-3
	s0.7-2,0.9-3c-0.2,0-0.3,0.1-0.4,0.3c-0.1,0.2,0,0.4,0.1,0.6c-0.4,0.2-0.5,0.4-0.5,0.8c0,0.3-0.1,0.6-0.3,0.8
	c-0.1,0.7-0.3,1.5-0.6,2.4c-0.3,0.9-0.5,1.7-0.6,2.4c-0.4,0.5-0.6,1-0.8,1.5c-0.1,0.6-0.3,1.1-0.5,1.5l0.1,0.1
	c-0.5,1.2-0.8,2.4-0.9,3.5s-0.4,2.2-0.9,3.2c0.2,0,0.3-0.1,0.3-0.3c0-0.2,0.1-0.4,0.3-0.5c-0.2,0.5-0.3,0.9-0.5,1.4
	c-0.1,0.5-0.2,0.9-0.2,1.4c0,0.2,0,0.3-0.1,0.3c0,0-0.1,0.3-0.1,0.8c-0.1,0-0.1,0-0.1,0.1c0,0.1-0.2,0.1-0.7,0.1
	c-0.1,0.6-0.2,0.8-0.3,0.8c-0.1,0-0.2-0.1-0.3-0.2c-0.1-0.1-0.2-0.2-0.3-0.3c-0.1,0-0.1,0.2-0.1,0.8c-0.5,0.3-0.7,0.5-0.7,0.7
	c-0.1,0.1-0.1,0.1-0.1,0c0-0.1,0-0.1-0.1-0.1c-0.1,0.2-0.1,0.4-0.1,0.7c0,0.3,0,0.5-0.2,0.7c-0.2,0-0.3,0.1-0.3,0.3v0.1v0.1v0.4
	c0,0.3,0,0.4,0,0.3c0,0,0,0,0.1,0.2l-0.1,0.1c0,0.4,0,0.6-0.1,0.8c-0.1,0.1,0,0.4,0.1,0.9c-0.2,0.1-0.3,0.1-0.3-0.1
	c0-0.1-0.3-0.1-0.8,0.1c0,0.1,0.1,0.1,0.3,0.1c0.2,0,0.2,0-0.2,0.1c-0.1,0.1-0.2,0.2-0.2,0.3c0,0.1-0.2,0.1-0.3,0.1
	c0,0.2-0.1,0.3-0.2,0.4c-0.1,0.1-0.1,0.2,0.1,0.4c-0.7,0.3-1.2,0.7-1.2,1.4c-0.2,0-0.3-0.1-0.3-0.2c0-0.1-0.1-0.1-0.2,0.1
	c-0.2,0.2-0.4,0.4-0.6,0.6c-0.2,0.2-0.5,0.4-0.8,0.6c-0.7,0.4-1.3,0.3-1.8-0.1c-0.5-0.4-0.9-0.7-1.4-0.8c-0.5-0.6-0.8-1.2-1-1.8
	c-0.2-0.6-0.3-1.2-0.4-1.8c-0.2-0.8-0.3-1.4-0.2-1.8c0-0.4,0.1-0.7,0.3-0.9c0.1-0.2,0.3-0.5,0.5-0.9c0.2-0.4,0.4-1,0.6-1.8
	c0.2-0.9,0.3-1.6,0.3-2.1c0.9-3.7,1.9-7.4,3-11.2c1.1-3.8,2.2-7.4,3.4-10.9c0.3-1,0.6-2,0.8-3c0.3-1,0.6-1.9,0.8-2.6
	c0.2-0.3,0.3-0.5,0.5-0.8c0.1-0.2,0.2-0.5,0.2-0.8c0.7-1.8,1.2-3.7,1.5-5.5c0.3-1.8,0.8-3.6,1.5-5.5h0.3c0.3-1.1,0.5-2,0.7-2.6
	c0.2-0.6,0.4-1.2,0.6-1.7c0.2-0.5,0.4-1,0.6-1.6c0.2-0.6,0.5-1.3,1-2.4c-1.6,1.8-3,3.6-4.4,5.3c-1.3,1.7-2.8,3.4-4.4,5.3
	c-1.6,1.9-3.4,4-5.4,6.2c-2,2.3-4.4,4.9-7.1,7.8c-0.7,1-1.5,2-2.3,3c-0.8,1-1.5,2.1-2,3.3c-0.5,0.6-0.9,1.2-1.2,1.5
	c-0.3,0.4-0.6,0.7-1,1.1c-0.3,0.4-0.7,0.8-1,1.2c-0.4,0.5-0.7,1.1-1.1,1.9c-1.1,1.6-2.2,3.1-3.3,4.6s-2.2,3.3-3.2,5.2
	c-0.1,0-0.2,0-0.2,0.1c0,0-0.2,0.1-0.3,0.1c-0.6,1.2-1.4,1.9-2.5,2.2h-3c-0.5-0.2-1-0.3-1.6-0.3c-0.6,0-1.1-0.1-1.6-0.3
	c-0.2-0.1-0.3-0.2-0.5-0.3c-0.1-0.1-0.3-0.1-0.5-0.1c-0.5-0.3-0.9-0.5-1.2-0.6c-0.4-0.1-0.6-0.4-0.7-0.8v-0.7
	c-1.3-4.5-1.9-9.3-1.8-14.3c0.1-5,0.2-9.9,0.4-14.6c0-0.7,0-1.5,0.1-2.1c0-0.7,0-1.4-0.2-2c-0.1,0-0.3,0.2-0.6,0.7l-2.5,5.3
	c0,0.2,0,0.3-0.1,0.3c0,0,0,0.1,0.1,0.3c-0.2,0-0.3,0-0.3,0.1c0,0.1-0.2,0.1-0.6,0.1c-0.2,0.5-0.3,0.9-0.4,1.5
	c-0.1,0.5-0.3,0.9-0.7,1.2V65c-0.2,0.2-0.3,0.4-0.4,0.6c-0.1,0.2-0.2,0.4-0.4,0.6c0,0.1,0,0.2,0.1,0.3h0.1h-0.4
	c0.2,0.1,0.2,0.2,0,0.3c-0.2,0.1-0.2,0.2,0,0.4c-0.2,0.2-0.3,0.6-0.3,1.2c-0.4,0-0.6,0.2-0.6,0.5c0,0.3-0.1,0.6-0.2,0.9h0.1
	c-0.1,0.2-0.2,0.3-0.4,0.4c-0.2,0.1-0.3,0.3-0.3,0.6h0.3c-0.2,0.3-0.3,0.7-0.4,1.2c-0.1,0.5-0.4,0.9-0.8,1.2
	c0.5,0.2,0.5,0.4,0.1,0.6c-0.4,0.2-0.5,0.4-0.3,0.6h-0.4c0.2,0.3,0.2,0.5,0.1,0.7c-0.1,0.2-0.3,0.4-0.3,0.6v0.1
	c-0.5,0.3-0.7,0.8-0.7,1.5c0,0.2,0,0.2,0.1,0.1c0-0.1,0.2-0.1,0.3-0.1c0,0.2-0.1,0.3-0.3,0.2c-0.2,0-0.3,0-0.4,0.2
	c0.3,0.3,0.4,0.4,0.4,0.3c-0.2,0.2-0.3,0.5-0.4,0.8c-0.1,0.4-0.3,0.7-0.7,1c-0.2,0.4-0.3,0.8-0.5,1.2s-0.3,0.9-0.3,1.3l0.3,0.1
	c-0.1,0.1-0.2,0.1-0.2,0c0-0.1-0.1,0-0.1,0.1c-0.6,1.1-1.2,2.2-1.5,3.3c-0.4,1.1-0.7,2.1-1,3.1c0.2,0.1,0.2,0.1,0.1,0.1
	c-0.1,0-0.1,0-0.1,0.1c-0.4,0.1-0.6,0.5-0.6,1.2c-0.5,0.3-0.7,0.9-0.7,1.9c-0.2,0.7-0.4,1.5-0.7,2.3c-0.3,0.8-0.6,1.5-1.1,2.3
	c0.2-1.4,0.5-2.6,0.9-3.7c0.4-1.1,0.7-2.3,0.8-3.5c0.1-0.3,0.2-0.5,0.4-0.7c0.2-0.1,0.2-0.1,0-0.1c-0.2,0-0.2,0-0.1,0
	c0.3-0.7,0.5-1.3,0.6-1.8c0.1-0.5,0.2-1.1,0.2-1.8c-0.2,0.2-0.3,0.5-0.3,1c0,0.5-0.3,0.7-0.6,0.8c0-0.5,0.1-0.9,0.3-1.3
	c0.2-0.4,0.3-0.8,0.4-1.2c0.2-1,0.5-1.8,0.8-2.4c0.4-0.6,0.5-1.3,0.3-2c-0.5,0.2-0.7,0.5-0.7,1c0,0.5-0.1,0.9-0.4,1
	c-0.2,1.2-0.4,2.1-0.8,2.6c-0.3,0.5-0.5,1.3-0.6,2.3c-0.2,0-0.3,0.1-0.2,0.3c0,0.2,0,0.3-0.2,0.4c0,0.5-0.1,0.8-0.3,1
	c-0.2,0.2-0.4,0.5-0.5,0.9c-0.5,0.7-0.7,1.5-0.8,2.4c0,0.9-0.3,1.8-0.6,2.7v0.1c-0.4,0.3-0.6,0.7-0.7,1.2c-0.1,0.5-0.3,0.9-0.7,1
	c0.2-0.6,0.3-1,0.2-1.4c0-0.4-0.1-0.6-0.2-0.8H547c-0.2,0.2-0.3,0.4-0.4,0.6c-0.1,0.2,0,0.5,0.1,1c-0.2,0.3-0.3,0.5-0.4,0.6
	c-0.1,0.1-0.3,0.2-0.7,0.2c0,0.3,0,0.4,0.1,0.5c0,0,0,0.2-0.1,0.3c0,0.1,0,0.1,0.1,0.1c0,0,0.1,0,0.1,0.1c0,0.4-0.3,0.6-0.8,0.6
	c0-0.6,0.1-0.9,0.4-1.1c-0.2-0.3-0.4-0.3-0.6-0.1c-0.2,0.2-0.2,0.3,0,0.3c-0.2,0.2-0.4,0.3-0.6,0.3c-0.2,0.2-0.3,0.3-0.2,0.5
	c0,0.1,0,0.3-0.1,0.5c-0.4,0-0.9,0-1.7,0.1c-0.8,0-1.6,0.1-2.4,0.1c-0.8,0-1.6,0-2.4,0c-0.7,0-1.2,0-1.5-0.1c0-0.5,0-0.8-0.1-0.9
	c-0.1-0.1-0.2-0.3-0.3-0.5c-0.5-1.4-0.6-2.7-0.4-4c0.2-1.3,0.5-2.5,0.8-3.6l3.6-11.2c0.5-1.6,0.9-2.9,1.5-4c0.5-1.1,0.9-2.3,1.2-3.6
	c0.1,0,0.1,0,0.1-0.1c0-0.1,0.1-0.1,0.3-0.1c0.8-2.6,1.8-5.1,2.8-7.6c1-2.5,2.1-4.9,3.3-7.3c1.6-3.9,3.2-7.6,4.8-11.1
	c1.6-3.5,3.1-7.2,4.5-10.9c0.2-1,0.5-1.9,0.8-2.6c0.4-0.7,0.8-1.6,1.2-2.6c-0.1-0.2-0.1-0.3,0.1-0.5c0.1-0.1,0.2-0.3,0.2-0.5
	c0.2-0.5,0.4-0.9,0.7-1.2c0.3-0.3,0.5-0.8,0.6-1.5c0.7-0.2,1.1-0.6,1.1-1.2c0.5-0.3,1.1-0.3,1.8,0c0,0.4,0.1,0.6,0.3,0.8
	c0.2,0,0.4,0,0.7,0.1c0.3,0,0.5,0.1,0.7,0.1c0.2,0,0.6,0,1.1,0.1c0.6,0,1.2,0.1,1.9,0.1s1.3,0,1.9,0c0.6,0,0.9,0,1.1,0l2.1,0.6
	c0.2,0,0.4,0.1,0.8,0.4c0.3,0.3,0.6,0.5,0.8,0.6c0.4,0.3,0.7,0.5,1,0.6c0.3,0.1,0.4,0.2,0.4,0.4c0.1,0.3,0.3,0.5,0.6,0.7
	c0.3,0.2,0.5,0.4,0.7,0.6c0,0.3,0.2,0.5,0.5,0.6c0.3,0.1,0.5,0.3,0.6,0.5c0.5,0.5,0.8,1.2,1,2.1c0.2,0.9,0.4,1.7,0.6,2.4
	c0.7,2.2,1,4.5,0.7,7c-0.3,2.4-0.5,4.9-0.7,7.4c-0.2,2.9-0.3,5.8-0.5,8.9c-0.1,3.1-0.3,6.2-0.5,9.3c0.6-0.5,1-1.1,1.4-1.8
	c0.4-0.7,0.8-1.3,1.4-1.8V63c3.1-4.4,6.3-8.7,9.5-12.9c3.2-4.1,6.6-8.3,10.3-12.3c0.7-0.8,1.3-1.4,1.7-1.8c0.4-0.4,0.7-0.7,1-1
	c0.3-0.3,0.6-0.6,1-0.9c0.4-0.3,0.9-0.9,1.7-1.7c0.7-0.6,1.4-1.1,1.9-1.6c0.5-0.5,1-1,1.5-1.6c1.8-1.3,3.6-2.8,5.7-4.6
	c2-1.8,4-3.2,5.9-4.3c0.3-0.3,0.8-0.4,1.5-0.4c0.4,0.4,0.9,0.5,1.6,0.5c0.7,0,1-0.3,1-0.9c0.6-0.1,0.9-0.3,1-0.6
	c0.1-0.3,0.4-0.5,0.8-0.5c0.2-0.1,0.2-0.2,0.1-0.3C628.8,18,628.8,17.9,628.8,17.8z M553.5,84.3c-0.1,0.1-0.2,0.1-0.4,0.1
	C553.3,84.5,553.4,84.4,553.5,84.3z M610,96.8l0.3,0.1C610.1,96.8,610,96.8,610,96.8z M612.9,91.4c0.1,0,0,0-0.1,0.1
	c-0.2,0-0.1,0.1,0.3,0.1v-0.1H612.9z M612.9,89.2l0.1-0.3C612.9,89,612.9,89.1,612.9,89.2z M614.7,92.5l0.3,0.1
	c-0.2,0.1-0.3,0.2-0.2,0.3c0,0.1,0,0.2-0.2,0.2C614.6,92.9,614.7,92.7,614.7,92.5z M614.9,87.9c0-0.1,0-0.1,0.1-0.1
	c0,0,0.1,0,0.1-0.1v0.1L614.9,87.9z M615.8,85.8c-0.1,0.3-0.2,0.6-0.3,0.8c-0.1,0.3-0.2,0.6-0.4,1v-0.7c0.2,0,0.2,0,0.1-0.1
	c-0.1-0.1,0-0.1,0.1-0.1c0-0.2,0-0.5,0.1-0.8c0.1-0.4,0.2-0.8,0.3-1.2c0-0.1,0-0.1,0.1-0.1c0.1,0,0.1,0,0.1-0.1
	c0.3,0.1,0.3,0.3,0,0.5C615.8,85,615.7,85.4,615.8,85.8z M616.7,85c0.2,0,0.2,0.1,0.1,0.2c-0.1,0.1-0.2,0.2-0.3,0.2v-0.1
	C616.6,85.1,616.6,85,616.7,85z M617,84.6v-0.1V84.6z M617.3,83.6c0.1,0.1,0.1,0.2,0,0.3c-0.1,0.1-0.1,0.2-0.1,0.4
	c-0.1-0.2-0.1-0.3,0-0.4C617.2,83.8,617.3,83.7,617.3,83.6z M620.6,72.3c-0.1,0.5-0.2,0.9-0.3,1.3c-0.1,0.4-0.3,0.8-0.3,1.2
	c0-0.1,0-0.1,0.1-0.1c0,0.6-0.1,0.9-0.4,1c0.2,0,0.3,0,0.3-0.1c0-0.1,0.1-0.1,0.2-0.1c-0.2,0.8-0.5,1.6-1,2.2
	c-0.5,0.6-0.8,1.6-0.8,2.9c-0.5,0.3-0.7,0.6-0.8,1.1c0,0.5-0.2,1-0.5,1.5c0.2-1.7,0.6-3.3,1.3-4.9c0.7-1.6,1.3-3.3,1.7-5.2
	c0.2,0,0.3-0.1,0.2-0.3C620.4,72.5,620.4,72.4,620.6,72.3z M619.5,78.5c-0.1-0.2-0.1-0.3-0.1-0.4c0-0.1,0.1-0.2,0.1-0.3V78.5z
	 M620.1,71.2l-0.3,0.1C619.9,71.3,620,71.3,620.1,71.2z M620.6,72.3c0-0.1,0-0.1-0.1-0.1c-0.1,0-0.1,0-0.1-0.1c0-0.2,0-0.2,0.1-0.1
	c0,0.1,0.1,0.1,0.2,0.1V72.3z M620.9,71c0.2,0,0.1,0.1-0.1,0.4c0-0.1,0-0.2,0.1-0.2C620.9,71.2,620.9,71.1,620.9,71z M622.1,67.2
	c0-0.2,0-0.3,0.1-0.4c0,0.1,0.1,0.1,0.2,0.1c0.1,0,0.2,0,0.2,0.1c-0.2-0.1-0.3-0.1-0.3,0.1C622.3,67.1,622.2,67.2,622.1,67.2z
	 M640.9,91.4v0.3c0.1,0.9-0.1,1.5-0.6,1.8h0.1l-0.3,0.3c-0.3,0.3-0.5,0.5-0.6,0.7c-0.1,0.2-0.3,0.5-0.6,1c-0.3,0.3-0.6,0.7-0.8,1.2
	c-0.3,0.5-0.6,0.9-1.1,1v-0.1c-0.5,0.3-0.7,0.5-0.8,0.8c-0.1,0.2-0.2,0.5-0.4,0.8c-0.1,0.2-0.2,0.4-0.3,0.6
	c-0.1,0.2-0.3,0.3-0.7,0.4c-0.6,0-0.8-0.1-0.8-0.4c-0.3,0.5-0.6,0.7-1.1,0.7c-0.1,0.6-0.4,0.9-0.8,1c-0.3,0.3-0.7,0.5-1.2,0.6
	c-1,0-1.2-0.1-0.4-0.4H630c-0.2,0.4-0.2,0.7-0.1,1.1c-0.3,0-0.5,0-0.6,0.1c-0.6,0.2-0.8,0.1-0.8-0.1c-0.7,0-1.6,0-2.6,0
	c-1,0-1.9,0-2.9,0s-1.8,0-2.6-0.1c-0.7,0-1.2-0.1-1.4-0.2l-0.6-0.8c0.2-1.7,0.5-3.1,0.9-4.4c0.4-1.3,0.9-2.4,1.3-3.5
	c0.1,0,0.2-0.1,0.2-0.4c0-0.3,0.1-0.5,0.2-0.7c0.4-0.6,0.7-1.2,1.1-1.9c0.4-0.7,0.8-1.4,1.2-2.1v0.1c0.1-0.4,0.2-0.6,0.3-0.8
	c0.1-0.2,0.3-0.4,0.5-0.7c0.2-0.2,0.3-0.4,0.4-0.8c0.1-0.3,0.2-0.6,0.3-0.9c0.5-0.7,0.9-1.5,1.4-2.3c0.5-0.8,0.8-1.5,1.1-2.3
	l2.2-3.3l-2.5,0.3c-0.5,0.1-1,0.2-1.5,0.2c-0.6,0-1.1,0.1-1.7,0.1c-1.8,0-3.1-0.4-4.1-1.1l0.1-0.1v-0.1v-0.1c0-0.1,0-0.1-0.1-0.1
	c0,0-0.1,0-0.1-0.1l-0.3-0.7c0-0.2,0.1-0.4,0.3-0.6c0.2-0.2,0.5-0.4,0.9-0.5c0.8,0,1.3-0.1,1.5-0.4c-0.5-0.1-0.9-0.2-1.4-0.3
	c-0.5-0.1-0.8-0.2-1-0.4c-0.7-0.1-1.2-0.2-1.5-0.3c-0.3-0.1,0.5-0.1,2.4-0.1c0.1,0,0.1,0,0-0.1c-0.1,0,0,0,0.1,0.1v-0.1
	c0-0.2,0.1-0.4,0.4-0.6c0.3-0.5,0.7-0.8,1.2-1l0.4-0.3c0.2,0,0.4,0,0.8,0c0.3,0,0.6,0,0.8,0.1c1.3-0.2,2.7-0.5,4.3-0.8
	c1.6-0.4,3.1-0.9,4.6-1.5l2.1-0.6c2.9-4.4,6-9,9.2-13.7c3.2-4.7,6.4-9.2,9.8-13.6c0.7-1,1.5-2.1,2.4-3.3c0.8-1.2,1.7-2.3,2.5-3.3
	c0.7-1.1,1.6-2.3,2.5-3.5c0.9-1.2,1.8-2.4,2.6-3.7h0.1l1.8-1.8c0.4-0.6,0.8-1.2,1.4-1.9c0.6-0.7,1-1.5,1.4-2.6
	c0.3-0.3,0.8-0.6,1.5-0.8c0.2-0.2,0.4-0.3,0.7-0.4c0.3-0.1,0.5-0.2,0.7-0.4l1.2-0.8c0.3-0.3,0.8-0.5,1.5-0.6h1.4
	c0.6-0.2,1.3-0.3,1.9-0.3c0.6,0,1.1,0.1,1.4,0.3c1-0.4,2.1-0.4,3.3,0c0.2,0,0.5,0,0.8,0.1c0.4,0,0.6,0.1,0.8,0.1
	c0.4,0,0.9,0.5,1.5,1.5l0.1,0.1c0.6,0.3,1.2,0.3,1.8,0.1c0.8-0.1,1.6-0.1,2.2,0c0.6-0.1,1,0.2,1.4,0.8c0.4,0.6,0.6,1.1,0.8,1.6
	c0.2,0.6,0.3,1.6,0.4,2.8c0.1,1.2,0.2,2.3,0.3,3.2c0,0.2,0,0.3,0.1,0.5c0,0.1,0.1,0.3,0.1,0.5v3.9c-0.2,1.7-0.3,3.3-0.3,4.8
	c0,1.5,0,3.1,0,4.8c0,1,0,2.1-0.1,3.1c-0.1,1.1-0.2,2.1-0.4,3.1c-0.2,1-0.3,2-0.3,2.8c0,0.9-0.1,1.8-0.1,2.8c0.6,0,1.1,0,1.7-0.1
	c0.6,0,1.1-0.1,1.5-0.1c1.4-0.2,2.5-0.3,3.4-0.4c0.9-0.1,2,0,3.4,0.1c0.3,0,0.5,0.1,0.6,0.3c0.1,0,0.2,0,0.2,0.1
	c0,0,0.1,0.1,0.2,0.1c0.3,0.1,0.6,0.2,1.1,0.4c0.5,0.2,0.7,0.5,0.7,1l-0.6,0.8l-1-0.7c0.2,0.4,0.4,0.7,0.7,0.9
	c0.3,0.2,0.3,0.5,0.1,0.8l-0.6-0.1v0.3h-0.3v0.3c0,0.1,0,0.2-0.1,0.3c0,0.1-0.1,0.2-0.1,0.3v0.3c-0.1,0-0.1,0.1-0.1,0.3
	c0,0.2,0,0.1-0.1-0.3l-0.3,1.4c-0.1,0.1-0.2,0.1-0.3,0.1c-0.1,0-0.2,0-0.2,0.1c0,0-0.2,0.1-0.3,0.1c-0.1,0-0.2,0-0.2,0.1
	c0,0-0.2,0.1-0.3,0.1l-0.3-0.1c-0.3,0-0.5-0.1-0.7-0.3c-0.2,0-0.3,0-0.4,0.1c-0.1,0-0.2,0.1-0.3,0.1c-0.2,0-0.4,0-0.6,0.1
	c-0.2,0-0.4,0-0.6-0.1c-0.1,0-0.1,0-0.1,0.1c0,0,0,0.1-0.1,0.1c-0.8,0-1.4,0.1-1.7,0.3c-0.3,0.2-0.8,0.6-1.7,1l-1.5,0.4l-0.1,0.6
	c-0.3,0-0.5,0.1-0.6,0.2c-0.1,0.1-0.2,0.3-0.4,0.3v-0.1l-0.1,0.3c0,0.2,0,0.3-0.1,0.4c0,0.1-0.1,0.2-0.1,0.3v0.3
	c-0.2,0.6-0.3,1.2-0.3,1.7c0,0.5,0.1,1.1,0.3,1.9c0,0.1-0.1,0.2-0.2,0.3c-0.1,0.1-0.2,0.3-0.2,0.3l-0.6,0.6v7.5c0,0.3,0,0.3-0.1,0
	c0-0.3,0-0.6,0.1-0.8c-0.2,0.4-0.3,0.7-0.3,1c0,0.4-0.2,0.8-0.6,1.4v0.1l0.1,0.3c0.2,0.5,0,0.9-0.7,1.4c0-0.4,0-0.8-0.1-1.3
	c0-0.5-0.1-0.9-0.1-1c-0.1-0.5-0.1-0.9-0.1-1.2c0-0.3,0-0.7,0-1.2h-0.1c0-0.4,0-0.6-0.1-0.8c0-0.2-0.1-0.4-0.1-0.7
	c-0.2-0.9-0.3-1.7-0.3-2.2h-0.1c-0.1,0.2-0.1,0.3-0.1,0.4c0,0.1,0.1,0.2,0.1,0.3c0,0.3,0,0.5,0.1,0.7c0.1,0.2-0.1,0.5-0.6,1
	c-0.4-0.3-0.6-0.7-0.6-1.4v1.1c-0.1,0.5-0.1,1-0.1,1.7s-0.1,1.3-0.3,1.7v0.3h0.1V80c0,0.1,0,0.2,0.1,0.2c0,0,0.1,0.2,0.1,0.3
	c0.2,1.3,0.2,2.5,0,3.7c0,0.1-0.1,0.3-0.4,0.6c-0.1,0.4-0.1,0.8-0.1,1.2c0,0.4,0.1,0.8,0.2,1l0.3,1.8c0-0.4,0.2-0.8,0.6-1.2l0.1-0.1
	c0-0.3,0.3-0.6,0.8-1.1v1.2c0.3,0.2,0.4,0.5,0.4,0.8c0,0.4-0.1,0.6-0.3,0.8c0,0.3,0,0.5,0.1,0.7c0,0.2,0.1,0.4,0.1,0.6
	c0.1,0.6,0.1,1.2,0.1,1.8c0,0.6-0.2,1.2-0.3,1.5h-0.3c-0.1,0.3-0.1,0.7-0.1,1.4c0,0.4,0,0.9-0.1,1.5c0,0.6-0.2,1.3-0.3,2l-0.3-0.7
	v0.7c0,0.2,0,0.3-0.1,0.3c-0.1,0-0.1,0.1-0.1,0.2H687c-0.4,0.1-0.6,0.7-0.6,1.9c-0.4,0-0.6,0.1-0.8,0.3c-0.2,0.2-0.3,0.3-0.4,0.4
	l0.6,0.4c0.2,0.2,0.2,0.4,0.1,0.8c-0.1,0.3-0.1,0.6-0.1,0.8c-0.1,0.2-0.1,0.5-0.1,0.8l-0.7-0.7c0,0.6-0.1,0.8-0.2,0.7
	c-0.1-0.1-0.4,0.1-0.9,0.7h-1.9c-0.6-0.6-1.1-1-1.3-1.3c-0.2-0.3-0.4-0.6-0.4-1c0-0.3,0-0.7,0-1.2c0-0.5,0-1.3-0.1-2.3l-0.6-2.8
	c-0.4-3.5-0.6-7.1-0.6-10.9c0-3.8-0.1-7.6-0.2-11.3c0-1.5,0-2.9,0-4.3c0-1.4,0-2.8-0.1-4.1c-0.8-0.3-1.5-0.3-1.9,0
	c-0.3,0.1-0.5,0.2-0.7,0.2c-0.2,0-0.5,0.1-0.8,0.1c-1.1,0.2-2.4,0.5-3.7,0.9c-1.4,0.4-2.7,0.8-4,1.2c-0.1,0-0.2,0-0.3,0.1
	c-0.1,0-0.2,0.1-0.4,0.1v0.3c-0.3-0.6-0.4-0.9-0.4-1c-1.1,0.3-2.1,0.7-3,1.4V69c-0.4,0.6-0.7,0.6-1.1,0c0,0.2-0.1,0.3-0.3,0.3
	c-0.2,0-0.3,0.1-0.4,0.1c-0.4,0.4-1,0.6-1.8,0.6c-0.1,0.1-0.2,0.1-0.3,0.1c-0.2,0.1-0.3,0.2-0.5,0.3c-0.1,0.1-0.3,0.2-0.6,0.3
	c-0.2,0-0.4,0-0.8,0.1c-0.3,0-0.6,0.2-0.9,0.3l-0.8,0.6l-0.3-0.7l0.6-0.3l-1.9,0.7c-0.3,0.3-0.5,0.4-0.6,0.4c-0.1,0-0.3,0.3-0.6,1
	c-0.2,0.3-0.3,0.6-0.5,0.8c-0.1,0.3-0.3,0.6-0.3,0.8c-0.8,0.6-1.3,1.3-1.4,2.1l-1,0.8c0.5,0,0.8,0,1-0.1c-0.5,0.4-0.8,0.7-0.9,1
	c-0.1,0.3-0.3,0.7-0.5,1c-0.4,0.5-0.7,0.9-0.9,1.2c-0.2,0.3-0.6,0.7-1,1v-0.1c-0.3,0.3-0.6,0.9-0.8,1.8v-0.3
	c-0.1,0.6-0.3,1.2-0.6,1.7c-0.5,0-0.7,0-0.7-0.1l-0.3,1c-0.5,0-0.9,0.1-1.2,0.2c-0.3,0.1-0.5,0.3-0.5,0.6l0.1-0.1
	c0.1-0.1,0.2-0.1,0.3-0.1c0.1,0,0.2,0,0.4-0.1c0,0.1,0,0.3,0,0.5c0,0.2,0,0.4,0.1,0.6c-0.3,0.8-0.6,1.5-1,1.9
	c-0.4,0.5-0.8,0.9-1.2,1.4L640.9,91.4z M631.5,100.1c0.1-0.1,0.1-0.2,0.1-0.4h-0.1l-0.1,0.1L631.5,100.1z M634.2,99.3l-0.1,0.1h0.1
	V99.3z M636.9,94.5l-0.3,1l-0.7,1h0.4l-0.1,0.6l1.2-2.1v-0.4H636.9z M641.8,86.3c0-0.1,0-0.1,0.1-0.1c0.1,0,0.2-0.1,0.3-0.3
	c0-0.8,0.3-1.6,1-2.4c-0.5,0.5-0.9,1-1.2,1.5c-0.4,0.6-0.8,1.2-1.2,1.9c-0.3,0.1-0.4,0.3-0.4,0.7h-0.6v-0.4
	c-0.1,0.1-0.1,0.3-0.1,0.6c-0.5,0.4-0.8,1.1-1.1,2.1c-0.5,0.2-0.8,0.4-0.9,0.6c-0.1,0.2-0.3,0.5-0.3,0.8l0.3-0.6v1.1l0.1-0.6
	c0.5-0.5,0.8-0.9,1.1-1.5c0.3-0.5,0.6-1.1,1-1.9h0.6v0.6l0.7-0.4v-0.4l-0.3-0.1c0.2-0.3,0.3-0.5,0.4-0.7
	C641.2,86.6,641.4,86.4,641.8,86.3z M637.5,88.6c0,0.4-0.1,0.6-0.3,0.6v0.3l0.1-0.1c0.1-0.2,0.2-0.4,0.2-0.6c0-0.2,0.1-0.3,0.2-0.4
	L637.5,88.6z M639.4,92.3v0.3l0.4-0.8v-0.1c-0.2,0.2-0.3,0.3-0.3,0.5C639.6,92.3,639.5,92.3,639.4,92.3z M640.1,80
	c-0.3,0.2-0.4,0.4-0.4,0.7c0-0.1,0-0.1,0.1-0.1C639.8,80.4,639.9,80.2,640.1,80z M639.8,86.5c-0.1,0.1-0.1,0.2-0.1,0.4
	C639.7,86.8,639.7,86.6,639.8,86.5z M640.2,85.8c-0.1,0.2-0.2,0.3-0.3,0.3c-0.1,0-0.1,0.2-0.1,0.3c0-0.1,0-0.2,0.1-0.3
	C640.1,86.2,640.2,86,640.2,85.8z M641.8,83.6l0.4-0.6v-0.3L641.8,83.6z M642.5,82.2l0.7-0.6l0.3-1L642.5,82.2z M643.4,76.7
	c-0.2,0.2-0.3,0.4-0.3,0.6l0.6-0.6H643.4z M644.4,75.3h-0.1v0.1h0.1V75.3z M646.7,78.8c-0.3,0.4-0.6,0.8-1,1.3c-0.4,0.5-0.7,1-1,1.5
	l0.3-0.1l1-1h-0.3c0.3-0.3,0.5-0.6,0.6-0.8C646.4,79.3,646.6,79.1,646.7,78.8z M662.1,61.1c2.8-0.6,5.5-1.3,8.2-1.9
	c2.7-0.6,5.5-1.4,8.4-2.4c0.2-1.7,0.3-3.3,0.3-5c0-1.7,0-3.5,0.1-5.3c0-1,0.1-1.9,0.2-2.7c0.1-0.8,0.2-1.7,0.2-2.7
	c-0.1-0.2-0.1-0.6-0.1-1.2c0-0.2,0-0.4,0-0.6c0-0.2-0.1-0.4-0.4-0.5c0-0.2-0.4,0.3-1.3,1.6c-0.9,1.2-1.7,2.3-2.4,3.3l-2.9,3.6
	c-0.2,0.4-0.3,0.6-0.3,0.7c0,0.1-0.1,0.2-0.1,0.4c-0.5,0.3-0.8,0.6-1,1c-0.2,0.4-0.5,0.9-0.9,1.3l-1,1.1v-0.1
	c-0.2,0.8-0.4,1.3-0.6,1.5c-0.6,0.4-1.1,0.8-1.4,1.4l-1.9,2.1l-0.7,1.5c-0.1,0.2-0.3,0.4-0.5,0.7c-0.2,0.3-0.3,0.5-0.3,0.7
	c-0.3,0.2-0.5,0.4-0.8,0.6C662.6,60.3,662.4,60.6,662.1,61.1z M673.3,64.7v0.1l-0.1,0.6v-0.3l0.1-0.1v-0.1V64.7z M683.8,91.1
	c0,0.1,0,0.1,0.1,0H683.8z M685.1,84.5c-0.1,0.2-0.1,0.4-0.1,0.6c0,0.2,0,0.4,0,0.5c0.2,0,0.3-0.3,0.3-0.8c0-0.1,0-0.1-0.1-0.1
	C685.1,84.6,685.1,84.5,685.1,84.5z M685.8,75.3v0.4l0.4-0.1c0.1-0.6,0.2-1.2,0.2-1.8c0-0.6,0.2-1.1,0.3-1.7
	c-0.1,0.1-0.2,0.1-0.3,0.1c-0.1,0-0.2,0-0.3,0.1c-0.2,0.1-0.3,0.2-0.2,0.2c0,0,0,0.1-0.2,0.1c0,0.2,0,0.5,0,0.8c0,0.4,0,0.6-0.1,0.8
	c0,0.2,0,0.4,0.1,0.6C685.7,75.1,685.8,75.2,685.8,75.3z M686.4,79.3c0-0.1,0-0.2-0.1-0.3c0-0.1,0-0.3,0.1-0.6l-0.1,0.3
	c0,0.2,0,0.3-0.1,0.3c0,0-0.1,0.2-0.1,0.3c-0.1,0.5-0.2,0.9-0.3,1.5c-0.1,0.5-0.1,1-0.1,1.6l0.3-0.1V82c0-0.3,0-0.5,0.1-0.7
	C686.2,80.7,686.3,80.1,686.4,79.3z M772.6,13.2c0.2,0.4,0.3,0.6,0.3,0.7c1,0.2,1.9,0.4,2.6,0.7c0.7,0.3,1.3,0.6,1.9,1
	c0.1,0.2,0.2,0.3,0.2,0.3c0,0,0.1,0.2,0.2,0.5c1,0.2,1.9,0.7,2.7,1.7c0.8,0.9,1.4,1.9,1.7,3c0.2,0.6,0.2,1.2,0.1,1.7
	c-0.1,0.5-0.2,1-0.2,1.6c-0.5,0.4-0.6,0.8-0.6,1.4c-0.2,0.2-0.4,0.5-0.7,1c-0.3,0.5-0.5,0.9-0.6,1.2c-0.7,0.8-1.3,1.7-1.8,2.6
	c-0.5,0.9-0.9,1.9-1.4,2.9c-0.3,0.5-0.5,0.9-0.7,1.3c-0.2,0.4-0.4,0.9-0.7,1.3c-0.4,0.6-0.7,1.2-0.9,1.8c-0.2,0.6-0.5,1.2-0.8,1.9
	c-0.5,0.6-0.8,1.1-1,1.7c-0.2,0.6-0.4,1.1-0.6,1.6c-0.2,0.5-0.4,1-0.7,1.5c-0.3,0.5-0.7,1-1.2,1.5v0.4c-0.5,0.6-0.9,1.2-1.3,1.9
	c-0.4,0.7-0.8,1.3-1.2,1.8c0.1,0.5,0,0.9-0.3,1.3c-0.3,0.4-0.6,0.8-1,1.2c-0.2,0.1-0.3,0.3-0.4,0.6c-0.1,0.3,0,0.6,0.3,0.8h-0.4
	c0.2,0.3,0.2,0.5,0,0.6c-0.2,0.1-0.1,0.3,0.1,0.3c-0.2,0.2-0.3,0.3-0.4,0.5c-0.1,0.1-0.2,0.3-0.4,0.3c0,0.1-0.1,0.3-0.4,0.6h0.6
	c-0.1,0.4-0.3,0.7-0.5,1c-0.2,0.3-0.4,0.6-0.5,1c-0.2,0.3-0.3,0.6-0.2,0.9c0,0.3,0,0.6-0.2,0.9c0,0.1-0.1,0.2-0.2,0.2
	c-0.1,0-0.2,0.1-0.2,0.2c-0.2,0.4-0.3,0.7-0.3,1c0,0.3,0,0.5-0.1,0.7c-0.1,0.3-0.3,0.5-0.5,0.7c-0.2,0.2-0.3,0.5-0.1,0.8
	c-0.3,0.3-0.4,0.4-0.3,0.4c-0.2,0.6-0.4,1.1-0.6,1.5c-0.2,0.3-0.4,0.6-0.6,0.9c-0.2,0.3-0.4,0.6-0.6,0.9c-0.2,0.3-0.4,0.8-0.6,1.3
	c-0.1,0-0.2,0-0.2,0.1c0,0.1-0.1,0.1-0.2,0.1c0,0.4-0.1,0.8-0.3,1.3c-0.2,0.5-0.3,0.9-0.2,1.2c-0.3,0.4-0.5,0.8-0.7,1.2
	c-0.2,0.5-0.5,1-0.8,1.5c0,1-0.3,1.8-0.8,2.3c-0.5,0.5-0.8,1.2-0.8,2c-0.4,0.2-0.6,0.4-0.6,0.7c0,0.3-0.3,0.5-0.6,0.6
	c-0.1,0.2-0.1,0.3,0,0.4c0.1,0.1,0.1,0.3,0,0.6c-0.1,0.1-0.2,0.2-0.4,0.4c-0.2,0.2-0.1,0.4,0.1,0.6c0,0.1-0.2,0.1-0.6,0.1
	c-0.1,0.4-0.2,0.7-0.2,1.1c0,0.4-0.3,0.8-0.6,1.2c0,0.9-0.2,1.8-0.6,2.6c-0.4,0.8-0.8,1.5-1.2,2.3c0.1,0.7,0.1,1.4-0.1,2.1
	c-0.1,0.6-0.3,1.5-0.6,2.5c0.2,0.3,0.3,0.6,0.2,0.8c0,0.3,0,0.6,0.1,1h-1c-0.1,0.2-0.1,0.4,0.1,0.6c0.1,0.2,0.1,0.4-0.1,0.6
	c0.4,0.3,0.6,0.9,0.6,1.9c-0.1,0.1-0.2,0-0.3-0.1c-0.1-0.2-0.2-0.2-0.4,0c-0.3,0.2-0.4,0.3-0.3,0.4c-0.3,0-0.5-0.1-0.6-0.4
	c-0.1-0.3-0.3-0.5-0.6-0.7c-0.4,0.5-0.6,0.8-0.6,1.1c0,0.3,0.1,0.6,0.3,1.1c-0.4,0.3-0.7,0.4-1,0.3c-0.2,0.6-0.2,0.9-0.1,1.1
	c0.1,0.2,0.3,0.3,0.4,0.3c0.1,0,0.2,0.1,0.2,0.1c0,0-0.3,0.2-0.8,0.5c-0.3,0.3-0.6,0.4-1,0.4c-0.7,0.2-1.6,0.1-2.5-0.2
	c-0.9-0.3-1.7-0.5-2.4-0.5c-0.6,0.1-1.1,0.1-1.5,0.1c-0.5,0-0.9-0.3-1.4-0.8c-0.7-0.8-1.3-1.3-1.7-1.5c-0.4-0.1-0.5-0.8-0.3-1.9
	c0.1-0.5,0-0.9-0.3-1.4c-0.3-0.5-0.5-0.9-0.6-1.4l-1.1-5.5c-1-2.6-1.8-5.2-2.5-8c-0.6-2.7-1.5-5.6-2.6-8.5l-1.4-5
	c-0.1-1.1-0.6-2.2-1.4-3.3c-0.2-0.9-0.3-1.8-0.5-2.7c-0.1-0.9-0.4-1.6-0.8-2.1c-0.2-0.3-0.3-0.7-0.5-1.3c-0.1-0.6-0.3-0.8-0.6-0.6
	c-0.2,0.2-0.4,0.5-0.6,1c-0.2,0.5-0.4,0.8-0.6,1c0,0.3-0.1,0.6-0.4,0.8c-0.5,0.7-0.8,1.5-1,2.4c-0.2,0.8-0.4,1.5-0.7,2.1
	c-0.2,0.6-0.5,1.1-0.8,1.7c-0.4,0.6-0.6,1.2-0.7,1.8c-0.4,0.6-0.6,1.1-0.8,1.5c-0.2,0.3-0.4,0.6-0.6,0.9c-0.2,0.3-0.4,0.6-0.6,0.9
	c-0.2,0.3-0.5,0.8-0.8,1.5c-0.1,0.6-0.2,1-0.4,1.3c-0.2,0.3-0.4,0.7-0.6,1c0.3-0.8,0.5-1.6,0.8-2.4c0.2-0.8,0.3-0.9,0.1-0.2
	c-0.1,0.4-0.2,0.6-0.3,0.8c-0.1,0.1-0.2,0.3-0.3,0.5c-0.2,0.6-0.4,1-0.7,1.4c-0.3,0.4-0.5,0.8-0.7,1.2c0,0.5-0.1,0.6-0.4,0.3
	c-0.3-0.2-0.5-0.2-0.7,0.2c0.1,0.2,0.1,0.3,0.1,0.3c0,0-0.1,0.1-0.1,0.3c-0.1,0.1-0.1,0.3-0.1,0.6v0.3c-0.1,0.4-0.2,0.6-0.4,0.8
	c-0.2,0.2-0.3,0.4-0.4,0.7c-0.2,0.5-0.3,0.9-0.3,1.4c0,0.5-0.2,0.9-0.6,1.4c-0.2,0.6-0.4,1.3-0.7,1.9c-0.3,0.6-0.4,1.3-0.3,1.9
	c-0.1,0-0.1,0-0.1,0.1c0,0.1,0,0.1-0.1,0c0,0.9-0.2,1.7-0.5,2.2c-0.3,0.6-0.5,1.2-0.5,1.9c-0.2,0.1-0.3,0.2-0.2,0.4
	c0,0.2,0,0.3-0.1,0.4c0,0.3-0.1,0.5-0.2,0.7c-0.1,0.2-0.2,0.4-0.1,0.7c0,0.3-0.1,0.5-0.4,0.6c-0.3,0.6-0.4,1.1-0.4,1.7
	c-0.2,0.6-0.4,1-0.7,1.1c-0.1-0.2-0.1-0.3,0.1-0.3c0.1,0,0.2-0.1,0.2-0.3c0-0.8,0.2-1.6,0.6-2.4c0.4-0.8,0.6-1.7,0.5-2.7l0.3-0.4
	c-0.1-0.2-0.1-0.3-0.1-0.3c0,0,0.1-0.1,0.1-0.2c0.4-0.4,0.5-0.8,0.5-1.2c0-0.4,0.1-0.7,0.5-0.9c-0.2-0.2-0.3-0.3-0.4-0.3
	c0.1-0.2,0.2-0.3,0.3-0.4c0.1-0.1,0.1-0.2,0-0.4c-0.3,0-0.4,0.1-0.4,0.4c0,0.3-0.1,0.5-0.3,0.7c0.1,0.4,0.1,0.6-0.1,0.8
	c-0.1,0.2-0.3,0.4-0.3,0.6c-0.2,0.2-0.2,0.3-0.1,0.4c0.1,0.1,0.2,0.2,0.2,0.3c-0.1,0.2-0.2,0.3-0.3,0.5c-0.1,0.1-0.3,0.3-0.3,0.6
	c-0.2,0.7-0.3,1.5-0.5,2.2c-0.1,0.7-0.4,1.3-0.8,1.8c0.1,0.5,0,1-0.2,1.5c-0.2,0.6-0.3,1.1-0.3,1.7c-0.3,0.2-0.4,0.4-0.5,0.6
	c0,0.2-0.3,0.3-0.6,0.4c-0.1-0.5-0.1-0.9,0.1-1.3c0.1-0.4,0.3-0.9,0.5-1.3c-0.2-0.4-0.3-0.8-0.3-1.4c-0.5,0.3-0.8,0.9-1,1.8
	c-0.2,0.9-0.4,1.5-0.6,1.8c-0.1,0-0.1-0.1-0.1-0.3c0-0.2,0-0.4,0-0.6c-0.1,0-0.2,0-0.2,0.1c0,0-0.1,0.1-0.2,0.1c0,0.4,0,0.8-0.1,1.2
	c0,0.4-0.4,0.7-1,0.9c0.2-0.2,0.3-0.5,0.2-0.8c0-0.4,0-0.7,0.2-1c-0.6,0-1,0.2-1,0.6c0,0.4,0,0.6,0,0.8c-0.2,0-0.3,0.1-0.3,0.3
	c0,0.2-0.1,0.3-0.3,0.3c-0.1,0.2-0.1,0.3-0.1,0.3c0,0,0.1,0.3,0.1,0.6c-0.8,0.2-1.6,0.3-2.4,0.3c-0.8,0-1.6,0.1-2.4,0.2
	c-0.7-0.4-1.2-0.9-1.5-1.6c-0.2-0.7-0.3-1.5-0.3-2.3c0-0.8,0.1-1.7,0.3-2.5c0.1-0.8,0.3-1.5,0.5-2.1c0-0.3,0-0.6-0.1-0.9
	c0-0.3,0-0.6,0.1-0.8c0.2-0.8,0.4-1.6,0.8-2.3c0.3-0.7,0.6-1.5,0.8-2.4c0.5-1.6,0.8-3.1,1.1-4.6c0.3-1.5,0.6-3.1,1.1-4.6l0.4-1
	c0.1-0.4,0.1-0.7,0.1-1.1c0-0.4,0-0.8,0.1-1.2c0.7-1.7,1.2-2.8,1.5-3.5c0.2-0.7,0.4-1.3,0.5-1.7c0.1-0.5,0.2-1.1,0.3-1.8
	c0.1-0.7,0.6-1.9,1.3-3.6c0.7-1.3,1.3-3,1.7-5.2c0.4-2.2,1-3.9,1.7-5.2c0.4-0.8,0.8-1.9,1.2-3.2c0.5-1.3,0.9-2.6,1.5-3.9
	c0.5-1.3,1-2.6,1.5-3.8c0.5-1.2,0.9-2.2,1.2-2.9c0.5-1.3,1-2.5,1.5-3.5c0.6-1.1,1.1-2.2,1.5-3.4c0.4-0.6,0.6-1.1,0.8-1.6
	c0.2-0.5,0.4-1.1,0.6-1.9c0.3-0.4,0.5-0.7,0.8-1.1c0.2-0.4,0.5-0.8,0.8-1.2c0.1-0.5,0.2-0.9,0.2-1.2c0-0.3,0.1-0.6,0.1-0.9
	c0.4-0.5,0.7-0.9,1-1.5c0.3-0.5,0.6-1,0.9-1.5c0.6-0.3,1-0.7,1.5-1.2c0.4-0.5,0.9-1,1.3-1.5c0.6,0,1-0.3,1.1-1
	c0.6-0.2,1.3-0.2,1.9,0c0.6,0.2,1.2,0.4,1.7,0.6c0.7,0.2,1.4,0.4,2,0.6c0.6,0.2,1.3,0.5,2,1c0.5,0.5,0.9,0.9,1.5,1.2
	c0.5,0.3,1,0.7,1.5,1.2c0.2,0.2,0.4,0.6,0.6,1.2c0.3,0.2,0.5,0.4,0.6,0.6c0.1,0.2,0.3,0.3,0.3,0.4c0.2,0.3,0.3,0.6,0.3,1
	s0,0.8,0.1,1c0.2,0.5,0.3,1,0.4,1.6c0.1,0.6,0.2,1.2,0.4,1.9c0.2,1.1,0.3,2.2,0.5,3.3c0.1,1.1,0.3,2.2,0.6,3.2
	c0.1,0.5,0.1,1,0.1,1.7c0,0.7,0.1,1.3,0.3,1.7c0,0.2,0,0.3,0.1,0.3c0,0,0.1,0.2,0.1,0.3c0.2,0.6,0.4,1.5,0.6,2.8
	c0.2,1.3,0.5,2.7,0.7,4.1c0.2,1.4,0.5,2.8,0.7,4.1c0.2,1.3,0.4,2.3,0.6,2.8c0.8,3.2,1.3,6.1,1.5,8.7c0.2,2.6,0.8,5.3,1.8,8.2
	c0.6-0.7,1-1.8,1-3c0.8-1.7,1.6-3.4,2.3-5.1c0.7-1.8,1.4-3.5,2.1-5.4c1.1-2.8,2.1-5.2,3-7.2c0.9-2,1.7-4,2.5-5.9
	c0.8-1.9,1.6-3.8,2.4-5.7c0.8-1.9,1.8-4.2,2.8-6.9c1-1.8,2-3.8,2.8-5.7c0.9-2,1.7-3.9,2.4-5.7v-0.8c0.2-0.6,0.4-1,0.7-1.2
	c0-0.6,0.2-1,0.5-1.3c0.3-0.3,0.7-0.7,1.2-1.2c0.2-0.3,0.4-0.6,0.7-0.9c0.3-0.3,0.5-0.7,0.7-1.2h0.1c0.1,0,0.2,0,0.3-0.1
	C770.4,13.8,771.2,13.2,772.6,13.2z M703,98.1l0.3,0.1c0,0.1,0.1-0.1,0.3-0.6c0-0.3-0.1-0.4-0.3-0.4c0,0.2,0,0.3-0.1,0.4
	C703.1,97.8,703,98,703,98.1z M703.5,96.9V97c0.3,0,0.4-0.1,0.4-0.3C703.6,96.8,703.5,96.8,703.5,96.9z M710.5,82.1
	c-0.2,0.2-0.3,0.4-0.2,0.6c0,0.2,0,0.3-0.2,0.3c-0.1,0-0.2,0-0.3-0.1c-0.1-0.1-0.2-0.1-0.3,0c0,0.2,0,0.4-0.1,0.6
	c-0.1,0.2-0.1,0.4-0.1,0.7c0.2,0,0.3,0,0.3-0.1c0-0.1,0-0.1,0.1-0.1c0.1-0.2,0.1-0.3,0-0.2c-0.1,0-0.1,0,0-0.1c0.1,0,0.1,0,0.1-0.1
	c0-0.1,0-0.1,0.2,0c0,0.2,0,0.3,0.1,0.3c0.4-0.3,0.6-0.7,0.6-1.2v-0.3C710.6,82.1,710.6,82.1,710.5,82.1z M709.4,87.2
	c0.2-0.2,0.3-0.5,0.3-0.9c0-0.4,0.2-0.9,0.3-1.3c-0.4,0-0.6,0.3-0.6,0.8C709.4,86.4,709.4,86.9,709.4,87.2z M709.7,82.7
	c0.2,0,0.3-0.1,0.3-0.3h-0.3V82.7z M709.8,84.7v-0.1h-0.1v0.1H709.8z M710,84.3c0-0.2,0-0.3,0.1-0.3c0.1,0,0.1-0.1,0.1-0.3
	C709.8,84,709.7,84.2,710,84.3z M709.8,82c0.4-0.2,0.5-0.3,0.4-0.4c-0.1-0.1-0.1-0.2,0-0.4H710L709.8,82z M710,83.1
	c0.1,0.1,0.1,0.1,0.1,0H710z M710.8,78.1c0.1,0.5,0,0.8-0.1,0.9c-0.2,0.1-0.2,0.3-0.1,0.6c0.4,0,0.5-0.2,0.5-0.6c0-0.4,0-0.8,0.2-1
	c-0.1,0-0.2,0-0.3-0.1c-0.1,0-0.1,0,0.1,0.1v0.1H710.8z M710.8,81.3l-0.3-0.1v0.7C710.7,81.8,710.8,81.6,710.8,81.3z M711.8,77.8
	v-0.3c-0.1,0.1-0.2,0.1-0.3,0.1C711.4,77.7,711.5,77.7,711.8,77.8z M714.9,77.1c-0.2,0.3-0.3,0.4-0.2,0.3c0-0.1,0.1-0.3,0.2-0.7
	V77.1z M714.9,76.7c0.2-0.2,0.3-0.5,0.3-0.8L714.9,76.7z M754.5,64.4c-0.2,0-0.3,0-0.3,0.1c0,0.1,0,0.1-0.1,0.1
	c0,0.6-0.1,1.2-0.3,1.6c-0.2,0.4-0.4,0.9-0.6,1.5v0.1c0.2-0.5,0.4-0.9,0.7-1.3c0.3-0.4,0.5-0.9,0.7-1.3c0.2-0.5,0.4-1,0.6-1.7
	c0.2-0.6,0.4-1.2,0.5-1.7c-0.3,0.5-0.5,0.9-0.8,1.2C754.6,63.5,754.5,63.9,754.5,64.4z M755.6,61.5c0.4-0.1,0.6-0.3,0.8-0.7
	c0.1-0.4,0.2-0.7,0.2-1C756,60.3,755.7,60.8,755.6,61.5z M761.5,51.4c0.2,0.3,0.1,0.5-0.1,0.7c-0.3,0.2-0.5,0.4-0.7,0.7
	c-0.1,0.2-0.1,0.3-0.1,0.5c0,0.1,0,0.3-0.2,0.6c1.1-1.1,1.9-2.4,2.5-4c-0.5,0.1-0.7,0.3-0.7,0.8S762,51.3,761.5,51.4z"/>
</svg>
