<?xml version="1.0" encoding="utf-8"?>
<!-- Generator: Adobe Illustrator 22.1.0, SVG Export Plug-In . SVG Version: 6.00 Build 0)  -->
<svg version="1.1" xmlns="http://www.w3.org/2000/svg" xmlns:xlink="http://www.w3.org/1999/xlink" x="0px" y="0px"
	 viewBox="0 0 500 80.9" style="enable-background:new 0 0 500 80.9;" xml:space="preserve">
<g id="O">
	<path d="M49.4,50.8c0.1,0.1,0.2,0.3,0.2,0.4c0,0.2-0.1,0.3-0.4,0.4c-0.1,0.1-0.1,0.2-0.3,0.4c-0.1,0.1-0.2,0.2-0.2,0.4l-0.4,0.6
		c-0.1,0.2-0.3,0.4-0.4,0.6c-0.1,0.2-0.3,0.4-0.4,0.7c-0.2,0.2-0.3,0.5-0.4,0.8l-1.9,2.8c-1.1,1.4-1.9,2.2-2.5,2.4
		c-0.2,0.2-0.4,0.4-0.5,0.6c-0.2,0.2-0.5,0.6-0.9,1.3c-0.6,0.7-1,1.2-1.2,1.5c-0.2,0.3-0.4,0.5-0.6,0.6c-0.1,0.1-0.2,0.1-0.4,0.2
		c-0.1,0.1-0.1,0,0-0.3c-0.4,0.2-0.9,0.5-1.5,0.9c-0.6,0.4-0.9,0.7-1.1,0.8c0.1-0.1,0.4-0.1,1.1-0.1c-0.2,0.1-0.5,0.4-0.8,0.7
		c-0.3,0.4-0.5,0.7-0.7,1c-0.5,0.1-0.9,0.3-1.2,0.6c-0.3,0.3-0.6,0.5-0.8,0.8c0-0.1-0.1,0-0.4,0.1c-0.2,0.1-0.4,0.2-0.5,0.3v-0.1
		c-0.1,0.1-0.3,0.2-0.5,0.2v0.4c-0.1,0.2-0.4,0.5-0.7,0.7c-0.4,0.3-0.8,0.5-1.3,0.8c-0.5,0.3-1,0.5-1.5,0.8c-0.5,0.3-1,0.5-1.3,0.7
		l-1.1,0.4c-0.2,0.1-0.5,0.1-0.7,0.1c-0.2,0-0.5,0.1-0.8,0.2c-0.5,0.3-1.1,0.5-1.8,0.8c-0.6,0.2-1.3,0.4-1.9,0.5c-0.1,0-0.1,0-0.1,0
		c0,0,0,0-0.1,0h-0.2c-0.6,0.1-1.4,0.1-2.3,0.3c-0.9,0.1-2,0.2-3.1,0.2c-0.7,0-1.4-0.1-1.9-0.2c-0.6-0.1-1.1-0.2-1.6-0.3
		c-1.8-0.4-3.4-1.1-5-2.1c-1.6-1.1-2.9-2.3-4-3.8c-1.1-1.5-2-3.2-2.6-5c-0.6-1.9-0.9-3.8-0.8-5.8c0.1-2.5,0.4-4.8,1.2-6.9
		c0.7-2.1,1.4-4.1,2.1-5.9c1.5-3.6,3.1-7,5-10.1c1.8-3.1,4-6.2,6.5-9.3c1.3-1.5,2.6-3,4-4.6c1.4-1.6,2.7-3.1,4-4.6l1.1-1l1.6-1.6
		c0.8-0.8,1.6-1.6,2.4-2.3c0.8-0.7,1.4-1.2,1.9-1.5c0.5-0.2,0.8-0.4,0.9-0.6c0.1-0.2,0.3-0.4,0.6-0.5l1.5-1.4L33.4,7
		c0.4-0.3,0.7-0.5,0.9-0.8c0.3-0.2,0.7-0.4,1.2-0.5c0.1-0.1,0.3-0.1,0.6-0.1c0.1,0,0.3,0,0.4,0c0.2,0,0.3,0,0.4-0.1
		c0.1,0.1,0.2,0,0.4-0.1c0.1-0.1,0.3-0.2,0.4-0.2c0.1,0,0.2,0,0.5,0c0.3,0,0.5,0,0.7-0.1c0.2,0.2,0.4,0.5,0.4,0.7
		c0,0.1,0.1,0.3,0.2,0.4c0.1,0.1,0.5,0.3,1.3,0.5c0.7,0.2,1.5,0.4,2.3,0.6c0.9,0.1,1.7,0.2,2.6,0.4c0.8,0.1,1.4,0.4,1.6,0.9l0.4,0.6
		c0.1,0.3,0.3,0.6,0.5,0.8c0.2,0.3,0.4,0.5,0.6,0.8l0.7,1c0.3,0.5,0.6,1.2,0.8,2.3c0.2,1,0.4,1.9,0.4,2.7c-0.2,0.1-0.3,0.2-0.3,0.4
		c0.1,0.1,0.3,0.3,0.5,0.4c0.2,0.2,0.4,0.2,0.5,0.1l-0.1-0.1c-0.1-0.1-0.2-0.2-0.2-0.3c0-0.1,0-0.2,0-0.5c0.2,0.3,0.4,0.5,0.6,0.8
		c0.2,0.2,0.3,0.5,0.4,0.8c0.1,0.5,0.4,0.9,0.8,1.1h0.3c0,0.1,0,0.3,0,0.5c0,0.2,0.1,0.4,0.2,0.5c0,0.1,0.1,0.2,0.3,0.2
		c0.2,0,0.3,0,0.4,0c0.4,1,0.8,2.1,1.1,3.3s0.6,2.6,0.7,4.1c0.1,0.5,0.2,1,0.2,1.7c0,0.6,0,1.2-0.1,1.6c0,0.1,0,0.2,0,0.4
		c0,0.1,0,0.2,0,0.3c0,0.1,0,0.3,0,0.4s0,0.3-0.1,0.4c0,0.2,0,0.4,0,0.8c0,0.4-0.1,0.6-0.2,0.7c-0.1,0.1-0.1,0.1-0.1,0.2
		c0,0.1,0,0.1-0.1,0.1c0.2,0.2,0.2,0.4,0.1,0.7c0.1,0.3,0,0.7-0.3,1.2v-0.1c-0.2,0.9-0.4,1.7-0.5,2.2c-0.1,0.5-0.2,0.9-0.3,1.2
		c-0.1,0.3-0.1,0.6-0.2,0.7c-0.1,0.1-0.1,0.3-0.2,0.6l-0.7,0.9c0,0.1,0,0.1,0,0.2c0,0.1,0,0.2,0,0.4l-0.4,0.8l0.1-0.1
		c0,0.1,0,0.2-0.1,0.3c-0.1,0.1-0.1,0.3-0.1,0.3c-0.3,0.4-0.5,0.7-0.6,0.9c-0.1,0.2-0.2,0.5-0.4,0.8l-0.7,1.7c0,0.2-0.1,0.3-0.2,0.4
		c-0.1,0.1-0.3,0.3-0.4,0.6c0-0.1-0.1,0.1-0.2,0.5c-0.1,0.4-0.3,0.7-0.4,0.8c-0.1,0.3-0.2,0.5-0.3,0.6c-0.1,0.1-0.1,0.2-0.1,0.3
		l-0.2,0.3L49.4,50.8z M18.4,64.7c1-0.1,1.9-0.4,2.8-0.9c0.9-0.5,1.8-1,2.7-1.7v0.2l2.1-1.6c0.5-0.4,1-0.8,1.5-1.3
		c0.5-0.4,1-0.9,1.5-1.4c1-1.1,2-2.2,3-3.2c1-1,2.1-2.4,3.2-4l1.9-2.7c1.1-1.6,2.1-3.3,3.2-5.2c1.1-1.9,2-4,2.8-6.5
		c0.4-0.8,0.6-1.7,0.8-2.7c0.1-1,0.2-1.9,0.2-2.6c0-1,0-1.9-0.1-2.7c-0.1-0.8-0.3-1.6-0.6-2.4c-0.1-0.5-0.1-0.8-0.1-1
		c0-0.2-0.1-0.4-0.2-0.6c-0.3-0.2-0.5-0.8-0.5-1.6c-0.5-0.1-0.7-0.2-0.8-0.4c0-0.2-0.1-0.5-0.3-0.7c-0.2-0.2-0.3-0.4-0.4-0.6
		c-0.1-0.2-0.2-0.4-0.4-0.4c-0.2,0.1-0.4,0.3-0.6,0.5c-0.2,0.2-0.5,0.4-0.8,0.5c-0.8,0.4-1.5,0.8-2,1.2c-0.5,0.4-1.1,0.9-1.8,1.5
		c-1.8,1.5-3.6,3.3-5.4,5.6c-1.8,2.2-3.7,4.5-5.5,6.6c-0.2,0.4-0.5,0.8-0.8,1.1c-0.3,0.3-0.5,0.6-0.7,0.9c-1.2,1.6-2.4,3.3-3.6,5.3
		c-1.1,1.9-2.2,4-3.1,6.1c-0.5,0.9-1,2-1.5,3.1c-0.4,1.1-0.8,2.3-1.2,3.5c-0.3,1.2-0.6,2.4-0.8,3.6c-0.2,1.2-0.3,2.4-0.4,3.5
		l0.4,0.6c0.3,0.5,0.8,0.9,1.5,1C15.3,65.3,16.6,65.1,18.4,64.7z"/>
</g>
<g id="L">
	<path d="M64.8,57.2c1.2-0.1,2.3-0.3,3.5-0.7c1.1-0.3,2.3-0.6,3.5-0.8c1.3-0.2,2.3-0.4,2.9-0.5c0.6-0.1,1.2-0.2,1.7-0.3
		c0.5-0.1,1.1-0.2,1.7-0.3c0.6-0.1,1.7-0.2,3.1-0.4c0.3-0.1,0.6-0.1,1-0.2C82.6,54,83,54,83.4,54c0.2,0,0.5,0,0.8,0.1
		c0.3,0.1,0.6,0.1,1,0.2c0.1,0,0.1,0,0.2,0c0.1,0,0.2,0,0.4,0c0.4,0.1,0.6,0.3,0.6,0.4c0,0.1,0,0.4,0.2,0.8c-0.2-0.2-0.3-0.2-0.4,0
		c-0.1,0.2-0.2,0.3-0.3,0.1c-0.1,0.1-0.3,0.1-0.5,0c-0.2-0.1-0.3,0-0.4,0.1c0.1,0.1,0.3,0.2,0.5,0.2c0.2,0,0.4,0,0.5,0
		c-0.1,0.2-0.2,0.3-0.4,0.3c-0.2,0-0.4,0.1-0.5,0.2c-0.1,0.1,0,0.1,0,0.2c0.1,0.1,0.1,0.2,0.1,0.3c-0.5-0.1-0.8,0-1.1,0.1
		c-0.3,0.1-0.5,0.3-0.7,0.4c0.3,0.2,0.6,0.2,0.9,0.1c0.3-0.1,0.6-0.2,0.9-0.3c-0.2,0.2-0.5,0.3-0.7,0.4c-0.2,0.1-0.5,0.1-0.8,0.1
		c0,0.1,0,0.2,0.1,0.1c0.1,0,0.1,0,0.3,0c-0.1,0.1-0.2,0.2-0.3,0.3c-0.1,0.1-0.2,0.2-0.4,0.2c0.1,0.4,0.5,0.7,1.2,1l-0.2,0.1h-0.1
		v0.1c0,0.4,0.1,0.5,0.4,0.5c-0.2,0.1-0.2,0.2,0,0.2c0.2,0,0.3,0.1,0.3,0.1C85,60.9,84.7,61,84.3,61s-0.8,0-1.1,0.1
		c-0.4,0.1-0.7,0.3-1.1,0.5c-0.4,0.2-0.7,0.3-1.1,0.4l0.1,0.2c-0.8,0-1.8,0.1-3,0.4c-1.2,0.3-2.2,0.5-3,0.7c-0.1,0-0.1,0-0.1,0.1
		c0,0.1-0.1,0.1-0.2,0.2l-0.6,0.3c-1.2,0.4-1.9,0.6-2.3,0.7c-0.3,0.2-0.6,0.3-0.7,0.4c-0.1,0.1-0.4,0.2-0.7,0.4s-1.1,0.3-2.3,0.6
		L65,67c-1.2,0.4-2.2,0.9-3.1,1.6c-0.9,0.7-1.9,1.3-3,1.9c-0.8,0.1-1.6,0.3-2.5,0.5c-0.9,0.2-1.8,0.4-2.6,0.5
		c-0.2,0-0.4-0.1-0.4-0.2c0-0.1-0.1-0.2-0.3-0.2c-0.5-0.1-0.7-0.2-0.6-0.4c0.1-0.2,0-0.4-0.4-0.7C52,69.6,52,69.2,52,68.9
		c0-0.3-0.1-0.6-0.2-0.9c-0.1-0.4-0.3-0.6-0.4-0.4c-0.2,0.1-0.3,0-0.3-0.4c0-0.3-0.1-0.6-0.3-0.9c-0.2-0.3-0.3-0.6-0.4-0.9
		c-0.1-0.3-0.2-0.7-0.3-1.1c-0.1-0.4,0-0.8,0.3-1.2c0.1-0.5,0.3-0.8,0.5-1.1c0.1-0.1,0.2-0.2,0.2-0.3s0.1-0.2,0.2-0.3l1.2-0.5
		c-0.2,0-0.5,0-0.7-0.1c0.9-2.4,1.8-4.6,2.6-6.5c0.9-1.9,1.7-3.7,2.6-5.5c0.9-1.7,1.8-3.5,2.7-5.3c0.9-1.8,1.8-3.8,2.7-5.9
		c1.4-3.1,2.7-6.2,4.1-9.3s2.8-6.1,4.3-9.2c0.1-0.3,0.2-0.6,0.4-1c0.1-0.4,0.3-0.7,0.5-1c0.1-0.1,0.3-0.2,0.5-0.4
		c0.1-0.1,0.1-0.2,0.1-0.4s0.1-0.3,0.2-0.5c0.3-0.3,0.6-0.6,1.1-0.8c0.4-0.2,0.9-0.4,1.3-0.5c0.1-0.1,0.2-0.2,0.4-0.3
		c0.1-0.1,0.3-0.1,0.5-0.3c0.2-0.3,0.6-0.4,1.1-0.2c0.3,0.1,0.5,0.3,0.6,0.5c0.1,0.2,0.2,0.4,0.3,0.6c0.2,0.3,0.4,0.5,0.6,0.5
		c0.2,0.1,0.4,0.2,0.5,0.4l0.8,1.1c0.3,0.4,0.7,0.7,1.1,1.2c0.4,0.4,0.8,0.9,0.9,1.3c0.2,0.4,0.3,0.8,0.5,1.3s0.2,1,0.2,1.4
		c-0.2,1-0.6,1.8-1.2,2.5c-0.6,0.6-1.1,1.4-1.4,2.2c-0.5,0.7-0.9,1.4-1.3,2c-0.4,0.7-0.8,1.4-1.1,2.2c-0.6,0.7-1.1,1.5-1.6,2.4
		c-0.5,0.9-1,1.8-1.4,2.7c-0.6,1.5-1.4,3-2.2,4.5c-0.8,1.5-1.5,3-2.1,4.5c-0.2,0.4-0.4,0.7-0.6,1.1S69.2,47,69,47.4
		c-0.1,0.5-0.2,0.8-0.4,0.9c-0.1,0.1-0.3,0.4-0.5,0.8c-0.2,0.6-0.4,1.1-0.6,1.5c-0.2,0.4-0.4,0.7-0.5,1c-0.2,0.3-0.4,0.7-0.5,1
		c-0.2,0.3-0.4,0.8-0.6,1.4c-0.1,0.6-0.3,1.1-0.5,1.7C65.1,56.2,64.9,56.7,64.8,57.2z M61.6,55c-0.1,0.1-0.2,0.2-0.4,0.4
		c-0.1,0.2-0.1,0.3,0.2,0.4C61.4,55.4,61.5,55.2,61.6,55z M62.1,55.7c-0.2,0-0.3,0-0.2,0c0,0,0,0.1,0,0.2c0.1,0,0.2,0,0.3,0
		C62.4,55.8,62.3,55.8,62.1,55.7z M62.5,55.6c0-0.1-0.1-0.2-0.2-0.2s-0.2,0.1-0.1,0.2c0.1,0.1,0.2,0,0.1,0
		C62.2,55.4,62.3,55.4,62.5,55.6z M65.5,49.1c-0.1-0.1-0.2,0-0.4,0c-0.1,0.1-0.2,0.1-0.4,0c-0.1,0.1-0.1,0.2,0,0.3
		c0.1,0.1,0.1,0.2,0,0.4v0.1c-0.2,0.4-0.4,0.7-0.5,1c-0.1,0.3-0.2,0.7-0.3,1.1H64c-0.2,0.5-0.5,1-0.8,1.5c-0.4,0.6-0.7,1.1-1,1.7
		c0.1,0,0.2,0,0.2,0.1c0,0.1,0.1,0.1,0.2,0c0.4-0.4,0.6-0.6,0.7-0.9c0.6-0.1,0.9-0.2,1-0.3c0-0.1-0.1-0.1-0.2-0.1
		c-0.1,0.1-0.2,0-0.3-0.1c0.4,0,0.5-0.1,0.5-0.2c0-0.1,0-0.3-0.1-0.4c0-0.1,0-0.2,0.1-0.3c0.1-0.1,0.1-0.3,0.1-0.4
		c0.2-0.3,0.5-0.6,0.7-0.8c0.2-0.2,0.3-0.6,0.3-1c-0.2,0-0.3,0-0.3,0.1c0,0.1,0,0.2-0.1,0.2c-0.1-0.1-0.1-0.1-0.2,0
		c-0.1,0.1-0.1,0.1-0.3,0c0-0.2,0.1-0.4,0.2-0.6c0.1-0.2,0.2-0.5,0.3-0.8h-0.2c0.3-0.1,0.4-0.2,0.3-0.4
		C65.1,49.4,65.2,49.2,65.5,49.1z M63.5,54.8c-0.2,0.2-0.4,0.4-0.4,0.6c0,0.2,0,0.5,0,0.8h0.1c0-0.3,0.1-0.5,0.2-0.7
		C63.6,55.3,63.6,55.1,63.5,54.8z M64.2,48.8h-0.3c0,0.2,0,0.3-0.1,0.3C64,49,64.2,48.9,64.2,48.8z M65.8,47.9
		c-0.3,0.1-0.5,0.3-0.6,0.5c-0.1,0.2-0.2,0.4-0.4,0.5c0.5,0.2,0.7,0.1,0.8-0.2C65.7,48.3,65.7,48,65.8,47.9z M65.6,50.4
		c-0.1,0-0.2,0-0.3,0c-0.1,0-0.1,0.1-0.3,0.1c0.1,0.1,0.2,0.1,0.4,0S65.6,50.5,65.6,50.4z M65.9,47.8c0.1-0.4,0.3-0.7,0.4-1
		c0.2-0.3,0.4-0.6,0.5-0.9c-0.1,0-0.2,0-0.3,0c-0.1,0-0.1,0,0-0.1H67c0.2-0.3,0.3-0.6,0.3-0.8c0-0.3,0.2-0.5,0.5-0.8
		c-0.1,0-0.2,0.1-0.3,0.2c-0.1,0.1-0.2,0.1-0.4,0.1c0.2-0.4,0.4-0.7,0.6-1.1c0.2-0.4,0.3-0.7,0.4-1.1c0.3-0.2,0.5-0.4,0.7-0.8
		c0.1-0.3,0.2-0.6,0.1-0.8l-0.1,0.1h-0.2c-0.3,0.5-0.6,0.9-0.8,1.4c-0.2,0.5-0.5,0.9-0.8,1.4c0,0.1,0,0.1,0,0.1c0,0,0,0.1,0,0.1
		h-0.1c0,0.4-0.1,0.7-0.4,0.9c-0.2,0.2-0.3,0.5-0.3,0.9h-0.4c0,0.1,0.1,0.1,0.2,0.1s0.2,0.1,0.2,0.2c-0.3,0-0.5,0-0.5,0.1
		c0,0.1,0,0.1,0,0.3c-0.2,0.2-0.4,0.5-0.4,0.7c0,0.2-0.1,0.5-0.2,0.8c0.1,0,0.2,0,0.3,0C65.6,47.8,65.8,47.8,65.9,47.8z M65.8,49.3
		c0,0.1,0,0.1-0.1,0.2c-0.1,0.1-0.1,0.1-0.1,0.3c0.1,0,0.2-0.1,0.3-0.2C66,49.4,66,49.3,65.8,49.3z M66.9,48c0-0.1,0-0.2-0.1-0.3
		c-0.1-0.1,0-0.2,0.2-0.4c-0.3,0.2-0.5,0.4-0.7,0.7c-0.1,0.3-0.3,0.5-0.5,0.8c0.2,0,0.2,0,0.1,0.1c-0.1,0.1-0.1,0.2-0.1,0.3
		c0.3-0.1,0.5-0.3,0.5-0.6C66.4,48.4,66.6,48.2,66.9,48z M67.6,40.5c0.2,0,0.3-0.1,0.3-0.4c-0.1,0-0.2,0-0.3,0.1
		c-0.1,0.1-0.2,0.1-0.4,0.3c0.2,0.1,0.2,0.2,0.1,0.1c-0.1,0-0.1,0-0.1,0c-0.1,0.1-0.1,0.1,0,0.3c0.1,0.1,0.1,0.2,0,0.3
		c0,0.1,0,0.1-0.1,0.1H67c-0.3,0.3-0.4,0.6-0.3,0.9c0.2-0.4,0.4-0.6,0.6-0.9C67.5,41,67.6,40.8,67.6,40.5z M68.1,41.1
		c-0.2,0.1-0.3,0.1-0.2,0.1c0,0,0,0.1-0.1,0.2C67.9,41.4,68.1,41.3,68.1,41.1z M68.6,38.9c-0.2,0.2-0.3,0.4-0.5,0.6
		c-0.1,0.2-0.2,0.4,0,0.5c0.1-0.2,0.3-0.4,0.4-0.5C68.7,39.2,68.7,39,68.6,38.9z M68.3,40.5c-0.2,0-0.3,0.1-0.3,0.3
		C68.5,40.8,68.6,40.7,68.3,40.5z M68.6,37.6c-0.2,0-0.3,0-0.4,0.1c-0.1,0.1-0.1,0.2,0,0.2c0.1,0,0.2,0,0.2-0.1
		C68.4,37.8,68.5,37.7,68.6,37.6z M68.9,39.8c-0.2,0-0.3,0.1-0.3,0.2C68.8,39.8,68.9,39.8,68.9,39.8z M69.5,38.4
		c0.2,0,0.3,0,0.3-0.1c0-0.1,0.1-0.1,0.1-0.1c0.1-0.4,0.2-0.8,0.4-1.1c0.2-0.3,0.3-0.6,0.4-1c-0.2,0-0.3-0.1-0.3-0.2
		c0.1-0.1,0.2-0.3,0.4-0.6c0.1-0.3,0.1-0.5,0.1-0.6c-0.2,0.5-0.5,0.9-0.8,1.4c-0.3,0.4-0.5,0.9-0.7,1.3c0,0.2,0.1,0.3,0.2,0.2
		c0.1,0,0.2,0,0.2,0.1c-0.4,0-0.5,0.1-0.5,0.2h0.1l0.1,0.1c-0.3,0.1-0.5,0.2-0.5,0.3c-0.1,0.1-0.1,0.2-0.2,0.3c0.1,0,0.2,0,0.2-0.1
		c0-0.1,0.1-0.1,0.3-0.1c-0.2,0.2-0.3,0.3-0.3,0.5s-0.1,0.3-0.2,0.5c0.4-0.1,0.5-0.3,0.4-0.5C69.1,38.7,69.2,38.5,69.5,38.4z
		 M69.7,39.2c-0.2,0-0.4,0.1-0.4,0.2c0,0.1,0,0.2-0.1,0.4h0.1c0.1-0.1,0.2-0.2,0.3-0.3C69.7,39.4,69.7,39.3,69.7,39.2z M71,38.1
		c-0.2,0-0.4,0.1-0.5,0.2c-0.1,0.1-0.1,0.3,0,0.3C70.8,38.4,70.9,38.2,71,38.1z M71.4,36.9c-0.2,0.1-0.3,0.1-0.3,0.2
		c0,0.1-0.1,0.1-0.1,0.2l0.1,0.1c0-0.1,0.1-0.2,0.2-0.2C71.4,37.1,71.4,37,71.4,36.9z M72.2,35.8C72.2,35.8,72.1,35.7,72.2,35.8
		c-0.4,0-0.5,0.1-0.5,0.2c0,0.1,0,0.2-0.1,0.4c0.3-0.1,0.4-0.1,0.4-0.3C72,36,72.1,35.9,72.2,35.8z M71.8,36.8c-0.1,0-0.2,0-0.1,0.1
		c0,0.1,0,0.1,0,0.2c0.2,0,0.2,0,0.2-0.1C71.7,36.9,71.7,36.9,71.8,36.8z M72.7,34.8c0.6-0.6,1-1.2,1.1-1.9h-0.5
		c-0.1,0.2-0.1,0.4,0,0.5c0,0.2-0.1,0.3-0.4,0.4c0,0.1,0.1,0.1,0.2,0.1c0.1-0.1,0.2,0,0.2,0.1c-0.3,0.1-0.5,0.3-0.5,0.4
		c0,0.2-0.2,0.4-0.4,0.6h0.4V34.8z M74.2,32.1c-0.5,0.1-0.8,0.3-0.7,0.6C73.9,32.6,74.2,32.4,74.2,32.1z"/>
</g>
<g id="L_1_">
	<path d="M97.6,57.2c1.2-0.1,2.3-0.3,3.5-0.7c1.1-0.3,2.3-0.6,3.5-0.8c1.3-0.2,2.3-0.4,2.9-0.5c0.6-0.1,1.2-0.2,1.7-0.3
		c0.5-0.1,1.1-0.2,1.7-0.3c0.6-0.1,1.7-0.2,3.1-0.4c0.3-0.1,0.6-0.1,1-0.2c0.4-0.1,0.8-0.1,1.1-0.1c0.2,0,0.5,0,0.8,0.1
		c0.3,0.1,0.6,0.1,1,0.2c0.1,0,0.1,0,0.2,0c0.1,0,0.2,0,0.4,0c0.4,0.1,0.6,0.3,0.6,0.4c0,0.1,0,0.4,0.2,0.8c-0.2-0.2-0.3-0.2-0.4,0
		c-0.1,0.2-0.2,0.3-0.3,0.1c-0.1,0.1-0.3,0.1-0.5,0c-0.2-0.1-0.3,0-0.4,0.1c0.1,0.1,0.3,0.2,0.5,0.2c0.2,0,0.4,0,0.5,0
		c-0.1,0.2-0.2,0.3-0.4,0.3c-0.2,0-0.4,0.1-0.5,0.2c-0.1,0.1,0,0.1,0,0.2c0.1,0.1,0.1,0.2,0.1,0.3c-0.5-0.1-0.8,0-1.1,0.1
		c-0.3,0.1-0.5,0.3-0.7,0.4c0.3,0.2,0.6,0.2,0.9,0.1c0.3-0.1,0.6-0.2,0.9-0.3c-0.2,0.2-0.5,0.3-0.7,0.4c-0.2,0.1-0.5,0.1-0.8,0.1
		c0,0.1,0,0.2,0.1,0.1c0.1,0,0.1,0,0.3,0c-0.1,0.1-0.2,0.2-0.3,0.3c-0.1,0.1-0.2,0.2-0.4,0.2c0.1,0.4,0.5,0.7,1.2,1l-0.2,0.1h-0.1
		v0.1c0,0.4,0.1,0.5,0.4,0.5c-0.2,0.1-0.2,0.2,0,0.2c0.2,0,0.3,0.1,0.3,0.1c-0.1,0.3-0.4,0.4-0.8,0.4s-0.8,0-1.1,0.1
		c-0.4,0.1-0.7,0.3-1.1,0.5c-0.4,0.2-0.7,0.3-1.1,0.4l0.1,0.2c-0.8,0-1.8,0.1-3,0.4c-1.2,0.3-2.2,0.5-3,0.7c-0.1,0-0.1,0-0.1,0.1
		c0,0.1-0.1,0.1-0.2,0.2l-0.6,0.3c-1.2,0.4-1.9,0.6-2.3,0.7c-0.3,0.2-0.6,0.3-0.7,0.4c-0.1,0.1-0.4,0.2-0.7,0.4s-1.1,0.3-2.3,0.6
		L97.8,67c-1.2,0.4-2.2,0.9-3.1,1.6c-0.9,0.7-1.9,1.3-3,1.9c-0.8,0.1-1.6,0.3-2.5,0.5c-0.9,0.2-1.8,0.4-2.6,0.5
		c-0.2,0-0.4-0.1-0.4-0.2c0-0.1-0.1-0.2-0.3-0.2c-0.5-0.1-0.7-0.2-0.6-0.4c0.1-0.2,0-0.4-0.4-0.7c-0.1-0.5-0.2-0.9-0.2-1.2
		c0-0.3-0.1-0.6-0.2-0.9c-0.1-0.4-0.3-0.6-0.4-0.4c-0.2,0.1-0.3,0-0.3-0.4c0-0.3-0.1-0.6-0.3-0.9c-0.2-0.3-0.3-0.6-0.4-0.9
		c-0.1-0.3-0.2-0.7-0.3-1.1c-0.1-0.4,0-0.8,0.3-1.2c0.1-0.5,0.3-0.8,0.5-1.1c0.1-0.1,0.2-0.2,0.2-0.3s0.1-0.2,0.2-0.3l1.2-0.5
		c-0.2,0-0.5,0-0.7-0.1c0.9-2.4,1.8-4.6,2.6-6.5c0.9-1.9,1.7-3.7,2.6-5.5c0.9-1.7,1.8-3.5,2.7-5.3c0.9-1.8,1.8-3.8,2.7-5.9
		c1.4-3.1,2.7-6.2,4.1-9.3s2.8-6.1,4.3-9.2c0.1-0.3,0.2-0.6,0.4-1c0.1-0.4,0.3-0.7,0.5-1c0.1-0.1,0.3-0.2,0.5-0.4
		c0.1-0.1,0.1-0.2,0.1-0.4s0.1-0.3,0.2-0.5c0.3-0.3,0.6-0.6,1.1-0.8c0.4-0.2,0.9-0.4,1.3-0.5c0.1-0.1,0.2-0.2,0.4-0.3
		c0.1-0.1,0.3-0.1,0.5-0.3c0.2-0.3,0.6-0.4,1.1-0.2c0.3,0.1,0.5,0.3,0.6,0.5c0.1,0.2,0.2,0.4,0.3,0.6c0.2,0.3,0.4,0.5,0.6,0.5
		c0.2,0.1,0.4,0.2,0.5,0.4l0.8,1.1c0.3,0.4,0.7,0.7,1.1,1.2c0.4,0.4,0.8,0.9,0.9,1.3c0.2,0.4,0.3,0.8,0.5,1.3s0.2,1,0.2,1.4
		c-0.2,1-0.6,1.8-1.2,2.5c-0.6,0.6-1.1,1.4-1.4,2.2c-0.5,0.7-0.9,1.4-1.3,2c-0.4,0.7-0.8,1.4-1.1,2.2c-0.6,0.7-1.1,1.5-1.6,2.4
		c-0.5,0.9-1,1.8-1.4,2.7c-0.6,1.5-1.4,3-2.2,4.5c-0.8,1.5-1.5,3-2.1,4.5c-0.2,0.4-0.4,0.7-0.6,1.1s-0.3,0.8-0.5,1.2
		c-0.1,0.5-0.2,0.8-0.4,0.9c-0.1,0.1-0.3,0.4-0.5,0.8c-0.2,0.6-0.4,1.1-0.6,1.5c-0.2,0.4-0.4,0.7-0.5,1c-0.2,0.3-0.4,0.7-0.5,1
		c-0.2,0.3-0.4,0.8-0.6,1.4c-0.1,0.6-0.3,1.1-0.5,1.7C97.9,56.2,97.7,56.7,97.6,57.2z M94.4,55c-0.1,0.1-0.2,0.2-0.4,0.4
		c-0.1,0.2-0.1,0.3,0.2,0.4C94.2,55.4,94.3,55.2,94.4,55z M94.9,55.7c-0.2,0-0.3,0-0.2,0c0,0,0,0.1,0,0.2c0.1,0,0.2,0,0.3,0
		C95.2,55.8,95.1,55.8,94.9,55.7z M95.3,55.6c0-0.1-0.1-0.2-0.2-0.2s-0.2,0.1-0.1,0.2c0.1,0.1,0.2,0,0.1,0
		C95,55.4,95.1,55.4,95.3,55.6z M98.3,49.1c-0.1-0.1-0.2,0-0.4,0c-0.1,0.1-0.2,0.1-0.4,0c-0.1,0.1-0.1,0.2,0,0.3
		c0.1,0.1,0.1,0.2,0,0.4v0.1c-0.2,0.4-0.4,0.7-0.5,1c-0.1,0.3-0.2,0.7-0.3,1.1h0.1c-0.2,0.5-0.5,1-0.8,1.5c-0.4,0.6-0.7,1.1-1,1.7
		c0.1,0,0.2,0,0.2,0.1c0,0.1,0.1,0.1,0.2,0c0.4-0.4,0.6-0.6,0.7-0.9c0.6-0.1,0.9-0.2,1-0.3c0-0.1-0.1-0.1-0.2-0.1
		c-0.1,0.1-0.2,0-0.3-0.1c0.4,0,0.5-0.1,0.5-0.2c0-0.1,0-0.3-0.1-0.4c0-0.1,0-0.2,0.1-0.3c0.1-0.1,0.1-0.3,0.1-0.4
		c0.2-0.3,0.5-0.6,0.7-0.8c0.2-0.2,0.3-0.6,0.3-1c-0.2,0-0.3,0-0.3,0.1c0,0.1,0,0.2-0.1,0.2c-0.1-0.1-0.1-0.1-0.2,0
		c-0.1,0.1-0.1,0.1-0.3,0c0-0.2,0.1-0.4,0.2-0.6c0.1-0.2,0.2-0.5,0.3-0.8h-0.2c0.3-0.1,0.4-0.2,0.3-0.4C97.9,49.4,98,49.2,98.3,49.1
		z M96.3,54.8c-0.2,0.2-0.4,0.4-0.4,0.6c0,0.2,0,0.5,0,0.8H96c0-0.3,0.1-0.5,0.2-0.7C96.4,55.3,96.4,55.1,96.3,54.8z M97,48.8h-0.3
		c0,0.2,0,0.3-0.1,0.3C96.8,49,97,48.9,97,48.8z M98.6,47.9c-0.3,0.1-0.5,0.3-0.6,0.5c-0.1,0.2-0.2,0.4-0.4,0.5
		c0.5,0.2,0.7,0.1,0.8-0.2C98.5,48.3,98.5,48,98.6,47.9z M98.4,50.4c-0.1,0-0.2,0-0.3,0c-0.1,0-0.1,0.1-0.3,0.1
		c0.1,0.1,0.2,0.1,0.4,0C98.3,50.6,98.4,50.5,98.4,50.4z M98.7,47.8c0.1-0.4,0.3-0.7,0.4-1c0.2-0.3,0.4-0.6,0.5-0.9
		c-0.1,0-0.2,0-0.3,0c-0.1,0-0.1,0,0-0.1h0.4c0.2-0.3,0.3-0.6,0.3-0.8c0-0.3,0.2-0.5,0.5-0.8c-0.1,0-0.2,0.1-0.3,0.2
		c-0.1,0.1-0.2,0.1-0.4,0.1c0.2-0.4,0.4-0.7,0.6-1.1c0.2-0.4,0.3-0.7,0.4-1.1c0.3-0.2,0.5-0.4,0.7-0.8c0.1-0.3,0.2-0.6,0.1-0.8
		l-0.1,0.1h-0.2c-0.3,0.5-0.6,0.9-0.8,1.4c-0.2,0.5-0.5,0.9-0.8,1.4c0,0.1,0,0.1,0,0.1c0,0,0,0.1,0,0.1h-0.1c0,0.4-0.1,0.7-0.4,0.9
		c-0.2,0.2-0.3,0.5-0.3,0.9h-0.4c0,0.1,0.1,0.1,0.2,0.1s0.2,0.1,0.2,0.2c-0.3,0-0.5,0-0.5,0.1c0,0.1,0,0.1,0,0.3
		c-0.2,0.2-0.4,0.5-0.4,0.7c0,0.2-0.1,0.5-0.2,0.8c0.1,0,0.2,0,0.3,0C98.4,47.8,98.6,47.8,98.7,47.8z M98.6,49.3
		c0,0.1,0,0.1-0.1,0.2c-0.1,0.1-0.1,0.1-0.1,0.3c0.1,0,0.2-0.1,0.3-0.2C98.8,49.4,98.8,49.3,98.6,49.3z M99.7,48
		c0-0.1,0-0.2-0.1-0.3c-0.1-0.1,0-0.2,0.2-0.4c-0.3,0.2-0.5,0.4-0.7,0.7c-0.1,0.3-0.3,0.5-0.5,0.8c0.2,0,0.2,0,0.1,0.1
		c-0.1,0.1-0.1,0.2-0.1,0.3c0.3-0.1,0.5-0.3,0.5-0.6C99.2,48.4,99.4,48.2,99.7,48z M100.4,40.5c0.2,0,0.3-0.1,0.3-0.4
		c-0.1,0-0.2,0-0.3,0.1c-0.1,0.1-0.2,0.1-0.4,0.3c0.2,0.1,0.2,0.2,0.1,0.1c-0.1,0-0.1,0-0.1,0c-0.1,0.1-0.1,0.1,0,0.3
		c0.1,0.1,0.1,0.2,0,0.3c0,0.1,0,0.1-0.1,0.1h-0.2c-0.3,0.3-0.4,0.6-0.3,0.9c0.2-0.4,0.4-0.6,0.6-0.9
		C100.3,41,100.4,40.8,100.4,40.5z M100.9,41.1c-0.2,0.1-0.3,0.1-0.2,0.1c0,0,0,0.1-0.1,0.2C100.7,41.4,100.9,41.3,100.9,41.1z
		 M101.4,38.9c-0.2,0.2-0.3,0.4-0.5,0.6c-0.1,0.2-0.2,0.4,0,0.5c0.1-0.2,0.3-0.4,0.4-0.5C101.5,39.2,101.5,39,101.4,38.9z
		 M101.1,40.5c-0.2,0-0.3,0.1-0.3,0.3C101.3,40.8,101.4,40.7,101.1,40.5z M101.4,37.6c-0.2,0-0.3,0-0.4,0.1c-0.1,0.1-0.1,0.2,0,0.2
		c0.1,0,0.2,0,0.2-0.1C101.2,37.8,101.3,37.7,101.4,37.6z M101.7,39.8c-0.2,0-0.3,0.1-0.3,0.2C101.6,39.8,101.7,39.8,101.7,39.8z
		 M102.3,38.4c0.2,0,0.3,0,0.3-0.1c0-0.1,0.1-0.1,0.1-0.1c0.1-0.4,0.2-0.8,0.4-1.1c0.2-0.3,0.3-0.6,0.4-1c-0.2,0-0.3-0.1-0.3-0.2
		c0.1-0.1,0.2-0.3,0.4-0.6c0.1-0.3,0.1-0.5,0.1-0.6c-0.2,0.5-0.5,0.9-0.8,1.4c-0.3,0.4-0.5,0.9-0.7,1.3c0,0.2,0.1,0.3,0.2,0.2
		c0.1,0,0.2,0,0.2,0.1c-0.4,0-0.5,0.1-0.5,0.2h0.1l0.1,0.1c-0.3,0.1-0.5,0.2-0.5,0.3c-0.1,0.1-0.1,0.2-0.2,0.3c0.1,0,0.2,0,0.2-0.1
		c0-0.1,0.1-0.1,0.3-0.1c-0.2,0.2-0.3,0.3-0.3,0.5s-0.1,0.3-0.2,0.5c0.4-0.1,0.5-0.3,0.4-0.5C101.9,38.7,102,38.5,102.3,38.4z
		 M102.5,39.2c-0.2,0-0.4,0.1-0.4,0.2c0,0.1,0,0.2-0.1,0.4h0.1c0.1-0.1,0.2-0.2,0.3-0.3C102.5,39.4,102.5,39.3,102.5,39.2z
		 M103.8,38.1c-0.2,0-0.4,0.1-0.5,0.2c-0.1,0.1-0.1,0.3,0,0.3C103.6,38.4,103.7,38.2,103.8,38.1z M104.2,36.9
		c-0.2,0.1-0.3,0.1-0.3,0.2c0,0.1-0.1,0.1-0.1,0.2l0.1,0.1c0-0.1,0.1-0.2,0.2-0.2C104.2,37.1,104.2,37,104.2,36.9z M105,35.8
		C105,35.8,104.9,35.7,105,35.8c-0.4,0-0.5,0.1-0.5,0.2c0,0.1,0,0.2-0.1,0.4c0.3-0.1,0.4-0.1,0.4-0.3C104.8,36,104.9,35.9,105,35.8z
		 M104.6,36.8c-0.1,0-0.2,0-0.1,0.1c0,0.1,0,0.1,0,0.2c0.2,0,0.2,0,0.2-0.1C104.5,36.9,104.5,36.9,104.6,36.8z M105.5,34.8
		c0.6-0.6,1-1.2,1.1-1.9h-0.5c-0.1,0.2-0.1,0.4,0,0.5c0,0.2-0.1,0.3-0.4,0.4c0,0.1,0.1,0.1,0.2,0.1c0.1-0.1,0.2,0,0.2,0.1
		c-0.3,0.1-0.5,0.3-0.5,0.4c0,0.2-0.2,0.4-0.4,0.6h0.4V34.8z M107,32.1c-0.5,0.1-0.8,0.3-0.7,0.6C106.7,32.6,107,32.4,107,32.1z"/>
</g>
<g id="Y">
	<path d="M128.5,18.3c0.3,0.2,0.4,0.4,0.4,0.7h0.3c-0.1,0.2-0.1,0.4,0,0.4c0.1,0,0.1,0.1,0.3,0.2c0,0.1,0,0.1,0,0.1c0,0,0,0.1,0,0.2
		c1.5,1.6,2.8,3.2,3.9,4.8c1.1,1.6,2.2,3.3,3.4,5.1c0.1,0.8,0.4,1.4,0.9,1.9c0.5,0.5,0.8,1.1,0.9,1.8c0,0.2,0,0.4,0,0.6
		c0,0.2,0.1,0.3,0.3,0.4c0,0.2,0,0.4,0.1,0.5c0.1,0.1,0.2,0.2,0.3,0.4c0.1-0.1,0-0.2-0.1-0.4s-0.1-0.3-0.1-0.4
		c0.1,0.1,0.2,0.2,0.2,0.3c0,0.1,0,0.2,0.1,0.3c0.8-0.9,1.5-1.9,2.1-2.9c0.6-1,1.3-2,2.2-2.9c0.5-1,1.2-1.9,1.9-2.8
		c0.7-0.9,1.4-1.8,1.9-2.7c0.3-0.3,0.5-0.6,0.7-0.9c0.2-0.3,0.4-0.6,0.6-0.9c0.1-0.2,0.2-0.3,0.4-0.3c0.3-0.5,0.6-1.1,1.1-1.6
		c0.4-0.5,0.9-1.1,1.3-1.6c0.3-0.5,0.6-1,0.9-1.6c0.3-0.6,0.6-1.1,0.9-1.6c0-0.4,0.1-0.6,0.3-0.7c0.2-0.1,0.3-0.4,0.3-0.8
		c0.2-0.1,0.4-0.3,0.6-0.4c0.2-0.1,0.4-0.3,0.7-0.5c0.4-0.3,0.8-0.5,1.2-0.7c0.4-0.1,0.7,0,0.9,0.2c0.2,0.2,0.5,0.4,0.7,0.7
		c0.1,0.2,0.3,0.4,0.4,0.5c0.2,0.1,0.3,0.2,0.4,0.3c0.3,0.4,0.6,1,0.9,1.7s0.6,1.4,0.8,1.9c0,0.2,0.1,0.4,0.2,0.8
		c0,0.1,0.1,0.3,0.3,0.5c0.1,0.6,0.2,1.1,0.4,1.5c0.1,0.4,0.1,0.9,0.1,1.3c-0.2,0.6-0.4,1.2-0.8,1.6c-0.4,0.4-0.7,0.8-1.1,1.2
		c-0.2,0.4-0.5,0.7-0.8,1c-0.3,0.3-0.6,0.7-0.9,1c-0.1,0.1-0.2,0.3-0.3,0.4c-0.1,0.1-0.2,0.3-0.4,0.4c-0.3,0.5-0.7,0.9-1.1,1.3
		c-0.4,0.4-0.8,0.9-1.2,1.6c-0.4,0.2-0.7,0.6-0.9,1c-0.2,0.4-0.5,0.8-0.9,1.1c0.1,0.1,0,0.2,0,0.2c-0.1,0-0.1,0.1-0.1,0.2
		c-1.4,2.1-2.8,4.1-4.1,6.2c-1.3,2.1-2.8,4.1-4.3,6c0,0.1,0,0.2-0.1,0.2c-0.1,0-0.1,0.1,0,0.2c-0.6,0.8-1,1.3-1.1,1.5
		s-0.2,0.2-0.2,0.3c0,0-0.1,0.1-0.3,0.3c-0.1,0.1-0.5,0.6-1.1,1.5c-0.2,0.4-0.4,0.8-0.7,1.1c-0.3,0.4-0.5,0.7-0.8,1
		c-0.1,0-0.2,0-0.2,0.1c0,0.1-0.1,0.1-0.2,0.1l-0.2,0.2c-0.5,0.1-0.7,0.3-0.8,0.7c0,0.4-0.1,0.6-0.4,0.8c-0.2,0.2-0.4,0.4-0.5,0.7
		c0,0.1,0,0.2,0.1,0.4l-0.6,0.5c-0.3,0.9-0.7,1.7-1.2,2.3c-0.5,0.7-1,1.4-1.4,2.2c0,0.2,0,0.3,0.1,0.3c-0.1,0.1-0.2,0.2-0.2,0.3
		s0,0.3-0.1,0.5c-0.1-0.1-0.2-0.1-0.1,0c0,0.1,0,0.1,0,0.1c-0.1,0-0.2,0.1-0.2,0.4c-0.5,0.6-0.8,1.3-1,2l-0.3,0.2
		c-0.2,0.4-0.4,0.8-0.6,1.1c-0.2,0.3-0.4,0.7-0.5,1.1c-0.4,0.5-0.7,1-0.9,1.5c-0.2,0.6-0.5,1-1,1.3c-0.1,0.1-0.1,0.2-0.1,0.3
		c-0.1-0.1-0.2-0.2-0.2-0.3c0-0.1-0.1-0.2-0.2-0.2c-0.1,0.1-0.2,0.1-0.3,0.2c-0.1,0.1-0.2,0.2-0.3,0.2c0.3-0.5,0.6-1.2,0.9-2.1
		c-0.4,0.5-0.7,1-0.9,1.6c-0.3,0.6-0.7,1.1-1.3,1.4c0-0.2,0-0.3,0.1-0.4c0.1-0.1,0.1-0.2,0.1-0.5c-0.2,0.2-0.4,0.6-0.6,1
		c-0.2,0.4-0.3,0.9-0.4,1.4c-0.2,0.1-0.4,0.2-0.4,0.3s-0.1,0.3-0.2,0.5c-0.1-0.2-0.1-0.3-0.1-0.5c0.1-0.1,0.1-0.3,0.2-0.6
		c-0.2,0.1-0.3,0.3-0.3,0.6c-0.1,0-0.2,0.1-0.3,0.4c-0.1,0.2-0.2,0.4-0.4,0.4c0-0.2,0-0.4,0.1-0.5c0.1-0.2,0-0.4-0.1-0.5
		c0.1-0.2,0.1-0.3,0.3-0.4c0.1-0.1,0.1-0.1,0-0.3c-0.1,0.1-0.1,0.2-0.2,0.3c-0.1,0.1-0.1,0.2-0.3,0c0.1,0.4-0.1,0.6-0.4,0.9
		c-0.1,0-0.2,0-0.1-0.1c0-0.1,0-0.1-0.1,0c-0.2,0.2-0.4,0.5-0.5,0.8c-0.1,0.3-0.3,0.5-0.6,0.6c-0.1,0.1-0.2,0.1-0.1,0.3
		c0,0.1,0,0.2-0.1,0.2s-0.2-0.1-0.2-0.2s-0.1-0.3-0.2-0.3c-0.4,0.2-0.7,0.3-1,0.1c-0.3-0.1-0.6-0.3-0.9-0.4c-0.4-0.9-0.4-1.7,0-2.5
		c0.3-0.8,0.6-1.5,0.8-2.1c0.1-0.1,0.1-0.2,0.1-0.4c0.9-2.2,2-4.4,3.1-6.4c1.1-2,2.1-4,3-6.1c0.1,0.1,0.2,0,0.2-0.1
		c0-0.1,0.1-0.1,0.2-0.1c0.1-0.4,0.2-0.6,0.4-0.7c0.1-0.4,0.3-0.8,0.5-1c0.2-0.3,0.4-0.6,0.6-0.9c0.8-1.4,1.3-2.3,1.6-3
		c0.3-0.6,0.6-1.2,0.8-1.7c0.2-0.5,0.5-1,0.8-1.6c0.3-0.6,0.9-1.6,1.7-2.9c-0.5-0.6-1-1.2-1.5-1.7c-0.6-0.5-1.1-1.1-1.6-1.8
		c-0.5-0.6-1-1.3-1.5-2c-0.4-0.7-0.9-1.3-1.4-2c-1.5-2.3-3.1-4.5-4.8-6.7c-1.7-2.2-3.1-4.5-4.2-7.1c-0.1-0.1-0.2-0.3-0.3-0.5
		c-0.1-0.2-0.2-0.4-0.4-0.7c-0.1-0.1-0.1-0.2-0.2-0.4c-0.1-0.1-0.1-0.2-0.1-0.4c-0.1-0.1,0-0.2,0-0.4c0.1-0.2,0.2-0.4,0.4-0.6
		c0.1-0.2,0.3-0.4,0.4-0.5s0.2-0.3,0.2-0.3c0-0.1,0-0.2,0-0.3c0-0.1,0-0.2,0-0.3c0-0.3,0.1-0.5,0.4-0.7c0.2,0.1,0.6,0,1,0
		c0.4-0.1,0.9-0.2,1.3-0.4c0.5-0.1,0.9-0.3,1.3-0.4c0.4-0.1,0.8-0.1,1.1-0.1c0,0.1,0,0.2,0.1,0.1c0.1,0,0.1,0,0,0
		c0.5,0,1,0.1,1.5,0.4c0.5,0.3,0.9,0.5,1.2,0.8c-0.1,0.2-0.1,0.2-0.3,0.2c-0.1,0-0.2,0-0.4,0v0.3c0-0.2-0.1-0.3-0.3-0.3
		c-0.2,0.2-0.1,0.4,0.2,0.4c0.3,0,0.5,0.2,0.5,0.5c0.1,0,0.1,0,0-0.1c-0.1-0.1-0.1-0.1,0-0.2c0.1,0.1,0.2,0.2,0.3,0.4
		c0.1,0.2,0.1,0.4,0,0.5c0,0.2,0.1,0.3,0.4,0.3l0.1-0.1c0,0.2,0,0.3-0.1,0.4c0.1,0,0.2,0,0.3,0.1c0.1,0.1,0.2,0.1,0.4,0.1
		c-0.1-0.1-0.1-0.2-0.2-0.4C128.7,18.7,128.7,18.5,128.5,18.3z M127.8,62.5c0.2-0.4,0.4-0.8,0.6-1.2c0.1-0.4,0.3-0.8,0.5-1.2
		c0.4-0.8,0.9-1.5,1.3-2.2c0.5-0.7,0.9-1.4,1.2-2.3c-0.2,0.1-0.4,0.3-0.4,0.6c-0.1,0.3-0.2,0.5-0.5,0.6c-0.1,0.5-0.3,1-0.6,1.3
		c-0.3,0.4-0.5,0.8-0.6,1.2c-0.3,0.3-0.5,0.6-0.6,1c-0.1,0.4-0.4,0.7-0.7,1c0,0.3,0,0.5-0.1,0.5c-0.1,0.1-0.2,0.2-0.3,0.4
		c-0.1-0.1-0.1-0.1-0.1,0c0,0.1-0.1,0.1-0.2,0.1l-0.1,0.1v0.3c0.1-0.1,0.2-0.1,0.4-0.2C127.6,62.4,127.7,62.4,127.8,62.5z M127.8,67
		l-0.7,1.3c0.3-0.2,0.5-0.4,0.5-0.6C127.7,67.5,127.8,67.3,127.8,67z M127.6,65.6c0.1,0.1,0.1,0.1,0.2,0v-0.2
		c0.2-0.1,0.2-0.2,0.2-0.4c0-0.2,0-0.4,0-0.5c0.1-0.1,0.2-0.2,0.3-0.4c0.1-0.1,0.2-0.2,0.4-0.2c-0.1-0.1,0.1-0.3,0.4-0.6
		c0-0.1,0-0.2,0-0.4c0-0.1,0-0.3,0.2-0.4c0,0.1,0,0.2-0.1,0.3c-0.1,0.1,0,0.1,0.1,0.3c0.2-0.1,0.2-0.3,0.1-0.5
		c-0.1-0.2,0-0.4,0.1-0.5c0,0.1,0,0.2,0,0.2c0,0,0,0.1,0,0.2c0.3-0.1,0.5-0.3,0.6-0.5c0.1-0.2,0.3-0.4,0.5-0.6
		c-0.3,0.5-0.6,1.1-0.8,1.6c-0.3,0.6-0.6,1.1-0.9,1.5c0,0.2-0.1,0.4-0.4,0.4c0,0.2-0.1,0.4-0.2,0.5c-0.1,0.1-0.1,0.3,0,0.5
		c-0.1,0.1-0.1,0.2-0.2,0.3c-0.1,0.1-0.1,0.1,0,0.3c0.2-0.1,0.4-0.3,0.4-0.4c0.1-0.2,0.1-0.4,0.2-0.5c0.1-0.3,0.2-0.5,0.4-0.7
		c0.1-0.2,0.2-0.4,0.3-0.7c0.9-1.1,1.6-2.5,2.2-4.2c0.1-0.1,0.2-0.1,0.2-0.2s0.1-0.1,0.2-0.2c-0.1-0.3,0-0.4,0.2-0.4
		c0.1-0.5,0.3-0.8,0.6-1.1c0.3-0.3,0.3-0.7,0.2-1.2c0.1-0.1,0.2-0.1,0.3-0.2c0.1-0.1,0.2-0.2,0.2-0.4c0.2-0.2,0.2-0.4,0.2-0.7
		c-0.1,0-0.3,0.1-0.4,0.2s-0.3,0.3-0.4,0.3c0-0.2,0.1-0.4,0.3-0.6c0.2-0.2,0.1-0.4-0.2-0.6c-0.8,1.7-1.7,3.4-2.7,5.1
		c-0.9,1.7-1.8,3.4-2.7,5.2c0,0.2-0.1,0.3-0.2,0.5c-0.1,0.1-0.1,0.3-0.1,0.5c0.1,0,0.2-0.1,0.3-0.2
		C127.5,65.9,127.6,65.8,127.6,65.6z M129.7,64.6c-0.1,0.3-0.3,0.6-0.4,0.9c-0.2,0.3-0.3,0.6-0.4,0.9
		C129.3,65.8,129.6,65.2,129.7,64.6z M130.5,55.2c-0.1-0.1,0-0.2,0-0.3c0.1-0.1,0.1-0.1,0.1-0.3c-0.5,0.3-0.8,0.7-0.8,1.3
		c0.1-0.1,0.2-0.3,0.2-0.4C130.1,55.5,130.2,55.3,130.5,55.2z M131,64.1c0.2-0.1,0.4-0.4,0.6-0.8c0.2-0.4,0.3-0.7,0.1-0.9
		c0,0.1-0.1,0.2-0.2,0.3c-0.1,0.1-0.1,0.2,0,0.4c-0.1-0.1-0.2-0.1-0.2,0.1c-0.1,0.5-0.3,0.9-0.6,1.2c-0.3,0.4-0.5,0.8-0.5,1.2
		c0.1-0.2,0.3-0.5,0.4-0.7C130.8,64.6,130.9,64.3,131,64.1z M131.3,61.3c-0.1,0.5-0.3,0.9-0.5,1.2c-0.2,0.4-0.4,0.7-0.4,1.1
		c0.2-0.4,0.4-0.7,0.7-1C131.2,62.3,131.3,61.8,131.3,61.3z M130.8,65.6c-0.1,0.2-0.2,0.4-0.4,0.5c-0.1,0.2-0.1,0.4-0.1,0.5
		c0.1-0.1,0.2-0.3,0.4-0.4C130.9,66,130.9,65.8,130.8,65.6z M134.9,56.3c0.1,0.2,0.1,0.3,0,0.3c0.2-0.4,0.4-0.7,0.7-1
		c0.3-0.3,0.5-0.7,0.6-1.1l0.2,0.2c0.4-0.4,0.6-0.7,0.6-1.2c-0.1,0-0.2,0-0.1-0.1c0-0.1,0-0.1-0.1-0.1c-0.3,0.3-0.6,0.7-0.8,1.2
		c-0.2,0.5-0.5,0.9-0.8,1.2c-0.1-0.2-0.1-0.2-0.2-0.1c-0.1,0.1-0.1,0-0.3-0.1c-0.2,0.5-0.4,0.9-0.7,1.2s-0.6,0.8-0.9,1.2
		c-0.2,0.2-0.3,0.6-0.3,1.1l-0.3,0.2c-0.2,0.4-0.5,0.8-0.7,1.2c-0.2,0.4-0.3,0.8-0.4,1.3c0.6-0.9,1.2-1.8,1.7-2.7
		C133.7,58,134.2,57.2,134.9,56.3z M133,61.1c-0.1,0.1-0.2,0.2-0.3,0.4c-0.1,0.1-0.1,0.3-0.2,0.5c0.1-0.1,0.3-0.2,0.5-0.4
		c0.2-0.2,0.2-0.5,0-0.7c0.1,0,0.1,0,0.1-0.1c0-0.1,0.1-0.1,0.2-0.2c0.1,0.1,0.1,0.2,0.1,0.2c0.2-0.4,0.4-0.8,0.7-1.2
		c0.3-0.4,0.5-0.8,0.7-1.2c-0.3,0.1-0.5,0.3-0.6,0.7c-0.1,0.3-0.3,0.5-0.7,0.7V60c-0.2-0.1-0.3-0.2-0.3-0.2
		c-0.2,0.5-0.4,0.9-0.8,1.3c-0.3,0.4-0.5,0.8-0.5,1.3c0.2-0.2,0.4-0.4,0.5-0.7C132.5,61.4,132.7,61.2,133,61.1z M133.5,53.7
		c-0.1,0.2-0.2,0.5-0.4,0.9c-0.1,0.4-0.1,0.6,0.2,0.7c0.1-0.1,0.2-0.5,0.2-1.1c0.2-0.3,0.4-0.6,0.5-0.8c0.2-0.3,0.3-0.5,0.4-0.8
		c0.1-0.1,0.2-0.2,0.3-0.2c0.1,0,0.1-0.1,0.1-0.3c-0.2,0.2-0.5,0.5-0.8,0.8C133.9,53.1,133.7,53.4,133.5,53.7z"/>
</g>
<g id="F">
	<path d="M206.2,44.1l-1.5,0.2c-0.4,0.1-0.8,0.2-1.1,0.4c-0.3,0.2-0.6,0.3-0.9,0.3c-0.2,0-0.4,0-0.5,0c-0.1,0-0.2,0-0.3,0
		c-0.5,0.1-1,0.3-1.5,0.6c-0.1,0-0.2,0-0.3,0s-0.1-0.1-0.3-0.2l-0.5,0.2c-0.8,0.1-1.3,0.3-1.7,0.6c-0.5-0.2-0.8-0.2-1.1-0.1
		c-0.2,0.1-0.4,0.2-0.6,0.4c-0.1,0.1-0.2,0.2-0.3,0.1c-0.1,0-0.1,0-0.1,0.1c-0.1,0-0.2,0-0.3,0c-0.1,0-0.3,0-0.5,0
		c-0.1-0.1-0.3,0-0.6,0.3c-0.1,0.1-0.2,0.2-0.4,0.2c-0.1,0-0.1,0-0.1,0c0,0-0.1,0-0.1,0h-0.2c0.1-0.1,0,0.1-0.1,0.4
		c-0.2,0.3-0.3,0.6-0.4,0.9l-0.4,0.3l-0.7,1.2c-0.2,0.2-0.3,0.4-0.3,0.6l-0.6,0.7l-0.9,2.7l-0.9,2c-0.1,0.3-0.3,0.6-0.4,0.9
		c-0.2,0.3-0.3,0.7-0.4,1.2c-0.1,0.1-0.3,0.4-0.4,0.8c-0.2,0.4-0.3,0.8-0.5,1.2c-0.1,0.4-0.3,0.9-0.4,1.2c-0.1,0.4-0.2,0.7-0.3,0.8
		c-0.2,0.2-0.4,0.4-0.6,0.7c-0.1,0.3-0.3,0.6-0.4,0.8l-0.1,0.9l-1.5,2.3l-0.3,1.1l-0.4,1l-0.8,0.8c-0.1,0.1-0.1,0.2-0.2,0.3
		c-0.1,0.1-0.2,0.5-0.4,0.9c0,0.2-0.1,0.3-0.4,0.3l-0.5,0.8c-0.3,0.8-0.6,1.5-0.8,2.2c-0.3,0.7-0.6,1.6-1,2.8
		c-0.5-0.8-0.7-1.2-0.6-1.4c0.1-0.2,0.1-0.4,0.2-0.6c0.1-0.2,0.2-0.6,0.2-1.2h-0.2l-0.4,1.1c-0.1,0.2-0.2,0.4-0.4,0.6
		s-0.2,0.5-0.3,0.9l-0.7,0.1c-0.1-0.1-0.1-0.2-0.1-0.3c0-0.1,0-0.2,0-0.4c-0.1,0-0.2,0.1-0.2,0.4c-0.1,0.3-0.3,0.5-0.4,0.5
		c-1,0-1.7-0.1-2-0.4h-0.1c0,0.1-0.1,0.2-0.3,0.2c-0.2,0-0.3,0-0.4,0c0,0.1-0.1,0.2-0.2,0.4c-0.1,0.1-0.1,0.2,0,0.4
		c-0.3,0.4-0.5,0.6-0.7,0.6c-0.1,0-0.5-0.1-1.1-0.2h-0.6c-0.6,0-1.1,0-1.5,0c-0.4,0-0.6-0.4-0.8-1c-0.3-0.7-0.4-1.6-0.3-2.6
		c0.1-1,0.3-1.9,0.5-2.7c0.2-0.8,0.4-1.7,0.7-2.7c0.3-0.9,0.7-1.9,1.2-2.8c0.5-1.3,1-2.6,1.5-3.8c0.6-1.3,0.9-2.3,1.1-3.2
		c0.5-0.9,0.8-1.9,1.1-3c0.3-1,0.7-2,1.2-3c0.5-1.2,1.2-2.8,2-4.6c0.9-1.8,1.8-3.8,2.8-5.9c0.8-1.8,1.7-3.6,2.7-5.3
		c1-1.7,1.9-3.4,2.9-5.1l4.8-8.1l-0.2-0.4c-0.3-0.1-0.6-0.4-1-0.8c-0.4-0.4-0.5-0.4-0.4-0.1c-0.2-0.2-0.4-0.4-0.6-0.8
		s-0.4-0.6-0.7-0.9c0.1,0.1-0.3-0.1-1.1-0.5c-0.2-0.6-0.6-1.1-1.2-1.3c-0.8-0.4-1.3-1-1.6-1.7c0.2-0.1,0.3-0.4,0.4-0.8
		c0.1-0.4,0.2-0.7,0.3-1c0.6-0.8,1.2-1.5,1.8-2c0.6-0.5,1.5-0.9,2.7-1.1c0.9-0.1,1.9-0.4,3-0.8c1-0.4,2-0.7,3.1-1
		c0.5-0.2,1.2-0.4,2-0.6c0.8-0.2,1.7-0.5,2.5-0.8l0.5-0.6c-0.1,0.1-0.1,0.1,0,0c0-0.1,0.1-0.1,0.2-0.3l0.7-0.9l0.8-0.6
		c0.2-0.1,0.4-0.1,0.6-0.1c0.2,0,0.4-0.2,0.7-0.7c0.4,0.2,0.7,0.2,0.9,0l0.6,0.3l1.6,0.9l5.9-1.4c1.2-0.3,2.4-0.6,3.6-0.9
		s2.5-0.6,3.7-0.8c1.6-0.3,2.7-0.5,3.2-0.6c0.5-0.1,1-0.1,1.4,0c0.3,0,0.7,0,1.3,0c0.6,0,1.7-0.2,3.4-0.5l2.2-0.1
		c0.9-0.1,1.8-0.2,2.9-0.2c1,0,1.9,0,2.7,0.1c0.4,0.1,0.8,0.1,1,0c0.3,0,0.5,0,0.6,0c0.1,0,0.3,0,0.4,0.1c0.1,0.1,0.3,0.3,0.4,0.6
		c0.2,0.5,0.3,0.8,0.3,0.8c-0.1,0.1-0.2,0.1-0.5,0.1s-0.4,0-0.3,0c0.1,0,0.2,0.2,0.4,0.5c-0.2,0.1-0.3,0.2-0.4,0.2
		c-0.1,0-0.2,0.1-0.3,0.2c-0.1,0.1-0.2,0.1-0.3,0.2c-0.1,0.1-0.1,0.1-0.2,0.1c0.2,0.2,0.3,0.6,0.1,1.2c-0.1,0.4,0,0.8,0.4,1.1
		c-0.1,0.2-0.2,0.4-0.2,0.5c0,0.1,0,0.2,0,0.3s0,0.2,0,0.3c0,0.1-0.2,0.2-0.5,0.2c-0.1,0-0.1,0-0.1,0.1c0,0.1-0.1,0-0.2-0.1
		c-0.5,0.2-0.9,0.6-1.2,1c-0.4,0.4-0.8,0.8-1.2,1.1c-0.1,0.1-0.1,0.1-0.1,0.2s0.2,0.2,0.5,0.5c-0.9,0.2-1.4,0.6-1.2,1.2
		c-0.8,0.1-1.5,0.3-2.3,0.5c-0.7,0.2-1.5,0.4-2.2,0.6c-1.2,0.3-2.3,0.5-3.4,0.8c-1.1,0.2-2.5,0.5-4.2,0.8c-0.6,0.1-1.2,0.3-1.9,0.5
		c-0.6,0.2-1.3,0.5-1.9,0.7c-0.9,0.4-1.6,0.6-2.3,0.8c-0.6,0.2-1.2,0.4-1.9,0.6c-0.6,0.2-1.3,0.5-2.1,0.8c-0.8,0.4-1.8,0.8-3.1,1.4
		c0,0.1,0,0.2-0.1,0.2c-0.1,0-0.1,0.1-0.2,0.2c-0.1,0.1-0.2,0.2-0.4,0.3c-0.2,0.1-0.3,0.2-0.3,0.3c-0.4,0.4-0.6,0.7-0.8,1
		c-0.1,0.2-0.3,0.6-0.4,1c-0.2,0.6-0.5,1.1-1,1.4c-0.1,0.5-0.3,0.9-0.6,1.3c-0.3,0.4-0.5,0.8-0.6,1.1c-0.1,0.5-0.3,0.9-0.6,1.2
		s-0.5,0.8-0.5,1.3c-0.2,0.1-0.3,0.2-0.3,0.3c-0.1,0.2-0.2,0.4-0.5,0.4c-0.2,0.6-0.4,1.2-0.7,1.7c-0.3,0.6-0.5,1.1-0.8,1.6
		c-0.4,0.4-0.8,0.8-1.1,1.2c-0.3,0.4-0.5,0.8-0.7,1.2c0.2-0.3,0.3-0.3,0.1,0c-0.1,0.3-0.3,0.5-0.6,0.8c0.7-0.1,1.4-0.3,2.2-0.5
		c0.8-0.2,1.6-0.4,2.4-0.5c0.9-0.2,1.9-0.4,2.8-0.6c0.9-0.1,1.9-0.3,2.9-0.4l5.6-1c0.5,0,1,0,1.5,0.1c0.5,0.1,0.8,0.4,1,1v-0.1
		c0.1,0.1,0.1,0.2,0.1,0.4c0.1,0,0.2,0,0.3,0c0.1,0,0.2,0,0.3,0c0.2-0.1,0.4-0.1,0.4,0c0.1,0,0.1,0.1,0.1,0.1c0,0.1,0,0.1,0.1,0.2
		c0.1,0.1,0.2,0.2,0.4,0.2c0.2,0.3,0.4,0.6,0.4,0.8s-0.3,0.4-1,0.5l-0.3,0.4l0.6,0.4c-0.2,0.2-0.4,0.3-0.6,0.3
		c0.1,0.1,0.2,0.1,0.3,0.1c0.1-0.1,0.2-0.1,0.4-0.1c0.2,0,0.4,0,0.6,0.1c0.1,0.1,0.3,0.4,0.4,0.8h-0.7L219,40
		c0.1,0.1,0.2,0.1,0.4,0.1c0.2,0.3,0.2,0.4,0.2,0.4c-0.5,0.5-1.1,0.9-1.8,1.1c-0.7,0.2-1.3,0.3-1.7,0.2c-0.1,0-0.1,0-0.2,0
		c-0.1,0-0.1,0-0.2,0c-0.2,0-0.4,0-0.4,0.1c-1.4,0.2-2.8,0.5-4.2,0.9c-1.4,0.4-2.8,0.8-4,1.1c-0.1,0.1-0.4,0.2-0.9,0.2V44.1z
		 M189.6,22.7l0.2,0.1C189.8,22.8,189.7,22.7,189.6,22.7C189.6,22.7,189.6,22.7,189.6,22.7L189.6,22.7z"/>
</g>
<g id="R">
	<path d="M268.5,29.6v0.3c0,0.1,0,0.1,0,0.2c0,0.1,0,0.2,0,0.3l-1.4,1.5l-0.5,0.4c-0.7,0.3-1.1,0.6-1.1,0.8l-0.6,0.3
		c-0.3,0-0.5,0.2-0.7,0.4l-1.2,0.4l-0.4,0.2l-0.7,0.2c0,0.1-0.1,0.2-0.3,0.3c-0.2,0.1-0.4,0.1-0.6,0.1l-0.6,0.2h-0.2
		c-0.2,0.2-0.4,0.4-0.5,0.4c-0.1,0-0.2,0-0.3,0c-0.2,0-0.3,0.1-0.4,0.2v0.1c-0.1,0.1-0.2,0.2-0.4,0.2l-0.4,0.2l-0.1,0.1
		c-0.2,0.2-0.5,0.3-1.1,0.4c-0.1,0.1-0.1,0.1-0.1,0.1s-0.1,0-0.1,0.1l-0.2,0.2l-0.6,0.4l-0.8,0.4c-0.2,0.1-0.5,0.2-0.8,0.3
		s-0.4,0.1-0.3,0.1c-0.2,0-0.4,0-0.4,0.1c-0.1,0.1-0.1,0.1-0.2,0.2l-0.9,0.5l-0.3,0.4v-0.1l-0.3,0.4v0.1h0.1
		c0.2-0.2,0.3-0.3,0.4-0.3v0.3l-0.2,0.1c0,0.1-0.1,0.2-0.3,0.2s-0.3,0.1-0.3,0.4c-0.2,0.1-0.4,0.1-0.4,0.2v0.1
		c-0.1,0.1-0.2,0.1-0.5,0.1c0,0.1,0,0.2,0,0.2c0,0,0,0,0,0.1v0.1c0,0.1,0,0.2,0,0.3c0,0.1,0,0.2,0,0.4c0,0.1,0,0.2,0,0.5
		c0,0.3,0.1,0.6,0.1,0.9c0,0.4,0.1,0.7,0.1,1c0.1,0.3,0.1,0.5,0.2,0.6c0.1,0.8,0.3,2,0.5,3.5c0.2,1.5,0.5,3,0.7,4.5
		c0.2,1.5,0.4,2.9,0.6,4.1c0.2,1.2,0.3,2,0.3,2.3h-0.3c0.1,0.4,0.2,0.6,0.2,0.4c0-0.1,0.1,0.1,0.1,0.5c0,0.1,0,0.1,0,0.2
		c0,0.1,0,0.1,0,0.2c0.1,0.2,0.1,0.4,0.2,0.7c0.1,0.3,0,0.5-0.1,0.8l-0.4,0.2c-0.1-0.1-0.1-0.1-0.1-0.2c0,0.2,0,0.3,0,0.4
		c0,0.1,0,0.2,0,0.2h-0.3c0-0.4,0-0.7,0-0.8c0-0.1-0.1-0.2-0.1-0.4c0.2,0.6,0.2,1.4,0,2.4v0.4c0,0.1,0,0.3-0.1,0.4
		c-0.1,0.1-0.1,0.3-0.1,0.4c-0.1-0.1-0.2-0.1-0.2,0c0,0.1-0.1,0.1-0.2,0.1h-0.1l-0.1,0.1c-0.1,0-0.1,0-0.1,0c0,0,0,0-0.1,0v0.5h-0.2
		c-0.1,0.3-0.1,0.5,0,0.5c0,0.1,0,0.1,0,0.2v0.8c0,0.1-0.2,0.2-0.5,0.3c-0.4,0.1-0.5,0.1-0.4,0.1c-0.3,0-0.5,0-0.5,0
		c-0.1,0-0.3-0.1-0.8-0.2c-0.5-0.1-0.9-0.1-1.3-0.2c-0.4-0.1-0.7-0.3-1-0.6l-0.9-1.5c-0.1-0.3-0.3-0.5-0.5-0.8
		c-0.2-0.2-0.3-0.4-0.3-0.7c-0.1-0.4-0.1-0.8-0.2-1c-0.1-0.3-0.2-0.5-0.3-0.8c-0.1-0.2-0.2-0.5-0.3-0.8c-0.1-0.3-0.2-0.7-0.2-1.3
		c0-0.1,0-0.2,0-0.3c0-0.1,0-0.2,0-0.3l-0.4-2.9c0-0.1,0-0.2,0-0.4c0-0.1,0-0.3,0-0.6c0-0.1-0.1-0.4-0.3-1.1
		c-0.2-0.7-0.4-1.4-0.5-2.2c-0.2-0.8-0.3-1.5-0.5-2.2c-0.1-0.7-0.2-1-0.2-1.1l-0.1-1.8l-1.6-4.3l-0.1,0.2c-0.1,0.1-0.2,0.2-0.2,0.1
		c0,0-0.1,0-0.2,0.1l-0.1-0.2l0.1-0.3l-0.5,0.6h-0.2l-1.8,0.2c-0.1-0.1-0.1-0.1-0.1-0.2c0-0.1-0.1,0-0.2,0.2c-0.1,0-0.2-0.1-0.1-0.2
		c0-0.1,0-0.1-0.2,0.1l-0.2,0.1v0.2h0.2c-0.1,0.1-0.3,0.2-0.4,0.4s-0.3,0.2-0.4,0.2l-0.3,0.4c0.2-0.2,0.7-0.4,1.4-0.6l-0.2,0.3
		l-1,0.7l-1,0.5c-0.1,0.5-0.3,0.8-0.7,0.9l-1.3,2.8c-0.2,0.4-0.4,0.8-0.6,1.3c-0.2,0.4-0.5,1.1-0.8,1.9c-0.5,0.8-1,1.7-1.3,2.6
		c-0.3,0.9-0.7,1.9-1.2,3h-0.5c-0.1,0.4-0.2,0.9-0.3,1.6c-0.1,0.6-0.2,1-0.2,1.1c-0.1,0.1-0.2,0.2-0.3,0.3c-0.1,0.1-0.1,0.3-0.3,0.6
		c-0.2,0-0.4,0.1-0.6,0.3c-0.2,0-0.3,0.1-0.3,0.3c0,0.2-0.1,0.3-0.1,0.4c0,0.1,0,0.1-0.1,0.1c-0.1,0-0.1,0.1-0.1,0.1
		c0.1,0.1,0.2,0.3,0.1,0.4c0,0.1-0.1,0.3-0.1,0.5v0.4h-0.3c-0.1-0.2-0.2-0.4-0.2-0.5l-0.2,0.4c-0.2,0.2-0.4,0.5-0.5,0.8
		c-0.2,0.3-0.3,0.6-0.4,1.1l-0.5,0.4c-0.1,0.1-0.2,0.2-0.3,0.3c-0.1,0.1-0.1,0.2-0.1,0.5c-0.1,0.1-0.2,0-0.2-0.1c0-0.1,0-0.3,0-0.4
		c0-0.1,0-0.1,0-0.1c0,0,0,0,0-0.1c-0.1,0-0.2,0-0.2,0c0,0-0.1,0-0.1,0l-0.1,0.1c-0.1,0.1-0.1,0.1-0.2,0.1c-0.1,0-0.3,0-0.6,0
		l-0.1,0.1h-0.4c-0.1,0.1-0.1,0,0-0.3c0.1-0.3,0.1-0.4-0.1-0.3c-0.2,0.3-0.3,0.5-0.4,0.7c-0.1,0.2-0.3,0.3-0.6,0.4h-0.4
		c-0.1,0-0.1,0-0.2-0.1c-0.2,0-0.5,0-0.9,0c-0.4,0-0.7,0-1.1,0c-0.4,0-0.7-0.1-1-0.1c-0.3-0.1-0.5-0.1-0.5-0.3l-0.3-1.6
		c0-0.3,0-0.5,0.1-0.7c0.1-0.1,0.1-0.3,0.1-0.4v-0.4c0.3-0.8,0.6-1.5,0.8-2.1c0.2-0.6,0.5-1.3,0.7-1.9c0.2-0.6,0.4-1.4,0.6-2.1
		c0.2-0.8,0.5-1.7,0.8-2.7c0.5-1.4,0.9-2.7,1.3-4c0.4-1.3,1-2.8,1.7-4.3c-0.1-0.1-0.1-0.3,0-0.5c0-0.2-0.1-0.3-0.3-0.3
		c0.3-0.4,0.4-0.5,0.2-0.6c-0.2,0-0.2-0.1,0-0.2l1.4-0.7c0.7-1.7,1.5-3.3,2.3-4.9c0.8-1.6,1.6-3.2,2.4-4.7c0.6-1.2,1.4-2.6,2.2-4.2
		c0.8-1.7,1.5-3.1,2.1-4.4l-0.4,0.4l-1.1,0.3c-0.3,0.2-0.7,0.5-1.1,0.8c-0.4,0.3-0.8,0.5-1.1,0.6h-0.6c-0.3-0.1-0.5-0.3-0.8-0.6
		c-0.2-0.3-0.4-0.5-0.7-0.8l-0.7-0.3l-0.3-0.5l-0.4-0.1c-0.1,0-0.1,0-0.1,0c0,0-0.2-0.1-0.4-0.2h-1.7l-0.2-0.4v-0.5l-0.2-0.1
		c-0.2-0.3-0.5-0.8-0.7-1.6c0.1-0.5,0.3-0.9,0.6-1.2l0.4-0.8c0.4-0.1,0.6-0.2,0.9-0.3c0.2-0.1,0.5-0.3,0.7-0.4
		c0.4-0.1,0.9-0.2,1.5-0.3c0.6-0.1,1-0.4,1.4-0.7c0.5-0.1,0.9-0.2,1.2-0.2c0.4,0,0.7-0.1,1-0.2c0.4-0.1,0.9-0.2,1.6-0.4
		c0.6-0.1,1.4-0.3,2.3-0.6c0.8-0.3,1.7-0.5,2.8-0.7c1.1-0.2,2.1-0.4,3.1-0.5c0.4-0.1,0.8-0.1,1.2-0.2c0.4-0.1,0.8-0.1,1.2-0.3
		c2.2-0.5,4.7-0.8,7.4-0.9c2.7-0.1,5.4-0.2,8.2-0.2h1.4c2.6,0.1,5.1,0.5,7.4,1.2c2.4,0.7,4.1,2,5.3,3.9c0,0.1,0,0.1,0,0.1
		c0,0,0,0.1,0,0.2c0.1,0.1,0.1,0.3,0.2,0.5c0.1,0.2,0,0.4-0.1,0.7h0.2c0.1,0.2,0.1,0.3,0.1,0.5c-0.1,0.1-0.1,0.3-0.3,0.4
		c-0.1,0.1-0.1,0.1-0.1,0.3c0,0.1,0,0.1-0.1,0.2l0.4,1.3c0.1,0.1,0.1,0.2,0.1,0.4c0.1,0.7,0.1,1.3-0.1,2c-0.2,0.7-0.5,1.2-1,1.5
		c-0.2,0.5-0.4,0.7-0.5,0.7v0.2l-0.4,0.6c-0.1,0-0.2,0-0.3,0c-0.1,0-0.1,0-0.3,0c-0.2,0.1-0.5,0.2-0.8,0.2l-0.1-0.2v0.3H268.5z
		 M223.8,66.4L223.8,66.4v-0.3V66.4z M228.8,57.7l0.2-0.3C228.9,57.4,228.9,57.5,228.8,57.7z M250.4,32.2c0.3-0.2,0.6-0.3,0.9-0.4
		c0.3-0.1,0.6-0.2,0.9-0.5c0.3-0.1,0.6-0.2,1-0.4c0.4-0.1,0.7-0.3,1-0.4c1.7-0.6,3.1-1.3,4.3-2c1.2-0.7,2.5-1.5,3.9-2.5l0.5-0.4
		c1.2-0.9,1.9-1.5,1.9-1.9c0-0.5-0.4-0.8-1.3-1c-0.9-0.2-1.9-0.3-3.1-0.3c-0.4,0-0.8,0-1.2,0c-0.4,0-0.8,0-1.2,0.1
		c-1.1,0.1-2.3,0.2-3.6,0.3c-1.3,0.1-2.5,0.3-3.7,0.5l-1.9,0.4l-0.7,0.2c-0.6,0.1-1.1,0.2-1.6,0.3c-0.5,0.1-1,0.2-1.4,0.5
		c0.3,0.6,0.4,1.2,0.3,1.6c-0.1,0.4-0.3,0.8-0.6,1.2c-0.3,0.6-0.6,1.1-0.9,1.5c-0.3,0.4-0.5,0.8-0.6,1.2c-0.1,0.6-0.4,1.1-0.8,1.5
		l-1.2,1.7l-0.5,0.8c-0.1,0.3-0.3,0.7-0.5,1.2c-0.2,0.5-0.5,0.9-0.7,1.2c1.7-0.8,3.5-1.6,5.3-2.4C246.9,33.6,248.7,32.9,250.4,32.2z
		 M251.7,40.5c-0.1,0-0.1,0-0.1,0c0,0-0.1,0-0.1,0L251.7,40.5z M269.5,28.7c-0.2,0.1-0.3,0.3-0.3,0.4l0.4-0.4H269.5z"/>
</g>
<g id="E">
	<path d="M260.2,64.6c-0.4-0.1-0.7-0.2-0.8-0.5c-0.1-0.3-0.1-0.6,0-0.9c0.1-0.3,0.1-0.7,0.3-1c0.1-0.4,0.2-0.7,0.3-1
		c0.2-0.6,0.5-1.3,0.7-1.9c0.2-0.6,0.5-1.3,0.8-1.9c0.1-0.4,0.2-0.7,0.3-1c0.1-0.3,0.3-0.6,0.4-1c0.8-2.5,1.7-4.9,2.7-7.2
		c1-2.3,2.1-4.5,3.2-6.5c0.1-0.2,0.1-0.3,0.2-0.4c0.1-0.1,0.1-0.2,0.3-0.4c0.2-0.4,0.3-0.7,0.5-1.2c0.1-0.4,0.4-0.8,0.7-1.1
		c1.2-2.1,2.4-4.2,3.7-6.3c1.3-2.1,2.6-4.2,3.9-6.3c0.6-1.1,1.3-2.2,2-3.4c0.6-1.1,1.3-2.3,1.9-3.5c0.1-0.8,0.4-1.4,0.9-1.9
		c0.5-0.5,1-1.1,1.5-1.7c0.3,0,0.5-0.1,0.7-0.2c0.2-0.1,0.4-0.2,0.7-0.1c0.1,0,0.3,0.1,0.5,0.2c0.2,0.1,0.4,0.2,0.5,0.4
		c0.4,0.3,0.8,0.7,1.2,1.2c0.4,0.5,0.8,1,1.2,1.4c3.2-0.6,6.3-1.2,9.3-1.8c3-0.6,6.3-1,9.9-1c0.5-0.1,1-0.1,1.5,0
		c0.5,0,1,0.1,1.5,0.1c0.2,0.2,0.4,0.4,0.5,0.4c0.1,0,0.2,0.2,0.4,0.5c-0.3,0.2-0.5,0.4-0.5,0.6s0,0.5,0.1,0.9
		c-0.3,0-0.5,0.1-0.5,0.3c0,0.2,0,0.4,0,0.6c-0.1,0.1-0.2,0.1-0.4,0c-0.1,0-0.2,0-0.3,0.1c-0.1,0.3-0.2,0.6-0.2,1.1
		c0,0.4-0.2,0.8-0.5,1.1c0.1,0.4,0.1,0.7-0.1,0.8c-0.2,0.1-0.3,0.3-0.4,0.6c-0.2,0.1-0.3,0.1-0.4,0.2c-0.1,0.1-0.2,0.1-0.4,0.1
		c-0.8,0.6-1.6,1-2.4,1.2c-0.8,0.2-1.8,0.4-2.8,0.5c-0.2,0.1-0.5,0.1-0.7,0.2c-0.2,0.1-0.5,0.1-0.7,0.1h-0.9
		c-0.4,0.1-0.7,0.1-1.1,0.2c-0.4,0.1-0.7,0.1-1.1,0.3c-0.9,0.2-1.8,0.4-2.7,0.6c-0.8,0.2-1.6,0.5-2.5,0.7c-0.4,0.1-0.7,0.2-1,0.3
		c-0.3,0.1-0.6,0.2-1,0.3c-0.7,0.2-1.4,0.4-2.2,0.5c-0.8,0.1-1.2,0.5-1.4,1.2c-0.1,0.1-0.2,0.1-0.2,0.2c0,0.1-0.1,0.1-0.2,0.1
		c-0.5,1.3-1.2,2.5-2.2,3.6c-1,1.1-1.8,2.2-2.4,3.4c2-0.5,4.1-0.9,6.3-1.2c2.2-0.4,4.5-0.7,6.9-1c1.2-0.1,2.4-0.2,3.6-0.3
		c1.2-0.1,2.4,0,3.6,0.3c0,0.2,0,0.4,0.1,0.4c0.1,0.1,0.1,0.1,0.1,0.3c-0.1,0.1-0.2,0.1-0.3,0.1c-0.1-0.1-0.2-0.1-0.3-0.1
		c-0.3,0.1-0.5,0.3-0.8,0.4s-0.4,0.3-0.7,0.4c-0.1,0-0.2,0-0.2,0.1c0,0.1-0.1,0.1-0.2,0.2h-0.2h-0.1c-0.2,0.1-0.4,0.3-0.6,0.5
		c-0.2,0.2-0.3,0.5-0.2,0.7c0.4,0,0.8,0,1.1,0s0.7-0.1,1-0.2c-0.1,0.1-0.2,0.2-0.5,0.2v1.2c-0.2,0.1-0.4,0.1-0.6,0.1
		c-0.2,0-0.3,0.1-0.3,0.3c-0.2,0.1-0.4,0.2-0.6,0.2c-0.2,0-0.4,0-0.6,0.1c0,0.2,0.1,0.3,0.2,0.4c0.2,0.1,0.2,0.2,0.2,0.4
		c-0.5,0.2-1,0.3-1.5,0.4c-0.5,0.1-1,0.3-1.5,0.5c0,0.1,0,0.2,0.1,0.2c0,0,0,0.1-0.1,0.2c-0.5-0.1-1,0-1.5,0.1
		c-0.6,0.1-1.1,0.2-1.7,0.4c-1.7,0.2-2.9,0.6-3.7,1.2c-0.7,0.3-1.4,0.6-2.1,0.8c-0.7,0.3-1.5,0.5-2.3,0.7c-0.6,0.1-1.1,0.3-1.7,0.4
		c-0.5,0.1-1,0.3-1.5,0.3c-0.5,0-0.9,0-1.4,0c-0.4,0-1,0-1.5-0.1c-0.3,0-0.5,0-0.7,0s-0.5,0.1-0.8,0.2c-0.5,0.6-0.9,1.2-1.2,1.8
		c-0.3,0.6-0.7,1.3-1,1.9c-0.3,0.5-0.6,1-0.8,1.5c-0.2,0.5-0.4,1-0.6,1.5c-0.4,0.8-0.7,1.7-1,2.5c-0.3,0.9-0.6,1.7-1,2.6
		c-0.1,0.3-0.1,0.5,0.1,0.6c0.2,0.1,0.2,0.4,0,0.7c0.6-0.1,1-0.2,1.2-0.1c0.2,0,0.6,0,1.1-0.2l1.7-0.5l4.3-1.6
		c0.1,0,0.2-0.1,0.4-0.2c1.4-0.4,2.9-0.9,4.4-1.4c1.5-0.5,3.1-1.1,4.7-1.6c0.9-0.3,1.9-0.6,2.8-0.9c0.9-0.3,1.9-0.6,2.9-0.9
		c0.5-0.1,0.8-0.2,1-0.3c0.2-0.1,0.6-0.1,1.2-0.3l3.4-0.5c0.4-0.1,0.9-0.1,1.5-0.1c0.6,0,0.8,0.3,0.7,0.9c0,0.1-0.1,0.2-0.2,0.3
		c-0.1,0.1-0.1,0.2,0,0.4c-0.3,0-0.5,0-0.5,0.1c0.1,0.1,0.2,0.1,0.3,0c0.1-0.1,0.3-0.1,0.3,0c0.1,0.1,0,0.2,0,0.2
		c-0.1,0-0.2,0-0.3,0.1h0.5c-0.1,0.1-0.1,0.2-0.3,0.2c-0.1,0-0.2,0.1-0.4,0.2c-0.1-0.1-0.3-0.2-0.8-0.2c0,0.3,0.1,0.4,0.3,0.4
		c0.2,0,0.3-0.1,0.4-0.2c0.2,0.2,0.5,0.3,0.8,0.2c0.2,0,0.2,0,0.1,0c-0.1,0-0.1,0.1,0,0.1h0.4c0.1,0.2,0.1,0.3,0,0.4
		c-0.1,0.1-0.1,0.2-0.1,0.3c-0.4,0.1-0.7,0.2-0.9,0.5c-0.2,0.3-0.5,0.4-1,0.4c0,0.1,0.1,0.2,0.2,0.3c0.1,0.1,0.3,0.1,0.4,0
		c-0.1,0.1-0.1,0.1-0.2,0.1c-0.1,0-0.2,0.1-0.2,0.2c0,0.1,0.1,0.1,0.2,0.1c0.1-0.1,0.2,0,0.2,0.1c-0.4,0-0.7,0.1-1,0.3
		c0.1,0.2,0.3,0.2,0.6,0.1c0.3-0.1,0.5-0.1,0.6,0c-0.1,0.2-0.3,0.3-0.5,0.3c-0.2,0-0.5,0.1-0.7,0.1c-0.5,0.1-0.9,0.3-1.3,0.4
		s-0.8,0.3-1.1,0.4c-0.8,0.2-1.4,0.4-1.8,0.6c-0.4,0.1-0.9,0.4-1.5,0.7c0.1,0.1,0.3,0,0.4,0c0.2-0.1,0.4-0.1,0.5,0
		c-0.1,0.1-0.3,0.2-0.5,0.2c-0.2,0-0.4,0-0.6,0.1c-0.1-0.1-0.2-0.1-0.1-0.1c0.1,0,0,0-0.1,0c-0.6,0.1-1.2,0.2-1.7,0.4
		c-0.5,0.2-1,0.5-1.5,0.7c0.3,0.1,0.6,0.1,0.8-0.1s0.5-0.3,0.9-0.2c0.1,0,0.1,0,0,0c-0.1,0-0.1,0-0.1,0.1c0.2,0.1,0.3,0.1,0.5,0
		c0.1-0.1,0.3-0.1,0.6-0.1c-0.4,0.3-0.7,0.5-1.2,0.7c-0.4,0.1-0.9,0.3-1.4,0.4c0,0.1,0.1,0.1,0.2,0.1c0.1-0.1,0.2-0.1,0.2,0
		c-0.1,0.1-0.3,0.2-0.5,0.1c-0.2,0-0.4,0-0.5,0c-0.5,0.1-1,0.3-1.6,0.5c-0.6,0.2-1.2,0.4-1.7,0.6c-0.2,0.1-0.4,0.2-0.6,0.3
		c-0.2,0.1-0.4,0.2-0.5,0.3l0.7-0.2c0.1-0.1,0.2-0.1,0.4-0.2c0.1-0.1,0.2-0.1,0.3,0c-0.1,0.1-0.3,0.2-0.6,0.4
		c-0.3,0.1-0.5,0.2-0.6,0.3c-0.1,0-0.2,0-0.2-0.1c0-0.1,0-0.1-0.1-0.1c-0.3,0.3-0.7,0.4-1.2,0.4c-0.5,0-0.9,0.2-1.1,0.5
		c-0.3,0-0.6,0.1-0.8,0.3c-0.3,0.2-0.5,0.4-0.8,0.5c-0.6,0.1-1.1,0.3-1.6,0.5c-0.5,0.2-1,0.5-1.5,0.8c-0.2,0.1-0.4,0.2-0.7,0.4
		c-0.3,0.1-0.5,0.2-0.8,0.4l-2.2,1c-0.4,0.1-0.8,0.2-1.2,0.3c-0.4,0.1-0.8,0.2-1.2,0.4c-0.6,0.2-1.2,0.5-1.7,0.8
		c-0.6,0.3-1.1,0.5-1.7,0.8c-0.6,0.2-1.4,0.3-2.1,0.4c-0.8,0.1-1.5-0.1-2.1-0.4c-0.2-0.1-0.3-0.1-0.5-0.3c-0.1-0.1-0.3-0.2-0.6-0.2
		c-0.3-0.1-0.6-0.2-1-0.2s-0.6-0.2-0.8-0.5C261.7,67.1,260.5,66.2,260.2,64.6z M289.9,60.1c0,0.1,0,0.1,0.1,0.1
		c0.1-0.1,0.2-0.1,0.2-0.2c-0.1,0-0.1,0-0.1,0C290.1,60.1,290,60.1,289.9,60.1z M290.6,59.7c0.1-0.1,0.3-0.2,0.4-0.2
		c0.2,0,0.3-0.1,0.4-0.2c-0.2-0.1-0.4,0-0.6,0C290.6,59.4,290.6,59.5,290.6,59.7z M290.7,59.9c0.1-0.1,0.3-0.1,0.4-0.1
		c0.2,0,0.3-0.1,0.3-0.2c-0.1,0.1-0.3,0.2-0.4,0.2C290.9,59.7,290.8,59.8,290.7,59.9z M293.6,59c0.1,0,0.2-0.1,0.4-0.3
		c-0.1,0.1-0.1,0.1-0.2,0.1C293.7,58.8,293.7,58.9,293.6,59z"/>
</g>
<g id="E_1_">
	<path d="M301.5,64.6c-0.4-0.1-0.7-0.2-0.7-0.5c-0.1-0.3-0.1-0.6-0.1-0.9c0.1-0.3,0.2-0.7,0.3-1c0.1-0.4,0.2-0.7,0.3-1
		c0.2-0.6,0.5-1.3,0.7-1.9c0.2-0.6,0.5-1.3,0.8-1.9c0.1-0.4,0.2-0.7,0.3-1c0.1-0.3,0.3-0.6,0.4-1c0.8-2.5,1.7-4.9,2.7-7.2
		c1-2.3,2.1-4.5,3.2-6.5c0.1-0.2,0.1-0.3,0.2-0.4c0.1-0.1,0.1-0.2,0.3-0.4c0.2-0.4,0.3-0.7,0.5-1.2c0.2-0.4,0.4-0.8,0.7-1.1
		c1.2-2.1,2.4-4.2,3.7-6.3c1.3-2.1,2.6-4.2,3.9-6.3c0.6-1.1,1.3-2.2,2-3.4c0.6-1.1,1.3-2.3,1.9-3.5c0.1-0.8,0.4-1.4,0.9-1.9
		c0.5-0.5,1-1.1,1.5-1.7c0.3,0,0.5-0.1,0.7-0.2c0.2-0.1,0.4-0.2,0.7-0.1c0.1,0,0.3,0.1,0.5,0.2c0.2,0.1,0.4,0.2,0.5,0.4
		c0.4,0.3,0.8,0.7,1.2,1.2c0.4,0.5,0.8,1,1.2,1.4c3.2-0.6,6.3-1.2,9.3-1.8c3-0.6,6.3-1,9.9-1c0.5-0.1,1-0.1,1.5,0
		c0.5,0,1,0.1,1.5,0.1c0.2,0.2,0.4,0.4,0.5,0.4c0.1,0,0.2,0.2,0.4,0.5c-0.3,0.2-0.5,0.4-0.5,0.6s0,0.5,0.1,0.9
		c-0.3,0-0.5,0.1-0.5,0.3c0,0.2,0,0.4,0,0.6c-0.1,0.1-0.2,0.1-0.4,0c-0.1,0-0.2,0-0.3,0.1c-0.1,0.3-0.2,0.6-0.2,1.1
		c0,0.4-0.2,0.8-0.5,1.1c0.1,0.4,0.1,0.7-0.1,0.8c-0.2,0.1-0.3,0.3-0.4,0.6c-0.2,0.1-0.3,0.1-0.4,0.2c-0.1,0.1-0.2,0.1-0.4,0.1
		c-0.8,0.6-1.6,1-2.4,1.2c-0.8,0.2-1.8,0.4-2.8,0.5c-0.2,0.1-0.5,0.1-0.7,0.2c-0.2,0.1-0.5,0.1-0.7,0.1h-0.9
		c-0.4,0.1-0.7,0.1-1.1,0.2c-0.4,0.1-0.7,0.1-1.1,0.3c-0.9,0.2-1.8,0.4-2.7,0.6c-0.8,0.2-1.6,0.5-2.5,0.7c-0.4,0.1-0.7,0.2-1,0.3
		c-0.3,0.1-0.6,0.2-1,0.3c-0.7,0.2-1.4,0.4-2.2,0.5c-0.8,0.1-1.2,0.5-1.4,1.2c-0.1,0.1-0.2,0.1-0.2,0.2c0,0.1-0.1,0.1-0.2,0.1
		c-0.5,1.3-1.2,2.5-2.2,3.6c-1,1.1-1.8,2.2-2.4,3.4c2-0.5,4.1-0.9,6.3-1.2c2.2-0.4,4.5-0.7,6.9-1c1.2-0.1,2.4-0.2,3.6-0.3
		c1.2-0.1,2.4,0,3.6,0.3c0,0.2,0,0.4,0.1,0.4c0.1,0.1,0.1,0.1,0.1,0.3c-0.1,0.1-0.2,0.1-0.3,0.1c-0.1-0.1-0.2-0.1-0.3-0.1
		c-0.3,0.1-0.5,0.3-0.8,0.4s-0.4,0.3-0.7,0.4c-0.1,0-0.2,0-0.2,0.1c0,0.1-0.1,0.1-0.2,0.2h-0.2h-0.1c-0.2,0.1-0.4,0.3-0.6,0.5
		c-0.2,0.2-0.3,0.5-0.2,0.7c0.4,0,0.8,0,1.1,0s0.7-0.1,1-0.2c-0.1,0.1-0.2,0.2-0.5,0.2v1.2c-0.2,0.1-0.4,0.1-0.6,0.1
		c-0.2,0-0.3,0.1-0.3,0.3c-0.2,0.1-0.4,0.2-0.6,0.2c-0.2,0-0.4,0-0.6,0.1c0,0.2,0.1,0.3,0.2,0.4c0.2,0.1,0.2,0.2,0.2,0.4
		c-0.5,0.2-1,0.3-1.5,0.4c-0.5,0.1-1,0.3-1.5,0.5c0,0.1,0,0.2,0.1,0.2c0,0,0,0.1-0.1,0.2c-0.5-0.1-1,0-1.5,0.1
		c-0.6,0.1-1.1,0.2-1.7,0.4c-1.7,0.2-2.9,0.6-3.7,1.2c-0.7,0.3-1.4,0.6-2.1,0.8c-0.7,0.3-1.5,0.5-2.3,0.7c-0.6,0.1-1.1,0.3-1.7,0.4
		c-0.5,0.1-1,0.3-1.5,0.3c-0.5,0-0.9,0-1.4,0c-0.4,0-1,0-1.5-0.1c-0.3,0-0.5,0-0.7,0s-0.5,0.1-0.8,0.2c-0.5,0.6-0.9,1.2-1.2,1.8
		c-0.3,0.6-0.7,1.3-1,1.9c-0.3,0.5-0.6,1-0.8,1.5c-0.2,0.5-0.4,1-0.6,1.5c-0.4,0.8-0.7,1.7-1,2.5c-0.3,0.9-0.6,1.7-1,2.6
		c-0.1,0.3-0.1,0.5,0.1,0.6c0.2,0.1,0.2,0.4,0,0.7c0.6-0.1,1-0.2,1.2-0.1c0.2,0,0.6,0,1.1-0.2l1.7-0.5l4.3-1.6
		c0.1,0,0.2-0.1,0.4-0.2c1.4-0.4,2.9-0.9,4.4-1.4c1.5-0.5,3.1-1.1,4.7-1.6c0.9-0.3,1.9-0.6,2.8-0.9c0.9-0.3,1.9-0.6,2.9-0.9
		c0.5-0.1,0.8-0.2,1-0.3c0.2-0.1,0.6-0.1,1.2-0.3l3.4-0.5c0.4-0.1,0.9-0.1,1.5-0.1c0.6,0,0.8,0.3,0.7,0.9c0,0.1-0.1,0.2-0.2,0.3
		c-0.1,0.1-0.1,0.2,0,0.4c-0.3,0-0.5,0-0.5,0.1c0.1,0.1,0.2,0.1,0.3,0c0.1-0.1,0.3-0.1,0.3,0c0.1,0.1,0,0.2,0,0.2
		c-0.1,0-0.2,0-0.3,0.1h0.5c-0.1,0.1-0.1,0.2-0.3,0.2c-0.1,0-0.2,0.1-0.4,0.2c-0.1-0.1-0.3-0.2-0.8-0.2c0,0.3,0.1,0.4,0.3,0.4
		c0.2,0,0.3-0.1,0.4-0.2c0.2,0.2,0.5,0.3,0.8,0.2c0.2,0,0.2,0,0.1,0c-0.1,0-0.1,0.1,0,0.1h0.4c0.1,0.2,0.1,0.3,0,0.4
		c-0.1,0.1-0.1,0.2-0.1,0.3c-0.4,0.1-0.7,0.2-0.9,0.5c-0.2,0.3-0.5,0.4-1,0.4c0,0.1,0.1,0.2,0.2,0.3c0.1,0.1,0.3,0.1,0.4,0
		c-0.1,0.1-0.1,0.1-0.2,0.1c-0.1,0-0.2,0.1-0.2,0.2c0,0.1,0.1,0.1,0.2,0.1c0.1-0.1,0.2,0,0.2,0.1c-0.4,0-0.7,0.1-1,0.3
		c0.1,0.2,0.3,0.2,0.6,0.1c0.3-0.1,0.5-0.1,0.6,0c-0.1,0.2-0.3,0.3-0.5,0.3c-0.2,0-0.5,0.1-0.7,0.1c-0.5,0.1-0.9,0.3-1.3,0.4
		s-0.8,0.3-1.1,0.4c-0.8,0.2-1.4,0.4-1.8,0.6c-0.4,0.1-0.9,0.4-1.5,0.7c0.1,0.1,0.3,0,0.4,0c0.2-0.1,0.4-0.1,0.5,0
		c-0.1,0.1-0.3,0.2-0.5,0.2c-0.2,0-0.4,0-0.6,0.1c-0.1-0.1-0.2-0.1-0.1-0.1c0.1,0,0,0-0.1,0c-0.6,0.1-1.2,0.2-1.7,0.4
		c-0.5,0.2-1,0.5-1.5,0.7c0.3,0.1,0.6,0.1,0.8-0.1s0.5-0.3,0.9-0.2c0.1,0,0.1,0,0,0c-0.1,0-0.1,0-0.1,0.1c0.2,0.1,0.3,0.1,0.5,0
		c0.1-0.1,0.3-0.1,0.6-0.1c-0.4,0.3-0.7,0.5-1.2,0.7c-0.4,0.1-0.9,0.3-1.4,0.4c0,0.1,0.1,0.1,0.2,0.1c0.1-0.1,0.2-0.1,0.2,0
		c-0.1,0.1-0.3,0.2-0.5,0.1c-0.2,0-0.4,0-0.5,0c-0.5,0.1-1,0.3-1.6,0.5c-0.6,0.2-1.2,0.4-1.7,0.6c-0.2,0.1-0.4,0.2-0.6,0.3
		c-0.2,0.1-0.4,0.2-0.5,0.3l0.7-0.2c0.1-0.1,0.2-0.1,0.4-0.2c0.1-0.1,0.2-0.1,0.3,0c-0.1,0.1-0.3,0.2-0.6,0.4
		c-0.3,0.1-0.5,0.2-0.6,0.3c-0.1,0-0.2,0-0.2-0.1c0-0.1,0-0.1-0.1-0.1c-0.3,0.3-0.7,0.4-1.2,0.4c-0.5,0-0.9,0.2-1.1,0.5
		c-0.3,0-0.6,0.1-0.8,0.3c-0.3,0.2-0.5,0.4-0.8,0.5c-0.6,0.1-1.1,0.3-1.6,0.5c-0.5,0.2-1,0.5-1.5,0.8c-0.2,0.1-0.4,0.2-0.7,0.4
		c-0.3,0.1-0.5,0.2-0.8,0.4l-2.2,1c-0.4,0.1-0.8,0.2-1.2,0.3c-0.4,0.1-0.8,0.2-1.2,0.4c-0.6,0.2-1.2,0.5-1.7,0.8
		c-0.6,0.3-1.1,0.5-1.7,0.8c-0.7,0.2-1.4,0.3-2.1,0.4c-0.8,0.1-1.5-0.1-2.1-0.4c-0.2-0.1-0.3-0.1-0.5-0.3c-0.1-0.1-0.3-0.2-0.6-0.2
		c-0.3-0.1-0.6-0.2-1-0.2s-0.6-0.2-0.7-0.5C303,67.1,301.8,66.2,301.5,64.6z M331.2,60.1c0,0.1,0,0.1,0.1,0.1
		c0.1-0.1,0.2-0.1,0.2-0.2c-0.1,0-0.1,0-0.1,0C331.4,60.1,331.3,60.1,331.2,60.1z M331.9,59.7c0.1-0.1,0.3-0.2,0.4-0.2
		c0.2,0,0.3-0.1,0.4-0.2c-0.2-0.1-0.4,0-0.6,0C331.9,59.4,331.8,59.5,331.9,59.7z M332,59.9c0.1-0.1,0.3-0.1,0.4-0.1
		c0.2,0,0.3-0.1,0.3-0.2c-0.1,0.1-0.3,0.2-0.4,0.2C332.2,59.7,332,59.8,332,59.9z M334.9,59c0.1,0,0.2-0.1,0.4-0.3
		c-0.1,0.1-0.1,0.1-0.2,0.1C335,58.8,335,58.9,334.9,59z"/>
</g>
<g id="M">
	<path d="M401.8,14.3C401.8,14.2,401.9,14.2,401.8,14.3l0.3-0.2c0.1-0.1,0.2-0.1,0.4-0.1l0.7,0.3c0.2,0.1,0.3,0.3,0.4,0.4
		s0.2,0.3,0.4,0.6c0.2,0.4,0.5,0.6,0.8,0.8c0.3,0.2,0.5,0.4,0.7,0.5c1.1,0.6,1.8,1.4,2.2,2.3c0.2,0.5,0.3,1,0.2,1.5
		c-0.1,0.6-0.2,1.1-0.4,1.5l-0.6,1.5c-0.1,0-0.2,0-0.1,0.1c0,0.1,0,0.1-0.1,0.1c-0.4,1-0.6,1.9-0.8,2.6c-0.2,0.7-0.4,1.4-0.6,2.1
		c-0.2,0.7-0.4,1.4-0.6,2.1c-0.2,0.7-0.6,1.6-1.1,2.5c-0.5,1.2-1,2.4-1.5,3.6s-1.1,2.4-1.6,3.6c-0.3,0.2-0.5,0.5-0.5,0.9
		c-0.1,0.4-0.2,0.7-0.5,0.9c-0.1,0.4-0.3,0.9-0.5,1.3c-0.2,0.5-0.4,1-0.6,1.7c-0.1,0.1-0.2,0.2-0.2,0.2c0,0-0.1,0.1-0.2,0.1
		c0.1-0.4,0.3-0.7,0.5-1c-0.3,0.1-0.5,0.3-0.6,0.6c-0.1,0.3-0.2,0.5-0.4,0.7c0.1,0.2,0.1,0.4,0,0.6c0.1-0.1,0.2-0.2,0.1-0.3
		c0-0.1,0-0.2,0.1-0.2c0.1-0.1,0.1-0.1,0.2,0c0.1,0,0.2,0,0.2,0c0,0,0-0.1,0.1-0.1c-0.2,0.8-0.6,1.6-1.2,2.6c0-0.2,0.1-0.5,0.3-0.9
		c0.2-0.4,0.3-0.7,0.4-0.9c-0.2,0.1-0.3,0.3-0.3,0.6c0,0.3-0.2,0.5-0.4,0.7c-0.1,0.5-0.3,1.1-0.5,1.8c-0.2,0.7-0.5,1.3-0.8,1.9
		c0.1,0,0.1,0,0.1-0.1c0-0.1,0.1-0.1,0.2-0.1c-0.4,0.8-0.7,1.6-0.9,2.6c-0.2,0.9-0.5,1.9-1,2.7c0.1-0.6,0.3-1.3,0.6-1.9
		c0.3-0.6,0.5-1.3,0.7-2c0-0.6,0.1-1.3,0.4-1.9c0.3-0.6,0.5-1.2,0.6-1.9c-0.1,0-0.2,0.1-0.3,0.2c-0.1,0.1,0,0.3,0.1,0.4
		c-0.2,0.1-0.3,0.3-0.3,0.5c0,0.2,0,0.4-0.2,0.5c-0.1,0.5-0.2,1-0.4,1.6c-0.2,0.6-0.3,1.1-0.4,1.5c-0.2,0.3-0.4,0.6-0.5,1
		c-0.1,0.4-0.2,0.7-0.3,1l0.1,0.1c-0.3,0.8-0.5,1.5-0.6,2.2c-0.1,0.7-0.3,1.4-0.6,2c0.1,0,0.2-0.1,0.2-0.2s0.1-0.2,0.2-0.3
		c-0.1,0.3-0.2,0.6-0.3,0.9c-0.1,0.3-0.1,0.6-0.1,0.9c0,0.1,0,0.2,0,0.2c0,0,0,0.2,0,0.5c-0.1,0-0.1,0-0.1,0.1s-0.2,0.1-0.4,0.1
		c-0.1,0.4-0.1,0.5-0.2,0.5c-0.1,0-0.1,0-0.2-0.1c-0.1-0.1-0.1-0.1-0.2-0.2c-0.1,0-0.1,0.1-0.1,0.5c-0.3,0.2-0.4,0.3-0.4,0.4
		c-0.1,0.1-0.1,0.1,0,0c0-0.1,0-0.1-0.1-0.1c-0.1,0.1-0.1,0.3,0,0.4c0,0.2,0,0.3-0.1,0.4c-0.1,0-0.2,0.1-0.2,0.2V64v0.1v0.3
		c0,0.2,0,0.3,0,0.2c0,0,0,0,0.1,0.1l-0.1,0.1c0,0.2,0,0.4-0.1,0.5c-0.1,0.1,0,0.3,0.1,0.6c-0.1,0.1-0.2,0-0.2,0
		c0-0.1-0.2-0.1-0.5,0c0,0.1,0.1,0.1,0.2,0.1c0.1,0,0.1,0-0.1,0.1c-0.1,0.1-0.1,0.1-0.1,0.2c0,0.1-0.1,0.1-0.2,0.1
		c0,0.1,0,0.2-0.1,0.3c-0.1,0.1-0.1,0.2,0,0.3c-0.5,0.2-0.7,0.5-0.8,0.9c-0.1,0-0.2,0-0.2-0.1c0-0.1-0.1-0.1-0.1,0
		c-0.1,0.1-0.2,0.2-0.4,0.4c-0.1,0.1-0.3,0.2-0.5,0.4c-0.5,0.2-0.9,0.2-1.2,0c-0.3-0.3-0.6-0.4-0.9-0.5c-0.3-0.4-0.5-0.8-0.6-1.1
		c-0.1-0.4-0.2-0.7-0.3-1.1c-0.1-0.5-0.2-0.9-0.1-1.2c0-0.2,0.1-0.4,0.2-0.6c0.1-0.1,0.2-0.3,0.3-0.6c0.1-0.2,0.2-0.6,0.4-1.2
		c0.1-0.6,0.2-1,0.2-1.3c0.6-2.4,1.2-4.7,1.9-7.2c0.7-2.4,1.4-4.7,2.2-7c0.2-0.6,0.4-1.3,0.5-1.9c0.2-0.7,0.4-1.2,0.5-1.7
		c0.1-0.2,0.2-0.3,0.3-0.5c0.1-0.1,0.1-0.3,0.1-0.5c0.5-1.2,0.8-2.3,1-3.5c0.2-1.2,0.5-2.3,1-3.5h0.2c0.2-0.7,0.3-1.3,0.4-1.6
		c0.1-0.4,0.2-0.7,0.4-1.1c0.1-0.3,0.2-0.7,0.4-1c0.1-0.4,0.3-0.9,0.6-1.5c-1,1.2-1.9,2.3-2.8,3.4c-0.9,1.1-1.8,2.2-2.8,3.4
		s-2.2,2.5-3.4,4c-1.3,1.4-2.8,3.1-4.6,5c-0.5,0.7-1,1.3-1.5,1.9c-0.5,0.6-0.9,1.4-1.3,2.1c-0.3,0.4-0.5,0.7-0.7,1
		c-0.2,0.2-0.4,0.5-0.6,0.7c-0.2,0.2-0.4,0.5-0.7,0.8c-0.2,0.3-0.5,0.7-0.7,1.2c-0.7,1-1.4,2-2.1,3c-0.7,1-1.4,2.1-2,3.3
		c-0.1,0-0.1,0-0.1,0c0,0-0.1,0-0.2,0c-0.4,0.8-0.9,1.2-1.6,1.4h-1.9c-0.3-0.1-0.6-0.2-1-0.2c-0.4,0-0.7-0.1-1-0.2
		c-0.1-0.1-0.2-0.1-0.3-0.2c-0.1-0.1-0.2-0.1-0.3-0.1c-0.3-0.2-0.6-0.3-0.8-0.4c-0.2-0.1-0.4-0.2-0.4-0.5v-0.4
		c-0.8-2.9-1.2-5.9-1.1-9.2c0.1-3.2,0.1-6.3,0.3-9.3c0-0.5,0-0.9,0.1-1.4c0-0.4,0-0.9-0.1-1.3c-0.1,0-0.2,0.1-0.4,0.4l-1.6,3.4
		c0,0.1,0,0.2,0,0.2c0,0,0,0.1,0,0.2c-0.1,0-0.2,0-0.2,0.1c0,0.1-0.1,0.1-0.4,0.1c-0.1,0.3-0.2,0.6-0.3,0.9
		c-0.1,0.3-0.2,0.6-0.4,0.8v0.4c-0.1,0.1-0.2,0.2-0.3,0.4s-0.2,0.2-0.3,0.4c0,0.1,0,0.1,0.1,0.2h0.1H359c0.1,0.1,0.1,0.1,0,0.2
		c-0.1,0.1-0.1,0.1,0,0.3c-0.1,0.1-0.2,0.4-0.2,0.8c-0.2,0-0.4,0.1-0.4,0.3c0,0.2-0.1,0.4-0.1,0.6h0.1c-0.1,0.1-0.2,0.2-0.3,0.3
		c-0.1,0.1-0.2,0.2-0.2,0.4h0.2c-0.1,0.2-0.2,0.4-0.3,0.8c-0.1,0.3-0.2,0.6-0.5,0.8c0.3,0.1,0.3,0.2,0.1,0.4
		c-0.2,0.1-0.3,0.2-0.2,0.4h-0.3c0.1,0.2,0.1,0.3,0,0.4c-0.1,0.1-0.2,0.2-0.2,0.4v0.1c-0.3,0.2-0.4,0.5-0.4,1c0,0.1,0,0.1,0,0.1
		c0-0.1,0.1-0.1,0.2-0.1c0,0.1-0.1,0.2-0.2,0.1c-0.1,0-0.2,0-0.3,0.1c0.2,0.2,0.3,0.2,0.3,0.2c-0.1,0.1-0.2,0.3-0.3,0.5
		c-0.1,0.2-0.2,0.4-0.4,0.6c-0.1,0.2-0.2,0.5-0.3,0.8c-0.1,0.3-0.2,0.5-0.2,0.8l0.2,0.1c-0.1,0.1-0.1,0.1-0.1,0c0-0.1-0.1,0-0.1,0.1
		c-0.4,0.7-0.7,1.4-1,2.1c-0.2,0.7-0.4,1.3-0.6,2c0.1,0.1,0.2,0.1,0.1,0.1c-0.1,0-0.1,0-0.1,0.1c-0.2,0.1-0.4,0.3-0.4,0.8
		c-0.3,0.2-0.4,0.6-0.4,1.2c-0.1,0.5-0.3,1-0.4,1.5c-0.2,0.5-0.4,1-0.7,1.5c0.1-0.9,0.3-1.7,0.6-2.4c0.3-0.7,0.4-1.4,0.5-2.2
		c0.1-0.2,0.2-0.3,0.3-0.4c0.1-0.1,0.1-0.1,0-0.1s-0.1,0-0.1,0c0.2-0.5,0.3-0.9,0.4-1.2c0.1-0.3,0.1-0.7,0.1-1.1
		c-0.1,0.1-0.2,0.3-0.2,0.6c0,0.3-0.2,0.5-0.4,0.5c0-0.3,0.1-0.6,0.2-0.8s0.2-0.5,0.3-0.8c0.1-0.6,0.3-1.2,0.5-1.5
		c0.2-0.4,0.3-0.8,0.2-1.3c-0.3,0.1-0.4,0.3-0.4,0.7c0,0.3-0.1,0.5-0.3,0.7c-0.1,0.8-0.3,1.3-0.5,1.6c-0.2,0.3-0.3,0.8-0.4,1.5
		c-0.1,0-0.2,0.1-0.1,0.2c0,0.1,0,0.2-0.1,0.3c0,0.3-0.1,0.5-0.2,0.7c-0.2,0.1-0.3,0.3-0.3,0.6c-0.3,0.5-0.5,1-0.5,1.5
		c0,0.6-0.2,1.1-0.4,1.7v0.1c-0.2,0.2-0.4,0.4-0.4,0.8c-0.1,0.3-0.2,0.5-0.4,0.7c0.1-0.4,0.2-0.6,0.1-0.9c0-0.2-0.1-0.4-0.1-0.5
		h-0.2c-0.1,0.1-0.2,0.2-0.3,0.4c-0.1,0.1,0,0.3,0.1,0.6c-0.1,0.2-0.2,0.3-0.3,0.4c-0.1,0.1-0.2,0.1-0.4,0.1c0,0.2,0,0.3,0,0.3
		c0,0,0,0.1,0,0.2c0,0.1,0,0.1,0,0c0,0,0.1,0,0.1,0c0,0.2-0.2,0.4-0.5,0.4c0-0.4,0.1-0.6,0.3-0.7c-0.1-0.2-0.2-0.2-0.4,0
		c-0.1,0.2-0.1,0.2,0,0.2c-0.1,0.1-0.2,0.2-0.4,0.2c-0.1,0.1-0.2,0.2-0.1,0.3c0,0.1,0,0.2,0,0.3c-0.2,0-0.6,0-1.1,0
		c-0.5,0-1,0-1.5,0c-0.5,0-1,0-1.5,0c-0.5,0-0.8,0-1-0.1c0-0.3,0-0.5-0.1-0.6c-0.1-0.1-0.1-0.2-0.2-0.3c-0.3-0.9-0.4-1.7-0.3-2.6
		c0.1-0.8,0.3-1.6,0.5-2.3l2.3-7.2c0.3-1,0.6-1.9,0.9-2.6c0.3-0.7,0.6-1.5,0.7-2.3c0.1,0,0.1,0,0.1-0.1s0.1-0.1,0.2-0.1
		c0.5-1.6,1.1-3.3,1.8-4.9c0.6-1.6,1.4-3.2,2.1-4.7c1-2.5,2-4.8,3.1-7.1c1-2.3,2-4.6,2.9-6.9c0.1-0.6,0.3-1.2,0.5-1.7
		c0.2-0.5,0.5-1,0.8-1.7c-0.1-0.1,0-0.2,0-0.3c0.1-0.1,0.1-0.2,0.1-0.3c0.1-0.3,0.3-0.5,0.4-0.7c0.2-0.2,0.3-0.5,0.4-0.9
		c0.5-0.1,0.7-0.4,0.7-0.8c0.3-0.2,0.7-0.2,1.2,0c0,0.2,0.1,0.4,0.2,0.5c0.1,0,0.3,0,0.4,0c0.2,0,0.3,0,0.4,0c0.1,0,0.4,0,0.7,0
		c0.4,0,0.8,0,1.2,0c0.4,0,0.8,0,1.2,0s0.6,0,0.7,0l1.3,0.4c0.1,0,0.3,0.1,0.5,0.3s0.4,0.3,0.5,0.4c0.2,0.2,0.4,0.3,0.6,0.4
		c0.2,0.1,0.3,0.1,0.3,0.3c0.1,0.2,0.2,0.3,0.4,0.4c0.2,0.1,0.3,0.2,0.4,0.4c0,0.2,0.1,0.3,0.3,0.4c0.2,0.1,0.3,0.2,0.4,0.3
		c0.3,0.3,0.5,0.7,0.7,1.3c0.1,0.6,0.3,1.1,0.4,1.5c0.5,1.4,0.6,2.9,0.4,4.5c-0.2,1.6-0.3,3.1-0.4,4.7c-0.1,1.8-0.2,3.7-0.3,5.7
		c-0.1,2-0.2,4-0.3,6c0.4-0.3,0.6-0.7,0.9-1.1c0.2-0.5,0.5-0.9,0.9-1.1v-0.2c2-2.8,4-5.6,6.1-8.2c2-2.7,4.2-5.3,6.6-7.9
		c0.5-0.5,0.8-0.9,1.1-1.2c0.2-0.2,0.4-0.4,0.6-0.6c0.2-0.2,0.4-0.4,0.6-0.6c0.2-0.2,0.6-0.6,1.1-1.1c0.5-0.4,0.9-0.7,1.2-1
		c0.3-0.3,0.6-0.7,0.9-1c1.1-0.8,2.3-1.8,3.6-2.9c1.3-1.1,2.6-2,3.8-2.7c0.2-0.2,0.5-0.3,1-0.3c0.2,0.2,0.6,0.3,1,0.3
		c0.4,0,0.7-0.2,0.7-0.6c0.4-0.1,0.6-0.2,0.7-0.4c0.1-0.2,0.3-0.3,0.5-0.3c0.1-0.1,0.2-0.1,0.1-0.2
		C401.9,14.4,401.8,14.3,401.8,14.3z M353.7,56.8c-0.1,0.1-0.2,0.1-0.3,0.1C353.6,56.9,353.7,56.9,353.7,56.8z M389.8,64.8l0.2,0.1
		C389.9,64.8,389.9,64.8,389.8,64.8z M391.7,61.3C391.7,61.3,391.7,61.3,391.7,61.3C391.5,61.4,391.5,61.4,391.7,61.3L391.7,61.3
		L391.7,61.3z M391.7,59.9l0.1-0.2C391.7,59.8,391.7,59.8,391.7,59.9z M392.8,62l0.2,0.1c-0.1,0.1-0.2,0.1-0.1,0.2
		c0,0.1,0,0.1-0.1,0.1C392.8,62.3,392.8,62.1,392.8,62z M393,59.1C393,59,393,59,393,59.1c0.1-0.1,0.1-0.1,0.1-0.2L393,59.1
		L393,59.1z M393.5,57.8c-0.1,0.2-0.1,0.4-0.2,0.5c-0.1,0.2-0.2,0.4-0.3,0.6v-0.4c0.1,0,0.1,0,0.1-0.1c-0.1-0.1,0-0.1,0.1-0.1
		c0-0.1,0-0.3,0.1-0.5c0.1-0.2,0.1-0.5,0.2-0.8c0-0.1,0-0.1,0.1-0.1c0.1,0,0.1,0,0.1-0.1c0.2,0.1,0.2,0.2,0,0.3
		S393.5,57.5,393.5,57.8z M394.2,57.2c0.1,0,0.2,0,0.1,0.1c-0.1,0.1-0.1,0.1-0.2,0.1v-0.1C394.1,57.3,394.1,57.2,394.2,57.2z
		 M394.3,57L394.3,57L394.3,57z M394.5,56.4c0.1,0.1,0.1,0.1,0,0.2c-0.1,0.1-0.1,0.1-0.1,0.3c-0.1-0.1-0.1-0.2,0-0.3
		C394.5,56.5,394.5,56.4,394.5,56.4z M396.6,49.1c-0.1,0.3-0.1,0.6-0.2,0.8c-0.1,0.3-0.2,0.5-0.2,0.8c0-0.1,0-0.1,0.1-0.1
		c0,0.4-0.1,0.6-0.3,0.6c0.1,0,0.2,0,0.2-0.1c0-0.1,0.1-0.1,0.1-0.1c-0.1,0.5-0.3,1-0.7,1.4s-0.5,1-0.5,1.9
		c-0.3,0.2-0.5,0.4-0.5,0.7s-0.1,0.6-0.3,1c0.1-1.1,0.4-2.1,0.8-3.1c0.4-1,0.8-2.1,1.1-3.3c0.1,0,0.2-0.1,0.1-0.2
		C396.5,49.3,396.5,49.2,396.6,49.1z M395.9,53.1c-0.1-0.1-0.1-0.2,0-0.3c0-0.1,0-0.1,0-0.2V53.1z M396.3,48.4l-0.2,0.1
		C396.2,48.5,396.2,48.5,396.3,48.4z M396.6,49.1C396.6,49.1,396.6,49,396.6,49.1c-0.1,0-0.2,0-0.2-0.1c0-0.1,0-0.1,0-0.1
		C396.5,49,396.6,49,396.6,49.1L396.6,49.1z M396.8,48.3c0.1,0,0.1,0.1-0.1,0.3c0-0.1,0-0.1,0-0.1C396.8,48.4,396.8,48.4,396.8,48.3
		z M397.6,45.8c0-0.1,0-0.2,0.1-0.3c0,0.1,0,0.1,0.1,0c0.1,0,0.1,0,0.1,0c-0.1-0.1-0.2,0-0.2,0C397.7,45.8,397.7,45.8,397.6,45.8z"
		/>
</g>
<g id="A">
	<path d="M409.6,61.3v0.2c0.1,0.6-0.1,1-0.4,1.1h0.1l-0.2,0.2c-0.2,0.2-0.3,0.3-0.4,0.4c-0.1,0.1-0.2,0.3-0.4,0.6
		c-0.2,0.2-0.4,0.4-0.5,0.8c-0.2,0.3-0.4,0.5-0.7,0.7v-0.1c-0.3,0.2-0.5,0.3-0.5,0.5c-0.1,0.1-0.2,0.3-0.3,0.5
		c-0.1,0.1-0.1,0.2-0.2,0.4c-0.1,0.1-0.2,0.2-0.4,0.3c-0.4,0-0.5-0.1-0.5-0.3c-0.2,0.3-0.4,0.4-0.7,0.4c-0.1,0.4-0.2,0.6-0.5,0.6
		c-0.2,0.2-0.4,0.3-0.8,0.4c-0.7,0-0.7-0.1-0.3-0.3h-0.4c-0.1,0.2-0.1,0.5-0.1,0.7c-0.2,0-0.3,0-0.4,0.1c-0.4,0.1-0.5,0.1-0.5-0.1
		c-0.5,0-1,0-1.6,0c-0.6,0-1.2,0-1.9,0s-1.2,0-1.6,0c-0.5,0-0.8-0.1-0.9-0.1l-0.4-0.5c0.1-1.1,0.3-2,0.6-2.8
		c0.3-0.8,0.5-1.6,0.8-2.2c0.1,0,0.1-0.1,0.1-0.3c0-0.2,0.1-0.3,0.1-0.4c0.2-0.4,0.5-0.7,0.7-1.2c0.2-0.4,0.5-0.9,0.8-1.4v0.1
		c0.1-0.2,0.1-0.4,0.2-0.5c0.1-0.1,0.2-0.3,0.3-0.4c0.1-0.1,0.2-0.3,0.3-0.5c0.1-0.2,0.1-0.4,0.2-0.6c0.3-0.5,0.6-1,0.9-1.5
		c0.3-0.5,0.5-1,0.7-1.5l1.4-2.1l-1.6,0.2c-0.3,0.1-0.6,0.1-1,0.1c-0.4,0-0.7,0-1.1,0c-1.1,0-2-0.2-2.7-0.7l0.1-0.1v-0.1v-0.1
		c0-0.1,0-0.1,0-0.1c0,0-0.1,0-0.1-0.1l-0.2-0.4c0-0.1,0.1-0.2,0.2-0.4c0.1-0.1,0.3-0.3,0.6-0.3c0.5,0,0.9-0.1,1-0.3
		c-0.3-0.1-0.6-0.1-0.9-0.2c-0.3-0.1-0.5-0.1-0.6-0.3c-0.5-0.1-0.8-0.1-1-0.2c-0.2-0.1,0.3-0.1,1.5-0.1c0.1,0,0.1,0,0,0
		c-0.1,0,0,0,0.1,0v-0.1c0-0.1,0.1-0.2,0.3-0.4c0.2-0.3,0.4-0.5,0.8-0.6l0.3-0.2c0.1,0,0.3,0,0.5,0c0.2,0,0.4,0,0.5,0.1
		c0.8-0.1,1.7-0.3,2.7-0.5c1-0.2,2-0.6,2.9-1l1.3-0.4c1.9-2.8,3.8-5.7,5.9-8.8c2-3,4.1-5.9,6.2-8.7c0.5-0.6,1-1.4,1.5-2.1
		c0.5-0.8,1.1-1.5,1.6-2.1c0.5-0.7,1-1.4,1.6-2.2c0.6-0.8,1.1-1.6,1.7-2.4h0.1l1.2-1.2c0.2-0.4,0.5-0.8,0.9-1.2
		c0.4-0.4,0.6-1,0.9-1.6c0.2-0.2,0.5-0.4,1-0.5c0.1-0.1,0.3-0.2,0.4-0.3c0.2-0.1,0.3-0.1,0.4-0.3l0.8-0.5c0.2-0.2,0.5-0.3,1-0.4h0.9
		c0.4-0.1,0.8-0.2,1.2-0.2c0.4,0,0.7,0,0.9,0.2c0.6-0.2,1.4-0.2,2.1,0c0.1,0,0.3,0,0.5,0c0.2,0,0.4,0,0.5,0c0.2,0,0.6,0.3,1,1
		l0.1,0.1c0.4,0.2,0.8,0.2,1.2,0.1c0.5-0.1,1-0.1,1.4,0c0.4-0.1,0.6,0.1,0.9,0.5c0.2,0.4,0.4,0.7,0.5,1c0.1,0.4,0.2,1,0.3,1.8
		c0.1,0.8,0.1,1.4,0.2,2c0,0.1,0,0.2,0,0.3c0,0.1,0,0.2,0,0.3v2.5c-0.1,1.1-0.2,2.1-0.2,3.1c0,1,0,2,0,3.1c0,0.6,0,1.3-0.1,2
		c-0.1,0.7-0.1,1.3-0.3,2c-0.1,0.7-0.2,1.3-0.2,1.8c0,0.6,0,1.2,0,1.8c0.4,0,0.7,0,1.1,0c0.4,0,0.7,0,1,0c0.9-0.1,1.6-0.2,2.2-0.3
		s1.3,0,2.2,0.1c0.2,0,0.3,0.1,0.4,0.2c0.1,0,0.1,0,0.1,0c0,0,0.1,0,0.1,0c0.2,0.1,0.4,0.1,0.7,0.3c0.3,0.1,0.4,0.3,0.4,0.6L450,39
		l-0.6-0.4c0.1,0.2,0.3,0.4,0.4,0.6c0.2,0.1,0.2,0.3,0.1,0.5l-0.4-0.1v0.2h-0.2v0.2c0,0.1,0,0.1,0,0.2c0,0.1,0,0.1,0,0.2v0.2
		c-0.1,0-0.1,0.1-0.1,0.2s0,0.1-0.1-0.2l-0.2,0.9c-0.1,0.1-0.1,0.1-0.2,0.1c-0.1,0-0.1,0-0.1,0c0,0-0.1,0-0.2,0c-0.1,0-0.1,0-0.1,0
		c0,0-0.1,0-0.2,0l-0.2-0.1c-0.2,0-0.3-0.1-0.4-0.2c-0.1,0-0.2,0-0.3,0c-0.1,0-0.1,0-0.2,0c-0.1,0-0.3,0-0.4,0c-0.2,0-0.3,0-0.4,0
		c-0.1,0-0.1,0-0.1,0c0,0,0,0-0.1,0c-0.5,0-0.9,0.1-1.1,0.2c-0.2,0.1-0.5,0.4-1.1,0.7l-1,0.3l-0.1,0.4c-0.2,0-0.3,0-0.4,0.1
		c-0.1,0.1-0.1,0.2-0.3,0.2v-0.1l-0.1,0.2c0,0.1,0,0.2,0,0.3c0,0.1,0,0.1,0,0.2v0.2c-0.1,0.4-0.2,0.8-0.2,1.1c0,0.3,0.1,0.7,0.2,1.2
		c0,0.1,0,0.1-0.1,0.2c-0.1,0.1-0.1,0.2-0.1,0.2l-0.4,0.4v4.8c0,0.2,0,0.2,0,0c0-0.2,0-0.4,0-0.5c-0.1,0.2-0.2,0.4-0.2,0.6
		c0,0.2-0.1,0.5-0.4,0.9V53l0.1,0.2c0.1,0.3,0,0.6-0.4,0.9c0-0.2,0-0.5,0-0.8c0-0.3,0-0.5,0-0.7c-0.1-0.3-0.1-0.5-0.1-0.7
		c0-0.2,0-0.5,0-0.8h-0.1c0-0.2,0-0.4,0-0.5c0-0.1,0-0.3,0-0.4c-0.1-0.6-0.2-1.1-0.2-1.4H440c-0.1,0.1-0.1,0.2,0,0.3
		c0,0.1,0,0.1,0,0.2c0,0.2,0,0.3,0.1,0.4c0.1,0.1-0.1,0.3-0.4,0.6c-0.2-0.2-0.4-0.5-0.4-0.9V50c-0.1,0.3-0.1,0.7-0.1,1.1
		c0,0.4-0.1,0.8-0.2,1.1v0.2h0.1v1.7c0,0.1,0,0.1,0.1,0.1c0,0,0,0.1,0,0.2c0.1,0.8,0.1,1.6,0,2.4c0,0.1-0.1,0.2-0.3,0.4
		c-0.1,0.2-0.1,0.5,0,0.8c0,0.3,0.1,0.5,0.1,0.7l0.2,1.1c0-0.2,0.1-0.5,0.4-0.8l0.1-0.1c0-0.2,0.2-0.4,0.5-0.7v0.8
		c0.2,0.1,0.3,0.3,0.3,0.5c0,0.2-0.1,0.4-0.2,0.5c0,0.2,0,0.3,0,0.4c0,0.1,0,0.2,0,0.4c0.1,0.4,0.1,0.7,0.1,1.1c0,0.4-0.1,0.7-0.2,1
		H440c-0.1,0.2-0.1,0.5-0.1,0.9c0,0.2,0,0.5,0,0.9c0,0.4-0.1,0.8-0.2,1.3l-0.2-0.4V66c0,0.1,0,0.2-0.1,0.2c-0.1,0-0.1,0.1-0.1,0.1
		h-0.3c-0.2,0.1-0.4,0.5-0.4,1.2c-0.2,0-0.4,0.1-0.5,0.2c-0.1,0.1-0.2,0.2-0.3,0.3l0.4,0.3c0.1,0.1,0.1,0.3,0.1,0.5
		c-0.1,0.2-0.1,0.4-0.1,0.5c-0.1,0.1-0.1,0.3-0.1,0.5l-0.4-0.4c0,0.4,0,0.5-0.1,0.4c-0.1-0.1-0.3,0.1-0.6,0.4h-1.2
		c-0.4-0.4-0.7-0.6-0.8-0.8c-0.2-0.2-0.2-0.4-0.3-0.6c0-0.2,0-0.5,0-0.8s0-0.8,0-1.5l-0.4-1.8c-0.2-2.2-0.4-4.6-0.4-7
		c0-2.4-0.1-4.8-0.1-7.2c0-0.9,0-1.9,0-2.7c0-0.9,0-1.8-0.1-2.7c-0.5-0.2-0.9-0.2-1.2,0c-0.2,0.1-0.3,0.1-0.4,0.1
		c-0.1,0-0.3,0-0.5,0c-0.7,0.1-1.5,0.3-2.4,0.6c-0.9,0.3-1.7,0.5-2.6,0.8c-0.1,0-0.1,0-0.2,0c-0.1,0-0.2,0-0.3,0v0.2
		c-0.2-0.4-0.3-0.6-0.3-0.6c-0.7,0.2-1.4,0.5-1.9,0.9V47c-0.2,0.4-0.5,0.4-0.7,0c0,0.1-0.1,0.2-0.2,0.2c-0.1,0-0.2,0-0.3,0
		c-0.2,0.2-0.6,0.4-1.2,0.4c-0.1,0.1-0.1,0.1-0.2,0.1c-0.1,0.1-0.2,0.1-0.3,0.2c-0.1,0.1-0.2,0.1-0.4,0.2c-0.1,0-0.3,0-0.5,0
		c-0.2,0-0.4,0.1-0.6,0.2l-0.5,0.4l-0.2-0.4l0.4-0.2l-1.2,0.4c-0.2,0.2-0.3,0.3-0.4,0.3c-0.1,0-0.2,0.2-0.4,0.6
		c-0.1,0.2-0.2,0.4-0.3,0.5c-0.1,0.2-0.2,0.4-0.2,0.5c-0.5,0.4-0.8,0.9-0.9,1.3l-0.6,0.5c0.3,0,0.5,0,0.6-0.1
		c-0.3,0.2-0.5,0.5-0.6,0.7c-0.1,0.2-0.2,0.4-0.3,0.7c-0.2,0.3-0.4,0.5-0.6,0.8c-0.2,0.2-0.4,0.4-0.7,0.7v-0.1
		c-0.2,0.2-0.4,0.6-0.5,1.2v-0.2c-0.1,0.4-0.2,0.8-0.4,1.1c-0.3,0-0.4,0-0.4-0.1l-0.2,0.6c-0.3,0-0.5,0-0.8,0.1
		c-0.2,0.1-0.3,0.2-0.3,0.4l0.1-0.1c0.1-0.1,0.1-0.1,0.2-0.1c0.1,0,0.2,0,0.3-0.1c0,0.1,0,0.2,0,0.3s0,0.3,0.1,0.4
		c-0.2,0.5-0.4,0.9-0.6,1.2c-0.2,0.3-0.5,0.6-0.8,0.9L409.6,61.3z M403.6,66.9c0.1-0.1,0.1-0.1,0.1-0.3h-0.1l-0.1,0.1L403.6,66.9z
		 M405.3,66.4L405.3,66.4L405.3,66.4L405.3,66.4z M407.1,63.3l-0.2,0.6l-0.4,0.6h0.3l-0.1,0.4l0.8-1.3v-0.3H407.1z M410.2,58
		C410.2,58,410.2,58,410.2,58c0.1-0.1,0.2-0.1,0.3-0.3c0-0.5,0.2-1,0.6-1.5c-0.3,0.3-0.6,0.6-0.8,1s-0.5,0.8-0.8,1.2
		c-0.2,0.1-0.3,0.2-0.3,0.4h-0.4v-0.3c-0.1,0.1-0.1,0.2-0.1,0.4c-0.3,0.2-0.5,0.7-0.7,1.3c-0.3,0.1-0.5,0.3-0.6,0.4
		c-0.1,0.1-0.2,0.3-0.2,0.5l0.2-0.4v0.7l0.1-0.4c0.3-0.3,0.5-0.6,0.7-0.9c0.2-0.3,0.4-0.7,0.6-1.2h0.4v0.4l0.4-0.3v-0.3l-0.2-0.1
		c0.1-0.2,0.2-0.3,0.3-0.4C409.8,58.3,409.9,58.2,410.2,58z M407.4,59.5c0,0.2-0.1,0.4-0.2,0.4v0.2l0.1-0.1
		C407.4,59.9,407.4,59.8,407.4,59.5c0.1,0,0.1-0.1,0.2-0.2L407.4,59.5z M408.7,61.9v0.2l0.3-0.5v-0.1c-0.1,0.1-0.2,0.2-0.2,0.3
		C408.7,61.9,408.7,61.9,408.7,61.9z M409.1,54.1c-0.2,0.1-0.3,0.3-0.3,0.4c0-0.1,0-0.1,0.1-0.1C408.9,54.3,409,54.2,409.1,54.1z
		 M408.9,58.2c-0.1,0.1-0.1,0.1-0.1,0.3C408.8,58.4,408.9,58.3,408.9,58.2z M409.2,57.8c-0.1,0.1-0.1,0.2-0.2,0.2
		c-0.1,0-0.1,0.1-0.1,0.2c0-0.1,0-0.1,0.1-0.2C409.1,58,409.1,57.9,409.2,57.8z M410.2,56.4l0.3-0.4v-0.2L410.2,56.4z M410.6,55.5
		l0.4-0.4l0.2-0.6L410.6,55.5z M411.2,51.9c-0.1,0.1-0.2,0.2-0.2,0.4l0.4-0.4H411.2z M411.8,51.1L411.8,51.1L411.8,51.1L411.8,51.1
		L411.8,51.1z M413.3,53.3c-0.2,0.2-0.4,0.5-0.6,0.8c-0.2,0.3-0.4,0.6-0.6,0.9l0.2-0.1l0.6-0.6h-0.2c0.2-0.2,0.3-0.4,0.4-0.5
		C413.1,53.6,413.2,53.4,413.3,53.3z M423.2,41.9c1.8-0.4,3.5-0.8,5.3-1.2c1.7-0.4,3.5-0.9,5.4-1.6c0.1-1.1,0.2-2.1,0.2-3.2
		c0-1.1,0-2.2,0.1-3.4c0-0.6,0-1.2,0.1-1.7c0.1-0.5,0.1-1.1,0.1-1.7c-0.1-0.1-0.1-0.4-0.1-0.8c0-0.1,0-0.3,0-0.4s-0.1-0.3-0.3-0.3
		c0-0.1-0.3,0.2-0.8,1c-0.6,0.8-1.1,1.5-1.5,2.1l-1.9,2.3c-0.1,0.2-0.2,0.4-0.2,0.4c0,0.1,0,0.1,0,0.3c-0.3,0.2-0.5,0.4-0.7,0.7
		c-0.2,0.3-0.3,0.5-0.6,0.8l-0.6,0.7v-0.1c-0.1,0.5-0.2,0.9-0.4,1c-0.4,0.2-0.7,0.5-0.9,0.9l-1.2,1.3l-0.4,1
		c-0.1,0.1-0.2,0.3-0.3,0.4c-0.1,0.2-0.2,0.3-0.2,0.4c-0.2,0.1-0.3,0.3-0.5,0.4C423.5,41.4,423.3,41.7,423.2,41.9z M430.3,44.2
		L430.3,44.2l-0.1,0.4v-0.2l0.1-0.1V44.2L430.3,44.2z M437,61.1C437,61.2,437.1,61.2,437,61.1L437,61.1z M437.8,56.9
		c-0.1,0.1-0.1,0.3-0.1,0.4c0,0.1,0,0.3,0,0.3c0.1,0,0.2-0.2,0.2-0.5C437.9,57,437.9,57,437.8,56.9C437.8,57,437.8,56.9,437.8,56.9z
		 M438.3,51.1v0.3l0.3-0.1c0.1-0.4,0.1-0.8,0.1-1.2c0-0.4,0.1-0.7,0.2-1.1c-0.1,0.1-0.1,0.1-0.2,0.1c-0.1,0-0.1,0-0.2,0.1
		c-0.1,0.1-0.2,0.1-0.1,0.1c0,0,0,0-0.1,0c0,0.1,0,0.3,0,0.5c0,0.2,0,0.4-0.1,0.5c0,0.1,0,0.2,0,0.4C438.3,50.9,438.3,51,438.3,51.1
		z M438.7,53.6c0-0.1,0-0.1,0-0.2c0-0.1,0-0.2,0-0.4l-0.1,0.2c0,0.1,0,0.2,0,0.2c0,0-0.1,0.1-0.1,0.2c-0.1,0.3-0.1,0.6-0.2,0.9
		c-0.1,0.3-0.1,0.7-0.1,1l0.2-0.1v-0.2c0-0.2,0-0.3,0.1-0.4C438.5,54.5,438.6,54.1,438.7,53.6z"/>
</g>
<g id="N">
	<path d="M493.8,11.4c0.1,0.2,0.2,0.4,0.2,0.4c0.6,0.1,1.2,0.3,1.6,0.4c0.4,0.2,0.8,0.4,1.2,0.6c0.1,0.1,0.1,0.2,0.1,0.2
		c0,0,0.1,0.1,0.1,0.3c0.6,0.1,1.2,0.5,1.7,1.1c0.5,0.6,0.9,1.2,1.1,1.9c0.1,0.4,0.1,0.8,0,1.1c-0.1,0.3-0.1,0.7-0.1,1
		c-0.3,0.2-0.4,0.5-0.4,0.9c-0.1,0.1-0.3,0.3-0.4,0.6c-0.2,0.3-0.3,0.6-0.4,0.8c-0.5,0.5-0.9,1.1-1.2,1.7c-0.3,0.6-0.6,1.2-0.9,1.9
		c-0.2,0.3-0.3,0.6-0.4,0.8c-0.1,0.3-0.3,0.5-0.4,0.8c-0.2,0.4-0.4,0.8-0.6,1.1c-0.1,0.4-0.3,0.8-0.5,1.2c-0.3,0.4-0.5,0.7-0.7,1.1
		c-0.2,0.4-0.3,0.7-0.4,1c-0.1,0.3-0.3,0.6-0.4,0.9c-0.2,0.3-0.4,0.6-0.8,1v0.3c-0.3,0.4-0.6,0.8-0.8,1.2c-0.3,0.5-0.5,0.9-0.8,1.1
		c0.1,0.3,0,0.6-0.2,0.8c-0.2,0.3-0.4,0.5-0.6,0.8c-0.1,0.1-0.2,0.2-0.3,0.4c-0.1,0.2,0,0.4,0.2,0.5h-0.3c0.1,0.2,0.1,0.3,0,0.4
		c-0.1,0.1-0.1,0.2,0.1,0.2c-0.1,0.1-0.2,0.2-0.3,0.3c-0.1,0.1-0.2,0.2-0.3,0.2c0,0.1-0.1,0.2-0.3,0.4h0.4c-0.1,0.2-0.2,0.4-0.3,0.6
		c-0.1,0.2-0.3,0.4-0.3,0.6c-0.1,0.2-0.2,0.4-0.1,0.6c0,0.2,0,0.4-0.1,0.6c0,0.1,0,0.1-0.1,0.1c-0.1,0-0.1,0.1-0.1,0.1
		c-0.1,0.2-0.2,0.4-0.2,0.6c0,0.2,0,0.3-0.1,0.4c-0.1,0.2-0.2,0.3-0.3,0.4c-0.2,0.1-0.2,0.3-0.1,0.5c-0.2,0.2-0.2,0.3-0.2,0.3
		c-0.1,0.4-0.3,0.7-0.4,0.9c-0.2,0.2-0.3,0.4-0.4,0.6c-0.1,0.2-0.3,0.4-0.4,0.6c-0.2,0.2-0.3,0.5-0.4,0.8c-0.1,0-0.1,0-0.1,0.1
		c0,0.1-0.1,0.1-0.1,0.1c0,0.2-0.1,0.5-0.2,0.8c-0.1,0.3-0.2,0.6-0.1,0.8c-0.2,0.2-0.3,0.5-0.4,0.8c-0.1,0.3-0.3,0.6-0.5,1
		c0,0.6-0.2,1.1-0.5,1.5c-0.3,0.3-0.5,0.8-0.5,1.3c-0.2,0.1-0.4,0.3-0.4,0.4c0,0.2-0.2,0.3-0.4,0.4c-0.1,0.1-0.1,0.2,0,0.3
		c0.1,0.1,0.1,0.2,0,0.4c-0.1,0.1-0.2,0.1-0.3,0.3c-0.1,0.1-0.1,0.2,0.1,0.4c0,0.1-0.1,0.1-0.4,0.1c-0.1,0.2-0.1,0.5-0.1,0.7
		c0,0.2-0.2,0.5-0.4,0.8c0,0.6-0.1,1.1-0.4,1.6c-0.2,0.5-0.5,1-0.8,1.5c0.1,0.5,0,0.9-0.1,1.3c-0.1,0.4-0.2,0.9-0.4,1.6
		c0.1,0.2,0.2,0.4,0.1,0.5c0,0.2,0,0.4,0,0.6h-0.6c-0.1,0.1,0,0.2,0,0.4c0.1,0.1,0.1,0.2,0,0.4c0.2,0.2,0.4,0.6,0.4,1.2
		c-0.1,0.1-0.1,0-0.2-0.1c-0.1-0.1-0.1-0.1-0.3,0c-0.2,0.1-0.2,0.2-0.2,0.3c-0.2,0-0.3-0.1-0.4-0.3c-0.1-0.2-0.2-0.3-0.4-0.4
		c-0.2,0.3-0.4,0.5-0.4,0.7c0,0.2,0.1,0.4,0.2,0.7c-0.2,0.2-0.4,0.2-0.6,0.2c-0.1,0.4-0.1,0.6,0,0.7c0.1,0.1,0.2,0.2,0.3,0.2
		c0.1,0,0.1,0.1,0.1,0.1s-0.2,0.1-0.5,0.3c-0.2,0.2-0.4,0.3-0.6,0.3c-0.5,0.1-1,0.1-1.6-0.1c-0.6-0.2-1.1-0.3-1.5-0.3
		c-0.4,0.1-0.7,0.1-1,0c-0.3,0-0.6-0.2-0.9-0.5c-0.5-0.5-0.8-0.8-1.1-0.9c-0.3-0.1-0.3-0.5-0.2-1.2c0.1-0.3,0-0.6-0.2-0.9
		c-0.2-0.3-0.3-0.6-0.4-0.9l-0.7-3.5c-0.7-1.7-1.2-3.3-1.6-5.1c-0.4-1.7-1-3.5-1.7-5.4l-0.9-3.2c-0.1-0.7-0.4-1.4-0.9-2.1
		c-0.1-0.6-0.2-1.2-0.3-1.7c-0.1-0.6-0.3-1-0.5-1.4c-0.1-0.2-0.2-0.5-0.3-0.8c-0.1-0.4-0.2-0.5-0.4-0.4c-0.1,0.1-0.2,0.3-0.4,0.6
		c-0.1,0.3-0.2,0.5-0.4,0.6c0,0.2-0.1,0.4-0.3,0.5c-0.3,0.5-0.5,1-0.6,1.5c-0.1,0.5-0.3,1-0.4,1.3c-0.1,0.4-0.3,0.7-0.5,1.1
		s-0.4,0.7-0.4,1.2c-0.2,0.4-0.4,0.7-0.5,0.9c-0.1,0.2-0.3,0.4-0.4,0.6c-0.1,0.2-0.3,0.4-0.4,0.6c-0.1,0.2-0.3,0.5-0.5,0.9
		c-0.1,0.4-0.1,0.6-0.3,0.8c-0.1,0.2-0.2,0.4-0.4,0.7c0.2-0.5,0.3-1,0.5-1.5c0.1-0.5,0.2-0.5,0-0.1c-0.1,0.2-0.1,0.4-0.2,0.5
		c-0.1,0.1-0.1,0.2-0.2,0.3c-0.1,0.4-0.3,0.7-0.4,0.9c-0.2,0.2-0.3,0.5-0.4,0.8c0,0.3-0.1,0.4-0.3,0.2c-0.2-0.1-0.3-0.1-0.4,0.1
		c0.1,0.1,0.1,0.2,0,0.2s0,0.1,0,0.2c-0.1,0.1-0.1,0.2-0.1,0.4v0.2c-0.1,0.2-0.2,0.4-0.3,0.5c-0.1,0.1-0.2,0.3-0.3,0.4
		c-0.1,0.3-0.2,0.6-0.2,0.9c0,0.3-0.1,0.6-0.4,0.9c-0.1,0.4-0.3,0.8-0.4,1.2c-0.2,0.4-0.2,0.8-0.2,1.2c-0.1,0-0.1,0-0.1,0.1
		s0,0.1-0.1,0c0,0.6-0.1,1.1-0.3,1.4c-0.2,0.4-0.3,0.8-0.3,1.2c-0.1,0.1-0.2,0.1-0.1,0.3s0,0.2,0,0.3c0,0.2,0,0.3-0.1,0.4
		c-0.1,0.1-0.1,0.3,0,0.4c0,0.2-0.1,0.3-0.3,0.4c-0.2,0.4-0.3,0.7-0.3,1.1c-0.1,0.4-0.3,0.7-0.4,0.7c-0.1-0.1,0-0.2,0-0.2
		c0.1,0,0.1-0.1,0.1-0.2c0-0.5,0.1-1,0.4-1.5c0.3-0.5,0.4-1.1,0.3-1.7l0.2-0.3c-0.1-0.1-0.1-0.2-0.1-0.2c0,0,0.1-0.1,0.1-0.1
		c0.2-0.2,0.3-0.5,0.3-0.7c0-0.3,0.1-0.5,0.3-0.6c-0.1-0.1-0.2-0.2-0.3-0.2c0.1-0.1,0.1-0.2,0.2-0.3c0.1-0.1,0.1-0.1,0-0.3
		c-0.2,0-0.3,0.1-0.3,0.3c0,0.2-0.1,0.3-0.2,0.4c0.1,0.2,0,0.4,0,0.5c-0.1,0.1-0.2,0.2-0.2,0.4c-0.1,0.1-0.1,0.2,0,0.3
		c0.1,0.1,0.1,0.1,0.1,0.2c-0.1,0.1-0.1,0.2-0.2,0.3c-0.1,0.1-0.2,0.2-0.2,0.4c-0.1,0.5-0.2,0.9-0.3,1.4c-0.1,0.5-0.3,0.9-0.5,1.2
		c0.1,0.3,0,0.6-0.1,1c-0.2,0.4-0.2,0.7-0.2,1.1c-0.2,0.1-0.3,0.2-0.3,0.4c0,0.1-0.2,0.2-0.4,0.3c-0.1-0.3,0-0.6,0-0.8
		c0.1-0.3,0.2-0.5,0.3-0.8c-0.1-0.2-0.2-0.5-0.2-0.9c-0.3,0.2-0.5,0.6-0.6,1.2c-0.1,0.6-0.2,1-0.4,1.1c-0.1,0-0.1-0.1-0.1-0.2
		c0-0.1,0-0.2,0-0.4c-0.1,0-0.1,0-0.1,0c0,0-0.1,0-0.1,0c0,0.2,0,0.5,0,0.8c0,0.3-0.3,0.5-0.7,0.6c0.1-0.1,0.2-0.3,0.1-0.5
		c0-0.2,0-0.4,0.1-0.6c-0.4,0-0.6,0.1-0.6,0.4c0,0.2,0,0.4,0,0.5c-0.1,0-0.2,0.1-0.2,0.2c0,0.1-0.1,0.2-0.2,0.2
		c-0.1,0.1-0.1,0.2,0,0.2c0,0,0,0.2,0,0.4c-0.5,0.1-1,0.2-1.5,0.2c-0.5,0-1,0.1-1.5,0.1c-0.5-0.2-0.8-0.6-0.9-1
		c-0.1-0.4-0.2-0.9-0.2-1.5c0-0.5,0.1-1.1,0.2-1.6c0.1-0.5,0.2-1,0.3-1.3c0-0.2,0-0.4,0-0.6c0-0.2,0-0.4,0-0.5
		c0.1-0.5,0.3-1,0.5-1.5c0.2-0.4,0.4-1,0.5-1.5c0.3-1,0.5-2,0.7-3c0.2-1,0.4-2,0.7-3l0.3-0.6c0.1-0.2,0.1-0.5,0-0.7
		c0-0.2,0-0.5,0-0.8c0.5-1.1,0.8-1.8,0.9-2.3c0.2-0.4,0.3-0.8,0.3-1.1c0.1-0.3,0.1-0.7,0.2-1.1c0.1-0.5,0.4-1.2,0.8-2.3
		c0.5-0.8,0.8-1.9,1.1-3.3c0.3-1.4,0.6-2.5,1.1-3.3c0.2-0.5,0.5-1.2,0.8-2c0.3-0.8,0.6-1.7,0.9-2.5c0.3-0.9,0.6-1.7,0.9-2.4
		c0.3-0.8,0.6-1.4,0.8-1.9c0.3-0.8,0.6-1.6,1-2.3c0.4-0.7,0.7-1.4,1-2.2c0.2-0.4,0.4-0.7,0.5-1c0.1-0.3,0.2-0.7,0.4-1.2
		c0.2-0.2,0.3-0.5,0.5-0.7c0.1-0.2,0.3-0.5,0.5-0.8c0.1-0.3,0.1-0.5,0.1-0.8c0-0.2,0-0.4,0-0.6c0.2-0.3,0.5-0.6,0.7-0.9
		c0.2-0.3,0.4-0.6,0.6-0.9c0.4-0.2,0.7-0.4,0.9-0.8c0.3-0.3,0.5-0.6,0.8-0.9c0.4,0,0.6-0.2,0.7-0.6c0.4-0.1,0.8-0.1,1.2,0
		c0.4,0.1,0.8,0.2,1.1,0.4c0.5,0.1,0.9,0.2,1.3,0.4s0.8,0.3,1.3,0.6c0.3,0.3,0.6,0.5,0.9,0.8c0.3,0.2,0.6,0.5,0.9,0.7
		c0.1,0.1,0.2,0.4,0.4,0.8c0.2,0.1,0.3,0.2,0.4,0.4c0.1,0.1,0.2,0.2,0.2,0.3c0.1,0.2,0.2,0.4,0.2,0.7c0,0.3,0,0.5,0.1,0.7
		c0.1,0.3,0.2,0.6,0.3,1c0.1,0.4,0.1,0.8,0.3,1.2c0.1,0.7,0.2,1.4,0.3,2.1c0.1,0.7,0.2,1.4,0.4,2c0.1,0.3,0.1,0.7,0.1,1.1
		c0,0.4,0.1,0.8,0.2,1.1c0,0.1,0,0.2,0,0.2s0,0.1,0,0.2c0.1,0.4,0.3,1,0.4,1.8c0.1,0.9,0.3,1.7,0.4,2.7c0.1,0.9,0.3,1.8,0.4,2.7
		c0.1,0.9,0.3,1.5,0.4,1.8c0.5,2.1,0.9,3.9,1,5.6c0.1,1.6,0.5,3.4,1.2,5.2c0.4-0.5,0.6-1.1,0.6-1.9c0.5-1.1,1-2.2,1.5-3.3
		c0.4-1.1,0.9-2.3,1.4-3.5c0.7-1.8,1.3-3.3,1.9-4.6c0.6-1.3,1.1-2.5,1.6-3.8c0.5-1.2,1-2.4,1.5-3.7c0.5-1.2,1.1-2.7,1.8-4.4
		c0.6-1.2,1.3-2.4,1.8-3.7c0.6-1.3,1.1-2.5,1.5-3.7v-0.5c0.1-0.4,0.3-0.6,0.4-0.8c0-0.4,0.1-0.6,0.3-0.8c0.2-0.2,0.5-0.5,0.7-0.8
		c0.1-0.2,0.3-0.4,0.4-0.6c0.2-0.2,0.3-0.5,0.4-0.8h0.1c0.1,0,0.1,0,0.2-0.1C492.4,11.7,492.9,11.4,493.8,11.4z M449.3,65.6l0.2,0.1
		c0,0.1,0.1-0.1,0.2-0.4c0-0.2-0.1-0.3-0.2-0.3c0,0.1,0,0.2-0.1,0.3S449.3,65.5,449.3,65.6z M449.6,64.8L449.6,64.8
		c0.2,0.1,0.3,0,0.3-0.1C449.7,64.8,449.6,64.8,449.6,64.8z M454.1,55.4c-0.1,0.1-0.2,0.3-0.1,0.4c0,0.2,0,0.2-0.1,0.2
		c-0.1,0-0.1,0-0.2-0.1c-0.1-0.1-0.1-0.1-0.2,0c0,0.1,0,0.2-0.1,0.4c-0.1,0.1-0.1,0.3-0.1,0.4c0.1,0,0.2,0,0.2-0.1
		c0-0.1,0-0.1,0.1-0.1c0.1-0.1,0.1-0.2,0-0.1c-0.1,0-0.1,0,0,0c0.1,0,0.1,0,0-0.1c0-0.1,0-0.1,0.1,0c0,0.1,0,0.2,0.1,0.2
		c0.2-0.2,0.4-0.4,0.4-0.8L454.1,55.4C454.2,55.4,454.2,55.4,454.1,55.4z M453.4,58.7c0.1-0.1,0.2-0.3,0.2-0.6
		c0-0.3,0.1-0.5,0.2-0.8c-0.2,0-0.4,0.2-0.4,0.5C453.4,58.1,453.4,58.4,453.4,58.7z M453.6,55.7c0.1,0,0.2-0.1,0.2-0.2h-0.2V55.7z
		 M453.7,57.1L453.7,57.1L453.7,57.1L453.7,57.1L453.7,57.1z M453.7,56.8c0-0.1,0-0.2,0.1-0.2c0.1,0,0.1-0.1,0.1-0.2
		C453.6,56.6,453.6,56.7,453.7,56.8z M453.7,55.3c0.2-0.1,0.3-0.2,0.3-0.3c-0.1-0.1-0.1-0.1,0-0.3h-0.2L453.7,55.3z M453.7,56
		C453.8,56.1,453.8,56.1,453.7,56L453.7,56z M454.3,52.8c0.1,0.3,0,0.5-0.1,0.6c-0.1,0.1-0.2,0.2-0.1,0.4c0.2,0,0.3-0.1,0.3-0.4
		c0-0.3,0-0.5,0.1-0.7c-0.1,0-0.1,0-0.2,0C454.2,52.7,454.2,52.7,454.3,52.8L454.3,52.8L454.3,52.8z M454.3,54.9l-0.2-0.1v0.4
		C454.2,55.2,454.3,55.1,454.3,54.9z M454.9,52.6v-0.2c-0.1,0.1-0.1,0.1-0.2,0.1C454.7,52.6,454.7,52.6,454.9,52.6z M456.9,52.2
		c-0.1,0.2-0.2,0.2-0.1,0.2c0-0.1,0.1-0.2,0.1-0.4V52.2z M456.9,51.9c0.1-0.1,0.2-0.3,0.2-0.5L456.9,51.9z M482.2,44.1
		c-0.1,0-0.2,0-0.2,0.1c0,0.1,0,0.1-0.1,0.1c0,0.4-0.1,0.8-0.2,1c-0.2,0.3-0.3,0.6-0.4,0.9v0.1c0.1-0.3,0.3-0.6,0.4-0.8
		c0.2-0.3,0.3-0.5,0.4-0.8c0.1-0.3,0.3-0.7,0.4-1.1c0.1-0.4,0.2-0.8,0.3-1.1c-0.2,0.3-0.3,0.6-0.5,0.8
		C482.3,43.5,482.2,43.8,482.2,44.1z M482.9,42.2c0.2-0.1,0.4-0.2,0.5-0.4c0.1-0.2,0.1-0.4,0.1-0.6C483.2,41.4,483,41.8,482.9,42.2z
		 M486.7,35.8c0.1,0.2,0.1,0.3-0.1,0.4c-0.2,0.1-0.3,0.3-0.4,0.4c-0.1,0.1-0.1,0.2,0,0.3c0,0.1,0,0.2-0.1,0.4
		c0.7-0.7,1.2-1.6,1.6-2.6c-0.3,0.1-0.4,0.2-0.4,0.5C487.2,35.5,487,35.7,486.7,35.8z"/>
</g>
</svg>
