<?xml version="1.0" encoding="utf-8"?>
<!-- Generator: Adobe Illustrator 22.1.0, SVG Export Plug-In . SVG Version: 6.00 Build 0)  -->
<svg version="1.1" id="Layer_1" xmlns="http://www.w3.org/2000/svg" xmlns:xlink="http://www.w3.org/1999/xlink" x="0px" y="0px"
	 viewBox="0 0 849 128" style="enable-background:new 0 0 849 128;" xml:space="preserve">
<path d="M84.2,81.6c0.2,0.2,0.3,0.4,0.4,0.7c0,0.3-0.2,0.5-0.7,0.7c-0.1,0.2-0.3,0.4-0.4,0.6c-0.2,0.2-0.3,0.4-0.3,0.6l-0.6,1
	c-0.2,0.3-0.4,0.6-0.7,1c-0.3,0.4-0.5,0.7-0.7,1.1c-0.3,0.4-0.5,0.9-0.6,1.4l-3.3,4.8c-1.9,2.3-3.3,3.7-4.2,4.1
	c-0.3,0.4-0.6,0.8-0.9,1c-0.3,0.3-0.8,1.1-1.5,2.2c-1,1.2-1.7,2.1-2.1,2.6c-0.4,0.5-0.8,0.9-1,1c-0.2,0.1-0.4,0.2-0.6,0.3
	c-0.2,0.1-0.2,0,0-0.4c-0.7,0.3-1.6,0.8-2.6,1.5c-1,0.7-1.6,1.2-1.8,1.4c0.1-0.1,0.7-0.2,1.8-0.2c-0.4,0.2-0.8,0.6-1.3,1.2
	c-0.4,0.6-0.8,1.2-1.1,1.6c-0.8,0.2-1.5,0.5-2,1c-0.6,0.5-1,0.9-1.4,1.4c0-0.1-0.2,0-0.6,0.2c-0.4,0.2-0.7,0.4-0.9,0.4v-0.1
	c-0.2,0.2-0.5,0.3-0.9,0.3v0.6c-0.2,0.4-0.6,0.8-1.2,1.3c-0.6,0.5-1.3,0.9-2.2,1.4c-0.9,0.5-1.7,0.9-2.6,1.4
	c-0.9,0.5-1.6,0.8-2.2,1.1l-1.9,0.8c-0.4,0.1-0.8,0.2-1.2,0.2c-0.4,0-0.9,0.2-1.4,0.4c-0.9,0.5-1.9,0.9-3,1.3
	c-1.1,0.3-2.2,0.6-3.1,0.8c-0.1,0-0.1,0-0.1,0.1c0,0-0.1,0.1-0.1,0.1h-0.3c-1.1,0.1-2.4,0.2-4,0.4c-1.6,0.2-3.3,0.3-5.3,0.3
	c-1.2,0-2.3-0.1-3.3-0.4c-1-0.3-1.9-0.4-2.7-0.5c-3-0.6-5.8-1.8-8.5-3.6c-2.7-1.8-4.9-4-6.8-6.5c-1.9-2.6-3.4-5.4-4.4-8.6
	c-1-3.1-1.5-6.4-1.4-9.8c0.1-4.2,0.8-8.1,1.9-11.7c1.2-3.6,2.4-6.9,3.6-10c2.5-6.1,5.3-11.8,8.4-17.1c3.1-5.3,6.8-10.5,11-15.8
	c2.2-2.5,4.5-5.1,6.8-7.7c2.3-2.6,4.6-5.3,6.8-7.9l1.8-1.6l2.7-2.7c1.4-1.4,2.8-2.7,4.1-4c1.4-1.2,2.4-2.1,3.2-2.6
	c0.8-0.4,1.3-0.8,1.6-1c0.2-0.3,0.6-0.6,1-0.9l2.6-2.4l1.4-0.8c0.6-0.5,1.1-0.9,1.6-1.3c0.5-0.3,1.1-0.6,2-0.8
	c0.2-0.1,0.5-0.1,1.1-0.1c0.2,0,0.4,0,0.8,0c0.3,0,0.5,0,0.8-0.2c0.2,0.1,0.4,0.1,0.7-0.1c0.2-0.2,0.5-0.3,0.7-0.3
	c0.1,0,0.4,0,0.9,0c0.5,0,0.9,0,1.2-0.1c0.4,0.4,0.6,0.8,0.6,1.2c0,0.2,0.1,0.5,0.3,0.8c0.2,0.2,0.9,0.5,2.2,0.9
	c1.2,0.4,2.6,0.8,4,1.1c1.5,0.2,2.9,0.4,4.4,0.6c1.4,0.2,2.3,0.7,2.7,1.5l0.6,1c0.2,0.5,0.5,1,0.8,1.4c0.3,0.5,0.7,0.9,1,1.4
	l1.2,1.6c0.5,0.8,0.9,2.1,1.4,3.8c0.4,1.8,0.6,3.3,0.6,4.6c-0.3,0.2-0.5,0.4-0.5,0.6c0.2,0.2,0.5,0.5,0.8,0.8
	c0.3,0.3,0.6,0.4,0.8,0.1l-0.1-0.1c-0.2-0.2-0.3-0.3-0.3-0.5c0-0.1,0-0.4,0-0.9c0.4,0.5,0.8,0.9,1,1.3c0.3,0.4,0.5,0.8,0.6,1.3
	c0.2,0.9,0.6,1.6,1.4,1.9h0.4c0,0.2,0,0.5,0,0.8c0,0.4,0.1,0.6,0.3,0.8c0,0.2,0.1,0.3,0.4,0.4c0.3,0.1,0.5,0.1,0.8,0.1
	c0.7,1.7,1.4,3.6,2,5.6c0.6,2.1,1,4.4,1.2,7c0.2,0.8,0.3,1.8,0.3,2.9c0,1.1-0.1,2-0.1,2.7c0,0.2,0,0.4-0.1,0.6
	c-0.1,0.2-0.1,0.4-0.1,0.5c0,0.2,0,0.4,0,0.7c0,0.3-0.1,0.5-0.1,0.7c0,0.3,0,0.8-0.1,1.4c-0.1,0.6-0.2,1-0.4,1.2
	c-0.1,0.1-0.2,0.2-0.2,0.3c0,0.1-0.1,0.1-0.1,0.1c0.3,0.3,0.3,0.7,0.1,1.2c0.2,0.5,0,1.2-0.4,2.1v-0.1c-0.4,1.6-0.7,2.8-0.9,3.7
	c-0.2,0.9-0.4,1.6-0.5,2.1c-0.1,0.6-0.2,1-0.3,1.2c-0.1,0.3-0.2,0.6-0.3,1l-1.2,1.5c0,0.1,0,0.2-0.1,0.3c-0.1,0.1-0.1,0.3-0.1,0.6
	l-0.6,1.4l0.1-0.1c0,0.1-0.1,0.3-0.1,0.5c-0.1,0.3-0.2,0.4-0.2,0.5c-0.5,0.7-0.9,1.2-1,1.6c-0.2,0.4-0.4,0.8-0.6,1.3l-1.2,2.9
	c0,0.3-0.1,0.5-0.4,0.7c-0.3,0.2-0.5,0.5-0.7,1c0-0.1-0.1,0.2-0.4,0.8c-0.3,0.7-0.5,1.1-0.7,1.4c-0.2,0.5-0.4,0.8-0.5,1
	c-0.2,0.1-0.2,0.3-0.2,0.5l-0.3,0.5L84.2,81.6z M31.6,105.2c1.7-0.2,3.3-0.7,4.8-1.5c1.5-0.8,3-1.7,4.6-2.9v0.3l3.6-2.7
	c0.9-0.7,1.8-1.4,2.6-2.2c0.8-0.8,1.7-1.5,2.5-2.3c1.7-1.9,3.4-3.7,5.1-5.5c1.7-1.7,3.5-4,5.4-6.8l3.1-4.7c1.8-2.7,3.6-5.6,5.4-8.8
	c1.8-3.2,3.4-6.8,4.8-11c0.6-1.4,1-2.9,1.3-4.6c0.2-1.7,0.4-3.1,0.4-4.4c0-1.7-0.1-3.2-0.2-4.6c-0.1-1.3-0.5-2.7-1-4.1
	c-0.1-0.8-0.2-1.4-0.2-1.7c-0.1-0.3-0.2-0.7-0.4-1c-0.5-0.4-0.8-1.3-0.9-2.7c-0.8-0.1-1.2-0.3-1.3-0.8c-0.1-0.4-0.2-0.8-0.5-1.2
	c-0.3-0.3-0.5-0.6-0.7-1.1c-0.1-0.4-0.4-0.6-0.7-0.6c-0.3,0.2-0.6,0.5-1,0.8c-0.4,0.4-0.8,0.6-1.3,0.8c-1.4,0.7-2.5,1.4-3.5,2
	c-0.9,0.7-1.9,1.5-3,2.5c-3,2.5-6.1,5.7-9.1,9.4c-3.1,3.8-6.2,7.6-9.3,11.2c-0.4,0.7-0.8,1.3-1.3,1.8c-0.5,0.5-0.9,1-1.3,1.5
	c-2.1,2.7-4.1,5.7-6.1,8.9c-2,3.3-3.7,6.7-5.2,10.4c-0.9,1.6-1.7,3.4-2.5,5.3s-1.4,3.9-2,5.9c-0.6,2-1,4-1.4,6.1
	c-0.4,2.1-0.6,4-0.7,5.9l0.6,1.1c0.5,0.9,1.4,1.5,2.6,1.7C26.4,106.3,28.6,106,31.6,105.2z M110.3,92.6c2-0.2,3.9-0.6,5.9-1.1
	c1.9-0.5,3.9-1,6-1.4c2.2-0.4,3.8-0.7,5-0.9c1.1-0.2,2.1-0.4,2.9-0.5c0.8-0.1,1.8-0.3,2.9-0.4c1.1-0.1,2.8-0.4,5.2-0.7
	c0.5-0.1,1.1-0.2,1.7-0.3c0.6-0.1,1.3-0.1,1.9-0.1c0.4,0,0.8,0.1,1.4,0.1c0.5,0.1,1.1,0.2,1.6,0.3c0.1,0,0.2,0,0.4-0.1
	c0.2,0,0.4,0,0.7,0.1c0.7,0.2,1,0.4,1,0.7c-0.1,0.3,0.1,0.7,0.4,1.4c-0.3-0.3-0.5-0.3-0.7,0.1c-0.1,0.4-0.3,0.4-0.5,0.2
	c-0.2,0.2-0.5,0.2-0.8,0.1c-0.4-0.1-0.6-0.1-0.7,0.2c0.2,0.2,0.5,0.3,0.8,0.4c0.3,0.1,0.6,0.1,0.8,0.1c-0.1,0.3-0.4,0.4-0.8,0.4
	c-0.4,0-0.7,0.1-0.9,0.3c-0.1,0.1-0.1,0.2,0.1,0.3c0.1,0.1,0.2,0.3,0.2,0.5c-0.8-0.1-1.4,0-1.9,0.2c-0.4,0.3-0.8,0.5-1.1,0.7
	c0.5,0.3,1,0.4,1.5,0.2c0.5-0.2,1-0.3,1.5-0.5c-0.4,0.3-0.8,0.5-1.1,0.7c-0.4,0.1-0.8,0.2-1.4,0.2c0,0.2,0,0.3,0.1,0.2
	c0.1,0,0.2,0,0.5,0.1c-0.2,0.1-0.4,0.3-0.5,0.5c-0.1,0.3-0.3,0.4-0.6,0.4c0.2,0.6,0.9,1.2,2.1,1.6l-0.3,0.2h-0.1v0.1
	c0,0.6,0.2,0.9,0.8,0.9c-0.3,0.2-0.3,0.3,0.1,0.4c0.3,0.1,0.5,0.1,0.5,0.2c-0.2,0.5-0.7,0.8-1.4,0.8s-1.4,0.1-1.9,0.1
	c-0.6,0.2-1.2,0.5-1.8,0.8c-0.6,0.4-1.2,0.6-1.8,0.7l0.1,0.3c-1.3,0-3,0.2-5,0.7c-2.1,0.4-3.7,0.8-5,1.1c-0.1,0-0.2,0.1-0.2,0.1
	c-0.1,0.1-0.2,0.2-0.4,0.3l-1,0.5c-2,0.6-3.3,1-3.8,1.3c-0.6,0.3-1,0.5-1.2,0.6c-0.3,0.1-0.7,0.4-1.2,0.6c-0.6,0.3-1.8,0.6-3.8,1
	l-5.7,1.9c-2,0.6-3.8,1.5-5.3,2.7c-1.6,1.2-3.2,2.2-5,3.1c-1.3,0.2-2.7,0.5-4.3,0.9c-1.6,0.4-3,0.7-4.4,0.9c-0.4,0-0.6-0.1-0.6-0.3
	c0-0.2-0.2-0.3-0.5-0.3c-0.9-0.1-1.2-0.3-1-0.6c0.2-0.3,0-0.7-0.6-1.2c-0.2-0.8-0.3-1.5-0.3-2c0-0.5-0.1-1.1-0.3-1.6
	c-0.2-0.7-0.5-0.9-0.8-0.8c-0.3,0.2-0.5,0-0.5-0.6c0-0.5-0.1-1-0.4-1.5c-0.3-0.5-0.5-1-0.8-1.6c-0.2-0.5-0.3-1.1-0.5-1.8
	c-0.1-0.6,0.1-1.3,0.5-2c0.2-0.8,0.5-1.4,0.9-1.8c0.2-0.2,0.3-0.4,0.3-0.5s0.1-0.3,0.3-0.5l2.1-0.9c-0.4,0-0.8,0-1.2-0.1
	c1.5-4.1,3-7.8,4.4-11c1.4-3.2,2.9-6.3,4.4-9.3c1.5-2.9,3-5.9,4.6-9c1.5-3,3.1-6.4,4.6-10c2.3-5.3,4.6-10.5,6.9-15.8
	c2.3-5.2,4.7-10.4,7.4-15.6c0.2-0.5,0.4-1,0.6-1.6c0.2-0.6,0.5-1.1,0.9-1.6c0.2-0.1,0.5-0.3,0.9-0.8c0.1-0.2,0.1-0.4,0.1-0.7
	c0-0.2,0.1-0.5,0.3-0.8c0.5-0.5,1.1-0.9,1.8-1.4c0.7-0.4,1.4-0.7,2.2-0.9c0.2-0.2,0.4-0.3,0.7-0.5c0.2-0.1,0.5-0.2,0.8-0.5
	c0.4-0.5,1.1-0.6,2-0.3c0.5,0.2,0.8,0.5,1,0.9c0.1,0.4,0.3,0.8,0.5,1.1c0.4,0.5,0.8,0.8,1,0.9c0.3,0.1,0.6,0.3,0.9,0.6l1.4,1.8
	c0.5,0.6,1.1,1.3,1.9,2c0.8,0.7,1.3,1.5,1.6,2.2c0.3,0.6,0.6,1.3,0.8,2.2c0.2,0.9,0.4,1.6,0.4,2.3c-0.4,1.7-1.1,3.1-2.1,4.2
	c-1,1.1-1.8,2.4-2.4,3.8c-0.8,1.2-1.6,2.4-2.2,3.5c-0.7,1.1-1.3,2.4-1.8,3.8c-1,1.2-1.9,2.6-2.8,4.1c-0.9,1.6-1.6,3.1-2.3,4.6
	c-1.1,2.6-2.4,5.2-3.8,7.7c-1.4,2.5-2.6,5.1-3.6,7.6c-0.4,0.6-0.7,1.2-1,1.8c-0.3,0.6-0.5,1.3-0.8,2.1c-0.2,0.8-0.4,1.3-0.6,1.6
	c-0.2,0.3-0.5,0.7-0.9,1.3c-0.4,1.1-0.8,1.9-1,2.5c-0.3,0.6-0.6,1.2-0.9,1.7c-0.3,0.6-0.6,1.1-0.9,1.6c-0.3,0.6-0.7,1.3-1,2.3
	c-0.2,1-0.5,1.9-0.9,2.9C110.8,90.8,110.5,91.7,110.3,92.6z M104.9,88.8c-0.2,0.1-0.4,0.3-0.6,0.6c-0.2,0.3-0.1,0.5,0.3,0.6
	C104.6,89.5,104.7,89.1,104.9,88.8z M105.8,89.9c-0.3,0-0.4,0-0.4,0.1c0,0.1,0.1,0.2,0.1,0.4c0.2,0,0.4,0,0.5-0.1
	C106.2,90.2,106.1,90.1,105.8,89.9z M106.4,89.7c0-0.2-0.1-0.3-0.4-0.3c-0.3,0-0.3,0.1-0.2,0.3c0.2,0.1,0.3,0.1,0.2-0.1
	C106,89.5,106.1,89.5,106.4,89.7z M111.5,78.8c-0.2-0.1-0.4-0.1-0.6,0.1c-0.2,0.2-0.4,0.1-0.6-0.1c-0.2,0.2-0.2,0.4-0.1,0.5
	s0.1,0.4-0.1,0.7v0.2c-0.4,0.6-0.7,1.2-0.9,1.6c-0.2,0.5-0.4,1.1-0.5,1.8h0.2c-0.3,0.8-0.8,1.7-1.4,2.6c-0.7,1-1.2,1.9-1.7,2.9
	c0.2,0,0.3,0.1,0.3,0.1c0,0.1,0.1,0.1,0.3,0c0.6-0.6,1-1.1,1.2-1.5c1-0.2,1.5-0.3,1.6-0.5c0-0.2-0.1-0.2-0.3-0.1
	c-0.2,0.1-0.4,0.1-0.5-0.1c0.6,0,0.9-0.1,0.9-0.4c0-0.2-0.1-0.5-0.1-0.7c0-0.1,0-0.3,0.1-0.5c0.1-0.2,0.1-0.5,0.1-0.7
	c0.4-0.5,0.8-0.9,1.2-1.4c0.4-0.4,0.5-0.9,0.5-1.6c-0.3,0-0.5,0.1-0.5,0.2c0,0.1-0.1,0.3-0.1,0.4c-0.1-0.1-0.2-0.1-0.3,0
	c-0.1,0.1-0.3,0.1-0.4,0c0-0.3,0.1-0.6,0.4-1c0.2-0.3,0.4-0.8,0.5-1.3h-0.3c0.5-0.1,0.7-0.3,0.5-0.6C110.8,79.2,111,79,111.5,78.8z
	 M108.1,88.4c-0.4,0.3-0.6,0.7-0.6,1c0,0.4,0,0.9,0,1.4h0.1c0-0.5,0.1-0.9,0.4-1.2C108.2,89.3,108.3,88.9,108.1,88.4z M109.3,78.2
	h-0.5c0,0.3-0.1,0.5-0.1,0.5C109.1,78.6,109.3,78.5,109.3,78.2z M112.1,76.7c-0.5,0.2-0.8,0.5-1,0.8c-0.1,0.4-0.4,0.6-0.7,0.8
	c0.8,0.3,1.2,0.2,1.3-0.4C111.8,77.4,111.9,77,112.1,76.7z M111.7,81c-0.2,0-0.4,0-0.4,0.1c-0.1,0.1-0.3,0.1-0.5,0.2
	c0.2,0.2,0.4,0.2,0.6,0.1C111.6,81.3,111.7,81.1,111.7,81z M112.3,76.5c0.2-0.6,0.5-1.1,0.8-1.6c0.3-0.5,0.6-1,0.9-1.5
	c-0.2,0-0.4,0-0.5,0.1c-0.1,0.1-0.2,0-0.1-0.2h0.8c0.3-0.5,0.5-1,0.5-1.4c0-0.5,0.3-0.9,0.8-1.4c-0.2,0-0.4,0.1-0.4,0.3
	c-0.1,0.2-0.3,0.3-0.6,0.1c0.3-0.6,0.6-1.2,1-1.8c0.3-0.6,0.6-1.2,0.7-1.8c0.5-0.3,0.9-0.7,1.1-1.3c0.2-0.5,0.3-1,0.2-1.3l-0.1,0.1
	h-0.3c-0.5,0.8-1,1.6-1.4,2.4c-0.4,0.8-0.9,1.6-1.3,2.4c0,0.1,0,0.2,0.1,0.2c0,0.1,0.1,0.1,0.1,0.2h-0.1c0,0.7-0.2,1.2-0.6,1.6
	c-0.4,0.4-0.6,0.9-0.5,1.6h-0.6c0,0.1,0.1,0.2,0.3,0.2c0.2,0,0.3,0.1,0.3,0.3c-0.5,0-0.8,0.1-0.8,0.1c-0.1,0.1-0.1,0.3-0.1,0.5
	c-0.4,0.4-0.6,0.8-0.7,1.1c-0.1,0.4-0.2,0.8-0.4,1.3c0.2,0,0.3,0,0.4-0.1C111.8,76.6,112,76.5,112.3,76.5z M112.1,79.1
	c0,0.1-0.1,0.2-0.1,0.3c-0.1,0.1-0.2,0.3-0.2,0.4c0.2,0,0.3-0.1,0.5-0.4C112.4,79.2,112.3,79.1,112.1,79.1z M113.9,77
	c0-0.2-0.1-0.4-0.1-0.5c-0.1-0.1,0-0.4,0.3-0.7c-0.5,0.3-0.9,0.7-1.1,1.1c-0.3,0.4-0.5,0.9-0.8,1.3c0.3,0,0.4,0.1,0.2,0.2
	c-0.2,0.1-0.2,0.3-0.2,0.5c0.5-0.2,0.8-0.5,0.8-1C113,77.5,113.3,77.2,113.9,77z M115.1,64.2c0.3,0,0.4-0.2,0.4-0.8
	c-0.2,0-0.4,0.1-0.4,0.2c-0.1,0.1-0.3,0.3-0.6,0.4c0.3,0.2,0.4,0.3,0.2,0.2c-0.1,0-0.2,0-0.2,0.1c-0.1,0.1-0.1,0.3,0,0.4
	c0.1,0.2,0.1,0.4,0,0.5c0,0.1-0.1,0.1-0.1,0.1h-0.3c-0.5,0.5-0.7,1-0.4,1.5c0.3-0.6,0.6-1.1,1-1.5C114.9,65,115.1,64.6,115.1,64.2z
	 M115.9,65.1c-0.3,0.1-0.4,0.2-0.4,0.2c0,0.1,0,0.2-0.2,0.4C115.7,65.7,115.9,65.5,115.9,65.1z M116.8,61.4c-0.3,0.3-0.6,0.6-0.8,1
	c-0.3,0.4-0.3,0.6-0.1,0.8c0.2-0.3,0.4-0.6,0.8-0.9C116.9,62,117,61.7,116.8,61.4z M116.3,64.2c-0.3,0-0.4,0.2-0.4,0.5
	C116.6,64.7,116.7,64.5,116.3,64.2z M116.8,59.3c-0.3,0-0.5,0.1-0.6,0.2c-0.1,0.1-0.1,0.3,0,0.4c0.2,0,0.3,0,0.3-0.2
	C116.5,59.6,116.6,59.5,116.8,59.3z M117.2,63c-0.3,0-0.5,0.1-0.5,0.3C117.1,63,117.2,62.9,117.2,63z M118.3,60.6
	c0.3,0,0.5,0,0.5-0.2c0-0.1,0.1-0.1,0.2-0.1c0.1-0.7,0.3-1.3,0.6-1.8c0.3-0.5,0.5-1.1,0.8-1.6c-0.3,0-0.5-0.1-0.5-0.3
	c0.2-0.2,0.4-0.5,0.6-1c0.2-0.5,0.2-0.8,0.1-1.1c-0.4,0.8-0.8,1.6-1.3,2.3s-0.8,1.5-1.1,2.2c0,0.3,0.1,0.4,0.3,0.4
	c0.2,0,0.3,0,0.3,0.2c-0.6,0-0.9,0.1-0.9,0.3h0.1l0.1,0.1c-0.5,0.2-0.8,0.4-0.9,0.5c-0.1,0.1-0.2,0.3-0.3,0.5c0.2,0,0.3,0,0.3-0.1
	c0-0.1,0.1-0.1,0.4-0.1c-0.3,0.3-0.5,0.6-0.5,0.8c-0.1,0.3-0.2,0.5-0.4,0.8c0.6-0.2,0.8-0.5,0.8-0.9
	C117.6,61.1,117.8,60.8,118.3,60.6z M118.7,62c-0.4,0-0.6,0.1-0.6,0.3c0,0.2-0.1,0.4-0.1,0.6h0.1c0.2-0.2,0.3-0.3,0.4-0.5
	C118.7,62.3,118.7,62.2,118.7,62z M120.8,60c-0.4,0-0.7,0.1-0.8,0.4c-0.1,0.3-0.1,0.4,0.1,0.5C120.5,60.6,120.7,60.3,120.8,60z
	 M121.6,58.1c-0.3,0.1-0.5,0.2-0.5,0.3c-0.1,0.1-0.1,0.2-0.2,0.3l0.2,0.1c0-0.2,0.1-0.3,0.3-0.4C121.5,58.4,121.6,58.3,121.6,58.1z
	 M122.9,56.1c-0.1,0-0.1,0-0.1-0.2c-0.5,0.2-0.7,0.4-0.7,0.5c0,0.1,0,0.4-0.2,0.7c0.5-0.1,0.8-0.2,0.8-0.5
	C122.6,56.5,122.7,56.3,122.9,56.1z M122.2,57.9c-0.2,0-0.3,0.1-0.2,0.1c0,0.1,0,0.2-0.1,0.3c0.3,0,0.4,0,0.3-0.2
	C122.1,58.1,122.1,58,122.2,57.9z M123.7,54.5c1-1,1.6-2.1,2-3.3h-0.9c-0.1,0.3-0.1,0.6-0.1,0.9c0,0.3-0.2,0.6-0.7,0.8
	c0,0.2,0.1,0.3,0.3,0.1c0.2-0.1,0.3,0,0.3,0.2c-0.5,0.2-0.8,0.4-0.8,0.8c-0.1,0.3-0.3,0.7-0.7,1h0.6V54.5z M126.2,50
	c-0.9,0.2-1.3,0.6-1.2,1.1C125.8,50.8,126.2,50.5,126.2,50z M166,92.6c2-0.2,3.9-0.6,5.9-1.1c1.9-0.5,3.9-1,6-1.4
	c2.2-0.4,3.8-0.7,5-0.9c1.1-0.2,2.1-0.4,2.9-0.5c0.8-0.1,1.8-0.3,2.9-0.4c1.1-0.1,2.8-0.4,5.2-0.7c0.5-0.1,1.1-0.2,1.7-0.3
	c0.6-0.1,1.3-0.1,1.9-0.1c0.4,0,0.8,0.1,1.4,0.1c0.5,0.1,1.1,0.2,1.6,0.3c0.1,0,0.2,0,0.4-0.1c0.2,0,0.4,0,0.7,0.1
	c0.7,0.2,1,0.4,1,0.7c-0.1,0.3,0.1,0.7,0.4,1.4c-0.3-0.3-0.5-0.3-0.7,0.1c-0.1,0.4-0.3,0.4-0.5,0.2c-0.2,0.2-0.5,0.2-0.8,0.1
	c-0.4-0.1-0.6-0.1-0.7,0.2c0.2,0.2,0.5,0.3,0.8,0.4c0.3,0.1,0.6,0.1,0.8,0.1c-0.1,0.3-0.4,0.4-0.8,0.4c-0.4,0-0.7,0.1-0.9,0.3
	c-0.1,0.1-0.1,0.2,0.1,0.3c0.1,0.1,0.2,0.3,0.2,0.5c-0.8-0.1-1.4,0-1.9,0.2c-0.4,0.3-0.8,0.5-1.1,0.7c0.5,0.3,1,0.4,1.5,0.2
	c0.5-0.2,1-0.3,1.5-0.5c-0.4,0.3-0.8,0.5-1.1,0.7c-0.4,0.1-0.8,0.2-1.4,0.2c0,0.2,0,0.3,0.1,0.2c0.1,0,0.2,0,0.5,0.1
	c-0.2,0.1-0.4,0.3-0.5,0.5c-0.1,0.3-0.3,0.4-0.6,0.4c0.2,0.6,0.9,1.2,2.1,1.6l-0.3,0.2h-0.1v0.1c0,0.6,0.2,0.9,0.8,0.9
	c-0.3,0.2-0.3,0.3,0.1,0.4c0.3,0.1,0.5,0.1,0.5,0.2c-0.2,0.5-0.7,0.8-1.4,0.8s-1.4,0.1-1.9,0.1c-0.6,0.2-1.2,0.5-1.8,0.8
	c-0.6,0.4-1.2,0.6-1.8,0.7l0.1,0.3c-1.3,0-3,0.2-5,0.7c-2.1,0.4-3.7,0.8-5,1.1c-0.1,0-0.2,0.1-0.2,0.1c-0.1,0.1-0.2,0.2-0.4,0.3
	l-1,0.5c-2,0.6-3.3,1-3.8,1.3c-0.6,0.3-1,0.5-1.2,0.6c-0.3,0.1-0.7,0.4-1.2,0.6c-0.6,0.3-1.8,0.6-3.8,1l-5.7,1.9
	c-2,0.6-3.8,1.5-5.3,2.7c-1.6,1.2-3.2,2.2-5,3.1c-1.3,0.2-2.7,0.5-4.3,0.9c-1.6,0.4-3,0.7-4.4,0.9c-0.4,0-0.6-0.1-0.6-0.3
	c0-0.2-0.2-0.3-0.5-0.3c-0.9-0.1-1.2-0.3-1-0.6c0.2-0.3,0-0.7-0.6-1.2c-0.2-0.8-0.3-1.5-0.3-2c0-0.5-0.1-1.1-0.3-1.6
	c-0.2-0.7-0.5-0.9-0.8-0.8c-0.3,0.2-0.5,0-0.5-0.6c0-0.5-0.1-1-0.4-1.5c-0.3-0.5-0.5-1-0.8-1.6c-0.2-0.5-0.3-1.1-0.5-1.8
	c-0.1-0.6,0.1-1.3,0.5-2c0.2-0.8,0.5-1.4,0.9-1.8c0.2-0.2,0.3-0.4,0.3-0.5s0.1-0.3,0.3-0.5l2.1-0.9c-0.4,0-0.8,0-1.2-0.1
	c1.5-4.1,3-7.8,4.4-11c1.4-3.2,2.9-6.3,4.4-9.3c1.5-2.9,3-5.9,4.6-9c1.5-3,3.1-6.4,4.6-10c2.3-5.3,4.6-10.5,6.9-15.8
	c2.3-5.2,4.7-10.4,7.4-15.6c0.2-0.5,0.4-1,0.6-1.6c0.2-0.6,0.5-1.1,0.9-1.6c0.2-0.1,0.5-0.3,0.9-0.8c0.1-0.2,0.1-0.4,0.1-0.7
	c0-0.2,0.1-0.5,0.3-0.8c0.5-0.5,1.1-0.9,1.8-1.4c0.7-0.4,1.4-0.7,2.2-0.9c0.2-0.2,0.4-0.3,0.7-0.5c0.2-0.1,0.5-0.2,0.8-0.5
	c0.4-0.5,1.1-0.6,2-0.3c0.5,0.2,0.8,0.5,1,0.9c0.1,0.4,0.3,0.8,0.5,1.1c0.4,0.5,0.8,0.8,1,0.9c0.3,0.1,0.6,0.3,0.9,0.6l1.4,1.8
	c0.5,0.6,1.1,1.3,1.9,2c0.8,0.7,1.3,1.5,1.6,2.2c0.3,0.6,0.6,1.3,0.8,2.2c0.2,0.9,0.4,1.6,0.4,2.3c-0.4,1.7-1.1,3.1-2.1,4.2
	c-1,1.1-1.8,2.4-2.4,3.8c-0.8,1.2-1.6,2.4-2.2,3.5c-0.7,1.1-1.3,2.4-1.8,3.8c-1,1.2-1.9,2.6-2.8,4.1c-0.9,1.6-1.6,3.1-2.3,4.6
	c-1.1,2.6-2.4,5.2-3.8,7.7c-1.4,2.5-2.6,5.1-3.6,7.6c-0.4,0.6-0.7,1.2-1,1.8c-0.3,0.6-0.5,1.3-0.8,2.1c-0.2,0.8-0.4,1.3-0.6,1.6
	c-0.2,0.3-0.5,0.7-0.9,1.3c-0.4,1.1-0.8,1.9-1,2.5c-0.3,0.6-0.6,1.2-0.9,1.7c-0.3,0.6-0.6,1.1-0.9,1.6c-0.3,0.6-0.7,1.3-1,2.3
	c-0.2,1-0.5,1.9-0.9,2.9C166.5,90.8,166.2,91.7,166,92.6z M160.6,88.8c-0.2,0.1-0.4,0.3-0.6,0.6c-0.2,0.3-0.1,0.5,0.3,0.6
	C160.3,89.5,160.4,89.1,160.6,88.8z M161.5,89.9c-0.3,0-0.4,0-0.4,0.1c0,0.1,0.1,0.2,0.1,0.4c0.2,0,0.4,0,0.5-0.1
	C161.8,90.2,161.8,90.1,161.5,89.9z M162.1,89.7c0-0.2-0.1-0.3-0.4-0.3c-0.3,0-0.3,0.1-0.2,0.3c0.2,0.1,0.3,0.1,0.2-0.1
	C161.6,89.5,161.8,89.5,162.1,89.7z M167.2,78.8c-0.2-0.1-0.4-0.1-0.6,0.1c-0.2,0.2-0.4,0.1-0.6-0.1c-0.2,0.2-0.2,0.4-0.1,0.5
	s0.1,0.4-0.1,0.7v0.2c-0.4,0.6-0.7,1.2-0.9,1.6c-0.2,0.5-0.4,1.1-0.5,1.8h0.2c-0.3,0.8-0.8,1.7-1.4,2.6c-0.7,1-1.2,1.9-1.7,2.9
	c0.2,0,0.3,0.1,0.3,0.1c0,0.1,0.1,0.1,0.3,0c0.6-0.6,1-1.1,1.2-1.5c1-0.2,1.5-0.3,1.6-0.5c0-0.2-0.1-0.2-0.3-0.1
	c-0.2,0.1-0.4,0.1-0.5-0.1c0.6,0,0.9-0.1,0.9-0.4c0-0.2-0.1-0.5-0.1-0.7c0-0.1,0-0.3,0.1-0.5c0.1-0.2,0.1-0.5,0.1-0.7
	c0.4-0.5,0.8-0.9,1.2-1.4c0.4-0.4,0.5-0.9,0.5-1.6c-0.3,0-0.5,0.1-0.5,0.2c0,0.1-0.1,0.3-0.1,0.4c-0.1-0.1-0.2-0.1-0.3,0
	c-0.1,0.1-0.3,0.1-0.4,0c0-0.3,0.1-0.6,0.4-1c0.2-0.3,0.4-0.8,0.5-1.3h-0.3c0.5-0.1,0.7-0.3,0.5-0.6C166.5,79.2,166.7,79,167.2,78.8
	z M163.7,88.4c-0.4,0.3-0.6,0.7-0.6,1c0,0.4,0,0.9,0,1.4h0.1c0-0.5,0.1-0.9,0.4-1.2C163.9,89.3,163.9,88.9,163.7,88.4z M164.9,78.2
	h-0.5c0,0.3-0.1,0.5-0.1,0.5C164.7,78.6,164.9,78.5,164.9,78.2z M167.8,76.7c-0.5,0.2-0.8,0.5-1,0.8c-0.1,0.4-0.4,0.6-0.7,0.8
	c0.8,0.3,1.2,0.2,1.3-0.4C167.4,77.4,167.6,77,167.8,76.7z M167.3,81c-0.2,0-0.4,0-0.4,0.1c-0.1,0.1-0.3,0.1-0.5,0.2
	c0.2,0.2,0.4,0.2,0.6,0.1C167.2,81.3,167.3,81.1,167.3,81z M167.9,76.5c0.2-0.6,0.5-1.1,0.8-1.6c0.3-0.5,0.6-1,0.9-1.5
	c-0.2,0-0.4,0-0.5,0.1c-0.1,0.1-0.2,0-0.1-0.2h0.8c0.3-0.5,0.5-1,0.5-1.4c0-0.5,0.3-0.9,0.8-1.4c-0.2,0-0.4,0.1-0.4,0.3
	c-0.1,0.2-0.3,0.3-0.6,0.1c0.3-0.6,0.6-1.2,1-1.8c0.3-0.6,0.6-1.2,0.7-1.8c0.5-0.3,0.9-0.7,1.1-1.3c0.2-0.5,0.3-1,0.2-1.3l-0.1,0.1
	h-0.3c-0.5,0.8-1,1.6-1.4,2.4c-0.4,0.8-0.9,1.6-1.3,2.4c0,0.1,0,0.2,0.1,0.2c0,0.1,0.1,0.1,0.1,0.2h-0.1c0,0.7-0.2,1.2-0.6,1.6
	c-0.4,0.4-0.6,0.9-0.5,1.6h-0.6c0,0.1,0.1,0.2,0.3,0.2c0.2,0,0.3,0.1,0.3,0.3c-0.5,0-0.8,0.1-0.8,0.1c-0.1,0.1-0.1,0.3-0.1,0.5
	c-0.4,0.4-0.6,0.8-0.7,1.1c-0.1,0.4-0.2,0.8-0.4,1.3c0.2,0,0.3,0,0.4-0.1C167.4,76.6,167.6,76.5,167.9,76.5z M167.8,79.1
	c0,0.1-0.1,0.2-0.1,0.3c-0.1,0.1-0.2,0.3-0.2,0.4c0.2,0,0.3-0.1,0.5-0.4C168,79.2,168,79.1,167.8,79.1z M169.6,77
	c0-0.2-0.1-0.4-0.1-0.5c-0.1-0.1,0-0.4,0.3-0.7c-0.5,0.3-0.9,0.7-1.1,1.1c-0.3,0.4-0.5,0.9-0.8,1.3c0.3,0,0.4,0.1,0.2,0.2
	c-0.2,0.1-0.2,0.3-0.2,0.5c0.5-0.2,0.8-0.5,0.8-1C168.6,77.5,169,77.2,169.6,77z M170.8,64.2c0.3,0,0.4-0.2,0.4-0.8
	c-0.2,0-0.4,0.1-0.4,0.2c-0.1,0.1-0.3,0.3-0.6,0.4c0.3,0.2,0.4,0.3,0.2,0.2c-0.1,0-0.2,0-0.2,0.1c-0.1,0.1-0.1,0.3,0,0.4
	c0.1,0.2,0.1,0.4,0,0.5c0,0.1-0.1,0.1-0.1,0.1h-0.3c-0.5,0.5-0.7,1-0.4,1.5c0.3-0.6,0.6-1.1,1-1.5C170.6,65,170.8,64.6,170.8,64.2z
	 M171.5,65.1c-0.3,0.1-0.4,0.2-0.4,0.2c0,0.1,0,0.2-0.2,0.4C171.3,65.7,171.5,65.5,171.5,65.1z M172.4,61.4c-0.3,0.3-0.6,0.6-0.8,1
	c-0.3,0.4-0.3,0.6-0.1,0.8c0.2-0.3,0.4-0.6,0.8-0.9C172.6,62,172.6,61.7,172.4,61.4z M172,64.2c-0.3,0-0.4,0.2-0.4,0.5
	C172.2,64.7,172.4,64.5,172,64.2z M172.4,59.3c-0.3,0-0.5,0.1-0.6,0.2c-0.1,0.1-0.1,0.3,0,0.4c0.2,0,0.3,0,0.3-0.2
	C172.1,59.6,172.2,59.5,172.4,59.3z M172.9,63c-0.3,0-0.5,0.1-0.5,0.3C172.7,63,172.9,62.9,172.9,63z M173.9,60.6
	c0.3,0,0.5,0,0.5-0.2c0-0.1,0.1-0.1,0.2-0.1c0.1-0.7,0.3-1.3,0.6-1.8c0.3-0.5,0.5-1.1,0.8-1.6c-0.3,0-0.5-0.1-0.5-0.3
	c0.2-0.2,0.4-0.5,0.6-1c0.2-0.5,0.2-0.8,0.1-1.1c-0.4,0.8-0.8,1.6-1.3,2.3s-0.8,1.5-1.1,2.2c0,0.3,0.1,0.4,0.3,0.4
	c0.2,0,0.3,0,0.3,0.2c-0.6,0-0.9,0.1-0.9,0.3h0.1l0.1,0.1c-0.5,0.2-0.8,0.4-0.9,0.5c-0.1,0.1-0.2,0.3-0.3,0.5c0.2,0,0.3,0,0.3-0.1
	c0-0.1,0.1-0.1,0.4-0.1c-0.3,0.3-0.5,0.6-0.5,0.8c-0.1,0.3-0.2,0.5-0.4,0.8c0.6-0.2,0.8-0.5,0.8-0.9
	C173.2,61.1,173.4,60.8,173.9,60.6z M174.4,62c-0.4,0-0.6,0.1-0.6,0.3c0,0.2-0.1,0.4-0.1,0.6h0.1c0.2-0.2,0.3-0.3,0.4-0.5
	C174.3,62.3,174.4,62.2,174.4,62z M176.5,60c-0.4,0-0.7,0.1-0.8,0.4c-0.1,0.3-0.1,0.4,0.1,0.5C176.1,60.6,176.4,60.3,176.5,60z
	 M177.2,58.1c-0.3,0.1-0.5,0.2-0.5,0.3c-0.1,0.1-0.1,0.2-0.2,0.3l0.2,0.1c0-0.2,0.1-0.3,0.3-0.4C177.1,58.4,177.2,58.3,177.2,58.1z
	 M178.6,56.1c-0.1,0-0.1,0-0.1-0.2c-0.5,0.2-0.7,0.4-0.7,0.5c0,0.1,0,0.4-0.2,0.7c0.5-0.1,0.8-0.2,0.8-0.5
	C178.3,56.5,178.4,56.3,178.6,56.1z M177.8,57.9c-0.2,0-0.3,0.1-0.2,0.1c0,0.1,0,0.2-0.1,0.3c0.3,0,0.4,0,0.3-0.2
	C177.7,58.1,177.7,58,177.8,57.9z M179.3,54.5c1-1,1.6-2.1,2-3.3h-0.9c-0.1,0.3-0.1,0.6-0.1,0.9c0,0.3-0.2,0.6-0.7,0.8
	c0,0.2,0.1,0.3,0.3,0.1c0.2-0.1,0.3,0,0.3,0.2c-0.5,0.2-0.8,0.4-0.8,0.8c-0.1,0.3-0.3,0.7-0.7,1h0.6V54.5z M181.9,50
	c-0.9,0.2-1.3,0.6-1.2,1.1C181.5,50.8,181.9,50.5,181.9,50z M218.5,26.6c0.5,0.3,0.8,0.7,0.8,1.2h0.5c-0.1,0.4-0.1,0.6,0,0.6
	c0.1,0,0.2,0.1,0.4,0.3c0,0.1,0,0.2,0.1,0.2c0,0.1,0,0.2-0.1,0.4c2.6,2.7,4.8,5.4,6.6,8.2c1.8,2.8,3.7,5.6,5.7,8.6
	c0.2,1.3,0.7,2.4,1.5,3.3c0.8,0.9,1.3,1.9,1.5,3c0,0.4,0,0.8,0,1s0.1,0.6,0.4,0.8c0,0.4,0.1,0.7,0.2,0.9c0.1,0.2,0.3,0.4,0.5,0.6
	c0.1-0.2,0-0.4-0.1-0.6c-0.2-0.2-0.3-0.4-0.1-0.8c0.2,0.2,0.3,0.4,0.3,0.5c0,0.2,0,0.3,0.2,0.5c1.3-1.6,2.5-3.2,3.5-5
	c1-1.7,2.3-3.3,3.7-5c0.9-1.7,2-3.3,3.1-4.8c1.2-1.5,2.3-3,3.3-4.6c0.5-0.5,0.9-1,1.2-1.6c0.3-0.5,0.6-1.1,1.1-1.6
	c0.1-0.3,0.3-0.5,0.6-0.5c0.5-0.9,1.1-1.8,1.8-2.7c0.7-0.9,1.4-1.8,2.2-2.7c0.5-0.8,1-1.7,1.5-2.7c0.5-1,1-1.9,1.5-2.7
	c0-0.6,0.1-1,0.5-1.3c0.3-0.2,0.4-0.7,0.4-1.3c0.3-0.2,0.6-0.4,1-0.7c0.3-0.2,0.7-0.5,1.1-0.8c0.7-0.5,1.4-0.9,2.1-1.2
	c0.7-0.1,1.2,0,1.6,0.3c0.3,0.3,0.8,0.7,1.3,1.2c0.2,0.4,0.4,0.7,0.8,0.8c0.3,0.1,0.5,0.3,0.8,0.5c0.5,0.7,1,1.7,1.6,2.9
	c0.5,1.3,1,2.3,1.4,3.2c0,0.3,0.1,0.8,0.3,1.3c0,0.2,0.1,0.5,0.5,0.9c0.2,1,0.4,1.9,0.6,2.5c0.2,0.7,0.2,1.5,0.2,2.2
	c-0.3,1.1-0.8,2-1.4,2.7c-0.6,0.7-1.2,1.3-1.8,1.9c-0.4,0.6-0.9,1.2-1.3,1.7c-0.5,0.6-1,1.1-1.5,1.7c-0.2,0.2-0.4,0.4-0.5,0.7
	c-0.1,0.3-0.4,0.5-0.7,0.7c-0.5,0.8-1.1,1.6-1.8,2.2c-0.7,0.7-1.4,1.6-2,2.7c-0.7,0.4-1.2,1-1.5,1.6c-0.3,0.7-0.8,1.3-1.5,1.8
	c0.1,0.2,0.1,0.3-0.1,0.3c-0.1,0-0.2,0.1-0.2,0.3c-2.4,3.5-4.7,7-7,10.6c-2.2,3.6-4.7,6.9-7.3,10.1c0,0.2-0.1,0.3-0.2,0.4
	c-0.1,0.1-0.1,0.2,0,0.4c-1.1,1.4-1.8,2.2-1.9,2.5c-0.2,0.3-0.3,0.4-0.4,0.5c-0.1,0.1-0.2,0.2-0.5,0.4c-0.3,0.3-0.9,1.1-1.9,2.5
	c-0.3,0.7-0.7,1.4-1.1,2c-0.4,0.6-0.9,1.2-1.4,1.6c-0.2,0-0.3,0.1-0.3,0.1c0,0.1-0.1,0.1-0.3,0.1l-0.3,0.3c-0.8,0.1-1.3,0.5-1.4,1.2
	c0,0.6-0.2,1.1-0.6,1.4c-0.4,0.3-0.7,0.7-0.9,1.2c0,0.2,0,0.4,0.1,0.6l-1,0.9c-0.5,1.5-1.2,2.8-2,4c-0.9,1.2-1.6,2.4-2.3,3.7
	c0,0.3,0,0.4,0.1,0.4c-0.2,0.1-0.3,0.3-0.3,0.5c0,0.3-0.1,0.5-0.2,0.8c-0.2-0.1-0.3-0.1-0.2,0c0,0.1,0,0.1-0.1,0.1
	c-0.2,0-0.3,0.2-0.3,0.6c-0.8,1-1.4,2.2-1.7,3.5l-0.4,0.3c-0.3,0.7-0.6,1.3-1,1.8c-0.4,0.5-0.6,1.1-0.8,1.8
	c-0.7,0.8-1.2,1.7-1.5,2.6c-0.3,1-0.9,1.7-1.6,2.2c-0.2,0.2-0.3,0.4-0.1,0.5c-0.2-0.2-0.3-0.4-0.4-0.5c-0.1-0.1-0.2-0.3-0.4-0.4
	c-0.2,0.1-0.4,0.2-0.5,0.4c-0.1,0.1-0.3,0.3-0.4,0.4c0.5-0.8,1-2,1.5-3.6c-0.6,0.8-1.1,1.7-1.6,2.8c-0.4,1.1-1.2,1.8-2.2,2.3
	c0-0.3,0.1-0.5,0.2-0.7c0.1-0.1,0.2-0.4,0.2-0.8c-0.4,0.4-0.8,1-1,1.7s-0.6,1.5-0.8,2.3c-0.4,0.1-0.6,0.3-0.7,0.5
	c-0.1,0.2-0.2,0.5-0.4,0.8c-0.2-0.3-0.3-0.6-0.2-0.8c0.1-0.3,0.2-0.6,0.3-1c-0.3,0.1-0.5,0.4-0.5,1c-0.2,0-0.4,0.2-0.4,0.6
	c-0.1,0.4-0.4,0.6-0.8,0.8c0-0.3,0-0.6,0.1-0.9c0.1-0.3,0-0.6-0.1-0.9c0.1-0.3,0.2-0.5,0.4-0.6c0.2-0.1,0.2-0.3,0-0.5
	c-0.1,0.1-0.2,0.3-0.3,0.5c-0.1,0.2-0.3,0.3-0.5,0.1c0.1,0.6-0.1,1.1-0.6,1.5c-0.2,0-0.3-0.1-0.2-0.1c0-0.1,0-0.1-0.2,0
	c-0.4,0.4-0.7,0.9-0.8,1.4c-0.1,0.5-0.5,0.9-1,1c-0.2,0.1-0.3,0.2-0.2,0.4c0,0.2,0,0.3-0.2,0.3c-0.2,0-0.3-0.1-0.3-0.4
	c0-0.3-0.1-0.4-0.3-0.5c-0.6,0.4-1.2,0.5-1.7,0.2c-0.6-0.3-1.1-0.5-1.6-0.7c-0.6-1.5-0.6-2.9-0.1-4.2c0.5-1.3,1-2.5,1.4-3.6
	c0.1-0.2,0.2-0.4,0.2-0.6c1.6-3.8,3.3-7.4,5.2-10.8c1.8-3.4,3.5-6.8,5-10.3c0.2,0.1,0.3,0.1,0.3-0.2c0-0.2,0.1-0.2,0.3-0.1
	c0.2-0.6,0.4-1,0.6-1.2c0.2-0.7,0.5-1.3,0.8-1.7c0.3-0.5,0.7-1,1-1.6c1.3-2.3,2.2-4,2.8-5c0.5-1,1-2,1.4-2.9
	c0.4-0.8,0.9-1.8,1.4-2.8c0.5-1,1.5-2.6,2.9-5c-0.8-1-1.7-1.9-2.6-2.8c-1-0.9-1.8-1.9-2.6-3c-0.9-1.1-1.7-2.2-2.5-3.4
	c-0.8-1.1-1.5-2.3-2.3-3.4c-2.6-3.9-5.3-7.7-8.1-11.4c-2.8-3.7-5.2-7.7-7.2-12c-0.2-0.2-0.4-0.5-0.5-0.8c-0.1-0.3-0.3-0.7-0.6-1.1
	c-0.1-0.2-0.2-0.4-0.4-0.6c-0.1-0.2-0.2-0.4-0.2-0.6c-0.1-0.1-0.1-0.3,0.1-0.6c0.1-0.3,0.4-0.6,0.6-1c0.3-0.3,0.5-0.6,0.7-0.9
	c0.2-0.2,0.3-0.4,0.3-0.5c0-0.2,0-0.4-0.1-0.5c-0.1-0.1-0.1-0.3-0.1-0.5c0-0.5,0.2-0.9,0.6-1.2c0.4,0.1,0.9,0.1,1.7-0.1
	c0.7-0.2,1.4-0.3,2.2-0.6c0.8-0.2,1.5-0.5,2.2-0.6c0.7-0.1,1.3-0.2,1.8-0.2c0,0.2,0.1,0.3,0.2,0.2c0.1,0,0.1,0-0.1,0.1
	c0.8,0,1.6,0.2,2.6,0.7c0.9,0.5,1.6,0.9,2.1,1.4c-0.1,0.3-0.3,0.4-0.4,0.4c-0.2,0-0.4-0.1-0.6-0.1v0.4c0-0.3-0.1-0.4-0.5-0.4
	c-0.3,0.4-0.2,0.6,0.4,0.7c0.5,0.1,0.8,0.3,0.8,0.8c0.2,0,0.2,0,0.1-0.1c-0.2-0.1-0.1-0.2,0.1-0.3c0.2,0.1,0.4,0.3,0.5,0.7
	c0.2,0.4,0.1,0.6-0.1,0.8c0,0.3,0.2,0.5,0.6,0.5l0.1-0.1c0,0.3-0.1,0.5-0.1,0.6c0.2,0,0.4,0.1,0.5,0.2s0.4,0.2,0.7,0.2
	c-0.1-0.2-0.2-0.4-0.3-0.6C218.8,27.1,218.7,26.9,218.5,26.6z M217.3,101.6c0.4-0.7,0.7-1.4,1-2c0.2-0.6,0.5-1.3,0.8-2
	c0.7-1.3,1.4-2.5,2.2-3.7c0.8-1.1,1.4-2.4,2-3.8c-0.4,0.2-0.7,0.5-0.8,1c-0.1,0.4-0.4,0.8-0.9,1c-0.2,0.9-0.5,1.7-1,2.2
	c-0.5,0.6-0.8,1.3-1,2.1c-0.5,0.5-0.9,1.1-1.1,1.6c-0.2,0.6-0.6,1.2-1.2,1.7c0,0.5-0.1,0.8-0.1,0.9c-0.1,0.1-0.3,0.3-0.5,0.6
	c-0.1-0.2-0.2-0.2-0.2-0.1c-0.1,0.1-0.2,0.2-0.4,0.2l-0.1,0.1v0.5c0.2-0.1,0.4-0.2,0.6-0.4C216.9,101.4,217.1,101.4,217.3,101.6z
	 M217.3,109.1l-1.2,2.2c0.5-0.3,0.8-0.6,0.9-1C217.1,110,217.2,109.6,217.3,109.1z M217,106.8c0.1,0.1,0.2,0.1,0.3,0v-0.3
	c0.3-0.1,0.4-0.3,0.4-0.7c-0.1-0.3-0.1-0.6-0.1-0.8c0.2-0.2,0.4-0.4,0.5-0.6c0.1-0.2,0.4-0.3,0.7-0.3c-0.1-0.2,0.1-0.5,0.6-1.1
	c0-0.2,0-0.4-0.1-0.7c-0.1-0.2,0.1-0.5,0.4-0.7c0,0.2-0.1,0.4-0.1,0.5c-0.1,0.1-0.1,0.3,0.1,0.5c0.3-0.2,0.4-0.5,0.2-0.8
	c-0.2-0.3-0.1-0.6,0.2-0.8c0,0.2,0,0.3-0.1,0.3c-0.1,0-0.1,0.1-0.1,0.3c0.5-0.2,0.8-0.5,1.1-0.9c0.2-0.4,0.5-0.8,0.9-1
	c-0.5,0.9-1,1.8-1.4,2.8c-0.4,1-1,1.8-1.6,2.6c0,0.4-0.2,0.6-0.6,0.6c0,0.4-0.1,0.7-0.3,0.9c-0.2,0.2-0.2,0.5,0,0.9
	c-0.1,0.2-0.2,0.4-0.4,0.5c-0.2,0.1-0.1,0.3,0.1,0.4c0.4-0.2,0.6-0.4,0.8-0.8c0.1-0.3,0.2-0.6,0.3-0.9c0.2-0.5,0.4-0.9,0.6-1.2
	c0.2-0.3,0.3-0.7,0.5-1.2c1.5-1.9,2.7-4.2,3.8-7.1c0.2-0.1,0.3-0.2,0.3-0.3c0-0.1,0.1-0.2,0.3-0.3c-0.1-0.5,0-0.8,0.3-0.8
	c0.2-0.8,0.5-1.4,1-1.9c0.5-0.5,0.6-1.1,0.4-2c0.2-0.1,0.4-0.2,0.5-0.3c0.1-0.1,0.3-0.3,0.4-0.6c0.3-0.3,0.4-0.7,0.3-1.2
	c-0.2,0-0.5,0.1-0.8,0.4c-0.3,0.3-0.6,0.4-0.8,0.5c0-0.3,0.1-0.6,0.4-1c0.3-0.3,0.2-0.7-0.3-1c-1.4,2.9-2.9,5.8-4.5,8.6
	c-1.6,2.9-3.1,5.8-4.5,8.8c0,0.3-0.1,0.6-0.3,0.8c-0.2,0.3-0.3,0.5-0.1,0.8c0.2,0,0.3-0.1,0.5-0.4C216.8,107.3,216.9,107,217,106.8z
	 M220.4,105c-0.2,0.5-0.5,1-0.8,1.5c-0.3,0.5-0.6,1-0.8,1.5C219.8,107,220.3,106,220.4,105z M221.8,89.1c-0.1-0.2-0.1-0.3,0.1-0.5
	c0.1-0.1,0.2-0.2,0.2-0.5c-0.9,0.5-1.4,1.3-1.4,2.2c0.2-0.2,0.3-0.4,0.4-0.7C221.1,89.6,221.4,89.3,221.8,89.1z M222.7,104.1
	c0.3-0.2,0.6-0.6,1-1.3c0.3-0.6,0.4-1.2,0.2-1.6c0,0.2-0.1,0.4-0.3,0.4c-0.2,0.1-0.2,0.3,0,0.6c-0.2-0.2-0.3-0.1-0.3,0.1
	c-0.2,0.8-0.6,1.5-1.1,2.1c-0.5,0.6-0.8,1.3-0.9,2.1c0.2-0.4,0.4-0.8,0.7-1.2C222.2,105.1,222.5,104.6,222.7,104.1z M223.1,99.5
	c-0.2,0.8-0.5,1.5-0.9,2.1c-0.4,0.6-0.7,1.2-0.8,1.8c0.3-0.6,0.7-1.2,1.1-1.7C223,101.1,223.2,100.4,223.1,99.5z M222.4,106.7
	c-0.2,0.3-0.4,0.6-0.6,0.9c-0.2,0.3-0.3,0.6-0.2,0.9c0.2-0.2,0.4-0.4,0.6-0.8C222.4,107.4,222.5,107.1,222.4,106.7z M229.3,90.9
	c0.1,0.3,0.1,0.5,0,0.5c0.3-0.6,0.7-1.1,1.1-1.7c0.4-0.5,0.8-1.1,1-1.9l0.3,0.3c0.6-0.6,0.9-1.2,1-1.9c-0.2,0-0.3,0-0.2-0.2
	c0-0.1,0-0.1-0.2-0.1c-0.5,0.5-1,1.2-1.4,2c-0.4,0.8-0.9,1.5-1.4,2.1c-0.1-0.3-0.2-0.4-0.3-0.2c-0.1,0.1-0.3,0.1-0.5-0.2
	c-0.3,0.8-0.7,1.5-1.2,2.1c-0.5,0.6-1,1.3-1.5,2.1c-0.3,0.4-0.4,1-0.4,1.8l-0.5,0.3c-0.4,0.7-0.8,1.4-1.1,2
	c-0.4,0.7-0.6,1.4-0.7,2.2c1-1.5,1.9-3,2.9-4.5C227.2,93.9,228.2,92.4,229.3,90.9z M226,99.2c-0.2,0.2-0.4,0.4-0.4,0.6
	c-0.1,0.2-0.2,0.5-0.3,0.9c0.2-0.1,0.5-0.3,0.8-0.7c0.3-0.3,0.3-0.8-0.1-1.3c0.1,0,0.1,0,0.1-0.1c0-0.1,0.1-0.2,0.3-0.3
	c0.2,0.2,0.2,0.3,0.1,0.3c0.3-0.7,0.7-1.4,1.1-1.9c0.5-0.6,0.8-1.3,1.1-2.1c-0.5,0.2-0.8,0.6-1,1.1c-0.1,0.6-0.5,0.9-1.1,1.1v0.4
	c-0.4-0.2-0.6-0.3-0.4-0.3c-0.3,0.8-0.7,1.5-1.3,2.2c-0.6,0.7-0.8,1.4-0.8,2.2c0.4-0.3,0.7-0.7,0.9-1.2
	C225.3,99.6,225.6,99.3,226,99.2z M226.9,86.6c-0.2,0.4-0.4,0.9-0.7,1.5c-0.3,0.6-0.1,1,0.4,1.2c0.2-0.2,0.3-0.8,0.3-1.8
	c0.3-0.5,0.6-1,0.9-1.4c0.3-0.5,0.5-0.9,0.8-1.4c0.2-0.2,0.4-0.3,0.5-0.4c0.1,0,0.2-0.2,0.2-0.5c-0.4,0.4-0.8,0.9-1.3,1.4
	C227.5,85.6,227.2,86.1,226.9,86.6z M350.2,70.2l-2.6,0.3c-0.7,0.1-1.3,0.3-1.8,0.6c-0.5,0.3-1,0.4-1.5,0.4c-0.4,0-0.7,0-0.8,0.1
	c-0.1,0.1-0.3,0.1-0.5,0.1c-0.9,0.2-1.8,0.6-2.5,1.1c-0.2,0-0.4,0-0.5,0c-0.1,0-0.3-0.1-0.5-0.3l-0.9,0.3c-1.3,0.1-2.2,0.4-2.9,1
	c-0.8-0.3-1.4-0.3-1.8-0.1c-0.4,0.2-0.8,0.4-1,0.6c-0.2,0.2-0.4,0.3-0.5,0.2c-0.1,0-0.1,0-0.1,0.2c-0.2,0-0.4,0-0.5,0.1
	c-0.2,0.1-0.4,0.1-0.8,0.1c-0.2-0.1-0.6,0.1-1,0.4c-0.2,0.2-0.4,0.3-0.6,0.3c-0.1,0-0.2,0-0.2,0.1c-0.1,0.1-0.1,0.1-0.2,0.1h-0.3
	c0.1-0.1,0,0.1-0.2,0.6c-0.3,0.5-0.5,1-0.7,1.5l-0.6,0.4l-1.2,2.1c-0.3,0.3-0.4,0.7-0.4,1l-1.1,1.2l-1.5,4.5l-1.5,3.5
	c-0.2,0.5-0.4,1-0.8,1.6c-0.3,0.6-0.6,1.2-0.8,2c-0.2,0.2-0.4,0.6-0.8,1.3c-0.3,0.7-0.6,1.3-0.8,2.1c-0.3,0.8-0.5,1.5-0.7,2.1
	c-0.2,0.7-0.4,1.1-0.4,1.4c-0.4,0.3-0.7,0.7-1,1.2c-0.3,0.5-0.5,1-0.7,1.4l-0.1,1.5l-2.5,3.9l-0.5,1.8l-0.6,1.6l-1.3,1.4
	c-0.1,0.1-0.2,0.3-0.4,0.5c-0.2,0.2-0.4,0.8-0.7,1.6c0,0.4-0.2,0.5-0.6,0.5l-0.9,1.4c-0.5,1.3-1,2.5-1.4,3.7c-0.5,1.1-1,2.7-1.7,4.7
	c-0.8-1.3-1.2-2.1-1-2.4c0.1-0.3,0.2-0.7,0.3-1.1c0.2-0.3,0.3-1,0.3-1.9H304l-0.6,1.8c-0.2,0.3-0.4,0.6-0.6,1.1
	c-0.2,0.4-0.4,0.9-0.4,1.5l-1.2,0.1c-0.1-0.2-0.2-0.4-0.2-0.5c-0.1-0.1-0.1-0.3-0.1-0.6c-0.2,0-0.3,0.2-0.3,0.6
	c-0.2,0.5-0.4,0.8-0.8,0.9c-1.7,0-2.8-0.3-3.4-0.8h-0.1c0,0.2-0.2,0.3-0.5,0.4c-0.3,0-0.5,0.1-0.6,0.1c0,0.2-0.1,0.4-0.3,0.6
	c-0.1,0.1-0.1,0.3,0,0.8c-0.5,0.7-0.9,1-1.1,1c-0.2-0.1-0.9-0.2-1.9-0.4h-1.1c-1,0-1.8,0-2.5-0.1c-0.6-0.1-1.1-0.6-1.3-1.7
	c-0.5-1.2-0.7-2.7-0.5-4.4c0.1-1.7,0.4-3.3,0.8-4.6c0.3-1.4,0.7-2.9,1.1-4.5c0.4-1.6,1.1-3.2,2-4.8c0.8-2.2,1.7-4.4,2.6-6.5
	c1-2.1,1.6-4,1.9-5.5c0.8-1.6,1.4-3.3,1.9-5c0.5-1.7,1.1-3.4,2-5c0.8-2.1,2-4.7,3.5-7.8c1.5-3.1,3.1-6.5,4.8-10
	c1.4-3.1,2.9-6.1,4.6-8.9s3.3-5.7,4.9-8.6l8.1-13.8l-0.3-0.6c-0.5-0.2-1.1-0.6-1.7-1.4c-0.7-0.7-0.9-0.8-0.7-0.1
	c-0.4-0.3-0.8-0.7-1-1.3c-0.3-0.5-0.7-1.1-1.2-1.6c0.1,0.2-0.5-0.1-1.8-0.9c-0.4-1.1-1.1-1.8-2.1-2.2c-1.3-0.7-2.2-1.6-2.7-2.9
	c0.3-0.2,0.5-0.6,0.7-1.3c0.1-0.6,0.3-1.2,0.5-1.7c1-1.4,2-2.5,3.1-3.4c1.1-0.8,2.6-1.5,4.6-1.9c1.6-0.2,3.3-0.6,5-1.3
	c1.7-0.6,3.5-1.2,5.2-1.7c0.9-0.3,2-0.6,3.4-1c1.4-0.3,2.8-0.8,4.2-1.3l0.9-1c-0.1,0.1-0.1,0.1-0.1,0c0-0.1,0.2-0.2,0.4-0.5l1.2-1.5
	l1.4-1c0.3-0.1,0.6-0.1,1-0.1c0.3,0,0.7-0.4,1.1-1.2c0.7,0.3,1.2,0.3,1.5,0l1,0.5l2.7,1.5l10-2.4c2-0.5,4-1,6.1-1.5
	c2.1-0.5,4.2-0.9,6.3-1.3c2.8-0.5,4.6-0.8,5.5-1c0.8-0.1,1.6-0.2,2.3-0.1c0.5,0,1.2,0,2.2-0.1c1,0,2.9-0.3,5.7-0.8l3.8-0.1
	c1.5-0.2,3.1-0.3,4.9-0.4c1.7,0,3.3,0,4.6,0.2c0.7,0.1,1.3,0.1,1.7,0.1c0.5,0,0.8-0.1,1-0.1c0.2,0,0.5,0.1,0.7,0.2
	c0.2,0.2,0.4,0.5,0.8,1c0.4,0.8,0.5,1.3,0.4,1.4c-0.1,0.1-0.4,0.2-0.9,0.2c-0.5,0-0.7,0-0.4,0.1c0.2,0.1,0.4,0.3,0.6,0.8
	c-0.3,0.2-0.5,0.3-0.7,0.3s-0.3,0.1-0.5,0.3c-0.2,0.1-0.4,0.2-0.5,0.3c-0.1,0.1-0.2,0.1-0.3,0.1c0.4,0.4,0.4,1,0.1,2
	c-0.2,0.7,0,1.3,0.8,1.8c-0.2,0.4-0.3,0.7-0.4,0.8c-0.1,0.1-0.1,0.3-0.1,0.5c0,0.2,0,0.4-0.1,0.5c-0.1,0.1-0.3,0.3-0.8,0.4
	c-0.1,0-0.2,0.1-0.2,0.1c-0.1,0.1-0.2,0.1-0.4-0.1c-0.8,0.4-1.5,1-2.1,1.6c-0.6,0.7-1.3,1.3-2.1,1.8c-0.1,0.1-0.1,0.2-0.1,0.3
	c0,0.1,0.3,0.4,0.9,0.9c-1.6,0.3-2.3,1-2.1,2c-1.3,0.2-2.6,0.5-3.8,0.9c-1.3,0.4-2.5,0.8-3.7,1c-2,0.5-4,0.9-5.9,1.3
	c-1.9,0.4-4.3,0.8-7,1.3c-1,0.2-2.1,0.5-3.1,0.9c-1.1,0.4-2.2,0.8-3.3,1.2c-1.5,0.6-2.8,1-3.8,1.3c-1.1,0.3-2.1,0.6-3.2,1
	c-1,0.4-2.2,0.8-3.6,1.4c-1.4,0.6-3.1,1.4-5.3,2.4c0,0.2-0.1,0.3-0.1,0.4c-0.1,0.1-0.2,0.2-0.3,0.4c-0.1,0.2-0.3,0.4-0.6,0.5
	c-0.3,0.1-0.5,0.3-0.5,0.5c-0.6,0.7-1,1.3-1.3,1.6c-0.3,0.4-0.5,1-0.7,1.7c-0.3,1-0.9,1.8-1.6,2.4c-0.2,0.8-0.6,1.6-1,2.2
	c-0.5,0.7-0.9,1.3-1.1,1.8c-0.2,0.8-0.6,1.5-1,2.1c-0.5,0.6-0.8,1.4-0.9,2.2c-0.3,0.2-0.5,0.4-0.5,0.5c-0.1,0.4-0.4,0.7-0.9,0.8
	c-0.3,1-0.7,2-1.1,2.9c-0.5,1-0.9,1.9-1.4,2.8c-0.7,0.7-1.3,1.4-1.9,2.1c-0.6,0.7-0.9,1.4-1.1,2.1c0.4-0.5,0.5-0.5,0.2-0.1
	c-0.3,0.5-0.6,0.9-1,1.4c1.2-0.2,2.4-0.5,3.8-0.8c1.3-0.3,2.6-0.6,4-0.8c1.6-0.4,3.2-0.7,4.8-1c1.6-0.2,3.2-0.5,5-0.7l9.5-1.6
	c0.9,0,1.8,0.1,2.6,0.2c0.8,0.1,1.4,0.7,1.7,1.7V56c0.1,0.1,0.2,0.3,0.2,0.6c0.2,0,0.4,0,0.5-0.1c0.1,0,0.3-0.1,0.5-0.1
	c0.4-0.1,0.6-0.1,0.8-0.1c0.1,0.1,0.1,0.1,0.1,0.2c0,0.1,0,0.2,0.1,0.4c0.1,0.1,0.3,0.3,0.8,0.4c0.4,0.5,0.6,1,0.6,1.4
	c0,0.4-0.6,0.7-1.6,0.8l-0.5,0.6l1.1,0.6c-0.3,0.3-0.7,0.4-1.1,0.4c0.2,0.2,0.3,0.3,0.5,0.2c0.1-0.1,0.3-0.2,0.6-0.2
	c0.4,0,0.7,0.1,1,0.2c0.2,0.1,0.5,0.6,0.7,1.4h-1.2l-0.6,0.4c0.1,0.1,0.3,0.1,0.6,0.1c0.3,0.5,0.4,0.8,0.3,0.8
	c-0.8,0.9-1.8,1.5-3,1.9c-1.2,0.4-2.2,0.5-2.9,0.4c-0.1,0-0.2,0-0.3,0.1c-0.1,0.1-0.2,0.1-0.3,0.1c-0.4,0-0.7,0.1-0.8,0.1
	c-2.3,0.3-4.7,0.8-7.1,1.5c-2.5,0.7-4.7,1.4-6.8,1.9c-0.2,0.2-0.7,0.3-1.5,0.3V70.2z M322.1,33.9l0.3,0.1
	C322.3,34.1,322.2,34.1,322.1,33.9c0,0-0.1,0-0.1,0H322.1z M455.9,45.6v0.4c0,0.1,0,0.2-0.1,0.4c-0.1,0.1,0,0.3,0.1,0.5l-2.4,2.6
	l-0.9,0.8c-1.2,0.5-1.8,1-1.8,1.4l-1,0.4c-0.5,0-0.9,0.3-1.2,0.8l-2,0.8l-0.6,0.3l-1.2,0.3c0,0.2-0.2,0.4-0.5,0.5
	c-0.4,0.1-0.7,0.1-1,0.1l-1,0.3H442c-0.4,0.4-0.7,0.6-0.8,0.7c-0.2,0.1-0.3,0.1-0.5,0.1c-0.3,0-0.6,0.1-0.8,0.3v0.1
	c-0.1,0.2-0.3,0.3-0.6,0.3l-0.6,0.3l-0.1,0.1c-0.3,0.3-0.9,0.5-1.8,0.6c-0.1,0.1-0.2,0.1-0.2,0.1c-0.1,0-0.1,0.1-0.2,0.1l-0.3,0.3
	l-1,0.8l-1.4,0.6c-0.4,0.2-0.9,0.4-1.4,0.5c-0.5,0.1-0.7,0.1-0.4,0.1c-0.4,0-0.7,0.1-0.8,0.1c-0.1,0.1-0.2,0.2-0.3,0.3l-1.5,0.9
	l-0.4,0.6V62l-0.5,0.6v0.1h0.1c0.3-0.3,0.5-0.4,0.8-0.4v0.4l-0.3,0.2c0,0.2-0.1,0.3-0.5,0.3c-0.3,0-0.4,0.3-0.4,0.8
	c-0.4,0.1-0.6,0.2-0.6,0.3v0.2c-0.1,0.1-0.4,0.1-0.9,0.1c0,0.2,0,0.3-0.1,0.3c-0.1,0-0.1,0.1-0.1,0.1v0.2c0,0.2,0,0.4,0.1,0.4
	c0,0.1,0.1,0.3,0.1,0.6c0,0.1,0,0.4,0.1,0.8c0,0.4,0.1,1,0.1,1.6c0,0.6,0.1,1.2,0.2,1.7c0.1,0.6,0.2,0.9,0.3,1
	c0.2,1.4,0.5,3.4,0.9,5.9c0.4,2.5,0.8,5.1,1.1,7.6c0.3,2.6,0.7,4.9,1,7c0.3,2.1,0.4,3.3,0.4,3.8h-0.4c0.2,0.7,0.3,1,0.4,0.8
	c0-0.2,0.1,0.1,0.2,0.9c0,0.1,0,0.2,0.1,0.3c0,0.1,0.1,0.2,0.1,0.3c0.1,0.3,0.2,0.7,0.3,1.1c0.1,0.5,0,0.9-0.1,1.3l-0.6,0.3
	c-0.1-0.1-0.1-0.2-0.1-0.3c0,0.3,0,0.5-0.1,0.7c-0.1,0.1-0.1,0.3-0.1,0.4h-0.5c0-0.7,0-1.1-0.1-1.4c-0.1-0.2-0.1-0.4-0.2-0.6
	c0.3,1,0.3,2.4,0,4.1v0.8c0,0.2-0.1,0.4-0.2,0.7c-0.1,0.3-0.2,0.5-0.2,0.7c-0.2-0.1-0.3-0.1-0.3,0c0,0.1-0.1,0.2-0.3,0.2h-0.1
	l-0.1,0.1c-0.1,0-0.1,0-0.1,0.1c0,0.1-0.1,0.1-0.2,0.1v0.9h-0.3c-0.1,0.5-0.1,0.8-0.1,0.9c0,0.1,0.1,0.2,0.1,0.3v1.4
	c0,0.2-0.3,0.4-0.9,0.4c-0.6,0.1-0.9,0.1-0.8,0.1c-0.5,0-0.8,0-0.9-0.1c-0.1,0-0.6-0.2-1.4-0.4c-0.8-0.1-1.6-0.2-2.2-0.4
	c-0.7-0.1-1.3-0.5-1.6-1l-1.5-2.5c-0.2-0.5-0.5-0.9-0.8-1.3c-0.4-0.3-0.5-0.7-0.5-1.1c-0.1-0.7-0.2-1.3-0.4-1.7
	c-0.1-0.5-0.3-0.9-0.5-1.3c-0.1-0.4-0.3-0.8-0.4-1.3c-0.2-0.5-0.3-1.2-0.4-2.2c0-0.2,0-0.4-0.1-0.5c-0.1-0.1-0.1-0.3-0.1-0.5
	l-0.8-4.9c0-0.2,0-0.4-0.1-0.7c-0.1-0.2-0.1-0.6-0.1-1c0-0.1-0.1-0.7-0.4-1.9c-0.3-1.1-0.6-2.4-0.9-3.8c-0.3-1.3-0.6-2.6-0.8-3.8
	c-0.3-1.1-0.4-1.8-0.4-1.9l-0.1-3l-2.7-7.3l-0.1,0.3c-0.2,0.2-0.3,0.3-0.4,0.2c-0.1,0-0.2,0-0.4,0.2l-0.1-0.3l0.1-0.4l-0.9,1h-0.3
	l-3,0.3c-0.1-0.1-0.2-0.2-0.2-0.3c-0.1-0.1-0.2,0-0.4,0.3c-0.2,0-0.3-0.1-0.2-0.3c0-0.2-0.1-0.1-0.4,0.1l-0.3,0.1V69h0.3
	c-0.2,0.2-0.4,0.4-0.7,0.7c-0.3,0.3-0.5,0.4-0.7,0.4l-0.5,0.8c0.4-0.4,1.2-0.8,2.4-1l-0.3,0.4l-1.6,1.2l-1.6,0.9
	c-0.1,0.8-0.5,1.3-1.2,1.5l-2.2,4.8c-0.3,0.7-0.7,1.4-1,2.2c-0.4,0.8-0.9,1.8-1.4,3.2c-0.9,1.4-1.6,2.9-2.2,4.4
	c-0.6,1.5-1.2,3.2-2,5.1h-0.9c-0.2,0.7-0.4,1.6-0.5,2.7c-0.1,1.1-0.3,1.7-0.4,1.8c-0.2,0.2-0.4,0.4-0.5,0.5c-0.1,0.1-0.3,0.5-0.4,1
	c-0.4,0-0.8,0.2-1.1,0.5c-0.3,0-0.5,0.1-0.5,0.5c-0.1,0.3-0.1,0.6-0.2,0.8c0,0.1-0.1,0.2-0.1,0.2c-0.1,0.1-0.1,0.1-0.1,0.2
	c0.2,0.2,0.3,0.4,0.2,0.7c-0.1,0.3-0.1,0.5-0.2,0.8v0.6h-0.5c-0.2-0.4-0.3-0.7-0.3-0.9l-0.3,0.8c-0.3,0.4-0.6,0.8-0.9,1.3
	c-0.3,0.5-0.6,1.1-0.8,1.9l-0.9,0.8c-0.2,0.2-0.4,0.4-0.5,0.5c-0.1,0.1-0.1,0.4-0.1,0.9c-0.2,0.1-0.3,0-0.4-0.2
	c-0.1-0.2-0.1-0.5-0.1-0.7c0-0.1,0-0.2,0.1-0.2c0,0,0.1,0,0.1-0.1c-0.2,0-0.3,0-0.4,0.1c-0.1,0.1-0.1,0.1-0.2,0.1l-0.1,0.2
	c-0.1,0.1-0.2,0.2-0.4,0.2c-0.1,0.1-0.5,0.1-1,0.1l-0.1,0.1h-0.8c-0.2,0.2-0.2,0.1,0-0.4c0.2-0.5,0.1-0.6-0.1-0.5
	c-0.3,0.5-0.6,0.9-0.8,1.2c-0.2,0.3-0.6,0.5-1.1,0.6h-0.6c-0.1,0-0.2,0-0.3-0.1c-0.4,0-0.9,0-1.5,0s-1.2,0-1.9-0.1
	c-0.6,0-1.2-0.1-1.7-0.2c-0.5-0.1-0.8-0.2-0.9-0.5l-0.5-2.7c0-0.5,0.1-0.9,0.2-1.1c0.1-0.2,0.1-0.5,0.1-0.7v-0.8
	c0.5-1.3,1-2.5,1.4-3.6c0.4-1.1,0.8-2.2,1.1-3.3c0.3-1.1,0.7-2.3,1-3.6c0.3-1.3,0.8-2.8,1.4-4.5c0.8-2.3,1.5-4.6,2.2-6.8
	c0.6-2.2,1.6-4.7,2.9-7.3c-0.1-0.2-0.1-0.5-0.1-0.8c0-0.3-0.1-0.5-0.5-0.5c0.5-0.6,0.6-0.9,0.3-1c-0.3,0-0.3-0.2,0-0.4l2.4-1.2
	c1.2-2.8,2.5-5.5,3.8-8.2c1.3-2.7,2.7-5.3,4.1-7.9c1.1-2,2.3-4.4,3.7-7.2c1.4-2.8,2.5-5.3,3.5-7.5l-0.8,0.6l-1.8,0.4
	c-0.5,0.4-1.1,0.8-1.8,1.3c-0.7,0.4-1.3,0.8-1.8,1h-1c-0.5-0.2-0.9-0.5-1.3-1c-0.4-0.5-0.7-0.9-1.1-1.3l-1.2-0.4l-0.5-0.9l-0.6-0.2
	c-0.1,0-0.2,0-0.2-0.1c-0.1,0-0.3-0.2-0.7-0.4h-2.9l-0.3-0.6v-0.9l-0.3-0.1c-0.4-0.5-0.8-1.4-1.2-2.7c0.1-0.8,0.5-1.5,1-2.1l0.8-1.4
	c0.6-0.1,1.1-0.3,1.5-0.5c0.4-0.2,0.8-0.5,1.2-0.7c0.7-0.1,1.5-0.3,2.5-0.5c0.9-0.2,1.7-0.6,2.3-1.1c0.8-0.2,1.5-0.3,2.1-0.4
	c0.6,0,1.1-0.2,1.6-0.4c0.7-0.2,1.6-0.4,2.7-0.6c1.1-0.2,2.4-0.5,3.9-1.1c1.3-0.5,2.9-0.9,4.7-1.2c1.8-0.3,3.6-0.6,5.3-0.9
	c0.7-0.1,1.4-0.2,2-0.3c0.6-0.1,1.3-0.2,2-0.4c3.8-0.8,8-1.3,12.5-1.6c4.5-0.2,9.2-0.4,13.9-0.4h2.4c4.4,0.2,8.6,0.9,12.6,2.1
	c4,1.2,7,3.4,9,6.6c0,0.1,0,0.2,0.1,0.2c0,0.1,0,0.2-0.1,0.4c0.1,0.2,0.2,0.5,0.3,0.8c0.1,0.4,0,0.7-0.2,1.1h0.3
	c0.2,0.3,0.2,0.6,0.1,0.8c-0.1,0.3-0.3,0.5-0.5,0.7c-0.1,0.1-0.1,0.3-0.1,0.5c0,0.1-0.1,0.2-0.1,0.3l0.6,2.2
	c0.1,0.1,0.1,0.4,0.1,0.8c0.2,1.1,0.1,2.2-0.2,3.4c-0.4,1.2-0.9,2-1.7,2.5c-0.4,0.8-0.7,1.2-0.9,1.2v0.3l-0.8,1
	c-0.2,0-0.4,0-0.4-0.1c-0.1,0-0.3-0.1-0.5-0.1c-0.4,0.2-0.9,0.3-1.4,0.3l-0.1-0.3v0.5H455.9z M380,108v-0.1v-0.3V108z M388.6,93.3
	l0.3-0.4C388.8,92.9,388.7,93,388.6,93.3z M425.2,50.1c0.5-0.3,1-0.5,1.6-0.7c0.5-0.1,1.1-0.4,1.6-0.8c0.5-0.2,1-0.4,1.6-0.7
	c0.6-0.2,1.1-0.5,1.6-0.7c2.9-1.1,5.3-2.2,7.3-3.4c1.9-1.1,4.2-2.6,6.7-4.3l0.9-0.8c2.1-1.5,3.1-2.6,3.1-3.2c0-0.8-0.7-1.3-2.2-1.6
	c-1.5-0.3-3.2-0.4-5.2-0.4c-0.7,0-1.4,0-2,0c-0.7,0-1.3,0.1-2,0.1c-1.9,0.1-3.9,0.3-6.1,0.5c-2.2,0.3-4.2,0.5-6.2,0.8l-3.1,0.6
	l-1.2,0.3c-1,0.2-1.9,0.4-2.8,0.4c-0.9,0.1-1.6,0.4-2.3,0.9c0.5,1.1,0.7,2,0.5,2.7c-0.1,0.7-0.5,1.4-1,2.1c-0.5,1-1,1.9-1.5,2.6
	c-0.5,0.8-0.9,1.4-1.1,2c-0.2,1-0.7,1.9-1.4,2.6l-1.9,2.8l-0.9,1.4c-0.2,0.5-0.5,1.2-0.9,2.1c-0.4,0.9-0.8,1.6-1.2,2.1
	c2.9-1.4,5.9-2.7,9-4.1C419.3,52.4,422.3,51.2,425.2,50.1z M427.4,64.2c-0.1,0-0.2,0-0.2,0.1c-0.1,0.1-0.1,0.1-0.2,0.1L427.4,64.2z
	 M457.6,44.1c-0.3,0.2-0.5,0.4-0.5,0.8l0.8-0.8H457.6z M441.8,105c-0.7-0.1-1.1-0.4-1.3-0.9c-0.1-0.5-0.2-1-0.1-1.6
	c0.1-0.5,0.3-1.1,0.5-1.7c0.2-0.6,0.4-1.1,0.4-1.6c0.4-1.1,0.8-2.2,1.1-3.3c0.4-1.1,0.8-2.2,1.3-3.3c0.1-0.6,0.3-1.1,0.5-1.6
	c0.3-0.5,0.5-1,0.7-1.6c1.4-4.2,3-8.2,4.6-12.1c1.7-3.9,3.5-7.6,5.4-11.1c0.1-0.3,0.2-0.5,0.3-0.8c0.1-0.2,0.2-0.4,0.5-0.6
	c0.3-0.6,0.6-1.2,0.8-2c0.2-0.7,0.6-1.3,1.1-1.9c2-3.6,4.1-7.2,6.3-10.7c2.2-3.5,4.4-7.1,6.6-10.7c1.1-1.9,2.2-3.8,3.3-5.7
	c1.1-1.9,2.2-3.8,3.3-5.9c0.2-1.3,0.7-2.4,1.5-3.3c0.8-0.9,1.6-1.8,2.6-2.8c0.5,0,0.9-0.1,1.3-0.4c0.3-0.2,0.7-0.3,1.1-0.2
	c0.2,0,0.5,0.1,0.9,0.3c0.4,0.2,0.7,0.4,0.9,0.6c0.7,0.5,1.4,1.2,2.1,2c0.7,0.9,1.4,1.6,2,2.3c5.4-1,10.7-2,15.8-3.1
	c5.1-1,10.7-1.6,16.7-1.7c0.8-0.1,1.6-0.1,2.5-0.1c0.8,0.1,1.7,0.1,2.6,0.2c0.4,0.4,0.7,0.6,0.8,0.7c0.2,0.1,0.4,0.3,0.7,0.8
	c-0.5,0.4-0.8,0.7-0.8,1c-0.1,0.3,0,0.8,0.2,1.6c-0.5,0-0.8,0.1-0.8,0.5c-0.1,0.3-0.1,0.7-0.1,1c-0.2,0.1-0.4,0.1-0.6,0.1
	c-0.2,0-0.4,0-0.5,0.2c-0.2,0.5-0.3,1.1-0.4,1.8c-0.1,0.7-0.3,1.3-0.8,1.8c0.2,0.7,0.2,1.1-0.2,1.3c-0.3,0.2-0.6,0.5-0.8,1
	c-0.3,0.1-0.5,0.2-0.6,0.4c-0.1,0.1-0.4,0.2-0.8,0.2c-1.3,1-2.7,1.7-4.1,2c-1.5,0.4-3,0.6-4.7,0.8c-0.4,0.1-0.8,0.2-1.1,0.4
	c-0.4,0.1-0.8,0.2-1.3,0.2h-1.5c-0.6,0.1-1.2,0.2-1.8,0.3c-0.6,0.1-1.2,0.3-1.8,0.5c-1.6,0.3-3.1,0.6-4.5,1
	c-1.4,0.4-2.8,0.8-4.2,1.3c-0.6,0.2-1.2,0.4-1.6,0.5c-0.5,0.1-1,0.3-1.6,0.5c-1.2,0.4-2.5,0.7-3.8,0.9c-1.3,0.2-2.1,0.9-2.4,2.1
	c-0.2,0.1-0.3,0.2-0.4,0.4c-0.1,0.1-0.2,0.2-0.4,0.2c-0.8,2.2-2,4.3-3.7,6.1c-1.6,1.9-3,3.8-4.1,5.7c3.4-0.8,7-1.5,10.7-2.1
	s7.6-1.1,11.6-1.6c2-0.2,4-0.4,6.1-0.5c2-0.1,4.1,0,6.1,0.5c0,0.4,0.1,0.7,0.2,0.8c0.1,0.1,0.2,0.3,0.2,0.4
	c-0.2,0.2-0.4,0.3-0.5,0.1c-0.1-0.1-0.3-0.1-0.5-0.1c-0.5,0.2-0.9,0.5-1.3,0.8c-0.4,0.3-0.7,0.6-1.1,0.8c-0.2,0-0.3,0.1-0.3,0.1
	c0,0.1-0.1,0.2-0.3,0.3h-0.3h-0.1c-0.3,0.2-0.6,0.5-1,0.9c-0.4,0.4-0.5,0.8-0.4,1.2c0.7,0,1.3,0,1.9,0c0.5,0,1.1-0.1,1.7-0.3
	c-0.1,0.2-0.4,0.3-0.9,0.3v2.1c-0.3,0.1-0.7,0.2-1.1,0.2c-0.4,0.1-0.6,0.2-0.4,0.5c-0.3,0.2-0.7,0.3-1.1,0.3c-0.4,0-0.8,0.1-1,0.1
	c0,0.3,0.1,0.5,0.4,0.6c0.2,0.1,0.4,0.3,0.4,0.6c-0.8,0.3-1.6,0.5-2.5,0.7c-0.9,0.1-1.8,0.4-2.6,0.8c0,0.2,0,0.3,0.1,0.4
	c0,0.1,0,0.2-0.1,0.4c-0.8-0.1-1.7,0-2.6,0.1c-1,0.2-1.9,0.4-2.9,0.6c-2.8,0.3-4.9,1-6.3,1.9c-1.2,0.5-2.4,1-3.6,1.4
	c-1.2,0.4-2.5,0.8-3.9,1.1c-1,0.2-1.9,0.4-2.8,0.7c-0.9,0.3-1.8,0.4-2.6,0.5c-0.8,0-1.6,0-2.3,0s-1.6,0-2.6-0.1c-0.5,0-0.9,0-1.3,0
	c-0.4,0-0.8,0.1-1.3,0.3c-0.8,1-1.5,2-2,3.1c-0.6,1-1.1,2.1-1.7,3.2c-0.5,0.8-1,1.6-1.4,2.5c-0.4,0.9-0.8,1.7-1,2.5
	c-0.6,1.4-1.2,2.8-1.6,4.3c-0.5,1.5-1.1,2.9-1.6,4.4c-0.2,0.5-0.2,0.9,0.1,1c0.3,0.2,0.3,0.6,0,1.2c1-0.2,1.7-0.3,2.1-0.2
	c0.4,0.1,1-0.1,1.9-0.4l2.9-0.9l7.4-2.7c0.2,0,0.4-0.1,0.6-0.3c2.4-0.7,4.9-1.5,7.5-2.4c2.6-0.9,5.2-1.8,7.9-2.7
	c1.6-0.5,3.2-1,4.8-1.6c1.6-0.5,3.2-1.1,4.9-1.6c0.8-0.2,1.4-0.3,1.7-0.5c0.3-0.1,1-0.2,2-0.4l5.9-0.9c0.7-0.1,1.5-0.2,2.5-0.2
	c0.9,0,1.4,0.5,1.3,1.5c0,0.2-0.1,0.4-0.3,0.5c-0.2,0.1-0.2,0.3,0,0.6c-0.5,0-0.8,0.1-0.9,0.1c0.1,0.2,0.3,0.2,0.5,0.1
	c0.2-0.2,0.4-0.1,0.5,0.1c0.1,0.2,0.1,0.3-0.1,0.3c-0.2,0-0.3,0.1-0.5,0.1h0.9c-0.1,0.2-0.3,0.3-0.5,0.3c-0.2,0-0.4,0.1-0.6,0.3
	c-0.1-0.2-0.6-0.3-1.4-0.3c0,0.5,0.1,0.8,0.5,0.8c0.3,0,0.5-0.1,0.7-0.3c0.4,0.4,0.8,0.5,1.3,0.3c0.3,0,0.3,0,0.2,0.1
	c-0.2,0.1-0.2,0.1,0,0.2h0.8c0.1,0.3,0.1,0.5,0,0.7s-0.2,0.3-0.2,0.5c-0.7,0.1-1.2,0.4-1.6,0.8c-0.4,0.4-0.9,0.7-1.7,0.7
	c0,0.2,0.1,0.4,0.3,0.5c0.2,0.2,0.5,0.2,0.7,0.1c-0.1,0.1-0.2,0.2-0.4,0.2c-0.1,0.1-0.3,0.2-0.4,0.4c0,0.2,0.1,0.3,0.3,0.1
	c0.2-0.1,0.3,0,0.3,0.1c-0.7,0-1.3,0.1-1.6,0.5c0.2,0.3,0.5,0.4,1,0.2c0.5-0.2,0.8-0.1,1.1,0.1c-0.2,0.3-0.5,0.5-0.9,0.5
	c-0.4,0.1-0.8,0.1-1.2,0.2c-0.8,0.2-1.6,0.4-2.2,0.7c-0.7,0.3-1.3,0.5-1.8,0.7c-1.4,0.4-2.4,0.7-3,1c-0.6,0.3-1.5,0.6-2.6,1.1
	c0.2,0.1,0.5,0.1,0.8-0.1c0.3-0.1,0.6-0.2,0.9-0.1c-0.2,0.2-0.5,0.3-0.8,0.3c-0.4,0-0.7,0.1-1,0.1c-0.2-0.1-0.3-0.1-0.1-0.1
	c0.1,0,0,0-0.1,0c-1,0.1-2,0.4-2.9,0.8c-0.9,0.4-1.8,0.8-2.6,1.2c0.5,0.2,0.9,0.1,1.4-0.2c0.4-0.3,0.9-0.5,1.5-0.4
	c0.2,0,0.2,0,0.1,0s-0.2,0.1-0.2,0.1c0.3,0.1,0.6,0.1,0.8,0c0.2-0.1,0.6-0.1,1-0.1c-0.6,0.5-1.3,0.9-2,1.1c-0.8,0.3-1.5,0.5-2.3,0.7
	c0,0.2,0.1,0.3,0.4,0.1c0.2-0.1,0.4-0.1,0.4,0c-0.2,0.2-0.5,0.3-0.9,0.2c-0.4,0-0.7,0-0.9,0.1c-0.8,0.2-1.7,0.5-2.7,0.8
	c-1,0.4-2,0.7-2.9,1c-0.4,0.2-0.8,0.4-1.1,0.5c-0.3,0.2-0.6,0.3-0.9,0.5l1.2-0.3c0.2-0.1,0.4-0.2,0.6-0.4c0.2-0.1,0.3-0.2,0.4-0.1
	c-0.2,0.2-0.6,0.4-1,0.6c-0.5,0.2-0.9,0.4-1.1,0.5c-0.2,0-0.3,0-0.3-0.1c0-0.1-0.1-0.1-0.1-0.1c-0.5,0.5-1.2,0.8-2,0.8
	c-0.8,0-1.5,0.3-1.9,0.9c-0.5,0-1,0.1-1.4,0.4c-0.4,0.3-0.9,0.6-1.4,0.9c-1,0.2-1.9,0.5-2.8,0.9c-0.9,0.4-1.7,0.9-2.6,1.4
	c-0.3,0.2-0.7,0.4-1.1,0.6c-0.5,0.2-0.9,0.4-1.4,0.6l-3.8,1.6c-0.7,0.2-1.4,0.4-2,0.5c-0.7,0.1-1.3,0.4-2,0.7c-1,0.4-2,0.8-2.9,1.3
	c-1,0.5-1.9,0.9-2.9,1.3c-1.1,0.3-2.3,0.5-3.6,0.6c-1.3,0.1-2.5-0.1-3.6-0.6c-0.3-0.1-0.6-0.2-0.8-0.4c-0.3-0.2-0.6-0.3-1-0.3
	c-0.5-0.2-1.1-0.3-1.7-0.3c-0.6,0-1.1-0.3-1.3-0.9C444.4,109.2,442.4,107.7,441.8,105z M492.2,97.4c0,0.2,0.1,0.3,0.2,0.1
	c0.1-0.1,0.3-0.2,0.4-0.3c-0.1,0-0.2,0-0.2,0.1C492.5,97.4,492.4,97.4,492.2,97.4z M493.4,96.8c0.2-0.2,0.4-0.3,0.8-0.4
	c0.3,0,0.5-0.2,0.6-0.4c-0.3-0.1-0.6-0.1-1,0.1C493.4,96.3,493.3,96.5,493.4,96.8z M493.6,97.1c0.2-0.1,0.5-0.2,0.8-0.2
	c0.3,0,0.5-0.2,0.5-0.4c-0.2,0.2-0.4,0.3-0.7,0.3C493.8,96.8,493.7,96.9,493.6,97.1z M498.5,95.6c0.2,0,0.4-0.1,0.6-0.4
	c-0.1,0.1-0.2,0.1-0.3,0.1C498.7,95.3,498.6,95.4,498.5,95.6z M511.9,105c-0.7-0.1-1.1-0.4-1.3-0.9c-0.1-0.5-0.2-1-0.1-1.6
	c0.1-0.5,0.3-1.1,0.5-1.7c0.2-0.6,0.4-1.1,0.4-1.6c0.4-1.1,0.8-2.2,1.1-3.3c0.4-1.1,0.8-2.2,1.3-3.3c0.1-0.6,0.3-1.1,0.5-1.6
	c0.3-0.5,0.5-1,0.7-1.6c1.4-4.2,3-8.2,4.6-12.1c1.7-3.9,3.5-7.6,5.4-11.1c0.1-0.3,0.2-0.5,0.3-0.8c0.1-0.2,0.2-0.4,0.5-0.6
	c0.3-0.6,0.6-1.2,0.8-2c0.2-0.7,0.6-1.3,1.1-1.9c2-3.6,4.1-7.2,6.3-10.7c2.2-3.5,4.4-7.1,6.6-10.7c1.1-1.9,2.2-3.8,3.3-5.7
	c1.1-1.9,2.2-3.8,3.3-5.9c0.2-1.3,0.7-2.4,1.5-3.3c0.8-0.9,1.6-1.8,2.5-2.8c0.5,0,0.9-0.1,1.3-0.4c0.3-0.2,0.7-0.3,1.1-0.2
	c0.2,0,0.5,0.1,0.9,0.3c0.4,0.2,0.7,0.4,0.9,0.6c0.7,0.5,1.4,1.2,2.1,2c0.7,0.9,1.3,1.6,2,2.3c5.4-1,10.7-2,15.8-3.1
	c5.1-1,10.7-1.6,16.7-1.7c0.8-0.1,1.6-0.1,2.5-0.1c0.8,0.1,1.7,0.1,2.6,0.2c0.4,0.4,0.7,0.6,0.8,0.7c0.2,0.1,0.4,0.3,0.7,0.8
	c-0.5,0.4-0.8,0.7-0.8,1c-0.1,0.3,0,0.8,0.2,1.6c-0.5,0-0.8,0.1-0.8,0.5c-0.1,0.3-0.1,0.7-0.1,1c-0.2,0.1-0.4,0.1-0.6,0.1
	c-0.2,0-0.4,0-0.5,0.2c-0.2,0.5-0.3,1.1-0.4,1.8c-0.1,0.7-0.3,1.3-0.8,1.8c0.2,0.7,0.2,1.1-0.1,1.3c-0.3,0.2-0.6,0.5-0.8,1
	c-0.3,0.1-0.5,0.2-0.6,0.4c-0.1,0.1-0.4,0.2-0.8,0.2c-1.3,1-2.7,1.7-4.1,2c-1.5,0.4-3,0.6-4.7,0.8c-0.4,0.1-0.8,0.2-1.1,0.4
	c-0.4,0.1-0.8,0.2-1.3,0.2H580c-0.6,0.1-1.2,0.2-1.8,0.3c-0.6,0.1-1.2,0.3-1.8,0.5c-1.6,0.3-3.1,0.6-4.5,1c-1.4,0.4-2.8,0.8-4.2,1.3
	c-0.6,0.2-1.2,0.4-1.6,0.5c-0.5,0.1-1.1,0.3-1.7,0.5c-1.2,0.4-2.5,0.7-3.8,0.9c-1.3,0.2-2.1,0.9-2.4,2.1c-0.2,0.1-0.3,0.2-0.4,0.4
	c-0.1,0.1-0.2,0.2-0.4,0.2c-0.8,2.2-2,4.3-3.7,6.1c-1.6,1.9-3,3.8-4.1,5.7c3.4-0.8,7-1.5,10.7-2.1s7.6-1.1,11.6-1.6
	c2-0.2,4-0.4,6.1-0.5c2-0.1,4.1,0,6.1,0.5c0,0.4,0.1,0.7,0.2,0.8c0.1,0.1,0.2,0.3,0.2,0.4c-0.2,0.2-0.4,0.3-0.5,0.1
	c-0.1-0.1-0.3-0.1-0.5-0.1c-0.5,0.2-0.9,0.5-1.3,0.8c-0.4,0.3-0.7,0.6-1.1,0.8c-0.2,0-0.3,0.1-0.3,0.1c0,0.1-0.1,0.2-0.3,0.3h-0.3
	h-0.2c-0.3,0.2-0.6,0.5-1,0.9c-0.4,0.4-0.5,0.8-0.4,1.2c0.7,0,1.3,0,1.9,0c0.5,0,1.1-0.1,1.7-0.3c-0.1,0.2-0.4,0.3-0.9,0.3v2.1
	c-0.3,0.1-0.7,0.2-1,0.2c-0.4,0.1-0.6,0.2-0.5,0.5c-0.3,0.2-0.7,0.3-1,0.3c-0.4,0-0.8,0.1-1,0.1c0,0.3,0.1,0.5,0.4,0.6
	c0.2,0.1,0.4,0.3,0.4,0.6c-0.8,0.3-1.7,0.5-2.5,0.7c-0.9,0.1-1.8,0.4-2.5,0.8c0,0.2,0,0.3,0.1,0.4c0,0.1,0,0.2-0.1,0.4
	c-0.8-0.1-1.7,0-2.6,0.1c-1,0.2-1.9,0.4-2.9,0.6c-2.8,0.3-4.9,1-6.3,1.9c-1.2,0.5-2.4,1-3.6,1.4c-1.2,0.4-2.5,0.8-3.9,1.1
	c-1,0.2-2,0.4-2.8,0.7c-0.9,0.3-1.8,0.4-2.5,0.5c-0.8,0-1.6,0-2.3,0s-1.6,0-2.6-0.1c-0.5,0-0.9,0-1.3,0c-0.4,0-0.8,0.1-1.3,0.3
	c-0.8,1-1.5,2-2,3.1c-0.6,1-1.1,2.1-1.7,3.2c-0.5,0.8-1,1.6-1.4,2.5c-0.4,0.9-0.8,1.7-1,2.5c-0.6,1.4-1.2,2.8-1.7,4.3
	c-0.5,1.5-1,2.9-1.6,4.4c-0.2,0.5-0.2,0.9,0.1,1c0.3,0.2,0.3,0.6,0,1.2c1-0.2,1.7-0.3,2.1-0.2c0.4,0.1,1-0.1,2-0.4l2.8-0.9l7.3-2.7
	c0.2,0,0.4-0.1,0.6-0.3c2.4-0.7,4.9-1.5,7.5-2.4c2.6-0.9,5.2-1.8,8-2.7c1.6-0.5,3.2-1,4.8-1.6c1.6-0.5,3.2-1.1,5-1.6
	c0.8-0.2,1.4-0.3,1.7-0.5c0.3-0.1,1-0.2,2-0.4l5.8-0.9c0.7-0.1,1.5-0.2,2.5-0.2c0.9,0,1.4,0.5,1.3,1.5c0,0.2-0.1,0.4-0.3,0.5
	c-0.2,0.1-0.2,0.3,0,0.6c-0.5,0-0.8,0.1-0.9,0.1c0.1,0.2,0.3,0.2,0.5,0.1c0.2-0.2,0.4-0.1,0.5,0.1c0.1,0.2,0.1,0.3-0.1,0.3
	c-0.2,0-0.3,0.1-0.5,0.1h0.9c-0.1,0.2-0.3,0.3-0.5,0.3c-0.2,0-0.4,0.1-0.6,0.3c-0.1-0.2-0.6-0.3-1.3-0.3c0,0.5,0.2,0.8,0.5,0.8
	s0.5-0.1,0.8-0.3c0.4,0.4,0.8,0.5,1.3,0.3c0.3,0,0.3,0,0.2,0.1c-0.2,0.1-0.2,0.1,0,0.2h0.8c0.1,0.3,0.1,0.5,0,0.7
	c-0.1,0.1-0.2,0.3-0.2,0.5c-0.7,0.1-1.2,0.4-1.6,0.8c-0.4,0.4-0.9,0.7-1.7,0.7c0,0.2,0.1,0.4,0.3,0.5c0.2,0.2,0.5,0.2,0.8,0.1
	c-0.1,0.1-0.2,0.2-0.4,0.2c-0.1,0.1-0.3,0.2-0.4,0.4c0,0.2,0.1,0.3,0.3,0.1c0.2-0.1,0.3,0,0.3,0.1c-0.7,0-1.3,0.1-1.7,0.5
	c0.2,0.3,0.5,0.4,1,0.2c0.5-0.2,0.8-0.1,1,0.1c-0.2,0.3-0.5,0.5-0.9,0.5c-0.4,0.1-0.8,0.1-1.2,0.2c-0.8,0.2-1.6,0.4-2.2,0.7
	c-0.7,0.3-1.3,0.5-1.8,0.7c-1.4,0.4-2.4,0.7-3,1c-0.6,0.3-1.5,0.6-2.5,1.1c0.2,0.1,0.4,0.1,0.8-0.1c0.3-0.1,0.6-0.2,0.9-0.1
	c-0.2,0.2-0.5,0.3-0.8,0.3c-0.4,0-0.7,0.1-1,0.1c-0.2-0.1-0.3-0.1-0.2-0.1c0.1,0,0,0-0.1,0c-1,0.1-2,0.4-2.9,0.8
	c-0.9,0.4-1.8,0.8-2.5,1.2c0.5,0.2,0.9,0.1,1.4-0.2c0.4-0.3,0.9-0.5,1.5-0.4c0.2,0,0.2,0,0.1,0c-0.1,0-0.2,0.1-0.2,0.1
	c0.3,0.1,0.6,0.1,0.8,0c0.2-0.1,0.6-0.1,1-0.1c-0.6,0.5-1.3,0.9-2,1.1c-0.8,0.3-1.5,0.5-2.3,0.7c0,0.2,0.1,0.3,0.4,0.1
	c0.2-0.1,0.4-0.1,0.4,0c-0.2,0.2-0.5,0.3-0.9,0.2c-0.4,0-0.7,0-0.9,0.1c-0.8,0.2-1.7,0.5-2.7,0.8c-1,0.4-2,0.7-2.9,1
	c-0.4,0.2-0.8,0.4-1,0.5c-0.3,0.2-0.6,0.3-0.9,0.5l1.2-0.3c0.2-0.1,0.4-0.2,0.6-0.4c0.2-0.1,0.3-0.2,0.5-0.1
	c-0.2,0.2-0.6,0.4-1.1,0.6c-0.5,0.2-0.9,0.4-1,0.5c-0.2,0-0.3,0-0.3-0.1c0-0.1-0.1-0.1-0.2-0.1c-0.5,0.5-1.2,0.8-1.9,0.8
	c-0.8,0-1.5,0.3-2,0.9c-0.5,0-1,0.1-1.4,0.4c-0.5,0.3-0.9,0.6-1.4,0.9c-1,0.2-1.9,0.5-2.8,0.9c-0.9,0.4-1.7,0.9-2.6,1.4
	c-0.3,0.2-0.7,0.4-1.1,0.6c-0.5,0.2-0.9,0.4-1.4,0.6l-3.8,1.6c-0.7,0.2-1.4,0.4-2,0.5c-0.7,0.1-1.3,0.4-2,0.7c-1,0.4-2,0.8-2.9,1.3
	c-1,0.5-1.9,0.9-2.9,1.3c-1.1,0.3-2.3,0.5-3.6,0.6c-1.3,0.1-2.5-0.1-3.6-0.6c-0.3-0.1-0.6-0.2-0.8-0.4c-0.2-0.2-0.6-0.3-1-0.3
	c-0.5-0.2-1.1-0.3-1.7-0.3c-0.6,0-1.1-0.3-1.3-0.9C514.5,109.2,512.5,107.7,511.9,105z M562.3,97.4c0,0.2,0.1,0.3,0.2,0.1
	c0.2-0.1,0.3-0.2,0.4-0.3c-0.1,0-0.2,0-0.2,0.1C562.6,97.4,562.5,97.4,562.3,97.4z M563.5,96.8c0.2-0.2,0.5-0.3,0.8-0.4
	c0.3,0,0.5-0.2,0.6-0.4c-0.3-0.1-0.6-0.1-1,0.1C563.5,96.3,563.4,96.5,563.5,96.8z M563.6,97.1c0.2-0.1,0.5-0.2,0.8-0.2
	c0.3,0,0.5-0.2,0.5-0.4c-0.2,0.2-0.4,0.3-0.7,0.3C563.9,96.8,563.7,96.9,563.6,97.1z M568.6,95.6c0.2,0,0.4-0.1,0.6-0.4
	c-0.1,0.1-0.2,0.1-0.3,0.1C568.8,95.3,568.7,95.4,568.6,95.6z M682.1,19.7c0-0.1,0-0.1,0.1-0.1l0.3-0.1c0.2-0.1,0.4-0.2,0.6-0.2
	l1.2,0.5c0.3,0.2,0.5,0.4,0.6,0.7c0.1,0.3,0.3,0.6,0.8,1c0.4,0.6,0.8,1.1,1.4,1.4c0.5,0.4,0.9,0.6,1.2,0.8c1.8,1,3,2.3,3.8,3.9
	c0.4,0.8,0.5,1.7,0.4,2.6c-0.1,1-0.4,1.8-0.7,2.6l-1,2.6c-0.2,0-0.3,0.1-0.2,0.2c0,0.1,0,0.2-0.2,0.2c-0.6,1.7-1.1,3.2-1.4,4.4
	c-0.4,1.3-0.7,2.5-1,3.6c-0.3,1.2-0.7,2.4-1.1,3.6c-0.4,1.3-1,2.7-1.8,4.3c-0.8,2-1.7,4-2.6,6.1c-1,2.1-1.9,4.1-2.8,6.1
	c-0.5,0.4-0.8,0.9-0.9,1.6c-0.1,0.7-0.4,1.2-0.9,1.6c-0.2,0.7-0.5,1.5-0.9,2.2c-0.4,0.8-0.8,1.8-1,2.9c-0.2,0.2-0.3,0.3-0.4,0.4
	c-0.1,0.1-0.2,0.1-0.4,0.2c0.2-0.7,0.5-1.2,0.9-1.7c-0.5,0.2-0.8,0.6-1,1.1c-0.2,0.5-0.4,0.9-0.7,1.2c0.1,0.3,0.1,0.7,0,1.1
	c0.2-0.1,0.3-0.3,0.2-0.5c-0.1-0.2,0-0.4,0.2-0.4c0.1-0.1,0.2-0.1,0.3,0c0.2,0,0.3,0,0.3-0.1c0,0,0-0.1,0.1-0.2
	c-0.4,1.3-1.1,2.8-2.1,4.4c0-0.4,0.2-0.9,0.5-1.6c0.3-0.6,0.5-1.2,0.6-1.6c-0.3,0.1-0.5,0.4-0.5,1c0,0.6-0.2,0.9-0.8,1.1
	c-0.2,0.8-0.5,1.8-0.8,3c-0.4,1.2-0.8,2.2-1.3,3.1c0.1,0,0.2,0,0.2-0.1c0-0.1,0.1-0.2,0.3-0.2c-0.7,1.3-1.2,2.8-1.6,4.4
	c-0.4,1.6-0.9,3.1-1.7,4.6c0.2-1.1,0.5-2.2,1-3.3c0.5-1.1,0.9-2.2,1.3-3.5c0-1.1,0.2-2.2,0.7-3.2c0.5-1.1,0.8-2.1,1-3.2
	c-0.2,0-0.4,0.1-0.5,0.4c-0.1,0.3-0.1,0.5,0.2,0.7c-0.4,0.2-0.6,0.5-0.5,0.8c0,0.4-0.1,0.6-0.4,0.8c-0.1,0.8-0.3,1.7-0.7,2.6
	c-0.4,1-0.6,1.8-0.7,2.6c-0.4,0.5-0.7,1.1-0.8,1.7c-0.1,0.6-0.3,1.2-0.5,1.6l0.1,0.1c-0.5,1.3-0.8,2.5-1,3.8c-0.2,1.2-0.5,2.4-1,3.5
	c0.2,0,0.3-0.1,0.3-0.4c0-0.2,0.1-0.4,0.3-0.5c-0.2,0.5-0.4,1-0.5,1.5c-0.1,0.5-0.2,1-0.2,1.5c0,0.2,0,0.3-0.1,0.4
	c-0.1,0.1-0.1,0.3-0.1,0.8c-0.1,0-0.1,0.1-0.1,0.1c0,0.1-0.3,0.1-0.8,0.1c-0.1,0.6-0.2,0.9-0.3,0.9c-0.1,0-0.2-0.1-0.3-0.2
	c-0.1-0.1-0.2-0.2-0.3-0.3c-0.1,0-0.2,0.2-0.2,0.8c-0.5,0.3-0.8,0.6-0.8,0.8c-0.1,0.1-0.1,0.1-0.1,0c0-0.1,0-0.1-0.1-0.1
	c-0.1,0.2-0.1,0.4-0.1,0.8c0,0.3,0,0.6-0.2,0.8c-0.2,0-0.3,0.1-0.3,0.3v0.1v0.2v0.4c0,0.3,0,0.4,0,0.4c0,0,0,0,0.2,0.2l-0.2,0.1
	c0,0.4-0.1,0.7-0.1,0.8c-0.1,0.1-0.1,0.5,0.1,1c-0.2,0.1-0.3,0.1-0.4-0.1c-0.1-0.1-0.3-0.1-0.8,0.1c0,0.1,0.1,0.1,0.4,0.1
	c0.2,0,0.2,0.1-0.2,0.1c-0.1,0.1-0.2,0.2-0.2,0.3c-0.1,0.1-0.2,0.2-0.4,0.2c0,0.2-0.1,0.4-0.2,0.4c-0.1,0.1-0.1,0.3,0.1,0.5
	c-0.8,0.3-1.3,0.8-1.3,1.5c-0.2,0-0.3-0.1-0.4-0.2c-0.1-0.1-0.1-0.1-0.2,0.1c-0.2,0.2-0.4,0.4-0.6,0.6c-0.2,0.2-0.5,0.4-0.9,0.6
	c-0.8,0.4-1.5,0.4-1.9-0.1c-0.5-0.5-1-0.7-1.5-0.8c-0.5-0.7-0.9-1.4-1.1-2c-0.2-0.6-0.4-1.2-0.4-1.9c-0.2-0.9-0.3-1.5-0.2-2
	c0-0.4,0.2-0.7,0.3-1c0.2-0.2,0.3-0.6,0.5-1c0.2-0.4,0.4-1.1,0.6-2c0.2-1,0.3-1.7,0.3-2.2c1-4,2.1-8,3.2-12.1
	c1.1-4.1,2.4-8,3.7-11.9c0.3-1.1,0.6-2.2,0.9-3.3c0.3-1.1,0.6-2,0.9-2.9c0.2-0.3,0.4-0.6,0.5-0.8c0.2-0.2,0.2-0.5,0.2-0.8
	c0.8-2,1.4-4,1.7-5.9c0.3-1.9,0.8-3.9,1.7-5.9h0.3c0.3-1.2,0.5-2.1,0.8-2.8c0.2-0.6,0.4-1.2,0.6-1.8c0.2-0.5,0.4-1.1,0.6-1.7
	c0.2-0.6,0.5-1.4,1-2.5c-1.7,2-3.3,3.9-4.7,5.7c-1.5,1.8-3.1,3.7-4.8,5.8c-1.8,2.1-3.7,4.3-5.8,6.8c-2.2,2.5-4.7,5.3-7.7,8.5
	c-0.8,1.1-1.6,2.2-2.5,3.3c-0.9,1.1-1.6,2.3-2.2,3.6c-0.5,0.7-0.9,1.3-1.3,1.6c-0.4,0.4-0.7,0.8-1,1.2c-0.4,0.4-0.7,0.9-1.1,1.3
	c-0.4,0.5-0.8,1.2-1.2,2.1c-1.2,1.7-2.4,3.4-3.6,5c-1.2,1.7-2.4,3.5-3.5,5.6c-0.1,0-0.2,0-0.2,0.1c-0.1,0.1-0.2,0.1-0.4,0.1
	c-0.6,1.3-1.5,2.1-2.7,2.4h-3.3c-0.5-0.2-1.1-0.3-1.7-0.3c-0.7,0-1.2-0.1-1.7-0.3c-0.2-0.1-0.4-0.2-0.5-0.3
	c-0.1-0.1-0.3-0.2-0.5-0.2c-0.5-0.3-1-0.5-1.4-0.6c-0.4-0.1-0.7-0.4-0.8-0.9v-0.8c-1.4-4.9-2.1-10.1-2-15.5
	c0.1-5.4,0.2-10.7,0.5-15.8c0-0.8,0-1.6,0.1-2.3c0-0.8,0-1.5-0.2-2.2c-0.1,0-0.3,0.3-0.6,0.8l-2.7,5.7c0,0.2,0,0.3-0.1,0.3
	c-0.1,0,0,0.1,0.1,0.3c-0.2,0-0.3,0.1-0.3,0.1c0,0.1-0.2,0.1-0.6,0.1c-0.2,0.5-0.4,1-0.5,1.6c-0.1,0.6-0.4,1-0.8,1.3v0.8
	c-0.2,0.2-0.4,0.4-0.5,0.6c-0.1,0.2-0.3,0.4-0.5,0.6c0,0.1,0,0.2,0.2,0.3h0.2h-0.5c0.2,0.1,0.2,0.2,0,0.3c-0.2,0.1-0.2,0.3,0,0.4
	c-0.2,0.2-0.3,0.7-0.3,1.4c-0.4,0-0.6,0.2-0.7,0.5c-0.1,0.4-0.1,0.7-0.2,1h0.2c-0.1,0.2-0.3,0.4-0.5,0.5c-0.2,0.1-0.3,0.3-0.3,0.6
	h0.3c-0.2,0.3-0.4,0.7-0.5,1.3c-0.1,0.6-0.4,1-0.9,1.3c0.5,0.2,0.5,0.4,0.2,0.6c-0.4,0.2-0.5,0.4-0.3,0.6h-0.5
	c0.2,0.3,0.2,0.6,0.1,0.8c-0.2,0.2-0.3,0.4-0.4,0.6v0.1c-0.5,0.3-0.8,0.9-0.8,1.7c0,0.2,0,0.3,0.1,0.1c0-0.1,0.2-0.1,0.4-0.1
	c0,0.2-0.1,0.3-0.3,0.2c-0.2,0-0.4,0-0.4,0.2c0.3,0.3,0.4,0.4,0.4,0.3c-0.2,0.2-0.4,0.5-0.4,0.9c-0.1,0.4-0.4,0.8-0.8,1
	c-0.2,0.4-0.4,0.8-0.5,1.3c-0.2,0.5-0.3,0.9-0.4,1.4l0.3,0.1c-0.1,0.1-0.2,0.1-0.2,0c-0.1-0.1-0.1,0-0.1,0.1
	c-0.7,1.2-1.3,2.4-1.7,3.5c-0.4,1.2-0.8,2.3-1,3.4c0.2,0.1,0.2,0.2,0.2,0.2c-0.1,0-0.2,0.1-0.2,0.1c-0.4,0.1-0.6,0.6-0.6,1.4
	c-0.5,0.3-0.8,1-0.8,2.1c-0.2,0.8-0.5,1.6-0.8,2.5c-0.3,0.9-0.7,1.7-1.2,2.5c0.2-1.5,0.5-2.9,1-4c0.5-1.2,0.7-2.4,0.8-3.8
	c0.1-0.3,0.2-0.5,0.5-0.8c0.2-0.1,0.2-0.2,0-0.2c-0.2,0-0.3,0-0.2,0c0.3-0.8,0.5-1.4,0.7-1.9c0.1-0.5,0.2-1.1,0.2-2
	c-0.2,0.2-0.3,0.6-0.4,1.1c-0.1,0.5-0.3,0.8-0.7,0.9c0-0.5,0.1-1,0.3-1.4c0.2-0.4,0.3-0.9,0.5-1.3c0.2-1.1,0.5-2,0.9-2.6
	c0.4-0.6,0.5-1.4,0.3-2.2c-0.5,0.2-0.8,0.6-0.8,1.1c0,0.6-0.2,0.9-0.5,1.1c-0.2,1.3-0.5,2.2-0.8,2.8c-0.4,0.6-0.6,1.4-0.7,2.5
	c-0.2,0-0.3,0.1-0.2,0.3c0,0.2,0,0.4-0.2,0.5c0,0.5-0.1,0.9-0.4,1.1c-0.3,0.3-0.4,0.6-0.5,1c-0.5,0.8-0.8,1.7-0.8,2.6
	c-0.1,1-0.3,1.9-0.7,2.9v0.1c-0.4,0.3-0.7,0.7-0.8,1.3c-0.1,0.6-0.4,0.9-0.8,1.1c0.2-0.6,0.3-1.1,0.2-1.5c-0.1-0.4-0.1-0.7-0.2-0.9
	h-0.3c-0.2,0.2-0.4,0.4-0.5,0.6c-0.1,0.2-0.1,0.6,0.2,1c-0.2,0.3-0.4,0.5-0.5,0.7c-0.1,0.1-0.4,0.2-0.8,0.2c0,0.3,0,0.5,0.1,0.5
	c0,0.1,0,0.2-0.1,0.4c0,0.1,0,0.1,0.1,0.1c0,0,0.1,0,0.1,0.1c0,0.4-0.3,0.6-0.9,0.6c0-0.6,0.2-1,0.5-1.2c-0.2-0.3-0.4-0.3-0.6-0.1
	c-0.2,0.3-0.2,0.4,0,0.4c-0.2,0.2-0.4,0.3-0.6,0.3c-0.2,0.2-0.3,0.4-0.2,0.5c0,0.1,0,0.3-0.1,0.5c-0.4,0-1,0-1.9,0.1
	c-0.8,0.1-1.7,0.1-2.6,0.1s-1.7,0-2.5,0c-0.8,0-1.4,0-1.7-0.2c0-0.5,0-0.8-0.1-1c-0.1-0.2-0.2-0.3-0.3-0.5c-0.5-1.5-0.6-2.9-0.4-4.3
	c0.2-1.4,0.5-2.7,0.9-3.9l3.9-12.1c0.5-1.7,1-3.1,1.6-4.4c0.6-1.2,1-2.5,1.3-3.9c0.1,0,0.2,0,0.2-0.1c0-0.1,0.1-0.1,0.3-0.1
	c0.9-2.8,1.9-5.6,3-8.2c1.1-2.7,2.3-5.3,3.6-8c1.7-4.2,3.4-8.2,5.2-12.1c1.7-3.8,3.4-7.8,4.9-11.8c0.2-1.1,0.5-2,0.9-2.8
	c0.4-0.8,0.8-1.7,1.4-2.9c-0.1-0.2-0.1-0.4,0.1-0.5c0.2-0.2,0.2-0.3,0.2-0.5c0.2-0.5,0.5-0.9,0.8-1.3c0.3-0.3,0.5-0.9,0.6-1.6
	c0.8-0.2,1.2-0.6,1.2-1.4c0.5-0.3,1.1-0.3,2,0c0,0.4,0.1,0.7,0.3,0.9c0.2,0,0.5,0,0.8,0.1c0.3,0.1,0.5,0.1,0.8,0.1
	c0.2,0,0.6,0,1.2,0.1c0.6,0.1,1.3,0.1,2,0.1s1.4,0,2,0s1,0,1.2,0l2.2,0.6c0.2,0,0.5,0.1,0.8,0.5c0.3,0.3,0.6,0.5,0.8,0.6
	c0.4,0.3,0.8,0.5,1.1,0.6c0.3,0.1,0.4,0.3,0.4,0.5c0.1,0.3,0.3,0.6,0.6,0.8c0.3,0.2,0.5,0.4,0.8,0.6c0,0.3,0.2,0.5,0.5,0.7
	c0.3,0.1,0.6,0.3,0.7,0.5c0.5,0.5,0.9,1.3,1.1,2.2c0.2,1,0.5,1.9,0.7,2.6c0.8,2.4,1,4.9,0.8,7.6c-0.3,2.7-0.6,5.3-0.8,8
	c-0.2,3.1-0.4,6.3-0.5,9.7c-0.1,3.4-0.3,6.7-0.5,10.1c0.6-0.5,1.1-1.1,1.5-2c0.4-0.8,0.9-1.4,1.5-1.9v-0.3
	c3.4-4.8,6.8-9.4,10.3-13.9s7.2-8.9,11.2-13.4c0.8-0.9,1.4-1.5,1.8-2c0.4-0.4,0.8-0.8,1-1s0.6-0.6,1-1c0.4-0.3,1-1,1.8-1.9
	c0.8-0.6,1.5-1.2,2-1.7c0.5-0.5,1.1-1.1,1.6-1.7c1.9-1.4,3.9-3,6.1-5c2.2-1.9,4.4-3.5,6.5-4.6c0.3-0.3,0.8-0.5,1.7-0.5
	c0.4,0.4,1,0.6,1.7,0.5c0.8,0,1.1-0.4,1.1-1c0.6-0.1,1-0.3,1.1-0.7c0.2-0.3,0.4-0.5,0.8-0.5c0.2-0.1,0.2-0.2,0.1-0.4
	C682.2,19.9,682.1,19.8,682.1,19.7z M600.5,91.8c-0.1,0.1-0.2,0.1-0.4,0.1C600.3,92,600.4,91.9,600.5,91.8z M661.7,105.3l0.3,0.1
	C661.9,105.4,661.8,105.3,661.7,105.3z M664.9,99.5c0.1,0,0,0-0.2,0.1c-0.2,0.1-0.1,0.1,0.3,0.1v-0.2H664.9z M664.9,97.1l0.1-0.3
	C664.9,96.9,664.9,97,664.9,97.1z M666.8,100.7l0.3,0.1c-0.2,0.1-0.3,0.2-0.2,0.4c0,0.1,0,0.2-0.2,0.2
	C666.8,101.1,666.8,100.9,666.8,100.7z M667.1,95.7c0-0.1,0-0.1,0.1-0.1c0,0,0.1,0,0.1-0.1v0.1L667.1,95.7z M668,93.5
	c-0.1,0.3-0.2,0.6-0.3,0.9c-0.1,0.3-0.3,0.7-0.5,1v-0.8c0.2,0,0.2,0,0.2-0.1c-0.1-0.1-0.1-0.1,0.2-0.1c0-0.2,0-0.5,0.1-0.9
	c0.1-0.4,0.2-0.8,0.3-1.3c0-0.1,0-0.2,0.2-0.2c0.1,0,0.2,0,0.2-0.1c0.3,0.1,0.3,0.3,0,0.5C668,92.6,667.9,93,668,93.5z M669.1,92.6
	c0.2,0,0.2,0.1,0.1,0.2c-0.1,0.1-0.2,0.2-0.3,0.2v-0.1C668.9,92.7,669,92.6,669.1,92.6z M669.4,92.1V92V92.1z M669.7,91.1
	c0.1,0.1,0.1,0.2,0,0.3c-0.1,0.1-0.2,0.3-0.2,0.4c-0.1-0.2-0.1-0.3,0-0.4C669.6,91.3,669.7,91.2,669.7,91.1z M673.3,78.8
	c-0.1,0.5-0.2,1-0.4,1.4c-0.1,0.5-0.3,0.9-0.4,1.3c0-0.1,0-0.1,0.2-0.1c0,0.6-0.2,1-0.5,1.1c0.2,0,0.3,0,0.4-0.2
	c0-0.1,0.1-0.1,0.2-0.1c-0.2,0.9-0.6,1.7-1.1,2.4c-0.6,0.7-0.8,1.8-0.8,3.2c-0.5,0.3-0.8,0.7-0.8,1.2c-0.1,0.5-0.2,1.1-0.5,1.6
	c0.2-1.8,0.7-3.6,1.4-5.3c0.8-1.7,1.4-3.6,1.9-5.6c0.2,0,0.3-0.1,0.2-0.3C673,79,673.1,78.9,673.3,78.8z M672.1,85.5
	c-0.1-0.2-0.1-0.3-0.1-0.5c0-0.1,0.1-0.2,0.1-0.3V85.5z M672.7,77.6l-0.3,0.1C672.5,77.7,672.6,77.7,672.7,77.6z M673.3,78.8
	c0-0.1-0.1-0.1-0.1-0.1c-0.1,0.1-0.2,0-0.2-0.1c0-0.2,0-0.2,0.1-0.2c0,0.1,0.1,0.2,0.2,0.2V78.8z M673.6,77.4c0.2,0,0.1,0.1-0.2,0.5
	c0-0.1,0-0.2,0.1-0.2C673.5,77.6,673.6,77.5,673.6,77.4z M674.9,73.2c0-0.2,0-0.3,0.2-0.4c0,0.1,0.1,0.1,0.2,0.1
	c0.2,0,0.2,0,0.2,0.1c-0.2-0.1-0.3-0.1-0.4,0.1C675.1,73.2,675,73.2,674.9,73.2z M695.3,99.5v0.3c0.1,1-0.1,1.6-0.6,1.9h0.1
	l-0.3,0.3c-0.3,0.3-0.5,0.6-0.6,0.8c-0.1,0.2-0.3,0.6-0.6,1c-0.3,0.3-0.6,0.7-0.9,1.3c-0.3,0.6-0.7,0.9-1.2,1.1v-0.1
	c-0.5,0.3-0.8,0.6-0.9,0.8c-0.1,0.3-0.3,0.5-0.5,0.8c-0.1,0.2-0.2,0.4-0.3,0.6c-0.1,0.2-0.4,0.4-0.8,0.5c-0.6,0-0.9-0.1-0.9-0.5
	c-0.3,0.5-0.7,0.8-1.2,0.8c-0.1,0.6-0.4,1-0.9,1.1c-0.3,0.3-0.8,0.5-1.3,0.6c-1.1,0-1.3-0.1-0.5-0.4h-0.6c-0.2,0.4-0.3,0.8-0.2,1.2
	c-0.3,0-0.5,0.1-0.6,0.2c-0.6,0.2-0.9,0.1-0.9-0.2c-0.8,0-1.7,0-2.8,0c-1,0-2.1,0-3.1,0s-2,0-2.8-0.1c-0.8,0-1.3-0.1-1.5-0.2
	l-0.6-0.9c0.2-1.8,0.5-3.4,1-4.8c0.5-1.4,0.9-2.6,1.4-3.8c0.1,0,0.2-0.1,0.2-0.4c0.1-0.3,0.1-0.5,0.2-0.8c0.4-0.6,0.8-1.3,1.2-2
	c0.4-0.8,0.9-1.5,1.3-2.3v0.1c0.1-0.4,0.2-0.7,0.4-0.9c0.2-0.2,0.3-0.5,0.5-0.8c0.2-0.2,0.4-0.5,0.5-0.8c0.1-0.3,0.2-0.7,0.3-1
	c0.5-0.8,1-1.6,1.5-2.5c0.5-0.8,0.9-1.7,1.2-2.5l2.4-3.6l-2.7,0.3c-0.5,0.1-1.1,0.2-1.7,0.2c-0.6,0.1-1.2,0.1-1.8,0.1
	c-1.9,0-3.4-0.4-4.5-1.2l0.1-0.1v-0.1v-0.1c0-0.1,0-0.1-0.1-0.1c0,0-0.1,0-0.1-0.2l-0.3-0.8c0-0.2,0.1-0.4,0.4-0.7
	c0.2-0.2,0.6-0.4,1-0.5c0.9,0,1.5-0.1,1.7-0.5c-0.5-0.1-1-0.2-1.5-0.3c-0.5-0.1-0.8-0.2-1.1-0.5c-0.8-0.1-1.3-0.2-1.6-0.3
	c-0.3-0.1,0.6-0.1,2.5-0.1c0.1,0,0.1,0,0-0.1c-0.1,0,0,0,0.2,0.1v-0.2c0-0.2,0.1-0.4,0.4-0.6c0.3-0.5,0.8-0.8,1.4-1.1l0.5-0.3
	c0.2,0,0.5,0,0.8,0c0.4,0,0.6,0.1,0.8,0.1c1.4-0.2,2.9-0.5,4.7-0.9c1.7-0.4,3.3-0.9,5-1.6l2.2-0.6c3.2-4.8,6.5-9.8,10-14.9
	s7-10,10.6-14.7c0.8-1.1,1.6-2.3,2.5-3.6c0.9-1.3,1.8-2.5,2.7-3.6c0.8-1.2,1.7-2.4,2.7-3.8c1-1.3,1.9-2.6,2.8-4.1h0.2l1.9-1.9
	c0.4-0.6,0.9-1.3,1.5-2c0.6-0.8,1.1-1.7,1.5-2.8c0.3-0.3,0.8-0.6,1.7-0.9c0.2-0.2,0.5-0.3,0.8-0.4c0.3-0.1,0.5-0.2,0.8-0.5l1.3-0.9
	c0.3-0.3,0.8-0.5,1.7-0.6h1.5c0.7-0.2,1.4-0.3,2.1-0.4c0.7,0,1.2,0.1,1.5,0.4c1.1-0.4,2.3-0.4,3.6,0c0.2,0,0.5,0,0.9,0.1
	c0.4,0.1,0.7,0.1,0.9,0.1c0.4,0,0.9,0.6,1.7,1.6l0.1,0.2c0.7,0.3,1.4,0.4,2,0.1c0.9-0.1,1.7-0.1,2.4,0c0.6-0.1,1.1,0.2,1.5,0.8
	c0.4,0.7,0.7,1.2,0.9,1.7c0.2,0.7,0.3,1.7,0.5,3c0.1,1.3,0.2,2.5,0.3,3.5c0,0.2,0,0.4,0.1,0.5c0,0.1,0.1,0.3,0.1,0.5V36
	c-0.2,1.8-0.3,3.5-0.3,5.2s0,3.4,0,5.2c0,1.1-0.1,2.2-0.2,3.4c-0.1,1.2-0.3,2.3-0.5,3.4c-0.2,1.1-0.3,2.1-0.4,3.1
	c-0.1,1-0.1,2-0.1,3.1c0.6,0,1.2,0,1.8-0.1c0.6,0,1.1-0.1,1.6-0.1c1.5-0.2,2.7-0.3,3.7-0.5c0.9-0.1,2.2,0,3.7,0.1
	c0.3,0,0.5,0.1,0.6,0.3c0.1,0,0.2,0,0.2,0.1c0,0.1,0.1,0.1,0.2,0.1c0.3,0.1,0.7,0.3,1.2,0.4c0.5,0.2,0.8,0.6,0.8,1.1l-0.6,0.9
	l-1-0.8c0.2,0.4,0.5,0.7,0.8,1c0.3,0.3,0.3,0.5,0.2,0.8l-0.6-0.1v0.3h-0.3v0.3c0,0.1,0,0.2-0.1,0.3c-0.1,0.1-0.1,0.2-0.1,0.3v0.3
	c-0.1,0-0.1,0.1-0.1,0.3c0,0.2-0.1,0.1-0.2-0.3l-0.3,1.5c-0.1,0.1-0.2,0.1-0.3,0.1c-0.1,0-0.2,0-0.2,0.1c-0.1,0.1-0.2,0.1-0.4,0.1
	c-0.1,0-0.2,0-0.2,0.1c-0.1,0.1-0.2,0.1-0.4,0.1l-0.3-0.1c-0.3,0-0.6-0.1-0.8-0.3c-0.2,0-0.4,0-0.5,0.1c-0.1,0.1-0.2,0.1-0.3,0.1
	c-0.2,0-0.4,0-0.7,0.1c-0.3,0.1-0.5,0-0.7-0.1c-0.1,0-0.1,0-0.1,0.1c0,0.1-0.1,0.1-0.2,0.1c-0.9,0-1.5,0.1-1.8,0.4
	c-0.3,0.3-0.9,0.6-1.8,1.1l-1.7,0.4l-0.1,0.6c-0.3,0-0.5,0.1-0.6,0.2c-0.1,0.1-0.3,0.3-0.5,0.4v-0.1l-0.1,0.3c0,0.2,0,0.4-0.1,0.5
	c-0.1,0.1-0.1,0.2-0.1,0.3v0.3c-0.2,0.7-0.3,1.3-0.3,1.9c0,0.6,0.1,1.2,0.3,2c0,0.1-0.1,0.2-0.2,0.4c-0.2,0.1-0.2,0.3-0.2,0.4
	l-0.6,0.6v8.1c0,0.3,0,0.3-0.1,0c-0.1-0.3,0-0.6,0.1-0.9c-0.2,0.4-0.3,0.8-0.3,1c0,0.4-0.2,0.9-0.6,1.5v0.2l0.2,0.3
	c0.2,0.5-0.1,1-0.8,1.5c0-0.4,0-0.9-0.1-1.4c-0.1-0.5-0.1-0.9-0.1-1.1c-0.1-0.5-0.1-0.9-0.1-1.3c0-0.3,0-0.8,0-1.3h-0.2
	c0-0.4,0-0.7-0.1-0.9c-0.1-0.2-0.1-0.5-0.1-0.8c-0.2-1-0.3-1.8-0.3-2.4h-0.1c-0.1,0.2-0.1,0.4-0.1,0.4c0,0.1,0.1,0.2,0.1,0.3
	c0,0.3,0,0.6,0.1,0.8c0.1,0.2-0.1,0.6-0.6,1c-0.4-0.3-0.6-0.8-0.6-1.5v1.2c-0.1,0.5-0.2,1.1-0.2,1.9s-0.1,1.4-0.3,1.9v0.3h0.1v2.9
	c0,0.1,0,0.2,0.1,0.2c0,0.1,0.1,0.2,0.1,0.4c0.2,1.4,0.2,2.8,0,4c0,0.1-0.2,0.3-0.5,0.6c-0.1,0.4-0.1,0.8-0.1,1.3
	c0,0.5,0.1,0.8,0.2,1.1l0.3,2c0-0.4,0.2-0.8,0.6-1.4l0.2-0.1c0-0.3,0.3-0.7,0.9-1.2v1.4c0.3,0.2,0.4,0.5,0.4,0.9
	c0,0.4-0.1,0.7-0.3,0.9c0,0.3,0,0.6,0.1,0.8c0,0.2,0.1,0.4,0.1,0.6c0.1,0.6,0.1,1.3,0.1,2c-0.1,0.7-0.2,1.3-0.4,1.6h-0.3
	c-0.1,0.3-0.1,0.8-0.1,1.5c0,0.4,0,0.9-0.1,1.6c-0.1,0.7-0.2,1.4-0.4,2.2l-0.3-0.8v0.8c0,0.2-0.1,0.3-0.2,0.4
	c-0.1,0.1-0.1,0.1-0.1,0.2h-0.5c-0.4,0.1-0.6,0.8-0.6,2.1c-0.4,0-0.7,0.1-0.9,0.3c-0.2,0.2-0.4,0.4-0.5,0.5l0.6,0.4
	c0.2,0.2,0.2,0.5,0.2,0.8c-0.1,0.4-0.2,0.6-0.2,0.8c-0.1,0.2-0.1,0.5-0.1,0.9l-0.8-0.8c0,0.6-0.1,0.8-0.2,0.8
	c-0.1-0.1-0.5,0.1-1,0.8h-2.1c-0.7-0.6-1.2-1.1-1.4-1.4c-0.2-0.3-0.4-0.7-0.4-1c-0.1-0.3-0.1-0.8,0-1.4c0-0.5,0-1.4-0.1-2.5l-0.6-3
	c-0.4-3.8-0.6-7.7-0.7-11.9c-0.1-4.1-0.1-8.2-0.2-12.3c0-1.6,0-3.1,0-4.6s-0.1-3-0.2-4.5c-0.9-0.3-1.6-0.3-2.1,0
	c-0.3,0.1-0.6,0.2-0.8,0.2c-0.2,0.1-0.5,0.1-0.9,0.1c-1.2,0.2-2.5,0.5-4,1s-3,0.9-4.3,1.3c-0.1,0-0.2,0-0.3,0.1
	c-0.1,0.1-0.2,0.1-0.4,0.1V75c-0.3-0.6-0.5-0.9-0.5-1.1c-1.2,0.3-2.3,0.8-3.3,1.5v-0.3c-0.4,0.6-0.8,0.6-1.2,0
	c0,0.2-0.1,0.3-0.3,0.4c-0.2,0.1-0.4,0.1-0.5,0.1c-0.4,0.4-1,0.6-2,0.6c-0.1,0.1-0.2,0.2-0.3,0.2c-0.2,0.1-0.4,0.2-0.5,0.3
	c-0.1,0.1-0.4,0.2-0.7,0.3c-0.2,0-0.5,0-0.8,0.1c-0.4,0.1-0.7,0.2-1,0.4l-0.9,0.6l-0.3-0.8l0.6-0.3l-2.1,0.8
	c-0.3,0.3-0.5,0.5-0.6,0.5c-0.1,0-0.3,0.4-0.6,1c-0.2,0.3-0.4,0.6-0.5,0.9c-0.2,0.3-0.3,0.6-0.4,0.9c-0.9,0.7-1.4,1.5-1.5,2.2
	l-1.1,0.9c0.5,0,0.8,0,1.1-0.1c-0.5,0.4-0.8,0.8-1,1.1c-0.1,0.4-0.3,0.7-0.5,1.1c-0.4,0.5-0.7,0.9-1,1.3c-0.3,0.4-0.6,0.7-1.1,1.1
	v-0.1c-0.3,0.3-0.6,1-0.9,1.9v-0.3c-0.1,0.7-0.3,1.3-0.6,1.8c-0.5,0-0.8,0-0.8-0.1l-0.3,1.1c-0.5,0-0.9,0.1-1.3,0.2
	c-0.4,0.2-0.5,0.4-0.5,0.7l0.1-0.1c0.1-0.1,0.2-0.2,0.3-0.2c0.1,0,0.2,0,0.4-0.1c0,0.1,0,0.3,0,0.5c0,0.3,0,0.5,0.2,0.7
	c-0.3,0.9-0.7,1.6-1,2.1c-0.4,0.5-0.9,1-1.4,1.5L695.3,99.5z M685.1,108.9c0.1-0.1,0.2-0.2,0.2-0.5h-0.2l-0.1,0.2L685.1,108.9z
	 M688,108l-0.2,0.1h0.2V108z M691,102.9l-0.3,1l-0.8,1.1h0.5l-0.1,0.6l1.3-2.2v-0.5H691z M696.2,93.9c0-0.1,0-0.1,0.1-0.1
	c0.1,0,0.2-0.1,0.3-0.3c0-0.9,0.3-1.7,1.1-2.5c-0.5,0.5-1,1-1.4,1.6c-0.4,0.6-0.9,1.3-1.3,2.1c-0.3,0.1-0.5,0.4-0.5,0.8H694V95
	c-0.1,0.1-0.2,0.3-0.2,0.6c-0.5,0.4-0.9,1.2-1.2,2.2c-0.5,0.2-0.8,0.4-1,0.7c-0.2,0.3-0.3,0.5-0.4,0.8l0.3-0.6v1.2l0.2-0.6
	c0.5-0.5,0.9-1,1.2-1.6c0.3-0.5,0.6-1.2,1.1-2h0.6v0.6l0.8-0.4v-0.5l-0.3-0.1c0.2-0.3,0.3-0.5,0.5-0.8
	C695.5,94.3,695.8,94.1,696.2,93.9z M691.6,96.5c0,0.4-0.1,0.6-0.3,0.6v0.3l0.1-0.2c0.1-0.2,0.2-0.4,0.2-0.6c0-0.2,0.1-0.3,0.2-0.5
	L691.6,96.5z M693.7,100.5v0.3l0.5-0.9v-0.1c-0.2,0.2-0.3,0.4-0.3,0.5S693.7,100.5,693.7,100.5z M694.4,87.2
	c-0.3,0.2-0.4,0.5-0.4,0.8c0-0.1,0-0.1,0.1-0.1C694.1,87.6,694.2,87.4,694.4,87.2z M694.1,94.2c-0.1,0.1-0.1,0.3-0.1,0.5
	C694,94.5,694,94.3,694.1,94.2z M694.6,93.5c-0.1,0.2-0.2,0.3-0.3,0.4c-0.1,0.1-0.2,0.2-0.2,0.4c0-0.1,0-0.2,0.2-0.3
	C694.3,93.8,694.5,93.7,694.6,93.5z M696.2,91.1l0.4-0.6v-0.3L696.2,91.1z M697,89.6l0.8-0.6l0.3-1L697,89.6z M698,83.6
	c-0.2,0.2-0.3,0.4-0.3,0.6l0.6-0.6H698z M699.1,82.1h-0.2v0.1h0.2V82.1z M701.6,85.8c-0.3,0.4-0.7,0.9-1,1.4c-0.4,0.6-0.8,1.1-1,1.6
	l0.3-0.1l1-1h-0.3c0.3-0.3,0.5-0.6,0.6-0.9C701.2,86.4,701.4,86.1,701.6,85.8z M718.3,66.6c3-0.7,6-1.4,8.9-2c2.9-0.6,6-1.5,9.1-2.6
	c0.2-1.8,0.3-3.6,0.3-5.5c0-1.8,0-3.8,0.2-5.8c0-1.1,0.1-2.1,0.2-2.9c0.2-0.8,0.2-1.8,0.2-2.9c-0.1-0.2-0.1-0.6-0.1-1.4
	c0-0.2,0-0.4,0-0.7c0-0.2-0.2-0.4-0.5-0.5c0-0.2-0.5,0.4-1.4,1.7c-1,1.4-1.8,2.5-2.6,3.5l-3.2,3.9c-0.2,0.4-0.3,0.7-0.4,0.8
	c-0.1,0.1-0.1,0.3-0.1,0.5c-0.5,0.3-0.9,0.7-1.1,1.1c-0.2,0.5-0.6,0.9-1,1.4l-1,1.2v-0.1c-0.2,0.9-0.4,1.5-0.6,1.6
	c-0.7,0.4-1.2,0.9-1.5,1.5l-2.1,2.2l-0.8,1.6c-0.1,0.2-0.3,0.5-0.5,0.8c-0.2,0.3-0.4,0.6-0.4,0.8c-0.3,0.2-0.6,0.4-0.8,0.7
	C718.8,65.8,718.6,66.1,718.3,66.6z M730.4,70.5v0.1l-0.1,0.6V71l0.1-0.1v-0.1V70.5z M741.8,99.2c0,0.1,0,0.1,0.2,0H741.8z
	 M743.2,92c-0.1,0.2-0.1,0.4-0.1,0.7c0,0.3,0,0.4,0,0.5c0.2,0,0.3-0.3,0.3-0.9c0-0.1,0-0.1-0.1-0.1C743.2,92.1,743.2,92.1,743.2,92z
	 M743.9,82.1v0.5l0.5-0.1c0.1-0.7,0.2-1.4,0.2-2c0-0.6,0.2-1.2,0.4-1.8c-0.1,0.1-0.2,0.1-0.3,0.1c-0.1,0-0.2,0.1-0.3,0.1
	c-0.2,0.1-0.3,0.2-0.2,0.2c0,0.1,0,0.1-0.2,0.1c0,0.2,0,0.5,0,0.9c0,0.4-0.1,0.7-0.1,0.9c0,0.2,0,0.4,0.1,0.6
	C743.9,81.8,743.9,82,743.9,82.1z M744.7,86.4c0-0.1,0-0.2-0.1-0.4c-0.1-0.1,0-0.4,0.1-0.7l-0.1,0.3c0,0.2,0,0.3-0.1,0.4
	c-0.1,0.1-0.1,0.2-0.1,0.4c-0.1,0.5-0.2,1-0.3,1.6c-0.1,0.6-0.2,1.1-0.2,1.7l0.3-0.1v-0.3c0-0.3,0-0.5,0.1-0.8
	C744.4,87.9,744.4,87.2,744.7,86.4z M838.1,14.7c0.2,0.4,0.3,0.7,0.3,0.8c1.1,0.2,2,0.5,2.8,0.8c0.8,0.3,1.4,0.7,2,1.1
	c0.1,0.2,0.2,0.3,0.2,0.4c0,0.1,0.1,0.2,0.2,0.5c1.1,0.2,2.1,0.8,2.9,1.8c0.8,1,1.5,2.1,1.9,3.3c0.2,0.7,0.2,1.3,0.1,1.9
	c-0.2,0.6-0.2,1.1-0.2,1.7c-0.5,0.4-0.7,0.9-0.6,1.5c-0.2,0.2-0.5,0.6-0.8,1c-0.3,0.5-0.5,1-0.6,1.4c-0.8,0.9-1.5,1.9-2,2.9
	c-0.5,1-1,2.1-1.5,3.1c-0.3,0.5-0.6,1-0.8,1.4c-0.2,0.5-0.5,0.9-0.8,1.4c-0.4,0.7-0.7,1.3-1,1.9c-0.3,0.6-0.5,1.3-0.8,2.1
	c-0.5,0.6-0.9,1.2-1.1,1.8c-0.3,0.6-0.5,1.2-0.7,1.7c-0.2,0.6-0.5,1.1-0.8,1.6c-0.3,0.5-0.8,1-1.4,1.6v0.5c-0.5,0.6-1,1.3-1.4,2.1
	c-0.5,0.8-0.9,1.5-1.3,2c0.1,0.5,0,1-0.3,1.4c-0.3,0.5-0.7,0.9-1,1.3c-0.2,0.1-0.4,0.3-0.5,0.7c-0.1,0.4,0,0.6,0.3,0.8h-0.4
	c0.2,0.3,0.2,0.5,0,0.7c-0.2,0.1-0.2,0.3,0.1,0.4c-0.2,0.2-0.4,0.4-0.5,0.5c-0.1,0.1-0.2,0.3-0.4,0.4c0,0.1-0.2,0.3-0.5,0.6h0.6
	c-0.1,0.4-0.3,0.8-0.5,1c-0.3,0.3-0.4,0.7-0.5,1.1c-0.2,0.3-0.3,0.6-0.2,1c0,0.4,0,0.7-0.2,1c0,0.1-0.1,0.2-0.2,0.2
	c-0.2,0.1-0.2,0.1-0.2,0.2c-0.2,0.4-0.3,0.8-0.3,1c0,0.3-0.1,0.6-0.1,0.8c-0.1,0.3-0.3,0.6-0.5,0.8c-0.3,0.2-0.3,0.5-0.1,0.9
	c-0.3,0.3-0.4,0.4-0.3,0.4c-0.2,0.7-0.4,1.2-0.7,1.6c-0.3,0.4-0.5,0.7-0.7,1c-0.2,0.3-0.4,0.6-0.7,1c-0.2,0.4-0.5,0.8-0.7,1.4
	c-0.1,0-0.2,0.1-0.2,0.1c-0.1,0.1-0.1,0.1-0.2,0.1c0,0.4-0.1,0.9-0.4,1.4c-0.2,0.6-0.3,1-0.2,1.3c-0.3,0.4-0.6,0.9-0.8,1.4
	c-0.2,0.5-0.5,1-0.9,1.6c0,1.1-0.3,1.9-0.8,2.5c-0.6,0.6-0.8,1.3-0.8,2.2c-0.4,0.2-0.6,0.5-0.7,0.8c-0.1,0.3-0.3,0.5-0.7,0.6
	c-0.1,0.2-0.1,0.4,0,0.4c0.1,0.1,0.1,0.3,0,0.6c-0.1,0.1-0.2,0.3-0.4,0.5c-0.2,0.2-0.2,0.4,0.1,0.6c0,0.1-0.2,0.1-0.6,0.1
	c-0.1,0.4-0.2,0.8-0.2,1.2c-0.1,0.4-0.3,0.9-0.7,1.4c0,1-0.2,1.9-0.6,2.8c-0.4,0.9-0.9,1.7-1.4,2.5c0.1,0.8,0.1,1.6-0.1,2.2
	c-0.2,0.7-0.4,1.6-0.7,2.7c0.2,0.3,0.3,0.6,0.2,0.9c-0.1,0.3,0,0.7,0.1,1h-1.1c-0.1,0.2-0.1,0.4,0.1,0.6c0.2,0.2,0.1,0.4-0.1,0.6
	c0.4,0.3,0.6,1,0.6,2.1c-0.1,0.1-0.2,0.1-0.3-0.1c-0.1-0.2-0.3-0.2-0.5,0c-0.3,0.2-0.4,0.4-0.3,0.4c-0.3,0-0.5-0.1-0.6-0.4
	c-0.1-0.3-0.3-0.5-0.6-0.8c-0.4,0.5-0.6,0.9-0.6,1.2c0,0.3,0.1,0.7,0.3,1.2c-0.4,0.3-0.8,0.4-1.1,0.3c-0.2,0.6-0.2,1-0.1,1.2
	c0.1,0.2,0.3,0.3,0.4,0.4c0.2,0.1,0.2,0.1,0.2,0.1c0,0.1-0.3,0.2-0.9,0.5c-0.3,0.3-0.7,0.5-1,0.5c-0.8,0.2-1.7,0.1-2.7-0.2
	c-1-0.3-1.9-0.5-2.5-0.5c-0.6,0.1-1.2,0.1-1.7,0.1c-0.5,0-1-0.3-1.5-0.8c-0.8-0.9-1.4-1.4-1.9-1.6c-0.4-0.1-0.6-0.8-0.4-2
	c0.1-0.5,0-1-0.4-1.5c-0.4-0.5-0.6-1-0.7-1.5l-1.2-6c-1.1-2.8-2-5.7-2.7-8.6c-0.7-2.9-1.7-6-2.9-9.2l-1.5-5.4
	c-0.1-1.2-0.6-2.4-1.5-3.6c-0.2-1-0.4-2-0.5-2.9c-0.2-0.9-0.4-1.7-0.8-2.3c-0.2-0.3-0.4-0.8-0.5-1.4c-0.1-0.6-0.4-0.9-0.7-0.7
	c-0.2,0.2-0.4,0.6-0.6,1.1c-0.2,0.5-0.4,0.9-0.6,1c0,0.3-0.1,0.6-0.5,0.9c-0.5,0.8-0.9,1.7-1,2.6c-0.2,0.9-0.5,1.6-0.8,2.2
	c-0.2,0.6-0.5,1.2-0.9,1.8c-0.4,0.6-0.7,1.3-0.8,2c-0.4,0.7-0.7,1.2-0.9,1.6c-0.2,0.4-0.4,0.7-0.7,1c-0.3,0.3-0.5,0.6-0.7,1
	c-0.2,0.4-0.5,0.9-0.9,1.6c-0.1,0.6-0.3,1.1-0.5,1.4c-0.2,0.4-0.4,0.7-0.6,1.1c0.3-0.9,0.6-1.8,0.8-2.6c0.2-0.8,0.3-0.9,0.1-0.2
	c-0.1,0.4-0.2,0.7-0.3,0.8c-0.1,0.1-0.2,0.3-0.3,0.5c-0.2,0.6-0.5,1.1-0.8,1.5c-0.3,0.4-0.6,0.9-0.8,1.4c0,0.5-0.2,0.6-0.5,0.4
	c-0.3-0.2-0.6-0.2-0.8,0.2c0.1,0.2,0.1,0.3,0.1,0.3c-0.1,0-0.1,0.1-0.1,0.3c-0.1,0.1-0.1,0.3-0.1,0.6v0.3c-0.1,0.4-0.3,0.7-0.5,0.9
	c-0.2,0.2-0.4,0.4-0.5,0.8c-0.2,0.5-0.3,1-0.3,1.5c0,0.5-0.2,1-0.6,1.5c-0.2,0.7-0.4,1.4-0.8,2.1c-0.3,0.7-0.4,1.4-0.3,2.1
	c-0.1,0-0.1,0.1-0.1,0.2c0,0.1-0.1,0.1-0.2,0c0,1-0.2,1.8-0.5,2.4c-0.4,0.6-0.5,1.3-0.5,2.1c-0.2,0.1-0.3,0.3-0.2,0.4
	c0,0.2,0,0.4-0.1,0.5c0,0.3-0.1,0.6-0.2,0.8c-0.1,0.2-0.2,0.4-0.1,0.8c0,0.3-0.1,0.5-0.4,0.6c-0.3,0.6-0.5,1.2-0.5,1.8
	c-0.2,0.7-0.5,1.1-0.8,1.2c-0.1-0.2-0.1-0.3,0.1-0.3c0.1,0,0.2-0.1,0.2-0.3c0-0.9,0.2-1.8,0.7-2.6c0.5-0.8,0.6-1.8,0.5-2.9l0.3-0.4
	c-0.1-0.2-0.1-0.3-0.1-0.4c0,0,0.1-0.1,0.1-0.2c0.4-0.4,0.6-0.8,0.5-1.3c-0.1-0.5,0.1-0.8,0.5-1c-0.2-0.2-0.4-0.3-0.5-0.3
	c0.1-0.2,0.2-0.3,0.3-0.5c0.1-0.1,0.1-0.2,0-0.5c-0.3,0-0.5,0.2-0.5,0.5s-0.1,0.6-0.3,0.8c0.1,0.4,0.1,0.7-0.1,0.9
	c-0.2,0.2-0.3,0.4-0.4,0.6c-0.2,0.2-0.2,0.4-0.1,0.5c0.2,0.1,0.2,0.2,0.2,0.3c-0.1,0.2-0.2,0.4-0.4,0.5c-0.1,0.1-0.3,0.4-0.4,0.7
	c-0.2,0.8-0.4,1.6-0.5,2.4c-0.2,0.8-0.4,1.5-0.8,1.9c0.1,0.5,0,1.1-0.2,1.7c-0.3,0.6-0.4,1.2-0.4,1.8c-0.3,0.2-0.5,0.4-0.5,0.6
	c-0.1,0.2-0.3,0.4-0.7,0.4c-0.1-0.5-0.1-1,0.1-1.4c0.1-0.5,0.3-0.9,0.5-1.4c-0.2-0.4-0.3-0.9-0.3-1.5c-0.5,0.3-0.9,1-1,1.9
	c-0.2,1-0.4,1.6-0.6,2c-0.1,0-0.1-0.1-0.1-0.3c0-0.2,0-0.4,0-0.6c-0.1,0-0.2,0-0.2,0.1c-0.1,0.1-0.1,0.1-0.2,0.1
	c0,0.4,0,0.8-0.1,1.3c-0.1,0.5-0.4,0.8-1.1,1c0.2-0.2,0.3-0.5,0.2-0.9c-0.1-0.4,0-0.8,0.2-1.1c-0.7,0-1,0.2-1,0.6c0,0.4,0,0.7,0,0.9
	c-0.2,0-0.3,0.1-0.3,0.3c0,0.2-0.1,0.3-0.3,0.3c-0.1,0.2-0.1,0.3-0.1,0.4c0,0.1,0.1,0.3,0.1,0.7c-0.9,0.2-1.8,0.3-2.6,0.4
	c-0.8,0.1-1.7,0.1-2.6,0.2c-0.8-0.4-1.3-1-1.6-1.7c-0.2-0.8-0.3-1.6-0.3-2.5c0.1-0.9,0.2-1.8,0.3-2.7c0.1-0.9,0.3-1.6,0.5-2.2
	c0-0.3,0-0.6-0.1-1c0-0.3,0-0.6,0.1-0.8c0.2-0.9,0.5-1.7,0.8-2.5c0.4-0.8,0.6-1.6,0.8-2.6c0.5-1.7,0.9-3.4,1.2-5
	c0.3-1.7,0.7-3.3,1.2-5l0.5-1c0.1-0.4,0.1-0.8,0.1-1.2c-0.1-0.4,0-0.8,0.1-1.3c0.8-1.8,1.3-3.1,1.6-3.8c0.2-0.8,0.4-1.4,0.5-1.9
	c0.1-0.5,0.2-1.1,0.4-2c0.2-0.8,0.6-2.1,1.4-3.9c0.8-1.4,1.4-3.3,1.9-5.6c0.5-2.3,1.1-4.2,1.9-5.6c0.4-0.9,0.8-2,1.4-3.4
	c0.5-1.4,1-2.8,1.6-4.3c0.5-1.4,1.1-2.8,1.6-4.1c0.5-1.3,0.9-2.3,1.4-3.1c0.5-1.4,1-2.7,1.6-3.8c0.6-1.1,1.1-2.4,1.7-3.7
	c0.4-0.6,0.7-1.2,0.9-1.7c0.2-0.5,0.4-1.2,0.6-2c0.3-0.4,0.6-0.8,0.8-1.2c0.2-0.4,0.5-0.8,0.8-1.4c0.1-0.5,0.2-0.9,0.2-1.3
	c0-0.3,0.1-0.7,0.1-1c0.4-0.5,0.8-1,1.1-1.6c0.3-0.5,0.7-1.1,1-1.6c0.6-0.3,1.1-0.7,1.6-1.3c0.5-0.5,0.9-1.1,1.4-1.6
	c0.7,0,1.1-0.3,1.2-1.1c0.7-0.2,1.4-0.2,2.1,0c0.7,0.2,1.3,0.4,1.8,0.6c0.8,0.2,1.5,0.4,2.2,0.6c0.6,0.2,1.4,0.6,2.2,1
	c0.5,0.5,1,0.9,1.6,1.3c0.5,0.4,1.1,0.8,1.6,1.3c0.2,0.2,0.4,0.7,0.6,1.4c0.3,0.2,0.5,0.4,0.7,0.6c0.2,0.2,0.3,0.4,0.4,0.5
	c0.2,0.3,0.3,0.7,0.3,1.1s0,0.8,0.2,1.1c0.2,0.5,0.3,1.1,0.5,1.7c0.1,0.7,0.2,1.3,0.5,2c0.2,1.2,0.4,2.4,0.5,3.6
	c0.2,1.2,0.4,2.4,0.7,3.4c0.1,0.5,0.2,1.1,0.2,1.9s0.1,1.4,0.3,1.9c0,0.2,0,0.3,0.1,0.4c0,0.1,0.1,0.2,0.1,0.4
	c0.2,0.6,0.4,1.6,0.7,3.1c0.2,1.5,0.5,3,0.8,4.5c0.2,1.6,0.5,3.1,0.8,4.5c0.2,1.5,0.5,2.5,0.7,3.1c0.9,3.5,1.4,6.7,1.7,9.4
	c0.2,2.8,0.8,5.8,2,8.9c0.7-0.8,1-1.9,1-3.3c0.9-1.8,1.7-3.6,2.5-5.6c0.8-1.9,1.5-3.8,2.3-5.9c1.2-3,2.3-5.6,3.2-7.8
	c0.9-2.2,1.8-4.3,2.7-6.4c0.8-2,1.7-4.1,2.6-6.2c0.9-2.1,1.9-4.6,3-7.5c1.1-2,2.1-4.1,3.1-6.2c0.9-2.1,1.8-4.2,2.6-6.2V23
	c0.2-0.6,0.5-1,0.8-1.3c0-0.6,0.2-1.1,0.5-1.4c0.3-0.3,0.8-0.8,1.3-1.3c0.2-0.3,0.5-0.6,0.8-1c0.3-0.3,0.5-0.8,0.8-1.3h0.2
	c0.1,0,0.2,0,0.3-0.1C835.7,15.3,836.6,14.7,838.1,14.7z M762.7,106.8l0.3,0.1c0,0.1,0.1-0.1,0.3-0.6c0-0.3-0.1-0.5-0.3-0.5
	c0,0.2-0.1,0.4-0.1,0.5C762.7,106.5,762.7,106.6,762.7,106.8z M763.1,105.5v0.2c0.3,0,0.5-0.1,0.5-0.3
	C763.2,105.3,763.1,105.4,763.1,105.5z M770.8,89.4c-0.2,0.2-0.3,0.4-0.2,0.7c0,0.3,0,0.4-0.2,0.4c-0.1,0-0.2,0-0.3-0.1
	c-0.1-0.1-0.2-0.1-0.3,0c0,0.2-0.1,0.4-0.1,0.6c-0.1,0.2-0.2,0.5-0.2,0.8c0.2,0,0.3,0,0.3-0.1c0-0.1,0-0.1,0.2-0.1
	c0.1-0.2,0.1-0.3,0-0.2c-0.1,0.1-0.1,0,0-0.1c0.1,0,0.1,0,0.1-0.1c-0.1-0.1,0-0.1,0.2,0c0,0.2,0,0.3,0.2,0.3
	c0.4-0.3,0.6-0.8,0.6-1.3v-0.3C770.9,89.5,770.8,89.4,770.8,89.4z M769.6,95c0.2-0.2,0.3-0.5,0.4-1c0-0.5,0.2-0.9,0.4-1.4
	c-0.4,0-0.6,0.3-0.7,0.9C769.6,94.1,769.6,94.6,769.6,95z M769.9,90c0.2,0,0.3-0.1,0.3-0.3h-0.3V90z M770,92.3v-0.1h-0.1v0.1H770z
	 M770.2,91.8c0-0.2,0-0.3,0.2-0.3c0.1,0,0.1-0.1,0.1-0.3C769.9,91.5,769.9,91.7,770.2,91.8z M770,89.3c0.4-0.2,0.5-0.3,0.5-0.5
	c-0.1-0.1-0.1-0.2,0-0.4h-0.3L770,89.3z M770.2,90.5c0.1,0.1,0.2,0.1,0.2,0H770.2z M771.1,85.1c0.1,0.5,0,0.8-0.2,1
	c-0.2,0.1-0.3,0.4-0.2,0.7c0.4,0,0.6-0.2,0.5-0.7c-0.1-0.5,0-0.8,0.2-1.1c-0.1,0-0.2,0-0.4-0.1c-0.1,0-0.1,0,0.1,0.1v0.1H771.1z
	 M771.1,88.5l-0.3-0.1v0.8C770.9,89.1,771.1,88.9,771.1,88.5z M772.1,84.8v-0.3c-0.1,0.1-0.2,0.2-0.3,0.2
	C771.7,84.6,771.8,84.7,772.1,84.8z M775.6,84c-0.2,0.3-0.3,0.4-0.2,0.3c0-0.1,0.1-0.3,0.2-0.8V84z M775.6,83.6
	c0.2-0.2,0.3-0.5,0.3-0.9L775.6,83.6z M818.5,70.2c-0.2,0-0.3,0.1-0.3,0.2c0,0.1-0.1,0.1-0.2,0.1c0,0.7-0.1,1.3-0.4,1.7
	c-0.2,0.4-0.5,1-0.7,1.6V74c0.2-0.5,0.5-1,0.8-1.4s0.5-0.9,0.8-1.4c0.2-0.5,0.4-1.1,0.7-1.8c0.2-0.7,0.4-1.3,0.5-1.8
	c-0.3,0.5-0.6,1-0.8,1.4C818.6,69.3,818.5,69.7,818.5,70.2z M819.7,67.1c0.4-0.1,0.7-0.3,0.8-0.8c0.1-0.4,0.2-0.8,0.2-1
	C820.1,65.8,819.7,66.4,819.7,67.1z M826.1,56.1c0.2,0.3,0.1,0.6-0.2,0.8c-0.3,0.2-0.6,0.4-0.8,0.8c-0.1,0.2-0.1,0.4-0.1,0.5
	c0,0.1,0,0.4-0.2,0.7c1.2-1.2,2.1-2.6,2.7-4.4c-0.5,0.1-0.8,0.4-0.8,0.8S826.6,56,826.1,56.1z"/>
</svg>
