<?xml version="1.0" encoding="utf-8"?>
<!-- Generator: Adobe Illustrator 22.1.0, SVG Export Plug-In . SVG Version: 6.00 Build 0)  -->
<svg version="1.1" id="Layer_1" xmlns="http://www.w3.org/2000/svg" xmlns:xlink="http://www.w3.org/1999/xlink" x="0px" y="0px"
	 viewBox="0 0 782 136" style="enable-background:new 0 0 782 136;" xml:space="preserve">
<style type="text/css">
	.st0{fill:url(#SVGID_1_);}
</style>
<linearGradient id="SVGID_1_" gradientUnits="userSpaceOnUse" x1="391" y1="-2.7289" x2="391" y2="140.8578">
	<stop  offset="0" style="stop-color:#EA7109"/>
	<stop  offset="1" style="stop-color:#FF005B"/>
</linearGradient>
<path class="st0" d="M65,82.3c-1.9,5,0.2,7.9,3,11.8c2.5,3.4,4.2,8,4.3,12.3c0.2,8.3-9.2,15.7-15.2,20.1c-3.5,2.6-7.5,2.9-11.4,4.5
	c-3.3,1.3-5.3,4.4-9,4.8c-2.9,0.3-5.9-0.8-8.1-2.6c-1.2-1-1.8-2.4-3.3-3c-1.9-0.7-3.7,0.2-5.6,0.1c-7.1-0.3-12.4-10.7-9.1-16.7
	c1.4-2.6,4.7-4.6,3.4-7.7c-1.9-4.4-7.4-8.9-10.5-12.5C0.1,89.7-1,87.5,1,83c2-4.5,2.2-9,2.3-13.9c0.3-7.9-1.7-18.7,1.9-26
	c1.7-3.4,5.3-6.2,7.9-9.1c2.8-3.1,5.5-3.1,9.4-3.2c5.1-0.1,7.9-2,11.2,2.6c1.5,2.1,1.6,2.2,4.2,1.3c2.2-0.8,4.5-1.9,5.9-3.9
	c0.4-0.4-0.3,0.5,0,0c-0.4-0.4,4.5-1.9,5.1-1.8c2,0.2,3.6,1.8,5.8,2.1c2.8,0.4,5.4-0.4,8-1.7c5.5-2.7,9-3.4,14.4,0.4
	c3.9,2.7,7.2,6.8,10.1,10.6c5.9,7.7,5.7,19.7-4,24.5c-3.5,1.7-8.5-0.1-11.2,2.8C68.7,71,66.6,78,65,82.3z M24.9,66
	c-0.5-5.1-10.2-3.7-9.4,2.4C16.7,76.7,25.6,72.9,24.9,66z M31.6,46.5c1-2.9-8.5-1.9-8.4,1.8C23.3,53,30.7,49.1,31.6,46.5z
	 M51.4,95.1c0.9-8.7,7.5-17.5,11.4-25.2c2-4,3.9-7.9,7-11.2c2.9-3.1,6.6-4.5,9.7-7.1c6.7-5.5-1.3-14.4-8.1-9.9
	c-2.9,1.9-6.1,5.4-7.8,8.5c-2.2,3.9-2.8,8.3-8,9.2c-4.9,0.8-5.6-0.2-5,5.3c0.4,3.6-0.7,7.5-2,10.9c-1.4,3.7-3.6,7.2-4.5,11
	c-1.1,4.3-1.9,6.3-6.4,7.5c-3.4,0.9-7.1,1.6-9.8,4.1c-3.2,2.9-1.7,5.6-0.7,9.3c0.5,1.8,0.8,3.6,0.6,5.5c-0.1,1.9-1.3,3.9-1.1,5.8
	c0.3,3,5.6,7.2,8.5,7.5c2.2,0.2,3.3-1.2,5.1-2.1c2.4-1.2,5-1.2,7.5-2c3.7-1.1,8.9-4.3,11.2-7.5C64.5,107.4,50.7,102,51.4,95.1z
	 M406.1,88.8c0.7,1.2,0.1,3.2,0.1,4.4c-4.7-1.9-17.4-7.4-15.1-14.7c0.9-2.8,5-3,6.2-5.9c0.8-2,1.1-7.9-1.1-8.6
	c-4.1-1.4-5.8,4.3-7.1,6.7c-1.5,2.8-3.9,4.8-6.9,5.6c-3.8,1.1-7.7-0.2-11.6,0.9c-4.3,1.3-9.1,3.3-12.9,5.6
	c-6.8,4.2-15.2,9.7-9.1,17.8c2,2.6,3.6,6.1-0.6,7.6c-2.9,1-8.2,1.1-9.4-2.1c-1.2-3.1-1.4-10.3-0.6-13.4c0.4-1.8,1.6-3.5,2.4-5
	c1.2-2.1,1.2-3.6,1.9-5.6c1.1-3.1,4.7-6.8,7.7-8c3.6-1.4,8.5-0.9,10.9-4.5c2.1-3.1,2.3-10.4,1-13.8c-1.4-3.6-8.2-6.7-5-10.7
	c1.4-1.8,4.1-3,5.9-4.5c1.9-1.6,3.7-3.4,5.3-5.3c3.3-3.9,4.5-7.9,10.3-8.2c-0.2-1.3-5-0.1-6.3,0.1c0.9-4.2,0.6-4-2.5-5.7
	c-1.8-1-2.8-1.4-1.2-3.4c0.8-1,2-1.4,3.3-1.4c2,0,4.1,1.4,6,1.9c1.8,0.5,3.6,0.7,5.4,0.9c4,0.6,7.6,1.3,11.6,0.5
	c3.9-0.8,7.5-1.5,11.2-3.2c1.9-0.9,2-1.4,3.4-0.5c1.3,0.8,2.4,3.3,3.5,4.5c2.1,2.4,4.4,3.6,4.4,7c0,1.8-0.8,3.8-1.2,5.6
	c-0.5,2.8-1.2,3.5,1.7,4.4c3.6,1.2,13.9-1.7,14.9,3.9c1.2,7.5-8.2,9.8-12,14.1c-2.3,2.7-4.4,4.7-7.7,6.2c-2.6,1.2-7.1,2.4-8.3,5.4
	c-1.1,2.9,1.5,6.4,1.1,9.7C405.1,81.3,403.7,84.7,406.1,88.8z M379.5,45c-1.7-3.2-7.7-1.4-9.8,0.4c1.9,0.9,4.3,0.7,4.9,3.2
	c0.7,2.7-1.7,3.1-3.9,3.9C375.1,54.3,382.2,50.1,379.5,45z M400,36.9c0.6-3.3,1.3-7.5-4-6.3c-2.1,0.5-2,0-0.7,2
	C396.3,34.2,398.5,35.6,400,36.9z M411.7,55.5c2.6,0.4,4.3-1.6,5.9-3.3c1-1.1,4.5-3.8,4.3-5.2c-2.9,0-6.6,3.3-9,2.7
	c-3.4-0.7-6.1-4.9-9.4-6.2c-2-0.8-2-0.7-3.5,1.4c-0.8,1.2-1.5,2.3-1.6,3.8c-0.4,3.3,2.2,6.5-0.1,9.6
	C403.1,57.7,406.4,54.7,411.7,55.5z M340,75c-0.4-0.8-0.7-1.6-1.1-2.4c0.8,0.2,1.7,0.5,2.5,0.7c-0.9-2.3-2.1-4.4-3.6-6.4
	c-1.6-2.1-2.7-4.7-4.3-6.8c-1.7-2.2-13-5.1-12.9-7.3c3.5-1.2,8.5,0.4,11.3-2.2c3.2-2.9,0.6-9.1-0.1-12.7c-0.8-4.1-2-9.6,1.1-13.2
	c2.2-2.6,7.7-1.7,10.9-2.8c-0.4-0.4-0.8-0.9-1.2-1.3c2.2-0.5,3.3-0.1,3.8-2.3c1.5,2.6,2.9,5.8,6.4,5.9c4.2,0.1,8.4-4.2,11.4-6.7
	c4-3.4,5.9-4.5,11.1-2.8c3.1,1,8.8,3.6,11.5,0.1c3.2-4.3-1.5-5.6-4.5-6.1c-3.7-0.6-5.1-2.4-8-4.4c-3.8-2.6-7.7,0.5-11.1,2.4
	c-4.8,2.7-6.6,3-10-1.7c-4.9-6.7-10.7-7-15.1,0.2c-2.2,3.6-3,4.8-6.7,5.8c-2.1,0.6-2.3,0.2-3.6,2.2c-1,1.4-1.2,2.8-2.7,3.9
	c-2.9,2-6.5,0.7-9.6,2c-3.2,1.3-6.6,4.4-7.9,7.7c-1,2.4-0.2,2.3,1,4.3c0.9,1.5,0.8,2.9,1.4,4.5c1.1,3.4,2.7,3,5.2,5
	c-2.9,2.3-5,4.3-8.3,6.1c-3.5,1.8-5.1,3.8-7.5,6.8c-4,5.1-11.2,8-13.2,14.7c-1.4,4.5,0.2,7.7,1.2,11.9c1,4.3,0.9,10.4-1.1,14.4
	c-3.3,6.9-13.3,9.3-16.3,16.4c-1.6,3.8,4,17.6,7.9,12.8c2-2.4-1-8.1,1.1-10.8c0.5-0.6,1.4,0.2,2-0.1c1.6-1,3.3-2.2,4.7-3.5
	c5.7-5.4,5.7-15.7,12.6-20.1c3.7-2.4,5.1-4,4.6-8.5c-0.5-4.3-1.6-8.7-0.2-13c1.3-3.9,5.6-8.6,9.4-10.1c4.4-1.8,9.5,1.8,13.3,3.7
	c3.6,1.8,7.4,3.7,8.3,7.9C334.4,73.7,334.6,75.4,340,75z M781.9,32.7c-1,2.4-4.9,9.5-3.1,11.5c-3.3,3.2-9.5,0.2-13.6,2.2
	c-4.8,2.3-7.6,7.7-11.8,10.6c0.1,0.1,0.2,0.2,0.2,0.1c-1.8,1.3-4.2,2.2-5.9,3.4c-0.5,0.3-1.8,0.7-2.1,1.1c-1,1.4,0.9,4,0,5.5
	c-1.3,2.2-3.3,1.3-4.6,0.4c-0.8-0.5-1.6-1.4-2.4-1.7c-0.5,0.2-0.9,0.6-1.2,1.1c-1.6-0.7-1.7-1.3-0.4-1.9c-1.6,1.2-0.5,2-2.4,3.4
	c0-0.2,0.1-0.4,0.1-0.6c-0.9,2.8-4.9,4.2-2.4,7.7c1.3,1.9,2,1.3,4.1,1.8c0,0,2.1,0.2,1.6,0c2,0.7,3.8,3.2,4.3,5.2
	c1.3,5.1-4.9,12.6-7.2,16.5c-1.1,1.9-1.8,3.7-2.6,5.7c-0.9,2.2-4.7,6.9-4.5,9c-1.8-1-2,0.6-4.1-0.9c-1.4-1-2.4-2-2.1-3.5
	c0.3-1.3,2-2.3,2.5-3.5c0.8-2,1-4.9,1.3-7c0.4-3,0.5-6.3-1.8-8.6c-2.5-2.5-6.1-3.4-8.1-6.4c-1.7-2.6-1.6-9-4.5-10.4
	c-2.8-1.4-0.5,3.7-0.5,5.2c0,1.3-8.7,13.7-10.2,13.5c-1.6,1.3-3.1,3.7-4.5,4.7c-0.2,1.5-0.8,1.7-2,0.6c-0.1,0.9-0.6,1.3-1.5,1
	c-0.1,0.5-0.3,0.9-0.7,1.2c-1.2-0.1-2.4-0.2-3.6-0.3c-0.5-0.3-1.8-1.2-1.9-1.8c-0.7-2.6,3.1-4.9,4.8-6c2-1.3,3.9-3.4,5.6-5.3
	c-0.3-0.5,1.9-2.7,2.2-3.4c0.5-1.3,0.2-2.9-0.2-4c-0.3-0.9-1.4-2.2-1.6-2.8c-0.5-2,0.7-4.5,1.8-6c-0.9,1.1-3,2.8-5,3.6
	c-3.1,1.3-6.7,0.6-9.7,1.9c-3.3,1.5-1.6,2.6,0.9,3.8c2.6,1.3,4.8,0.9,6.6,3.4c-1.4,0.7-4.3-2-5.2-0.1c0,0.1,0.8,2.7,0.6,3.3
	c-0.3,1.2-1.8,1.8-2.2,2.8c-0.3,1,0.6,1.3,0.3,2.1c-0.4,1.3-1.2,2.4-1.8,3.5c-2,3.3-2.2,3.8-5,1.6c-2.5-2-3.5-1.4-6.7-1.3
	c-2.3,0.1-3.8-0.3-5.2-2.2c-1-1.2-2.8-4.4-2.8-6.1c0-1.6,1.2-1.9,0.3-3.1c-0.7-0.8-3.1-1-4.1-0.9c-4.4,0.2-9.4,7-14,4.9
	c-1.2-0.5-1.2-1.9-2.1-2.6c-1-0.7-1.7-0.6-2.8-1c-2.9-1.2-5.7-3.4-8.6-4.2c-6.6-1.8-9.8,6.9-10,11.9c-0.1,3.2-1.7,3.6-3.3,6
	c-1.8,2.7-0.9,5.1-0.9,8.2c-5.7-4.6-4.5-10-3.6-16.3c-2.9,0.3-4.2,0.3-5.4,3.3c-1,2.7-0.7,4.3,0.7,6.7c2,3.5,6.1,8.4,1.7,11.6
	c-0.9,0.7-5.8,3.3-6.9,2.9c-1.8-0.7,0.1-4.5,0.5-5.6c1.1-3.3,0.8-5-0.5-8.2c-1.2-3-0.6-5.3,0.5-8.3c2.2-5.7,4.2-10.3,4.9-16.3
	c0.7-5.6,3.2-11.6,2.6-17.2c-0.2-2.4-2-4.8-1.1-7.2c0.8-2.2,3.5-3.9,5-5.7c1.6-1.9,3.1-3.8,5.4-4.9c1.2-0.6,6.1-1.5,5.5-3.4
	c-5.6,0.4-8.5,1.7-12.1,6.1c-1.6,2-3.5,4-4.4,6.4c-1,3-0.2,5.7-0.6,8.7c-0.3,2.2-0.8,5.4-2.9,6.5c-1.7,0.9-4.2,0.9-6.1,1.7
	c-4.2,1.9-4.8,5.3-5.8,9.7c-0.7,3.2-0.9,11.7-4.2,13.3c-0.8,0.4-2.4-0.1-3.3,0.2c-1.2,0.3-2.1,1.3-3.3,1.7c-2.2,0.9-3.9,0.9-5.1-1.4
	c-0.5-1-0.5-3.4-0.9-4.5c-0.4-1-1-1.9-1.3-2.8c-0.9-2.6-1.1-5.4-1.2-8.1c-0.1-3,0.6-5.5,1.5-8.3c0.7-2.1,1.7-4.5-0.6-6
	c0.6,3.6-1.9,6.1-2.7,9.3c-0.8,3.3,0,6.8-1.7,10c-1.4,2.6-4,4.2-6.9,4.7c-0.1-1.9,2.3-0.9,1.7-2.4c0.1,0.2-5,1.4-5.3,1.8
	c-1,1.1-1.2,4.6-1.6,6c-0.6,2.2-1.2,4.5-1.8,6.7c1.7,0.3,0.4-0.4,1.3-0.2c-1,0.9-0.9,5.4-1,6.6c-0.1,2-0.2,8.3-2.6,8.8
	c0.8-1.1,1.4-2.4,1.1-3.8c-1.9,5.1-5.8,12.5-12.4,12.1c-2.8-0.2-3.2-2.5-0.7-4.2c2-1.4,4.6-1.2,5.4-4.2c0.7-2.6-1.2-5.1-2.9-6.9
	c-2.1-2.1-4.7-1.6-6.9-3.2c-2.3-1.7-1.6-4.1,0.8-5.2c2.5-1.2,6.1,0.4,8.9,0.4c0-1.2-10.4-4.8-12.4-5.2c-2.3-0.5-5.1-0.5-6.8-2.3
	c-1.8-1.8-1.8-4.7-2.9-7c-1.3,0.5-1.7,0.9-2.7,0.3c-0.5-0.3-1.5-2.8-1.7-3.3c0,2.5-4,3.8-5.8,4.6c-2.9,1.4-6.3,1.3-9.1,2.9
	c-2.9,1.7-4.3,3.5-7.6,4.3c-2.5,0.6-5.6,0.7-7.9,2.1c-4.5,2.6-5,13.4-11.3,11.7c-1.3-0.4-2.3-1.1-3.2-2c-1.7-1.7-1.1-1.4-0.6-2.9
	c0.8-2.6,2.1-6.2,3.4-8.6c-1.8-0.9-2.8,1.9-2.5,3.2c-4.1-0.1-7.2-3.9-10.5-0.5c-1.2,1.2-1.8,2.8-3.1,4c-2.2,2-5.2,2.8-7.6,4.4
	c-1.6,1.1-3,2.5-4.7,3.5c-2,1.1-4.3,1.5-6,2.9c-1.4,1.1-2.3,3.7-4.1,4.1c-2.4,0.6-4.5-2.3-6.5-3.6c-4.2-2.8-8.3-2.7-12.8-4.2
	c-2.6-0.9-3.6-2.7-5-4.9c-1.5-2.3-3.4-4.1-5.2-6.1c-3.3-3.7-2.3-8.6,0.2-12.6c3.1-4.8,4-10.4,7.1-15.2c1.3-2,2.7-4.2,4.3-6
	c1.7-1.9,4-2.7,5.6-4.7c3.1-3.8,3.2-8.7,7.1-12.1c1.8-1.6,3.9-2.8,5.5-4.6c1.3-1.4,1.9-3.4,3.2-4.7c0.9-0.9,1.4-1.7,2.8-1.5
	c0.5,0,2.3,1.3,2.3,1.3c1.8-0.3,5.4-5.5,6.5-6.7c3.7-4.1,8.9-5.4,13.8-7.5c1.8-0.8,4.1-2.3,6.2-1.9c2.2,0.4,1.7,0.1,1.5,2.2
	c-0.1,1.2-0.8,2.6-1.5,3.5c-2.4,3.4-7.6,3.7-10.9,6.2c-4.1,3.1-7.3,6.9-11.8,9.6c-2.4,1.5-4.5,2.8-6.6,4.7c-2.1,1.9-4.2,3-6.4,4.6
	c-3.3,2.3-4.9,7.1-0.2,8.6c5.6,1.7,5.6-3.9,8.5-7c1.5-1.7,12.6-9.8,13.6-9.1c-1.7,2.7-4.6,4.9-5.9,7.8c-1.7,3.6,1.1,5.2,4.5,4.5
	c3.4-0.7,3.6-4.6,6.2-6c2.7-1.5,6.5,0.1,9.8-2.3c-0.2,1.8-1,3.6-0.7,5.4c0.3,1.9,1.5,2.9,1.5,4.9c-3.8-2-6.2,3.1-1.4,3.1
	c-1.8,2.4-3.7,0.8-5.5,2.1c-1.3,1-1.4,5.6-1.7,7.2c-2.9-0.9-3.9-5.9-7.5-2.6c-0.2-1.8,1.2-1.2,1.1-2.5c-2.1-0.2-1.9-0.4-3.3,1.2
	c-1.8,2-1.6,4.2,0.5,6c1.8,1.5,3.3,1.2,5.2,0.3c-0.2,3.8,0.2,5.3-3.4,7.4c-1.3,0.8-3,1.6-4.5,2c-0.4,0.1-3.8,0.8-4.1,0.8
	c-2.9-1.1-2.2-5.3-3.3-7.3c-1.4-2.4-3.4-2.3-6-2.2c-2.7,0.1-7.3,1.2-9.6-0.7c-2-1.6-1.9-5.5-5.8-4.1c-7,2.6-7.2,14-9.1,19.6
	c-1.6,4.7-0.8,6.4,3.1,9.9c2.9,2.6,6.8,5,10.3,6.7c7,3.3,15.7-3,20.4-7.9c2.2-2.3,4.9-3.2,7.1-5.5c3-3.1,5.5-3.6,9.7-4.3
	c1.2-0.2,8.3-3.4,9-2.8c0.7,0.6-0.6,2.9-0.8,3.5c-0.7,1.7-1.9,1.7-1.1,4c1.3-1.9,2.1-3.8,4-1.9c0.4-2.7,0.4-5.1,1.8-7.4
	c1.5-2.4,2.2-3.9,2.6-6.7c0.6-4.7,1.5-12.3,5.8-15.3c1.7-1.2,4.2-2.3,6.1-3.1c2.9-1.2,5.2-0.2,8.2-0.4c7-0.6,6.3-8.7,5.9-13.7
	c2.2,0.5,4,2.4,6.2,1.4c2.4-1.1,3.5-3.9,6.2-5c2.4-1,5.9-0.8,7.9-2.5c1.9-1.6,3.3-5.5,4.6-7.6c1.4,1.1,2.8,2.2,4.2,3.2
	c0.1,0,3.4,1.8,3.5,1.9c1.8,2.5-1.5,2.7-1.7,5.8c-0.2,2.3,3.2,4.8,2.3,6.8c-1.3,2.8-6.4-0.3-8.1-1.1c-11.3-5-18.7,8.9-24.8,15.9
	c2.5-2.9,9.9-3.7,13.4-6c3.2-2.1,9-8.2,12.4-2.2c-7.1-2.6-8.7,4.1-12.6,7.8c-2.5,2.3-5.2,5.1-8.1,6.9c-2.7,1.7-5.8,1.5-8.9,1.6
	c-5.4,0.3-8.3-5-11.9,1.8c-1.5,2.9-3.2,5.6-4,8.8c-0.8,3.4-1,6.1-2.5,9.3c2.6,0,6.8-0.3,8.6-2.7c1.7-2.3,0.2-5.1,3.6-6.2
	c3.2-1.1,6.7,1.7,10,1.6c2.1-0.1,7.2-4,8.5-2.6c-0.5-4.2-0.5-6.3,3.8-7.6c4.3-1.2,4.3-2,5.4-6.5c0.8-3,1.7-5,5.2-4.9
	c2.8,0.1,5.6,2.8,8.4,2.3c2.6-0.4,6.4-4.6,7.4-6.8c1.5-3.2-0.4-6.6,0.6-9.8c1.2-3.8,3.4,0,6.4-1.2c3.5-1.5,3.6-5.2,3.2-8.4
	c-0.8-7.1-3.2-12,5.1-14.6c2.4-0.8,7.4-3.5,10-3.1c2.9,0.5,6.7,5.5,8.3,7.6c1.7,2.2,3.5,5.7,2.8,8.6c-0.7,2.9-4.1,4-5.2,6.8
	c-1.2,3.1-0.2,6.8,0.5,9.9c0.9,4.3,1.9,8.5,3.1,12.7c1.2-3.8,2.5-7.6,3-11.6c0.5-4.1-0.1-6.5,2.8-9.4c2.3-2.4,3.5-6.1,6.2-8
	c2.7-1.9,6.6-1.6,9.7-1.7c3.2-0.2,6.4,0,8.5-2.9c1.7-2.3,1.7-5.4,4.2-7.3c2.5-1.8,7.8-2.5,10.8-2.6c1.5-0.1,3,0,4.3-0.1
	c0.7-1.1,1.5-1.1,2.4-0.1c0.7,0.3,1.3,0.7,2,1.2c4.7,4.1,0.4,15.9-3.5,19.5c-2.3,2.1-4.1,3.2-3.8,6.7c0.2,2.6,2,5,0.1,7.3
	c-1.7,2.2-5.2,3.4-7.2,5.5c-2.2,2.2-5,4.2-6.2,7.1c-1.4,3.3-1.9,6.5-3.7,9.7c-2,3.6-3.5,7.4-5,11.3c2.5-1.4,3.9-3.8,5.2-6.2
	c1.6-3,2.8-7.9,5.2-10.4c4.2-4.2,14.6,0.7,19.8,0.7c9.6,0,1.5-8.6,1.5-12.9c0-3.2,1.9-6,4.9-7.2c2.2-0.9,5-0.8,4.7-3.9
	c-0.2-2.3-2.3-3.7-2.3-6.3c0.1-3.4,2.7-5.3,3.8-8.2c0.8-2.2,0.8-6.8,2.9-8.4c1.6-1.2,7.9,1.8,10.2,2.4c3.2,0.9,6.3,1.4,9.1-0.9
	c2.7-2.3,1.5-5.6,3.4-7.9c1.3-1.6,4.9-0.8,6.8-0.6c3.6,0.4,5.8,2.6,8.6,4.6c3,2.1,12.2,9,4.6,11.6c-2.4,0.8-6-0.9-8,0.3
	c-3.5,2,0.2,4.4,2,5.6c6,4,5.6,10.6-1.6,12.8c-2.5,0.8-4,0.8-5.7,3c-2.3,3-4,7-5.3,10.6c-0.5,1.5-2.2,5.1-0.6,6.3
	c0.6,0.4,3.2-0.4,3.9-0.4c2.2,0,4.3,0.7,6.6,0.4c1.6-0.2,3.1-0.8,4.5-1.6c0.5-0.3,1.3-1.1,1.9-1.2c0.1,0,2.1-0.5,1.8-0.3
	c0.6-0.3,0.5,0.2,1.5-0.7c0.3-0.3,0.4-0.9,0.6-1.2c0.2-0.4,0.5-0.8,0.7-1.2c1.4-2.7,1.9-4.4,2-7.5c0.2-3.1,1.3-5.2,3.2-7.9
	c3.8-5.3,5.3-11.4,8.7-17.1c1.5-2.5,2.8-5.1,5.3-6.6c3.3-2,7-0.9,8,3.2c0.5,2.5-1.6,5.6-2.7,7.7c-1.9,3.6-1.7,6.2-1.3,10.2
	c0.1,1.6,0.4,3.7-0.4,5.1c-0.3,0.5-0.8,0.4-1.4,0.9c-1,1-2.5,2.2-3.2,3.7c-1.5,3.3,0.4,7,1.1,10.3c0.4,2,0.2,6.4,2.2,6.4
	c0.1-3.7-0.8-6.6-1.6-10.1c-1-4.4-0.5-6.1,4.2-5.9c1.4,0.1,2.8-0.7,4-1.8c2.4-2.2,1.6-3.5,2.1-6.3c0.5-3,1.9-4.5,5.1-4.1
	c3.7,0.4,3,1.4,6.5-1.4c0.1,1.2,0.2,2.3,0.4,3.5c-0.3,0.5-0.6,1-0.9,1.5c0.2,1.1,0.5,2,1.9,2.2c2.6,0.5,1.6-0.5,1.2-1.8
	c2.9-1.7,1-0.8,0.1-1.3c-1.8-1-2.7-0.2-2.6-3.3c0.1-2.6,2.2-4.4,4.5-5.2c-0.9-1.6,0.9-3-0.1-4.5c-0.8-1.1-3.6-1-4.6-1.5
	c-3.7-1.8-0.5-4.7,0.9-7.3c1.6-2.9,3.1-6,4.2-9.1c0.8-2.1,1.2-6.3,4.3-5.6c-0.7,2.3-1,4.4-1.2,6.9c-0.2,3.7,1.5,5,3.1,8.3
	c2.5,5.1-1,10.9,5.7,13.5c5.1,2.1,6.6-2.8,9.9-5.7C772.1,32.9,783.3,25.8,781.9,32.7z M680.5,42.4c0,2.2,2.6,4,4.2,2.2
	c0.9-1,0.9-4.9,1.1-6.2C683.3,38.2,680.5,39.5,680.5,42.4z M552.2,84.9c0.8,1.1,0.3-1.8,0.1-2.2c-0.5-1-1.8-1.8-2.8-2.4
	c-2.2-1.4-4.5-3.1-6.8-4.2c-4.6-2.4-11.5-0.5-13.6,4.4c2.5-1.7,2.6,0.6,3.7,2.1c1.7,2.4,3.9,2.6,6.6,3.1c2.7,0.4,4.7,0.6,7.2-0.7
	C549,83.7,550.1,81.9,552.2,84.9z M554,90.1c-0.9,1.7-1.7,3.4-2.6,5.2C553.6,94.2,554.6,92,554,90.1z M672,68.8
	c0.5-2.2,2.1-3.6,2.7-5.6c0.9-2.8-0.4-3.7-1.7-6c-2.7-4.7,0-10.4,1.1-15.4c-2.4,3.9-4,7.6-7.1,11.1c-0.9,1-2.7,1.9-2,3.6
	c0.7,1.7,3,1.3,3.1,4.1c0.1,2-1.3,3.2-2.1,4.9c-1,2.2-0.7,3.9-0.7,6.2c0.1,4.5-3.4,4.2-7.2,5c0.2,1.2,9.4,4.2,10.8,3.4
	C671.4,78.6,671.4,71.4,672,68.8z M252.8,43.4c1.5,2.2-2.3,3.4-3.4,4.8c-1.5,1.9-1.8,4.1-2.2,6.3c-1.1,6.2-4.8,10.4-8.3,15.5
	c-1.5,2.2-3.3,4.1-5,6.2c-1.6,2.1-1.4,3.1-1.6,5.7c-0.4,5.7-6.3,7.2-10.8,9.7c-0.8-3.2-6,1.2-7.4,2.2c-1,0.7,0.4-1.1-1,0.6
	c-0.7,0.7-0.9,2.4-1.3,3.3c-1,2.4-2.6,4.6-3.6,7c-1.9,4.5-2.5,22.8-10.3,20.4c3.5-7.2,6-14.7,8.3-22.3c1.1-3.8,1.8-7.8,3.2-11.6
	c1.3-3.4,4.2-5.3,5.6-8.5c1.4-3.2-0.1-5.8-0.1-8.9c0-4,3.3-7.6,3.5-11.7c0.1-2.5,0.5-5.9-2-7.3c-2.8-1.7-6.6,0.5-9.7,0.2
	c-4-0.4-7.1-3.3-11.1-1.9c-2.9,1-4.3,3.3-6.8,0.6c-2.4-2.6-4-7.3-3.3-10.7c0.8-3.7,3.8-6.4,4-10.3c0.2-3.2-0.6-5.6,1.5-8.3
	c2.3-3,7.3-6.8,10.6-8.5c3.3-1.7,2.9,0.8,3.8,3.8c1.1,3.5,2.7,7.4,0.3,10.8c-1.8,2.6-5.4,3.3-6.9,6.3c-2.5,5.2,2.7,4.7,6,3.9
	c3.9-1,5.6-1.8,7,2.1c1.4,3.9,3.7,5.3,6.9,7.8c1.9-5.6,3.4-11,7.2-15.7c1.4-1.8,7.6-11.3,9.8-5.6c1.7,4.3-3.3,5.7,1.5,9.3
	c2.5,1.9,4.9,2.6,8,2.8C247.6,41.6,251.1,41,252.8,43.4z M220.6,73c-0.3,0.9-0.7,1.9-1,2.8c2.9,0.2,2.3,2.9,4,4.3
	c0.7,0.6,4.1,1.2,4.6,0.6c-2.2-1.7,0.2-4,1.8-2.2c-0.5-0.5,0.8-2.8,1-3.2c-1.1,0.5-2.2,1.1-3.4,1.6c0.3-1.6-1-1.7-1.8-2.7
	c-1.2-1.4-1.9-3.3-3.3-4.6c-0.3,0.9-0.9,1.5-1.8,1.9c-0.4-0.9-0.9-1.8-1.3-2.7C219.7,69.5,220.7,73,220.6,73z M228.1,83
	c-1.1,0.7-1.6,0.5-2.5,1.5C226.5,83.5,227.1,83.7,228.1,83z M231.9,79.3c-0.2,0-0.5,0-0.7-0.1C231.4,79.3,231.6,79.3,231.9,79.3z
	 M499.9,29.4c2.6,2.7,3.1-2.6,3.3-4.2c0.4-3.3,0.1-3.7-2.7-4.6c-0.8-0.3-2.7-0.9-3.4-1c-2-0.1-2.1,0.5-2.1,2.2
	C494.9,24.8,498.1,27.5,499.9,29.4z M198.8,102.3c-2.4-0.8-4.1-7.7-6.6-6.1c-1.2-0.1-2.3,1.2-3.7,1c-1.8-0.3-2.7-2.3-3.2-3.9
	c-1-3-0.8-5.6-3.2-8.1c-5.5-5.8-13.4-4.4-20.4-4.4c0,1.1,0.4,0.4-0.3,1.6c-0.7,1.2-1.1,2.1-1,3.5c0.2,3.5,3.2,6,2.9,9.7
	c-0.2,2.9-1.8,5.7-2.5,8.5c-0.9,3.5-2,4.7-5.5,5.8c-4.3,1.4-5.2-0.1-9.3-0.8c-3.2-0.6-5.7,1.2-8.7,1.5c-3.5,0.3-5-3-2.8-5.9
	c-0.2-0.4-0.1-0.6,0.3-0.8c-1.3,0.8-5.3-0.9-7-1c-2.7-0.2-4.8-0.1-7.3-1.2c-2.6-1.1-5.2-2.7-7.2-4.7c-1.8-2-2-5-3.6-6.8
	c-2-2.2-4.2-0.8-6.4-1.4c-2.6-0.8-2-2.2-3.4-4.1c-1.1-1.5-3.5-2.4-5.2-1.3c-0.6,0.4-1.4,2.1-1.5,2.5c-0.9,3,0.3,2.6,1.7,4.3
	c2,2.5,1.6-2.3,2,2.3c0.1,1-0.3,2.4-0.4,3.5c-0.2,3.1,0,5.3-2.3,7.6c-1.7,1.6-3.2,2.5-4.4,4.5c-1.1,1.8-3.5,8.9-5.7,9.4
	c-4.2,0.9-3.6-14.2-3.6-16.2c0-3.1,0.9-6.4,0.6-9.5c-0.2-1.8-0.9-2.9-1.6-4.5c-0.8-1.8-0.5-2.4-0.7-4.2c-0.3-2.8-4.6-6.4-2.5-9.2
	c1.2-1.6,5.1-2.6,6.9-3.5c2.6-1.3,6.8-2.5,9-4.4c2.1-1.8,1.8-4.7,3.3-7c1.2-1.8,2.9-3.1,4.7-4.2c5.1-3.1,9.4-7.4,12-13
	c2.2-4.6,4.5-7,9.7-8.2c2.7-0.6,4.6-0.3,6.8,1.4c1.3,1,2.1,2.4,3.5,3.2c1.9,1,3.6,0.5,5.5,1c1.8,0.5,3.8,2,5.7,0.7
	c2.5-1.6,2-5.5,5.6-6.1c0.8-0.1,7.4,0.5,7.5,0.6c1.9,1.8-3.2,6.2-4.2,7c-5.2,4-12.2,3-17.6,6.9c-3.2,2.3-6.6,4.4-9.9,6.7
	c-2.2,1.5-3.8,2.8-6.6,1.8c-2.9-1-4.3-2.5-7.5-1.3c-3,1.2-7.1,4.5-8,7.7c-1,3.4,1.1,5.9,2.2,8.8c1.6,4.1-0.4,3.8-4.2,4.3
	c3.7,2.2,5.4,1.7,9.4,1.9c3.9,0.2,5.9,3.4,9.7,3.4c3.3,0,5.9-0.5,8.1,2.6c2.4,3.3,0.2,4.9-1.4,7.7c-1.7,2.9-0.1,4.6,2.5,5.5
	c2.2,0.8,8.6,3.4,10.3,2.5c2.2-1.2,2.3-5,2.9-7.2c1.1-3.9,3.8-5.4,5.6-8.7c1.6-2.9,0.8-6.4,2.4-9.4c1.8-3.5,5.3-5.7,8.3-8.1
	c2.6-2,4.6-3.4,5.9-6.2c1.4-3.1,2.6-6.1,3.7-9.4c2.2-6.6,1.8-15,6.2-20.7c1.3-1.7,5-5.4,7.4-5.3c2,0.1,3,2.5,3.7,4.5
	c1.4,4.1-1.2,7.1-3.3,10.4c-2.6,4-3.4,8-4.9,12.3c-1.4,3.9-5.1,7.6-7.2,11.2c-1,1.8-2.3,3.4-3.7,5c-1.1,1.2-2.8,4-3.8,2.3
	c1.3,1.2-0.3,2.1-1.1,3c0.5,0.5,5.1-1,6.2-0.8c2.4,0.4,3.3,1.6,5.2,2.8c2.7,1.7,6.7,2.7,9.9,3c2,0.2,4.4-0.1,6.3,0.7
	c3.5,1.4,4.1,3,7.9,0.5c2.3-1.5,5.1-3.8,7.1-5.6c2.3-2.1,3-5.4,6.5-5.9c-0.6,2.4-1.3,5.4-3.2,7.1c-1.8,1.6-4.5,2.1-6.6,3.3
	c-2.3,1.4-3.8,2.9-5.2,5.1c-0.6,1-1.4,0.7-1.1,1.9c0.2,0.8,1.8,1.3,2.1,1.8c0.7,1.7-2.5,5.3,0.5,7.6c1.5,1.2,4,0.2,4.3,2.8
	C201.5,98.3,199.8,102.6,198.8,102.3z M100.4,70c0-2.7,0-5.4,0-8c-2,2.5-0.1,5.5-1.1,8.1c-0.7,1.9-2.1,1.7-3.5,2.8
	C97.3,73,102,72.9,100.4,70z M166.6,66.2c0.3-0.7,0.6-1.4,0.8-2.2C167.2,64.8,166.9,65.5,166.6,66.2z M170.3,77.8
	c-0.1-0.2-0.2-0.1-0.3,0.1C170.1,77.7,170.2,77.6,170.3,77.8z M190.4,92.2c0,0,0-0.1,0-0.1C190.3,92.1,190.4,92.1,190.4,92.2z
	 M353.8,29.1c-0.5,0.4-0.6,2-0.2,2.5c0.9,1.2,1.6,0,2.6-0.4c2.4-1,6.2-2.8,5.1-5.9C358.6,26.1,356.1,27.2,353.8,29.1z M185.9,100.9
	c-2.5,0.5-4.7,4-1.4,5.8c1,0.5,2.9,0.5,3.6-0.8C188.8,104.5,186.5,101.9,185.9,100.9z M612.7,115.7c2.4,2.9,4.4-1.1,4.8-3.2
	c0.4-1.7,1.3-2.6-0.5-1.6C615.4,111.7,613.8,114.4,612.7,115.7z M346.1,56.2c0,0.4,2.1,1.7,1.4-1.3C346.7,51.2,346,54.5,346.1,56.2z
	 M740.1,45.6c-0.2,0.2-0.4,0.4-0.6,0.7C740.3,46.5,740.5,46.3,740.1,45.6z M752.5,11.6C752.4,11.6,752.4,11.6,752.5,11.6
	C752.4,11.6,752.4,11.6,752.5,11.6z"/>
</svg>
