<?xml version="1.0" encoding="utf-8"?>
<!-- Generator: Adobe Illustrator 22.0.1, SVG Export Plug-In . SVG Version: 6.00 Build 0)  -->
<svg version="1.1" id="Layer_1" xmlns="http://www.w3.org/2000/svg" xmlns:xlink="http://www.w3.org/1999/xlink" x="0px" y="0px"
	 viewBox="0 0 2731.5 595.2" style="enable-background:new 0 0 2731.5 595.2;" xml:space="preserve">
<path d="M2725.4,18c-0.7,1.2-1.7,2.7-2.5,4c3.4,0,6.3,0,9.1,0c0,7.7,0,15.3,0,23c-1.3-1.9-2.5-3.9-3.8-5.8c-5.4,3.2-5.6,3.3-7.7,0.8
	c2.9-1.2,5.6-2.1,8.1-3.3c0.6-0.3,1.4-1.6,1.3-1.8c-1.4-1.8-3-4.8-4.4-4.7c-2.2,0.1-4.7,1.9-6.4,3.7c-1.5,1.6-2.1,4-3.1,6
	c-2.7-2.2-3.9-4.6-2.3-8.2c0.5-1.1-0.3-2.8-0.4-3.1c2.4-1,4.9-1.5,6.7-3c2.3-2,2.6-4.7-0.2-7.1c0.8-0.3,1.7-0.6,2.3-0.9
	c-0.7-1.3-1.4-2.5-2.4-4.3c2.2-0.2,3.9-0.4,5.7-0.6c1-3.7,1.9-7.5,3.3-11.1c0.3-0.9,2.1-1.2,3.3-1.7c0,6.3,0,12.7,0,19
	C2730,18.7,2728,18.4,2725.4,18z M576,195.1c5.9,6.5,5.9,6.6,11.1,0.9c3.5-0.2,5.8-0.4,8.2-0.5c-0.3-1.9-1-3.9-0.8-5.7
	c0.3-2.8,0.3-6.1,1.9-8.1c2.5-3.3,1.9-6.4-0.3-8.3c-1.6-1.4-4.9-0.8-8.2-1.2c0.8,1.6,1.7,2.5,1.5,3.2c-0.6,2.1-1.3,4.2-2.5,6
	c-0.3,0.4-2.8-0.2-4-0.9c-5.4-3.3-8.3-2.1-12.2,3.3c-1.6,2.3-2.7,3.5-0.7,5.6C571.9,191.4,574.2,193,576,195.1z M506.8,244.5
	c3.9-0.4,8.5,1.1,10.6-4.2c0.2-0.5,2.1-0.1,2.8-0.6c1-0.8,2.5-2.3,2.2-3c-0.7-2.4-2.1-4.7-3.3-7c0.5,0,0.9,0.1,1.4,0.1
	c0.3-1.6,1.2-3.4,0.8-4.8c-1.2-4.9-4.7-2.6-7.7-1.7c-0.4-1.5-0.7-2.7-1-3.9c-8.1,3-8.8,4.1-5.5,7.9c-1.3,1.4-2.4,2.9-3.9,4.1
	c-1.6,1.3-3.4,2.3-5.1,3.4C498.3,239.4,503.1,244.8,506.8,244.5z M433.4,214.6c3.9,2.5,3.7,8,2.6,9.2c-2.7,3.1-1.3,5.6-1.2,8.3
	c1.7,0,3.1,0,4.6,0c-0.1-0.7-0.6-1.7-0.3-2.1c1.8-2.5,3.8-4.8,5.8-7.2c0.8-0.9,2.3-1.8,2.3-2.6c-0.2-4.4,0.7-6.1,4.3-7.4
	c5.9-2.2,5.9-2.2,3.1-8.1c-1.3,1-2.6,1.8-3.7,2.8c-1.4,1.2-2.6,2.4-3.9,3.7c-1.3-1.7-2.5-3.4-4.2-5.8c-3,1-8.9-2.4-11.2,4.3
	c-1.1-0.5-2.1-1-3.1-1.5C429.8,210.9,431.3,213.3,433.4,214.6z M524.6,219.3c1.6-1,3.9-2.2,5.7-3.9c1.1-1.1,3.1-2.5,0.2-4.7
	c-1.4-1-1.3-4.2-1.8-6.5c-10.1,0.2-13.4,2.1-12.4,7.9c-1.1-0.7-2-1.3-2.8-1.9c-0.3,0.4-0.6,0.9-0.8,1.3c1.8,1.3,3.5,2.7,5.3,3.9
	C520,216.7,522.2,217.9,524.6,219.3z M526.6,193.9c1.2-0.3,2.8,0.8,4.5,1.3c5.1-4.6,5.6-9.4,1.1-13.4c0.7-0.3,1.5-0.5,3-1.1
	c-5.3-1.8-9.7-2.6-13.3,1.5c0.4,0.3,0.7,0.6,1.1,0.9c-0.7,1.4-1.6,2.7-2.2,4.1c-0.3,0.8-0.6,2.2-0.3,2.5
	C522.4,191,522.7,194.9,526.6,193.9z M375.8,196.6c1.3,0.9,4.9,1,5.3,0.2c1.6-2.9,3-6.2,3.3-9.5c0.1-1.6-2.3-3.4-4-5.6
	c-1.7,1.2-3.5,2.5-4.8,3.4c-0.9-0.8-1.6-1.9-2.4-1.9c-0.7,0-1.6,1-2.1,1.8C368.9,188.7,370.5,193.1,375.8,196.6z M478.5,202.4
	c2.6,0.4,4.9,0.7,7.2,1.1c-1.2,1.1-2.4,2.2-3.6,3.3c0.9,1.5,1.7,2.8,2.8,4.5c-1.4,0.5-2.4,0.9-4.8,1.8c2.7,0.9,4.2,1.3,5.7,1.8
	c0.3,1.2,0.6,2.6,0.8,3.7c2.5-1.3,4.7-2.4,7.7-4c-2.1-0.8-3.4-1.4-4.8-1.9c0.4-0.1,0.9-0.3,1.3-0.4c-1.3-3.7-2.7-7.5-4.1-11.5
	c-2,0.5-3.6,0.8-4.3,1c-4.2-5-8.7-3.9-14-2.9c0.7,2,1.3,4,2,6C473.1,203.4,477.5,207.5,478.5,202.4z M424.6,187.9
	c0.4-1.9-3.1-7.7-5-7.7c-2.4,0.1-6.1,0-7,1.4c-1.4,2.1-0.8,5.5-1.1,8.3C418.7,192.3,423.8,191.5,424.6,187.9z M469.2,181.7
	c1.7,0.6,3,1.1,5.3,1.9c0.7-3.3,1.4-6.9,1.9-9.6c-1.8-1.6-2.9-2.6-4.6-4.1c-1,2.4-1.8,4.5-2.9,7.2c0.3,0.3,1.3,1.3,1.8,1.9
	C469.9,180.4,469.5,181.2,469.2,181.7z M366.3,181.2c-6-2.8-7.9-1.6-8.8,6.2c3.2,0,6,0,8.8,0C366.3,184.9,366.3,183,366.3,181.2z
	 M422.3,214.6c-1.6-6.2-5.5-8.8-12.5-8C414.7,208.9,413.9,218.3,422.3,214.6z M661.7,184c-0.3,4.7,3.1,4.5,5.6,5
	c0.9-2,1.7-3.7,2.6-5.6c-0.9,0-1.7,0-2.7,0c0.3-1,0.5-2,0.6-2.1c-2.4,0.2-4.3,0.1-6.1,0.5c-1.5,0.4-2.9,1.4-4.3,2.1
	c0.3,0.5,0.6,1,0.8,1.5C659.3,184.9,660.6,184.4,661.7,184z M458.8,180.5c-0.5,0.9-0.9,1.8-1.5,2.7c1.7,0.6,3,1,4.2,1.5
	c0.7-1.8,1.3-3.3,1.9-4.8c-2-1.7-3.9-3.2-6.1-5C452.6,178.3,457.4,178.9,458.8,180.5z M2167.5,297.4c-1.3-1.4-2.6-2.8-4.7-5.2
	c-1,2.2-1.7,3.8-2.4,5.4c2.2,0.5,4.5,0.9,6.7,1.4C2167.2,298.5,2167.3,298,2167.5,297.4z M445.3,189.1c-1.4-0.6-2.9-1.2-4.4-1.7
	c0,2.1,0,4.4,0,6.6c2.2,0,4.4,0,6.2,0C446.5,192.1,445.8,190.5,445.3,189.1z M729.1,183.4c-0.1-0.3-0.2-0.6-0.3-0.9
	c-2.3,0.8-4.7,1.6-7,2.4c0.9,1.4,1.8,2.8,2.7,4.1C726.6,186.5,727.9,185,729.1,183.4z M2716,39.9C2716,39.9,2716,39.9,2716,39.9
	C2716,39.9,2716,39.9,2716,39.9L2716,39.9L2716,39.9L2716,39.9C2716,39.9,2716,39.9,2716,39.9C2715.9,40,2715.9,40,2716,39.9
	c1.3,0.5,2.7,0.9,4,1.3c-0.5,1.9-0.9,3.5-1.3,5.2c0.5-0.3,1-0.7,1.5-1c4,2.9,7.9,5.8,11.9,8.7c0,182,0,6910,0,7092
	c-910.7,0-1821.3,0-2732,0C0,7038.3,0,384.7,0,277c2.7,3.8,5.4,7.5,8.1,11.3c0.7-0.3,1.5-0.6,2.2-0.9c-0.3-2-0.6-4.1-0.9-6.5
	c0.9-0.5,2.7-1.6,4.3-2.6c-2.3-2.6-4.4-5.1-6.6-7.5c-0.7-0.8-2-2.2-2.2-2.1c-3.7,2.7-3.4-1.6-4.9-2.8c0-6.5,0-13,0-19.5
	c2.5-0.8,4.9-1.7,7.4-2.5c1.6,2.1,4.8,3,7,0.8c1.1-1.1,2.4-2.4,2.8-4c12-3.9,24-7.7,36.1-11.2c0.8,0.4,1.7,0.8,2.5,1.1
	c1,0.4,3.9-1.1,4-2c0.1-0.4,0.2-0.8,0.2-1.1c6.7-1.9,13.4-3.7,20.1-5.5c0.3,1.4,0.6,2.7,1,4c0.4,1.1,1.6,2.9,2.2,2.8
	c1.5-0.2,3.3-1,4.1-2.2c0.6-0.9,0.4-3.2-0.4-4.1c-0.6-0.7-1.3-1.3-2-1.9c4.2-1.1,8.4-2.2,12.6-3.2c3.6-0.9,8.3-1.5,13.1-2.2
	c-0.1,0.9-0.3,1.9-0.5,2.8c4.6-2.8,5.8-2.3,6.6,1.8c2-2.2,4.2-4.5,6.3-6.9c0.4-0.1,0.9-0.2,1.3-0.4c0.4,0.2,0.8,0.4,1.2,0.6
	c-0.7,2.7-1.5,5.4-2.2,8c2.1,1.1,4.3,2.2,6.5,3.3c-0.1-2.7,4.7-5.7,0-7.9c2-3.4,4.9-5.9,8.8-5.7c2,1.4,4.7,3.6,6.4,3
	c4-1.3,7.5-3.9,11.6-6.3c1.4,4.8,2,10.2,9,7.6c-0.3,3.3-0.5,6.2-0.8,9.2c0.4,0.2,0.9,0.4,1.3,0.6c1.2-1.2,3.2-2.2,3.4-3.5
	c0.2-1.4-1.3-3-2.4-5.1c2.7-0.4,5.8-0.1,7.4-1.5c0.9-0.8-0.5-4.4-0.8-6.3c5.9,2.1,12.9-0.1,19-2.9c4.5-2.1,7.1,1,10.6,1.2
	c0.2,0,0.4,0.9,0.6,1.4c0.6,1.5,1.2,3.1,1.8,4.6c0.5,0,1,0,1.6-0.1c0.7-1.8,1.3-3.6,2.2-5.4c0.7-1.4,2.5-3.9,2.6-3.8
	c5.4,3.2,6.1-3.5,9.5-4.6c-1.2-0.2-2.3-0.3-3.5-0.5c6.8-0.7,8.7,1.5,7.2,7.7c-0.3,1.1,0.3,3,1.2,3.6c0.9,0.6,3,0.5,3.8-0.2
	c1.2-1.1,2.6-3.1,2.4-4.6c-0.4-4.4,1.9-3,4-2.6c-0.2,1.5-0.3,2.6-0.4,3.8c0.4,0.1,0.9,0.3,1.3,0.4c0.6-1.3,1.1-2.6,1.8-4.3
	c1.7-2.3,3.8-5.1,6.1-8.2c2.3,5,7,4.2,10.8,4.7c1.1,0.2,2.6-2.6,4.1-4.3c2.7-0.9,7.2,2.8,9.4-2.6c1.5,0.2,3,0.7,4.3,0.4
	c3.2-1,3.6,0.6,3.9,3.2c0.2,1.4,1.2,3.7,2.2,3.9c2.3,0.6,4.9,0.3,7.3,0.1c0.2,0,0.2-2.4,0.1-3.7c-0.1-0.9-0.5-1.7-1.2-3.8
	c2.4,1.2,3.7,1.9,6.4,3.2c-0.2-2.3-0.3-3.9-0.4-4.9c5,0,10.5,0,16.4,0c-3.8,5.4,2.2,6.7,3.3,9.9c0.2,0.5,0.6,1.3,0.7,1.3
	c2.9-1.1,5.7-2.2,8.7-3.4c0.4,0.6,1.4,1.9,3.1,4c2.5-2.6,4.7-4.9,6.9-7.2c-0.6-0.2-1.1-0.4-1.7-0.6c-1.1-2.4-2.2-4.9-3-6.6
	c2.8-1.8,4.6-2.9,7.1-4.5c3.6,4,7.7,8.4,11.7,12.8c-4.5,1.2-4.7,9.3-12.2,5.9c3.9,5.7,3.4,6.9-2,8.3c-3.5-5-3.5-5-7.9-3.4
	c0.8,0.9,2.4,2,2.2,2.6c-1.2,4.2,2.6,6.3,4.5,8c2.9,2.5,4.2,4.4,3.1,8.1c-0.3,1,0.9,2.4,1.6,4.2c3.9-5.6,7.1-6.5,12.2-2.8
	c2.8,2.1,3.8,1.8,5.8-0.5c0.8-0.9,2.8-1.7,3.7-1.3c1.3,0.6,2.3,2.2,3.2,3.6c0.5,0.8,0.4,2,0.5,3c0.5,0,0.9,0,1.4,0
	c0.1-1.3,0.2-2.6,0.3-3.9c0.1-1.6-0.4-3.9,0.5-4.8c2.7-2.8,1.3-5.2-0.2-7.6c-2.5-4.1-1.2-9.3,2.9-10.6c3.4-1.1,6.8-2,10.4-3.1
	c0.1,0.8,0,1.9,0.4,2.3c5.4,4.4,3.6,9.4,1.5,14.6c-0.7,1.8-0.1,4.2-0.1,6.4c0.5,0,1.1,0,1.6,0c0.1-1,0.2-2,0.2-2.6
	c2.8-0.6,5.3-1.2,7.2-1.6c5.4,8,5.5,15.5-3.2,20.2c2.1,3.9,4,7.2,5.5,9.8c2.7-3.7,4.5-8.9,8-10.4c3.4-1.5,8.5,0.7,12.8,1.3
	c0.1,0.2,0.2,0.5,0.3,0.7c-1.4,0.5-2.8,1.1-4.1,1.6c0.4,0.8,0.8,1.5,1.1,2.3c-4.3,0.3-3.3,3.5-3.8,5.9c8.3,3.5,8.3,3.5,8-3.6
	c1.9-1,3.8-2,5.8-3.1c-0.5-0.9-1.1-2.2-2.1-4.1c3.8-0.4,2.6-2.4,1.2-4.3c3.7-0.2,3.7-0.2,4.4-5.3c-4.5-0.6-9-1.3-13.5-1.7
	c-0.8-0.1-1.9,1.4-2.4,2.4c-0.4,0.8-0.1,1.9-0.1,3.3c-2.2-1.6-3.9-2.8-5.9-4.2c1.4-0.7,2.1-1.2,3.2-1.7c-1.2-0.8-2-1.4-2.8-2
	c1.1-1.3,1.9-2.4,3-3.7c-1.6-0.7-2.9-1.3-4.2-1.8c-1.9-0.7-4.8-0.8-5.7-2.1c-1.2-1.8-1.1-4.7-1-7c0.1-0.7,2.4-1.5,3.8-1.7
	c0.6-0.1,1.5,1.1,2.1,1.8c2.1,2.9,4.2,5.8,6.3,8.8c0.2,0.3,0.6,0.5,1.1,0.8c0-1.6,0-2.8,0-4.1c0.4-0.1,0.9-0.2,1.3-0.2
	c0.4,1.5,0.7,3,1.1,4.5c2.5-1.9,7.6,6.4,8.3-2.2c2.3-0.2,4.6-0.8,6.5-0.3c1.9,0.5,3.8,1.9,5,3.4c0.5,0.7-0.4,2.9-1.1,4
	c-2.2,3.5-4.8,6.8,0.7,9.9c1,0.5,1.2,2.3,2,3.3c1.3,1.6,2.7,3,4,4.5c1-1.1,1.9-2.2,2.9-3.4c3.4,1.2,6.8,2.5,10.7,3.9
	c-0.4-0.9-0.7-1.5-0.9-2.1c1.4-0.5,2.9-1.1,3.8-1.5c-1.7-1.9-4.4-3.5-4.4-5.2c0-3.2,2.4-5.2,6.1-5c4,0.2,8,0,12,0
	c-0.2-0.5-0.5-1-0.7-1.5c2.8-1.6,5.7-3.1,8.1-4.5c0.7,2.3,1.3,4.4,2,6.5c0.4-0.1,0.8-0.2,1.3-0.3c0-0.6-0.2-1.6,0-1.8
	c2.9-1.5,5.7-3.1,8.8-4c0.8-0.3,2.4,1.4,3.5,2.3c0.3,0.3,0.3,1.4,0.5,1.4c4.3,0.4,7.1,5.6,12,3.9l0.2-0.2c0,0,0,0,0,0c0,0,0,0,0,0
	c0,0,0,0,0,0.1c0,0-0.1,0.1-0.1,0.1c-3.5,4-7,8-10.6,12c4.5-0.2,8.7,0.5,12.1,3.7c1.1,1.1,3.2,2.7,4,2.3c5.1-2.3,5.6,2.3,6.7,4.8
	c1.1,2.4,0.8,5.4,1.3,9.4c3.1-1.8,7.8-3.1,8-4.9c0.5-5.3,4.1-4.6,7.3-5.4c0-1.8-0.5-3.7,0.1-5.2c1.6-3.9,2.9-9.3,5.9-10.8
	c3.3-1.7,8.4,0.2,12.7,0.8c2.2,0.3,5.6,0.6,6.1,1.9c2.3,5.1,4.4,1.6,6.5,0.3c0.5-0.3,0.9-1.1,0.9-1.6c0.3-4.8,0.5-9.5,0.6-14.3
	c0-1-0.6-2-1.1-3.3c-0.6-0.5-1.6-1.5-2.8-2.5c-0.9-0.7-1.8-1.4-2.8-2c-2.5-1.8-5-3.5-7.4-5.4c-0.3-0.2,0.3-2.3,0.6-2.3
	c3-0.4,4.8-2.6,3.2-4.6c-1.1-1.2-1.5-2.7-2.5-3.8c-1.5-1.9-3.2-3.7-4.7-5.5c2.7-1,4.1-1.6,4.3-1.6c4.3,2.2,8,3.7,11.3,5.9
	c2.8,1.8,5.2,4.3,7.3,6.1c0.1,0-1,0.1-2.1,0.2c2.2,3.7,5.5,3.8,10.3,0.6c5-3.3,9.6-1.6,11.3,4.2c1.8-0.5,3.6-1.1,5.5-1.6
	c0.2,0.4,0.4,0.8,0.6,1.2c-1.3,0.7-2.7,1.2-3.8,2.1c-1.1,0.8-2,2-2.8,3.1c-0.2,0.2,0.3,0.9,0.5,1.4c-5.2,0.6-2.8,4.9-3.6,7.5
	c-0.9,3-4.7,6.7-7.4,6.4c-0.5,1.5-1,2.9-1.3,4.4c-0.3,1.4-0.3,2.9-0.5,4.4c0.4,0.1,0.7,0.1,1.1,0.2c0.9-2,1.9-4,2.8-6
	c8,4,8,4,3.1,13.8c3.3-1.3,5.6-2.2,7.6-3c-0.7-3.4-2-6.6-1.8-9.7c0.4-4.7,1.8-9.4,8.2-10.2c1.2,2.9,2.5,6,4.1,9.7
	c2.2-1.1,4.9-2.4,6.5-3.2c2.2,1,3.8,1.7,4.3,1.9c0.9,2.5,1.6,4.2,2.2,6c-0.2,2.8-0.4,5.6-0.6,8.6c0.8,0,1.4,0,2-0.1
	c1.3-0.2,3.1-0.1,3.9-0.9c1.7-1.7,1.4-3.7-0.4-5.4c-1.4-1.4-2.8-2.8-4.2-4.2c-0.1-1.6-0.5-3.2-0.3-4.7c0.1-1,0.9-2.1,1.7-2.7
	c2.6-2,5.4-3.9,8.6-6.2c-0.2,1.7-0.4,3.3-0.7,5.4c3.1,2.7,5.1,0.5,7.4-3.3c-3.8-1.7-7.3-3.2-10.8-4.7c0.7-1.2,1.8-3.1,2.8-4.7
	c-1-1.5-2.2-3.3-3.4-5.2c-2.4,0.6-4.8,1.9-7.1,1.7c-4-0.3-8-1.5-13.3-2.6c1.3-0.6,2-0.9,2.2-1c-0.6-3.6-1.2-6.7-1.6-10
	c-0.1-0.4,1-1.1,1.6-1.4c2-1.2,4-2.3,5.8-3.3c6,1.1,10.1,4.9,12.3,10.8c2.1-3.5,5.4-4.1,8.8-3c2.4,0.8,5.3,1.8,4.2,6.1
	c-0.6,2.2,7.8,6.6,10.4,5.9c2.6-0.7,5.1-1.8,7.8-2.8c-2.2-5.4-1.7-10.5,1.6-15.3c-2.9,0.2-5.8,0.4-8.9,0.6c0.2-1.1,0.3-2.3,0.5-3.5
	c3,0.5,6.2-4.4,8.6,0.8c1-4,5.6-3,7.7-5.2c-0.5-0.7-1-1.3-1.5-1.9c4.2,2.3,8.1,4.8,11.7,0.4c1.6,0.8,2.7,1.8,3.8,1.9
	c4.9,0.3,6.1,1.9,4.8,6.9c4.4,1.7,2.7-1.8,2.8-3c5.3-2.3,10-4.4,13.9-6.1c1.6,1.1,2.8,2.3,4.3,2.6c4.7,1.1,7.1,5.6,4.6,10
	c2.1,1.9,4.1,3.7,6.5,5.9c-1.5-3.7-2.6-6.5-3.7-9.2c0.3-0.5,0.7-1.1,1-1.6c1.5,0.6,3,1,4.4,1.7c1.7,0.9,3.1,3,4.7,3
	c1.5,0.1,4.6-2.3,4.5-2.7c-1-3-2.6-5.8-4.2-8.8c2.8-1.6,4.7,1,6.8,2.7c1.1,0.9,2.3,2.2,3.6,2.4c4.1,0.6,8.3,0.7,13.2,1.1
	c-0.5-1.3-0.9-3.5-1.5-3.6c-8.9-0.4-2.7-5.2-3.1-8c0.5-0.2,1-0.3,1.4-0.5c0.6,1.7,1.2,3.4,1.8,5.2c2.1,0,4,0,4.5,0
	c-0.3,3-0.6,5.7-0.7,8.4c0,1.1,0.2,2.7,1,3.3c0.6,0.5,2.6,0.5,3.2-0.1c0.7-0.7,0.8-2.2,0.9-3.4c0.1-0.7-0.2-1.4-0.4-2.5
	c1.9,0.1,3.2,0.2,4.7,0.3c0.2-1.4,0.5-2.7,0.7-4.4c1.8,0.9,3.2,1.6,5.2,2.7c2.2-7.8,7.9-8.1,14.6-7.4c6.6,0.7,12.6,2.3,17.8,7.2
	c2.2-2.7,4.6-5.8,7.6-9.4c1.6,1.5,3.2,3,5.3,5c-2.7,0.3-4.4,0.6-6.1,0.8c0,0.6,0,1.2,0,1.8c1.9,0.1,3.9,0.7,5.6,0.1
	c1.8-0.7,3.2-2.4,4.8-3.7c0.3,0.3,0.7,0.5,1,0.8c-0.1-1-0.1-2-0.2-3.5c2.2,0.2,5.1-0.3,5.7,0.7c1.3,2.1,2.4,1.8,4.4,1.9
	c2.9,0.1,7.6-0.6,5.7,5.4c-0.3,0.9,1.5,2.4,2.6,4c4.2-8.4,8.8-7,13.9-0.9c0-1.9,0-2.9,0-4.3c6.5,2,12.9,2.8,18.7-0.8
	c-0.9,4.3-2.9,8.1-2,10.9c1.7,5,6.4-0.4,9.4,1.8c2.9-6.3-4.3-6.5-5.6-10.2c6.3-3.4,6.4-3.3,10.5,2.1c1.7,2.2,3.5,4.3,5.5,6.7
	c1-0.2,2.3-0.6,3.5-0.9c-1.1-1.3-2.8-3.1-2.7-3.1c2-2,4.2-3.8,6.3-5.7c0.5,0.5,1,1.1,1.5,1.6c-1,1.3-2,2.6-3.9,5.1
	c3.8-1.5,6.4-2.6,9.6-3.9c0.4,0.3,1.6,1.9,3.3,2.7c4.7,2.2,5.1,3.3,1.8,7.7c-3.9,5.4-3.5,7.6,2.4,10.9c-0.4,1.3-0.9,2.7-0.9,2.9
	c1.5,2.1,2.2,4.1,3.6,4.7c1.8,0.8,4.9,1.6,5.9,0.7c1.7-1.6,2.2-4.4,3.5-7.4c-3-0.6-5.8-1.2-7.7-1.6c1.1-2.6,2.6-4.9,3.1-7.4
	c0.7-4.1,1.3-7.4,6.5-4.1c0.6,0.4,1.9-0.4,3.3-0.8c-1.4-0.5-2.2-0.8-3-1.1c5.3,1.2,1.7-4.8,5.5-5.4c1.5,1.9,3.3,4.1,5.5,6.9
	c2.9,0.8,6.8,2,10.7,3.2c0.3-0.4,0.5-0.8,0.8-1.2c-1-1.5-2.1-3.1-3.1-4.6c3-1.8,3-1.8,10.3,6.9c2.9-1.1,5.8-2.3,8.7-3.4
	c1.8,4.6,3.9,5.5,9.5,4c0.8-0.2,2.1-0.2,2.6,0.3c3.8,3.5,7.9,5,12.1,2c1.1,1.6,2.2,3.9,2.7,3.8c5.7-1.5,4.7,2.6,4.8,4.7
	c7,0,13.8,0,21.1,0c-0.6,2.3-0.9,3.2-1.1,4.1c3.2,0.7,6.1,1.5,8.9,2.1c1.5-3.8-9.3-3.8-2-8.4c4.2,2.6,8.1,5,12.1,7.5
	c-1.4,1.6-2.3,2.6-3.1,3.6c0.6,0.7,0.9,1.4,1.4,1.7c1.4,0.8,2.9,1.5,4.4,2.3c0.5-1.4,1.2-2.8,1.4-4.3c0.3-2.2,0.3-4.4,0.5-7.4
	c4,3.7,6.5,1.2,9-1.4c3.8,7.1,5.2,7.7,11.2,5c1.1,1.2,2.2,2.5,3.5,3.8c0.9-1.6,1.6-2.9,2.2-4.2c3.7,0,7.2,0,9.9,0
	c0.8,2.1,1.5,4.1,2,5.5c4.9,0.2,9.2,0.4,13.4,0.6c2.9,6.5,3.9,6.7,11.9,3.6c5.6,5,10.3,1.8,13.6,0.3c4.3,2.4,7.6,4.2,11.9,6.6
	c0-3-0.4-4.5,0.1-5.2c0.6-0.8,3.1-1.2,3.2-1.1c1.2,2.9,2.3,5.9,3.3,8.8c0.5,1.5,1.1,3,1.7,4.5c0.5,0,1,0,1.5,0
	c0.7-2.1,1.5-4.2,2.4-6.6c3.8-0.9,8.4-2.1,10,4.4c0.1,0.4,1.5,0.9,2.1,0.7c3-1.1,5.8-2.6,8.8-3.4c2.4-0.6,5-0.4,7.4-0.2
	c0.3,0,0.5,2,0.9,3.6c-1.1-0.5-1.6-0.9-2-0.8c-1.5,0.4-2.9,0.8-4.3,1.5c-0.2,0.1,0.3,2.4,0.6,2.5c1.5,0.1,3-0.2,4.4-0.4
	c1-0.1,2-0.3,2.9-0.2c2.8,0.4,5.5,1,9,1.6c-0.6,1.2-1.4,2.9-2.1,4.5c1,0.9,2,2.4,3.5,2.9c1.8,0.6,4.4,1.3,5.7,0.4
	c4.4-2.9,10.3-3.5,14.7-0.7c1,0.6,2.4,0.6,3.6,0.9c0-1.7,0-3,0-4.2c2.8,7.6,3.9,8.3,8.2,3.8c1.2,1.5,2.3,2.9,3.5,4.5
	c0.8-2.2,1.4-4,2.1-5.8c0.3,0,0.6,0.1,0.9,0.1c0.6,2.3,1.1,4.6,1.6,6.6c3.3-2.9,5.8-5.1,8.3-7.3c0.3,0.2,0.7,0.5,1,0.7
	c-0.7,1.8-1.5,3.6-2,4.8c1.4,1,2.9,2.1,4.3,3.1c1.7-0.9,3.4-1.8,5.6-2.9c-0.1,2.2-0.2,3.9-0.3,5.5c2-1.4,3-3.8,4.7-4.7
	c1.7-0.9,4.3-0.2,6.4-0.2c0,0.5,0,1.1,0,1.6c-1.9,0.2-3.7,0.5-5.1,0.6c-1,1.7-1.9,3.3-2.8,4.8c4.8,2.7,8.7,2.8,11-3.1
	c0.2-0.6,1.6-0.8,2.8-1.4c0,1.6,0,2.7,0,3.3c1.9,0.7,3.4,1.4,4.9,1.8c1.5,0.4,3.8,1.2,4.5,0.5c3.1-3,4.6-0.2,6.8,1.1
	c3,1.7,6.2,2.8,9.3,4.2c0.3-1.8,0.6-3.6,0.8-4.7c8.1-3.3,8.7,5.4,13.8,7.7c-0.2-1.4-0.4-2.6-0.5-3.3c1.9-0.4,3.7-0.9,5.7-1.3
	c0.5,1,1.1,2.3,1.3,2.8c2.9-0.2,5.3-0.4,7.7-0.6c-1.5,1.2-3.1,2.5-4,3.2c0.5,0.9,1.2,2.4,1.9,3.8c0.1-0.5,0.2-1.1,0.3-1.6
	c3.4-0.3,7.2-1.7,10-0.5c3.7,1.5,6.9,1.8,10.5,0.2c0.1,0.9,0.2,1.8,0.2,1.9c2.8,1.1,4.7,2,6.8,2.6c1.2,0.3,2.8,0.3,3.8-0.2
	c1.4-0.7,2.4-2.1,4.1-3.6c0.8,2.2,1.4,3.8,1.6,4.4c1.7,0.3,2.6,0.7,3.5,0.6c2.2-0.1,4.3-0.2,6.5-0.5c1-0.1,2.1-0.9,3.1-0.9
	c0.4,0,0.9,1.2,1.3,1.8c-0.9,0.4-1.8,1-2.8,1.3c-0.8,0.2-1.7,0.1-3,0.2c0.7,0.5,0.9,0.8,1.1,0.9c0.5,0.1,1.3,0,1.4,0.2
	c1,2.3,1,2.3,3,1c3.8-2.6,5.7-1.9,6.7,2.8c3.6-1.5,3-8.5,8.2-7.2c-0.5,2.3-1.1,4.6-1.7,7.2c6.1,0.4,12.7-5.4,16,3.3
	c0.9-1.2,1.7-2.4,2.7-3.8c3.7,2.1,6.9,4.5,10.6,5.7c3.7,1.3,7.9,1.4,11.8,2c0.8-0.7,1.8-0.9,2.5-0.6c2.8,1.1,4.8,4.4,8.6,2.5
	c0.5-0.3,2,1.4,3.4,2.4c1.5-1.1,3.4-2.4,5.4-3.8c0.7,1.1,1.2,1.9,1.7,2.7c2,2.8,2.7,1.3,2.9,0.4c3.1,0.8,6.1,1.7,9.2,2.6
	c0.6-1.9,1-3.2,1.2-3.8c2.3,1.2,4.3,2.2,6.8,3.4c-0.2,0.7-0.5,2.1-0.9,3.4c-1.2,5,0.8,7.2,5.7,5.7c2.7-0.8,5.1-2.4,7.7-3.6
	c-0.4-0.2-0.8-0.4-1.1-0.6c0.3-1.6,0.7-3.3,1-4.9c0.4,0.1,0.8,0.2,1.3,0.3c0.3,1.7,0.6,3.5,1.1,6.3c1-2.4,1.5-3.5,2-4.6
	c2.3,1.2,4.2,2.2,6.4,3.3c1.2-0.9,3.1-2.2,4.6-3.4c0.8,1.8,1.6,3.4,2.4,5.1c2.9-1.3,5.6-2.4,8.2-3.5c1.2,1,2.6,2,3.9,3.1
	c0.8-1.8,1.5-3.3,2.1-4.9c0.1,0.5,0.1,1,0.2,1.5c4.2,0.7,8.4,1.4,13.3,2.2c0,0.1,0.3,1.6,0.6,3.7c4.6-3,8.1-0.9,11.6,1.5
	c0.1-1.6,0.2-2.9,0.2-3.9c2.8,1.4,5.1,2.5,7.4,3.5c0,0,0-0.4,0-0.4c0.3-0.4,0.6-0.8,0.9-1.1c0.7,0.6,1.4,1.2,2.1,1.9
	c1.2,0.2,2.5,0.4,4,0.6c-0.2-1.3-0.4-2.4-0.6-4.2c1.7,1.3,2.8,2.1,3.9,2.9c0.9-1.4,1.6-2.6,1.9-3.1c6,0.5,11.5-3.8,16.7-0.1
	c-0.2,1.5-0.4,3-0.5,4c2.2,1.4,4.1,2.5,6.1,3.7c1.1-0.8,2.4-1.7,3.7-2.6c-0.2-1.7-0.4-3.5-0.6-5.3c1.5-0.4,3.3-0.9,5-1.4
	c-1,2.3-2,4.6-3.3,7.6c2.3,0,3.5-0.1,4.6,0c4.7,0.6,9.4,1.3,14.1,2.1c0.3,0.1,0.6,0.6,0.8,1c1.2,2.5,1.9,2.7,3.8,1.1
	c1.5-1.3,2.9-2.6,3.7-3.3c2.1,2.3,3.6,5.4,5.3,5.6c6.5,0.6,1.2-6.5,4.5-8.3c1.3,1.5,2.5,2.9,3.5,4.1c-0.6,1.1-1.1,2.1-1.7,3.1
	c2.3,0.6,4.2,1,5.8,1.4c0.8-1.1,1.9-3.2,2.1-3.1c2.1,0.8,5.2,1.6,5.8,3.3c1.3,3.3,3.4,4.4,6.8,5c-5.1-4.8-5.1-4.8-3.2-8.4
	c1,1,2.2,3,3.2,3c4.6-0.3,8,1,9.6,4.4c4.1-1.2,8-2.4,11.9-3.3c0.3-0.1,1.1,2.5,1.7,3.9c2.3-1,4.7-2,7.3-3.1c0.3,0.8,0.9,2,0.9,2.1
	c4.1,0.3,7.4,0.6,9.9,0.7c1.7-1.4,3.3-3.7,4.4-3.5c2.6,0.5,4.9,2.2,7.3,3.4c0.2-1.1,0.4-2.2,0.6-3.2c0.9,3.3,1.6,5.2,5.9,3.4
	c2.2-0.9,5.5,0.4,8.1,1.2c2.7,0.8,5.3,2.3,8.2,3.6c0,0.2,0,0.9,0,2.4c2.5-4.7,2.5-9.8,7.8-10.5c1.4,4.7,2.8,5.5,6.7,4.4
	c1.5-0.4,3.2-0.3,4.7-0.3c3.3,0.1,6.6,0.4,9.8,0.6c4,0.2,7.9,0.4,11.9,0.6c0.3-1,0.7-1.9,1.3-3.5c1.6,1.9,2.8,3.2,4.1,4.8
	c3.5-2.3,5.9-0.9,7.1,3.3c1.6-2.7,2.2-6.3,5.5-1.7c1.5,2.1,4.7,2,7.3,0.3c1.4-0.9,4.3-2.1,4.8-1.6c4.2,4.6,4-1.4,5.1-1.9
	c3.3,1.3,6.1,3,9,3.4c3.3,0.4,6.7-0.4,10-0.7c0.1,0.5,0.1,1.1,0.2,1.6c-3.1,0.5-6.3,1-9.4,1.5c0,0.3-0.1,0.6-0.1,1
	c2.4,0.7,4.9,1.3,6.5,1.8c1.4,1.4,2.4,2.5,3.5,3.6c0.3-0.3,0.5-0.5,0.8-0.8c-0.4-0.7-0.8-1.4-1.2-2.1c3.8,2.6,7.4,2,11.1,0.4
	c1.2-0.5,2.7-0.3,3.7-1c1.5-1,2.4-2.8,3.9-3.8c1.5-1,3.4-1.8,5.1-1.8c2.4,0,4.8,1.5,7.1,1.4c9.1-0.5,9.1-0.7,10.9,8.8
	c2.2-1.2,4.1-2.3,6-3.4c1.7,4.7,3.4,5.2,9,1.4c-4.1-2.3-7.6-4.3-11.6-6.5c4.3-0.4,7.7-0.6,11-0.9c2.8,0.3,5.6,0.4,8.4,0.3
	c2-0.1,4.1-1,5.9-0.6c5.4,1.3,10.6-3.5,15.9-0.3c0.1,0,0.3-0.1,0.4-0.2c4-3,5.5,0,7,3.2c3.7-1.7,4.1-4.4,1.6-8.7
	c3.4,0.7,5.8,1.2,7.3,1.5c-1.1,1.7-2.7,3.3-2.4,3.9c1.7,3.4,4.4,3.3,6.7,0c2.6-3.7,5.1-6.2,10-2.6c2.4,1.8,5.9,1.7,8.5-1.1
	c3.3-3.6,6.5-3.6,9.8-0.2c1.4-2,1.8-2.8,5.2-1.4c4.3,1.8,10.1-0.2,15.3-0.6c-0.1-0.5-0.3-1-0.7-2.7c2.1,1.8,3.3,2.7,4.4,3.7
	c0.2-0.2,0.4-0.3,0.5-0.5c-0.8-1.5-1.5-3.1-2.6-5.3c2.2,0.2,3.8,0.2,5.3,0.5c2.2,0.3,4.3,1.3,6.4,1.2c4-0.3,7.6-4.8,12.1-1.3
	c0.4,0.3,1.7-0.6,2.6-1c1.9,5.3,4.4,5.8,8,1.8c1.5-1.6,3.3-3.3,3.2-1.4c1.9-1.1,3.8-2.1,5.9-3.3c1,1.3,1.7,2.3,2.5,3.2
	c0.9-1.8,1.6-3.3,3.1-6.2c2.3,6.7,8.8,0.7,11.4,5.8c0.5-0.3,1.1-0.6,1.5-1c2.9-2.8,7.2-2.6,9.6,0.3c0.3-2,0.7-4.2,1.3-7.6
	c2.7,3.3,4.7,5.8,6.6,8.2c0-0.5,0.1-1.1,0.1-1.6c2.6-0.7,5.4-1.2,7.9-2.1c2.7-1,5.3-2.3,7.9-3.5c0.1,0.5,0.3,1.6,0.4,2.6
	c1.5-1.1,2.8-2.1,4.2-3.1c1.7,3.5,6.2,1.9,7.5,3c5,4,6.9-3.1,10.7-2c0.9,0.3,2.4-1.6,3.7-2.5c0.7,1.5,1.5,3.1,1.9,4.1
	c1.6-1.5,3.4-3.2,5.1-4.8c1.2,1.3,2.2,2.5,3.4,3.7c1.9-2.2,3.5-4.2,5.3-6.2c1.4,2.4,2.6,4.3,4.4,7.3c0.5-4.3,1.1-7.1,5.5-5.6
	c-0.3,1.1-1,2.2-0.8,3.2c1.3,5.6-2,10-4.6,13.8c-3.1,4.5,0.5,6.1,2.1,8c2,2.4,4.6,1.6,6.2-1.3c1.4-2.6,2.6-5.2,4.3-7.6
	c3.3-4.8,1.5-9.1-4.3-9.8c1.6-3.6,3.3-7.2,5.1-11.3c0.7,1.9,1.5,4.2,2.4,6.5c2.6-2.8,4.4-6.4,9.1-3.2c1.2,0.8,3.8-0.3,5.7-0.7
	c3.9-0.7,7.7-1.9,11.6-2.2c3.4-0.2,6.9,0.5,10.2,0.8c-0.6-0.8-1.3-1.8-2.7-3.7c3.8,0,6.7,0.2,9.6-0.1c1.8-0.2,3.9-0.8,5.3-2
	c1.8-1.6,2.6-1.9,5-0.6c1.8,1,7.3,6.3,5.8-2.2c1.7,0.4,3.2,0.6,4.6,1c2.5,0.8,4.8,2,7.3,2.7c0.7,0.2,2-0.8,2.5-1.6
	c0.5-0.9,0.5-2.1,0.7-3.3c2.1,0,4.9,0.4,3.6-4.2c-0.2-0.7,2.4-3,3.9-3.4c2.2-0.5,4.7,0.4,7.1,0.3c0.9,0,1.8-0.9,3.4-1.8
	c-3-0.4-4.7-0.6-6.4-0.9c0.1-0.6,0.3-1.3,0.4-1.9c2.8,0.6,5.7,1,8.4,1.9c2.2,0.7,4.1,2.8,6.2,3c4,0.4,8.1,0,12.2-0.1
	c-1.6-2.4-3.2-4.7-4.9-7.3c0.5-1.5,1.1-3.7,2.1-6.8c2.5,3,6.4,4,4.3,8.9c-0.6,1.4,0.5,3.5,0.8,5.2c4.2-2,4.6,1.2,5.1,3.8
	c0.9,5.1,3.6,6.4,9.2,3.1c-2-1-3.9-1.5-5.2-2.6c-1-0.8-1.3-2.4-2-3.6c0.9-0.3,1.8-0.7,2.7-0.9c1.2-0.3,2.5-0.2,3.5-0.7
	c4-1.9,6.2,0.4,8.4,3.1c0.2,0.3,0,0.9,0,1.7c-1.3-0.5-2.4-0.9-3.7-1.4c0,1.7,0,3,0,4.6c2.8-1,5.2-1.8,7.9-2.8
	c1.9,2.9,4.5,5.7,8.2,3.7c1.9-1,3.5-3.8,3.9-6.1c0.6-3.4-1.1-6.3-4.8-7.4c-0.2-0.1-0.2-0.9-0.3-1.4c-1.3,1-2.6,1.9-4.1,3
	c-1-0.6-2.5-1.5-4.1-2.5c-0.8,1.8-1.3,3.1-2.2,5c-1-3.6-1.8-6.5-2.6-9.4c1.6,0.1,3.2,0.3,3.9,0.3c-0.7-2.3-1.3-4.1-1.8-6
	c1.5-0.2,3-0.7,4.5-0.6c2.2,0,4.5,0.6,6.7,0.4c2.7-0.1,4.8-0.4,3.2,3.4c-0.4,0.9,0.2,2.2,0.4,3.3c1.3,0.4,2.5,0.8,3.1,0.9
	c0.8-3.3,1.5-6.1,2.3-9.1c-0.2,0-0.9-0.2-1.6-0.3c0.9-0.3,1.9-0.2,2.7-0.4c5-1.1,8.7,0.3,10.2,5.7c0,0.2,0.7,0.2,1.2,0.2
	c-0.6-1.9-1.2-3.8-1.6-5.8c-0.1-0.6,0.4-1.5,0.8-2.1c0.2-0.2,1.1,0.1,1.6,0.3c0.8,0.3,2.2,1,2.3,0.9c0.7-1.1,1.3-2.3,1.5-3.5
	c0.2-1-0.2-2.1-0.3-3c2.7,1.2,5.2,2.5,7.9,3.5c1.1,0.4,3.5,0.4,3.6,0.1c1.4-5.4,5.7-3.1,8.9-3.5c0.5-0.1,0.9-0.3,1.3-0.4
	c-0.1-1.2-0.3-2.3-0.4-3.3c0.2-0.1,0.5-0.1,0.7-0.2c0.7,1.6,1.3,3.2,2.5,6.1c0.9-2.8,1.4-4.2,1.9-5.8c5.9-1.1,11.9-2.3,18.2-3.5
	c0.7-0.4,1.8-1.1,3-1.7c0.8-0.4,1.9-0.5,2.6-1.1c5.4-4.3,7.1-4.4,12.6-0.4c0.3,0.2,0.9,0.2,1.4,0.4c0-1.3,0-2.6,0-3.3
	c2.8,0.7,5.4,1.9,7.8,1.6c2.2-0.3,4.2-2.2,6-3.3c0.1-0.9-0.1-2.8,0.5-3.1c3.2-1.9,6.6-2.3,9.9,2.3c1.5-3.3,2.5-5.7,3.8-8.5
	c0.3,1.2,0.7,2.2,1,3.3c4-1.5,7.9-2.8,11.4-4.1c0.1,1.7,0.2,3.2,0.3,4.7c0.3,0,0.6,0,0.9,0c1-2.2,2-4.4,2.9-6.2
	c1.5,0.7,2.6,1.1,3.8,1.7c0-1.6-0.4-2.8,0.1-3.2c1.1-1.1,2.6-2.4,4-2.5c0.8,0,1.8,2.1,2.8,3.4c-1.9,1-3.1,1.6-4.6,2.4
	c1.9,3.1,3.6,5.8,6.1,10c1.5-0.5,4.4-1.5,7.8-2.6c-3.3-4.2-5.8-7.4-8.9-11.5c2.3,0.6,4.5,0.5,5,1.4c3.1,4.9,5.8,0.4,8.5-0.2
	c1-0.2,2.2-1.4,2.5-2.3c0.7-2.2,0.8-4.6,1.3-7.9c2.2,0.3,5.4,0.7,8.6,1.1c0.2,0.4,0.4,0.8,0.6,1.2c-5.9,3.2-8.2,7.7-5.2,13.7
	c0.8,1.7,3,4.3,3.8,4c3.2-1.1,6.1-3.1,9.5-5c0.2,0.3,0.8,1.8,1.6,3.2c2.3,4.1,6.2,4.8,9.7,1.7c3.5-3,3.2-4.6-1.4-8.7c0,0,0,0,0,0
	c-2.9,0.3-5.8,0.6-8.8,0.8c0-0.7,0.3-1.7,0-2.5c-1.2-3.3,0-6.1,1.9-8.7c4.5-6.2,4.4-7.4-1.5-12.6c6.2-1.2,12.3-2.4,17.7-3.5
	c-4.3,5.8-3.1,8.1,6.5,10.1c0-2.6,0-5.1,0-8.1c4.7,2.5,0.8,6.8,2.5,9.7c1.7,0.4,3.4,0.7,5.1,1.3c0.6,0.2,1.2,1.1,1.2,1.7
	c0,0.6-0.7,1.3-1.3,1.7c-1.7,1.1-3.5,2.1-5.5,3.2c2.7,3.5,7,5,5.8,9.6c-0.1,0.2,0.3,0.6,0.5,0.8c3.9,3.2,4.3,6.3,0.1,9.5
	c-2.9,2.2-0.5,3.9,0.3,4.3c2.4,1,5.2,1.1,7.8,1.7c0.8,0.2,1.5,0.8,3.3,1.7c1.1-4.1,2.2-8.3,3.5-13c8.7,7.9,15.7,4.5,20.4-3
	c2.3-3.8,1.3-9.6,1.9-15.2c-3.5,0.8-5.8,0.8-7.4,1.9c-3.8,2.5-9.8,1.4-9.8-2.4c0-4.9-1.8-8.2-4.9-10.6c4.3-4.5,8.2-8.6,12.1-12.7
	c0.8-0.9,0.8-2.7,1.7-4c1-1.5,4.1-2.6,4-3.8c0-5.6,2.7-3.1,5.3-2.5c-0.6,2.3-1,4.3-1.6,6.6c4.3,1.2,3,4.3,1.2,6.3
	c-2,2.1-4.9,3.3-7.8,5.1c4.5,2.5,8.9,4.4,7.7,10.2c1.7,0.4,3.1,0.8,4.5,1.1c-0.3,0.3-0.6,0.6-0.9,0.9c1.4,1.8,2.7,3.9,4.4,5.4
	c0.5,0.4,2.3-0.7,3.5-1c-0.5-1.2-1.1-2.4-1.9-4.3c2.3-0.8,4.8-1.7,8.1-2.9c-0.4,2.7-0.6,3.9-0.9,5.6c3.1-1.7,8.6-0.1,7-6.4
	c-1.5,0.2-3,0.3-3.6,0.4c-1.9-2.5-3.4-4.4-5-6.4c-1.2-1.5-2.3-3.1-3.6-4.5c-1.4-1.7-2.6-4.2-4.4-4.7c-3.5-1-3.4-2.6-2.5-5.1
	c5.1-0.6,9.4,5.9,14.6,1.1c0,0,0.2,0.2,0.4,0.3c3.6,1.4,7.2,2.9,10.8,4.3c-0.8,0.8-2.5,1.9-2.4,2.3c0.9,2.4,1.8,5.3,3.6,6.7
	c1.4,1,4.4,0,6.7-0.1c-0.5-2.8-0.8-4.6-1-5.8c-1.9-2.2-5.1,3.6-5.8-1.9c0.3,0,0.9,0.1,0.9,0.1c0.7-3.3,1.3-6.5,1.9-9.8
	c0.3-1.6,0.3-3.1,0.4-4.7c1.3,0.8,2.6,1.6,3.9,2.4c1.5,0.9,3.5,2.7,4.6,2.3c2.8-1,7-2.7,7.3-4.6c0.4-3,0.6-5.8,2.6-7.7
	c-0.8-0.6-1.7-1.3-2.6-1.9c0.2-0.4,0.3-0.8,0.5-1.2c2.6,1.3,5,5.1,8.1,1.4c0.9-1.1,2.2-1.8,3.3-2.6c-1.5-2-2.9-4.2-4.7-5.8
	c-0.7-0.6-3,0-4.1,0.8c-2,1.3-3.6,3.2-5.4,4.8c-0.3-0.4-0.6-0.7-0.9-1.1c2.7-5.6,7.1-9.2,13.2-11.1c0.7,2.7,0.9,5.8,4.5,5.6
	c4.5-0.3,7.8-2.4,7.8-6.4c2.2-0.3,5.3-0.5,5.3-0.8c0.1-2.8-0.3-5.5-0.7-9.1c-1.9,2.5-3.6,4.7-6.1,8c-0.4-3.1-0.7-6-1.1-8.8
	c2.9-0.3,5.8-0.6,8.6-0.9c2.1-0.4,4.4-1.6,6.6-2.7c2.8-1.3,7-1.8,8.3-4c3-4.9,6.9-4.6,11.6-3.8c0.4-1.7,0.8-3.2,1.1-4.7
	c-0.3-0.2-0.6-0.5-0.9-0.7c-0.9,0.7-1.8,1.4-3.5,2.8c-0.2-1.9-0.8-5.2-0.6-5.3c3.1-0.8,3.1-3,3.1-5.4c0-0.2,0.7-0.4,1.5-0.9
	c0,1.5,0,2.7,0,4.5c1.2-0.4,2.3-0.8,3.4-1.2c0.6,0.3,1.3,0.6,1.9,1c1.6,0.9,3.3,2.7,4.6,2.4c1.3-0.2,2.2-2.6,3.5-4.3
	c-3.6-0.6-6.2-1-8.8-1.5c0-0.9,0.1-1.8,0.1-2.7c1,0.2,2.1,0,2.8,0.5c2.8,2,4.8,2.3,7.2-0.9c1-1.4,3.6-2.2,5.5-2.1
	c7.2,0.3,8.6-1.3,6.3-8c-0.1-0.4,0.2-0.9,0.3-1.5c1.5,0,2.9,0,4.3,0c-0.3-0.4-0.7-0.8-1-1.2c2-2.3,3.8-4.7,6-6.8
	c2.4-2.3,7.1-3.1,4-8.2c2.1-1.2,3.8-2.2,5.6-3.3c0,0.1,0.1,0.2,0.1,0.3c3.5-2.3,7-4.7,10.7-7.1c-0.2-0.6-0.7-2-1.8-4.7
	c2.6,1,4,1.5,5.6,2.1c1.6-1.8,3.5-3.8,5.3-5.9c-1.8-1.2-3.5-2.2-5.4-3.4c5.2-1.1,10,2.7,12.2,9.4c0.8-0.7,2.1-1.4,2-1.8
	c-0.4-2.4-1.2-4.7-1.9-7.3c6.1-1.3,2.8-7.7,5.9-11.6c0,1.9,0,3,0,4.2c0.8,0.1,1.6,0.5,2.1,0.2c4-2.4,7-1.2,9.8,2.2
	c0.5,0.6,2.3,0.2,3.5,0.2c0-1.5,0.5-3.5-0.2-4.5c-3.1-4.6-5.5-5-10.4-2.7c0-2.2,0-4.6,0-7.1c1-0.1,3.1-0.2,5.3-0.3
	c-0.1-2.8-0.2-5-0.4-8c2,2.2,3.5,3.7,5,5.3c0.9-1.2,1.4-1.9,2.1-2.9c1.3,1.6,2.6,3,4.3,5c1-3.1,1.3-6.1,2.8-8.2
	c2.9-3.9-0.8-5-2.4-6.9c-1.3-1.5-3-2.7-5-4.4C2709.9,42.1,2712.9,41,2716,39.9z M14.6,329c-2.7-2.1-4.3-3.3-6.6-5.1
	c-1.1,2-2.4,4-3.4,6c-0.1,0.3,1.2,1.7,1.6,1.6C8.8,330.9,11.3,330,14.6,329z M31.7,252.9c-2.7-3.4-5.5-6.3-9.2-2.6
	c-1.2,1.3-1.6,5.7-0.6,6.5C27.3,261.1,28.2,254.2,31.7,252.9z M40.2,234.8c-1.6,1.8-3.1,2.7-3.3,3.9c-0.1,0.9,1.5,2.1,2.3,3.1
	c1.2-1.2,2.5-2.3,3.4-3.7C42.7,237.8,41.4,236.4,40.2,234.8z M57.3,334.1c-0.1-0.9-2.5-2.4-2.8-2.2c-1.5,1.2-2.8,2.8-4.4,4.5
	c2.4,1.2,3.7,1.8,6.2,3C56.7,337.3,57.5,335.6,57.3,334.1z M97.3,225.2c-0.3-0.5-0.7-0.9-1-1.4c-2.3,0.4-4.7,0.8-7.2,1.3
	c0.7,1.8,1.2,3.2,2.1,5.9C93.7,228.6,95.5,226.9,97.3,225.2z M110.4,224.3c0.4-0.1,1-0.9,0.9-1.3c-0.2-0.7-0.6-1.5-1.2-1.8
	c-2.6-1.3-5.3-2.4-8.1-3.7c-1.2,1.1-2.6,2.3-4.8,4.3c1.9,1.4,3.6,3.4,5.5,3.6C105.2,225.7,107.9,224.8,110.4,224.3z M116.5,225.9
	c-2.6,0.2-4.1,0.3-5.5,0.4c-0.3,0.5-0.6,1.1-1,1.6c1.5,1.2,3,2.4,4.5,3.7C115.2,229.9,115.7,228.1,116.5,225.9z M138.7,240.8
	c0.9-2.1,1.6-3.9,2.4-5.8c-0.7-0.4-1.4-0.7-2.1-1.1c0.4-0.2,0.8-0.3,1.3-0.5c-0.2-1.6,0-3.4-0.7-4.8c-0.4-0.8-2.1-0.9-3.2-1.4
	c-1,3.6-2.3,0.2-3.1-0.1c-1.1-0.3-2.1-1.4-3.1-2.2c-0.2,2.2-2.9,4.4,0.8,6.6c0.9,0.5-0.4,4.3-0.3,6.5c0,0.9,1,2.5,1.7,2.6
	C134.6,241,136.9,240.8,138.7,240.8z M137.2,295.6c1.4,3.6-3.1,8.7,3.3,11c0.1-1.1,0.2-2.1,0.4-3.4c0.8,0.8,1.2,1.1,1.8,1.7
	C143.7,294.2,143.7,294.2,137.2,295.6z M158.9,226.6c-4.1-2.1-7.3-3.8-10.4-5.4c0.2-0.3,0.4-0.7,0.7-1c-1.8,0.1-3.6,0.2-6.5,0.4
	c0.6,1.5,0.8,3.2,1.8,4.2c1.8,1.8,3.9,3.3,6.2,4.6c1.3,0.7,3.3,1.3,4.6,0.8C156.8,229.5,157.8,227.7,158.9,226.6z M183.2,297.3
	c-1.5-2.5-2.7-4.5-4.4-7.4c-2.1,0.9-6,1.4-6.3,2.8c-0.6,2.3,1.1,5.2,1.8,7.8C178,299.1,180.6,298.2,183.2,297.3z M208.3,218.7
	c-1.3-1.6-2.5-3.2-3.8-4.7c-1.4-1.6-3-3.1-4.1-4.3c-3.2-0.2-6.1-0.4-9.1-0.6C190.9,214.7,198.9,219.5,208.3,218.7z M225.3,253.1
	c-0.3-0.4-0.6-0.8-0.9-1.2c-2-0.5-4.1-1-6.4-1.5c-2.1,3.6,0.4,5.1,2.7,5.4C222.1,255.9,223.7,254,225.3,253.1z M234.8,220.3
	c-1-2.7-2-5.5-3.1-8.2c-2.6,0-4.9,0-7.6,0c0.7,2,1.3,3.8,2.2,6.5c1.3-2.3,2-3.6,3-5.4C230,221.9,230,221.9,234.8,220.3z
	 M248.5,213.8c1-0.9,2.6-1.7,3-2.8c0.6-2,0.6-4.3,0.8-6.4c0.1-1.5,0.3-2.9,0.4-4.4c-0.8-0.3-1.6-0.6-2.3-0.9
	c-1.4,2.3-2.7,4.8-4.3,6.9C243.1,210.1,247.2,211.4,248.5,213.8z M257.4,224.6c-3.5-3.2-6.2-9.3-11.8-3.9c0.9,2.3,1.8,4.3,2.7,6.6
	C250.6,225.2,256.6,231.9,257.4,224.6z M262.5,230.3c-0.6-0.4-2.7,0.6-3.2,1.5c-1.8,3.4,0.3,5.1,3.9,6.4
	C264.7,235.1,265.9,232.4,262.5,230.3z M271.6,207.2c-0.2-2.1-0.3-3.8-0.4-5.6c-1.9,0.3-3.8,0.6-5.9,0.9
	C264.5,208.5,269.2,205.9,271.6,207.2z M276.6,219.8c5.7,1,3.7-3.6,4.3-6.3c-2.2,0.2-4.3,0.4-6.5,0.6
	C273.1,216.8,273.4,219.2,276.6,219.8z M281,230c-1-1.6-3.1-2.7-4.9-3.7c-0.3-0.2-1.9,1.1-2.1,1.9c-0.8,4.3,1.1,6.3,6.5,6.8
	C280.7,233.1,281.7,231,281,230z M299.8,206.8c2.9,2.6,5.2,4.7,8.1,7.4c0.7-2.1,0.7-3.6,1.3-3.9c3.7-2-0.1-4.5,0.7-6.7
	c-1.8,0.2-3.7,0.1-5.5,0.5C303.1,204.4,302,205.5,299.8,206.8z M304.2,243.6c1.5,0.9,3.5,1,5.2,1.5c0-2.9,0.8-6.1-3.8-7.1
	C302.5,240.9,302,242.2,304.2,243.6z M313.3,257.7c-3.7-4-6.3-4-9.1,1c-2.4,4.2,1.4,4.5,2.7,6.8
	C309.3,262.6,311.3,260.1,313.3,257.7z M317.6,210.4c-0.5-0.2-1-0.4-1.5-0.6c-2.6,2-5.2,4-7.4,5.6c0,1.8,0,3.4,0,4.8
	c1.7,0.5,3.6,1.1,5.9,1.9C315.5,218.6,316.6,214.5,317.6,210.4z M340.3,269.2c3.8-1.4,8-3,12.2-4.6c0.1-1.1,0.1-2.1,0.1-2.5
	c2.4-0.6,4.9-1.2,7.3-1.7c-0.8-2.8-1.6-5.6-2.3-8.4c-0.4,0.1-0.8,0.2-1.2,0.3c-0.2,0.8-0.4,1.6-0.6,2.4c-0.4-0.1-0.8-0.1-1.3-0.2
	c0.2-2.4,0.3-4.9,0.7-7.3c0.7-4.2-0.1-5.1-4.2-4.2c1.1,2,2.2,3.9,3.4,6.1c-2.5,1.6-4.6,2.9-7,4.4c-0.9-1.9-1.6-3.1-2.2-4.5
	c-1.8,0.9-3.6,1.7-5.5,2.6c3.3,4-0.3,5.6-2.7,6.7c-1.3,0.6-3.4-0.9-5.2-1.4c0.1-0.3,0.2-0.7,0.3-1c-1.9,0.4-3.9,0.8-6,1.3
	c0.6,1,1.4,2.3,2.2,3.7c1.1-1.1,1.9-1.9,2.7-2.8c0.6,1.2,1.9,2.5,1.7,3.5c-0.6,3.3-1.7,6.5-2.5,9.7c-0.2,0.8,0.3,1.8,0.5,2.7
	c0.3-0.1,0.7-0.1,1-0.2c0-0.9,0-1.8,0-2.6c2.6,3.4,5.7,4.5,9.4,3C341.4,274,340.6,271.4,340.3,269.2z M360.5,262.7
	c-1.7,0.6-3.3,1.3-5,1.7c-0.9,0.3-2,0.1-3,0.2c-0.3,1.7-0.6,3.4-0.9,5C360.2,272.3,361,271.5,360.5,262.7z M375.2,221.3
	c-4.6,1.5-7.9,2.6-12.8,4.2c3.4,2.6,5.5,4.3,7.3,5.7C371.7,227.7,373.1,225.2,375.2,221.3z M447.9,290.7c-0.1-0.5-0.1-1-0.2-1.5
	c-2.6-0.8-5.1-1.6-7.7-2.5c-0.5,0.4-1,0.9-1.5,1.3c1.1,1.2,2,3.3,3.3,3.5C443.7,291.9,445.9,291,447.9,290.7z M454.4,269.4
	c1.2-2.8,1.9-4.3,2.8-6.3c-2.1,1-3.6,1.8-4.5,2.2C453.3,266.7,453.9,268,454.4,269.4z M458.9,280.3c2.8-3.9,5.2-7.4,7.7-10.8
	c-2.4-1.7-3.8-3.3,0.2-4.9c1.3-0.5,2.5-1.8,3.7-1.8c5,0.1,4.8-4.3,4.8-6.6c-0.1-3-2.7-5.2-6.6-4c-0.2-3.5-0.4-6.7-0.7-10.8
	c-1.4,1.7-2.2,2.6-2.9,3.5c-1.8-1.6-3.4-3-5.4-4.8c-0.5,4.7-3.5,8.5-0.7,13.3c1.3,2.3,1.5,5.4,1.8,8.1c0.2,1.8-0.4,3.6-0.7,5.8
	c-1.3,0.5-2.9,1.2-5.6,2.3C455.9,273.1,457.4,276.6,458.9,280.3z M466.6,295.3c0.7,1.4,1.9,2.8,3.3,3.5c1.1,0.5,3.4,0.5,4.1-0.3
	c1.5-1.5,2.2-3.6,3.9-6.6c-3.8,0-7.6,0-11.4,0C466.5,293,466.1,294.4,466.6,295.3z M484.1,342.4c-2.5-2-4-3.3-6.7-5.5
	c-1.1,3.6-1.8,6.2-2.6,8.9c-0.4-0.5-1-1.5-1.2-1.5c-2.2,0.7-4.4,1.6-6.5,2.4c0.5,2.2,1.1,4.7,1.9,7.8c1.4-3.6,6.4-4,6.2-8.5
	C477.8,345,480.5,343.9,484.1,342.4z M487.9,327.5c-4.6-3.4,1.1-11-5.8-13.8c-2.1,3-4,5.6-5.8,8.2c3.4,2.2,6.9,4.4,10.4,6.7
	C487.1,328.3,487.5,327.9,487.9,327.5z M500.2,332.6c-0.3-0.5-0.6-0.9-0.9-1.4c-0.9,0.4-1.7,0.9-3.5,1.8c1.4-2.3,2.3-3.8,3.6-6
	c-3.5-0.3-6.5-0.5-8.5-0.7c0.2,3.7,0.5,7.1,0.8,11.7C495,335.9,497.6,334.2,500.2,332.6z M569.4,283.8c-3.9-5.6-4.3-5.7-7.5-2
	c1.4,1.9,2.5,3.5,3.2,4.4C566.8,285.3,568.2,284.5,569.4,283.8z M593.3,288.5c0-4.7-4.1-3.4-6.4-4.7c-0.3,0.4-0.6,0.7-1,1.1
	c1.4,1.6,2.7,3.3,4.2,4.8c0.6,0.6,1.4,0.9,2.1,1.3C592.7,290.1,593.3,289.3,593.3,288.5z M595.7,252c1.6-2.2,6.5-2.8,3.7-6.1
	c-1.9-2.4-5.2-1.9-7.5,1.2c-1,1.4-2.7,2.4-4.2,3.7c2.5,2.8,4.9,5.4,7.6,8.5c1-0.4,2.7-1,4.5-1.7C598.1,255.2,596.9,253.5,595.7,252z
	 M629.7,360.6c-4.1-2.2-6.1-3.4-8.3-4.2c-1.1-0.4-2.4-0.1-3.6-0.1c0,0.5,0,0.9,0,1.4c1.1,0.4,2.3,0.7,2.9,0.9
	c0.2,2.5,0.3,4.5,0.5,6.6c0.9,0.7,1.8,1.3,2.7,2C625.6,365.1,627.4,363.1,629.7,360.6z M632.6,300.7c-0.5-1.4-0.9-2.9-1.6-4.1
	c-2.8-4.5-5.8-9-8.9-13.7c-2.7,1.8-4.9,3.3-7.3,4.9c4.7,5,1,13.9,9.2,17c0.8-1.9,1.7-4.3,2.8-7c0.5,0.6,0.7,1.3,1.2,1.5
	C629.5,299.8,631.1,300.2,632.6,300.7z M645.5,244.3c-0.5,1-1.1,2-1.5,3c-0.8,1.9-1.5,3.9-2.2,5.9c2.9,0.5,5.9,1.2,8.8,1.2
	c0.8,0,2-2,2.3-3.3c0.1-0.4-1.7-1.6-2.7-2.1C648.1,247.9,645.4,247.6,645.5,244.3c2.9-1.3,5.7-2.6,8.5-4c0.1-0.1-0.1-1.3-0.4-1.7
	c-0.5-0.6-1.3-1-2-1.5c1-0.2,2.1-0.4,4-0.8c-0.5-2.4-1.1-5.1-1.7-7.8c-1.3,1.5-2.3,2.7-3.1,3.7c-4-3.9-7.4-4.6-11.3-1.6
	C641.5,235.1,647.4,238,645.5,244.3z M651,279.8c3.7,0.4,7.4,0.6,11.3,0.8c-1.4-2.6-2.2-5.7-4.3-7.2c-1.7-1.3-4.9-1.3-7.3-0.8
	c-0.8,0.2-1.1,3.5-1.4,5.4C649.4,278.6,650.4,279.8,651,279.8z M666,320.1c-1.6,1.6-3.1,3.2-4.7,4.8c0.4,0.7,0.8,1.3,1.2,2
	c1.5-0.5,4.1-0.7,4.3-1.4C667.3,323.8,666.4,321.9,666,320.1z M677.1,247.2c-1.8-1.5-3.4-3.1-3.4-3c-1.7,1.7-3.6,3.3-4.6,5.4
	c-0.3,0.7,1.6,2.5,2.5,3.8C673.2,251.5,674.9,249.7,677.1,247.2z M679,217.8c1.8-1.2,3.7-2.4,6.3-4.1c-2,0-3.2,0-4.2,0
	c-0.1-1.7-0.1-3.2-0.5-4.5c-0.1-0.3-1.8-0.5-2.4-0.1c-0.8,0.5-2,1.8-1.8,2.4C677.2,214,678.4,216.5,679,217.8z M691.4,275.6
	c-2.5-0.7-4.7-1.3-6.6-1.8c-1,4-1.8,7.4-2.8,11c2.3,0.6,4.6,1.1,6.8,1.7C690.2,282.7,694.9,279.9,691.4,275.6z M702.5,212.4
	c-3.5-0.4-7-0.8-10.3-1.2c0.4,3.7,0.6,6.3,0.8,8.7c1.9,0.6,3.6,1.2,6.2,2C700.3,218.9,701.4,215.7,702.5,212.4z M718.3,205.7
	c-3.4-1.8-6.3-2.1-7.1,1.6c-0.9,4-3.2,4.8-6.7,4.8c-0.4,0.6-0.8,1.3-1.2,1.9c2.5,1.9,5.1,3.8,8.2,6.1
	C713.9,215.1,716.1,210.5,718.3,205.7z M731.2,223.9c-0.1-2.2-0.2-3.9-0.4-5.5c-0.1-0.9-0.9-1.8-0.9-2.6c0.1-4.6-2.4-4.1-6.2-2.9
	c1.4,1.8,2.4,3.1,3.5,4.6C724.9,220.7,725.2,221.4,731.2,223.9z M733.4,212.1c0,3,0,6,0,10.3c1.8-0.5,4.7-0.7,4.9-1.5
	C739.1,217.1,737.6,214,733.4,212.1z M748,205.3c-3.9-1.1-6.6-1.8-9.8-2.6c-0.3,0.6-1.1,1.8-1.7,2.8c2.2,1.8,3.9,3.3,6.8,5.8
	C744.8,209.3,746.4,207.3,748,205.3z M761.5,195.3c0.9,3.5,1.3,7.1,2.2,12.1c3.3-1.9,6.1-3.4,8.9-5c4.2-2.5,0.2-5.5,0.5-8.1
	c0.6-5.8-3.7-5.4-6.8-5.1C763.5,189.4,760.4,190.9,761.5,195.3z M781,225.1c-1.9-0.1-3.7-0.3-6.4-0.5c0.4-1.9,1-3.4,1-4.8
	c0-0.8-1.2-2.3-1.5-2.2c-4,1-8,2.3-13.3,3.9c2.9,1,4.5,1.6,6.1,2.2c-0.1,0.3-0.1,0.6-0.2,0.9c-1.7-0.1-3.5-0.2-5.2-0.3
	c-1.1,4.1-2.8,8,2.1,10.6c5.7-2.6,5.7-2.6,4.5-7.1c1.9-0.6,3.7-1.3,6.1-2.1c0.7,1.1,1.6,2.5,2.4,3.8
	C777.9,228.2,779.2,226.9,781,225.1z M796,215.5c-1.6-1.8-2.9-3.4-4.3-4.8c-1-1-2.3-1.7-3.5-2.6c-1.2,2.1-2.4,4.2-3.3,6.4
	c-0.1,0.1,2.9,2.2,3.4,1.8c2.2-1.5,3.7-1.6,5.4,0.5C793.8,216.9,795.2,215.9,796,215.5z M806,213.7c2.4-0.4,4.3-0.7,5.7-0.9
	c1-1.4,2.3-2.9,3.2-4.4c0.5-0.9,0.6-2.1,0.9-3.1c-0.8-0.2-1.6-0.4-2.4-0.5c-1.7-0.1-3.4,0-5.3,0c-0.2-3.1,3.3-6.9-1.9-7.7
	c-4.7,1.8,2,9.7-5.5,8.8C802.6,208.7,804.6,211.6,806,213.7z M814.5,243.8c-3,1.1-7.5-2.9-8.4,3c-0.2,1.4,1.5,4.5,2.2,4.4
	C812.2,251,814.3,248.4,814.5,243.8z M821.7,240.7c-0.8-0.9-1.6-2.3-2.8-2.9c-1-0.5-2.6-0.3-3.8,0.1c-0.5,0.2-0.7,1.5-1.1,2.3
	c0.9,0.3,1.9,0.4,2.6,0.9c0.9,0.7,1.7,1.7,2.5,2.6C819.8,242.8,820.8,241.8,821.7,240.7z M863.7,216.5c-1-1.3-1.9-2.5-3-4.1
	c-1.1,1.6-1.9,2.7-2.6,3.7c-4.6-1.9-4.6-1.9-6.3,0.7C855.8,220.8,859.6,218.5,863.7,216.5z M868,231.5c2.2-1.1,4.3-2.6,7.1-4.3
	c-1.3-1.1-2.2-2.2-2.5-2c-2.3,1.2-4.5,2.6-6.7,3.9C866.6,229.9,867.8,231.6,868,231.5z M885.8,235.8c0-3.2-3.5-5.8-9.1-6
	c-1,1.3-3.8,3.8-3.3,4.9c1,2.5,3.3,4.9,5.7,6.2C881.2,242,885.8,238,885.8,235.8z M896.8,288.8c-1.4-0.8-2.8-1.6-5.3-3
	c-0.5,2.8-1.3,5-1,7c0.1,0.7,3.1,0.9,4.7,1.4C895.9,291.8,896.3,290.3,896.8,288.8z M920.3,239.7c0.1-3.4-3.2-4-10.2-2
	c0.5,4.9,3.4,8.4,6.7,7.1C918.4,244.2,920.2,241.6,920.3,239.7z M966.5,250.5c-3.1,0.4-7.6-2.4-7.8,3.8c-0.1,3.5,2.8,3.7,4.8,3.6
	C968.2,257.4,967.7,254.1,966.5,250.5z M1060.5,232.4c-3.6,0-6,0-9.4,0c0.2,2.3-0.5,5.4,0.6,6.2c1.8,1.3,4.7,1,6.5,1.3
	C1059.3,236.5,1060,234,1060.5,232.4z M1122,273.8c-3.6-4.9-4.9,2.3-8.4,1.1c2,5.5,5.4,3.1,8.1,2.7
	C1122,277.6,1122.6,274.7,1122,273.8z M1133.3,249.1c-4.6,3-4.5,3.9,0.7,7.1C1137.6,253.2,1136.7,251,1133.3,249.1z M1214.1,264.8
	c-3.4,1.8-5.1,2.8-8.1,4.4c2.6,1.5,4.3,2.5,6,3.4C1212.6,270.4,1213.2,268.2,1214.1,264.8z M1270.1,279.7c-1-1.1-2.4-1.9-3.7-2.8
	c-0.5,1.6-1.5,3.2-1.3,4.7c0.1,1,1.8,2.1,3,2.7c0.5,0.2,2-0.8,2.3-1.5C1270.8,281.9,1270.7,280.4,1270.1,279.7z M1397.5,314.7
	c-0.2-0.5-2.7-0.6-3.7,0c-1.3,0.8-2.2,2.4-3.3,3.6c0.5,0.7,0.9,1.4,1.4,2c1.9-0.4,4.1-0.4,5.7-1.4
	C1398.2,318.6,1398,316,1397.5,314.7z M1437.9,342.7c-0.6-1.5-1.7-2.8-3.1-5c-1.3,1.8-2.7,3.3-2.5,3.6c1,1.4,2.4,2.5,3.8,3.5
	C1436.1,344.8,1438,343.1,1437.9,342.7z M1600.1,340.3c1.5,1,3.7,0.8,5.7,1.1c0.4-0.4,0.7-0.9,1.1-1.3c-1-2-1.9-4.1-3.3-5.9
	c-0.2-0.3-3.2,0.6-3.6,1.6C1599.4,337,1599.4,339.8,1600.1,340.3z M1608.5,356.5c-2.5,0-5,0.5-7.8,0.8c0.9,2.5,1.4,3.9,2.4,6.5
	c2.1-1.1,4.4-1.8,5.8-3.2C1609.6,360,1608.7,356.5,1608.5,356.5z M1625.7,354c-1.7-3-2.8-4.9-4-7c-4.8,2-5.3,5.2-2.8,8.2
	C1619.6,356.1,1623.2,354.6,1625.7,354z M1783.7,369.7c-3.1-1.2-6.1-2.5-8.8-3.6c-1.3,1.4-2.4,2.5-4.1,4.4c4.6,0,8.6,0,12.5,0
	C1783.5,370.3,1783.6,370,1783.7,369.7z M1927.2,348.9c-0.5-0.5-1-1-1.5-1.5c-1.7,1.4-3.5,2.6-4.8,4.2c-0.3,0.4,1.2,2.2,2.5,4.6
	C1925,353,1926.1,350.9,1927.2,348.9z M1996.5,352.7c-2.4,0.6-3.9,1-5.5,1.4c0.6,1.9,1.2,3.7,1.7,5.6c0.4-0.1,0.9-0.2,1.3-0.3
	C1994.7,357.6,1995.4,355.9,1996.5,352.7z M2017.1,348.1c-2.7,0.3-5.4,0.6-7.9,0.8c-0.2,4.6,2.2,6.1,4.9,5
	C2015.6,353.3,2016.1,350.1,2017.1,348.1z M2022.7,335.3c-0.9-2.8-1.8-5.6-3.2-9.7c-2.3,3.7-3.6,5.8-4.9,7.9
	c0.2,0.7,0.4,1.4,0.6,2.1C2017.7,335.6,2020.2,335.4,2022.7,335.3z M2032.8,356.5c-1.3-0.3-4.3,1.7-4.2,2.2c0.7,3.6,2.8,6.1,6.9,6.1
	C2037.2,361.1,2036.1,357.2,2032.8,356.5z M2057.8,366.5c-2.8-0.9-0.2-8.1-7.8-4.6c2.8,2.3,4.8,4,6.9,5.7
	C2057.1,367.2,2057.5,366.9,2057.8,366.5z M2079.5,333.5c-0.9-1.3-1.8-2.7-3.1-4.5c-3.2,2.7-4.6,1.1-6.1-1.7c-0.6-1.2-2.5-2-3.9-2.2
	c-0.5-0.1-2.2,2.7-1.9,3.1c1,1.3,2.5,2.2,4,3c1.1,0.6,3.4,0.4,3.6,1.2C2073.9,337,2076.5,335.9,2079.5,333.5z M2135,330.3
	c-2.2,0.7-4.5,1.5-6.7,2.2c0.1,0.7,0.2,1.4,0.2,2.1c1.8,0.5,3.7,1,5.5,1.5C2134.4,334.2,2134.7,332.3,2135,330.3z M2277,322.8
	c-2.5-4.1-6.2-3-10.8-0.6c1.9,2.9,3.7,5.5,5.7,8.5C2274.3,327.5,2279.9,327.5,2277,322.8z M2279.9,287.8c-0.8-2.7-2-5.2-3.1-8.1
	c-0.6,0.5-1.8,1.5-3,2.6c0,0,0,0,0,0c-2.4,1.9-4.7,3.9-6.7,5.5c0.7,1.1,1.7,2.6,2.7,4.2c0.1,1.3,1.3,2.1,2.5,2.9
	c3.2,2.2,6.3,1.1,8.4-1.4C2281.5,292.5,2280.4,289.7,2279.9,287.8z M2309.5,266.8c-1.6,2.9-4.1,5.7-0.2,8.4
	C2313.8,272.8,2313.8,270.5,2309.5,266.8z M2352.8,271c1.7-0.5,3.9-1.6,4.6-3.1c0.4-1-1.4-3-2.3-4.5c-0.8,0-1.6,0.1-2.4,0.1
	c-0.9,1.5-2.3,2.9-2.5,4.4C2350.2,269,2352.2,271.2,2352.8,271z M2361.7,295.3c-4.3,1.2-8.4,2.6-7.3,7.5c0.3,1.3,4.8,3.1,6.4,2.5
	C2367.3,302.6,2359.8,298.7,2361.7,295.3z M2379.7,305.6c1-0.9,0.7-3.1,1-4.8c-1.7-1.5-3.6-3.1-5.8-5c-1.4,2.2-3.6,4.3-3.9,6.7
	c-0.3,1.7,1.4,4.8,3,5.5C2375.4,308.5,2378.2,307,2379.7,305.6z M2384.9,319.7c-1.3-2.1-2.1-4.9-4-6.2c-1.3-0.9-4,0.3-6,0.6
	c0.4,2.3,0,5.6,1.4,6.6c1.7,1.3,4.8,0.7,7.3,1C2384,321,2384.5,320.4,2384.9,319.7z M2380.3,267.5c-3.5-0.1-6,2.6-6.3,6.1
	c-0.2,2.7-1.4,5.3-1.5,7.9c-0.1,1.9,0.7,5.3,1.5,5.5c2.6,0.4,5.5,0,8-0.9c0.9-0.3,1.3-2.6,1.7-4c0.5-2.3,0.4-4.8,1.2-6.9
	C2386.2,271.5,2384.1,267.6,2380.3,267.5z M2404.1,290.3c-0.8-2.2-2-4.2-3-6.3c-0.8,0.3-1.5,0.7-2.3,1c1,2.3,2,4.6,2.9,6.9
	C2402.6,291.4,2404.2,290.5,2404.1,290.3z M2414,259.9c4.2,2.7,7.4,4.8,10.5,6.7c-0.9-3.5-1.9-6.9-3.1-11.6
	C2418.8,256.7,2416.6,258.1,2414,259.9z M2423.4,291.2c-1.6-1.8-3.3-3.6-4.7-5.2c-1.4,2.8-2.5,4.9-3.7,7.2c2.9-0.2,5.4-0.4,7.9-0.5
	C2423.1,292.2,2423.3,291.7,2423.4,291.2z M2443.4,275.9c-4.4-4-10.9-4.8-14.3,0.2c-0.5,0.8-1.4,1.7-2.2,1.7c-6,0.3-4.5,5.4-5.5,8.8
	c0.7-0.8,1.4-1.6,1.9-2.1c3.7,2.8,6.8,5.6,10.3,7.6c1.3,0.7,3.7-0.9,5.4-0.5c4.4,1.2,6.3-1.8,6.8-4.7
	C2446.4,283.3,2447.4,279.6,2443.4,275.9z M2447.2,237.8c-2.7-1.5-5.1-2.8-7.4-4.1c-4.3,5.1,1.7,6,2.6,8.7
	C2443.7,241.1,2445.1,239.8,2447.2,237.8z M2455.7,272.7c-2,0.8-4.1,1.7-6.1,2.5c0.1,0.6,0.2,1.1,0.3,1.7c2.6,0.6,4.9,4.2,8,0.9
	C2460.2,275.2,2455.1,275,2455.7,272.7z M2460.3,258c-1.6-1.3-2.5-2.1-2.5-2.1c0.5-2.5,0.8-4.1,1-5.6c-3.8-1-5.6,0.9-5.5,3.7
	c0,2.2,1.5,4.4,2.3,6.7C2457.1,259.8,2458.5,259,2460.3,258z M2506.9,262.6c0.3,0.6,0.6,1.2,0.9,1.8c2.7,1.3,5.7,2.4,8-0.7
	c0.4-0.5-2.1-4.4-2.8-4.3C2510.8,259.9,2508.9,261.5,2506.9,262.6z M2464.8,279.2c7.8,2.1,12.5,1.2,12.6-0.5
	c-2.8-1.5-5.1-2.7-8.1-4.3C2468.3,275.4,2466.8,277.1,2464.8,279.2z M2480.1,303.3c-3.2,0.5-5.5,0.8-7.9,1.2
	c-0.2,0.4-0.3,0.9-0.5,1.3c2.1,1.1,4.2,2.3,7,3.7C2479.2,307.1,2479.6,305.4,2480.1,303.3z M2499.6,299.8c0.4-0.9,0.7-1.6,1.1-2.3
	c-2.4-1-4.8-2.1-7.1-3.1c-0.5,0.5-0.9,1-1.4,1.5c5,1.2,3.1,4.1,2.9,7c-0.3,4.1-4.3,3-5.9,5c3.8,6,8.9,3.1,14.3,2
	C2501.4,306.8,2506.7,301.5,2499.6,299.8z M2525.7,286.4c-2.7-10.9-11.3-5.6-16.7-8.5c-0.3,0.8-0.8,1.3-0.7,1.6
	c1.1,3.2-1.6,3.4-3.1,3.2c-1.8-0.2-3.1-1.5-0.7-3.2c0.1-0.1-0.6-1-0.7-1.6c-0.7-3.8-4.5-4.7-6.7-4.3c-3.2,0.6-7.7,0.1-9,5
	c-0.4,1.6-2.6,4.2-3.4,4c-5.1-1.2-7,0.4-6.9,6c-0.3,0.1-1.3,0.3-2.1,0.5c0,1.9-0.2,3.3,0,4.7c0.2,1.2,0.5,2.5,1.2,3.5
	c2.5,3.4,5.2,0.4,7.3-0.5c1.5-0.6,2.2-3.2,3.4-4.8c1.1-1.6,2.2-3.3,3.7-4.4c0.7-0.5,2.3,0.1,3.5,0.3c1,0.2,2.3,1.1,2.8,0.7
	c2-1.3,3.5-3.4,5.6-4.3c2-0.9,4.6-0.8,4.7,2.8c0,3.2,1.5,5.2,4.8,5.8c1.1,0.2,2.1,1.2,3.4,2C2519.6,291.9,2523.1,288.8,2525.7,286.4
	z M2559.1,199.1c0.1,12.9,1.8,15.4,11.6,15.3c-1-5.2-1.9-9.9-2.8-14.3C2564.7,199.8,2561.9,199.5,2559.1,199.1z M2553.5,224.7
	c5-1.5,6.1-4.8,5.2-9c-0.1-0.5-2.5-1-3.4-0.6C2549.9,217.2,2552.4,221,2553.5,224.7z M2539.6,259.2c0.4,0.3,0.7,0.7,0.9,1.2
	c1.1,2.4,1.1,2.1,3.9,1.6c4.5-0.8,5.4-4,5.9-6.8c0-6-4.4-8.6-8.9-6.2C2535.2,252.4,2534.7,254.9,2539.6,259.2z M2544.8,302.3
	c0.6-2.3,0.8-4.7,1.2-7.4c-2.3-0.1-4-0.2-5.6-0.3c-0.4,2.1-1.3,3.9-1,5.6c0.2,1.4,1.8,2.6,3,3.6C2542.7,304,2544.6,303,2544.8,302.3
	z M2557,354.2c-0.4-2.7-5.8-4.2-8.2-3.9c-3.9,0.4-2,4.4-5,5.2c1.5,0.5,2.5,0.6,2.9,1.1c1,1.5,1.6,3.3,2.6,4.7
	c1.5,2.2,3.5,1.4,5.4,0.5c1-0.5,2.8-1.1,2.9-1.8C2557.6,358.2,2557.2,356.2,2557,354.2z M2562.1,310.8c-2.7-0.6-4.2-1-6.1-1.4
	c-0.7,1-1.6,2.2-2,2.8c1,2,1.7,3.4,2.8,5.5C2561.2,317.6,2563.8,314,2562.1,310.8z M2560.4,272.4c-1.7-1-3.5-2-4.9-2.8
	c-2.5,0.2-4.9,0.4-7.3,0.6c-1.7,1.8-3.7,4-5.6,6.2c-0.3,0.3-0.3,1.3-0.1,1.7c1.4,1.7,2.7,3.5,4.4,4.7c1.1,0.7,2.9,0.4,4.4,0.3
	c2.4-0.2,4.7-0.6,7.7-1c-0.6,1.4-0.9,2-1.2,2.7c1,0,2.2,0.3,3-0.1C2564.8,282.5,2564.5,274.8,2560.4,272.4z M2575.3,249.5
	c-4,0-6.5,0-9,0c-0.5,0.4-1,0.7-1.4,1.1c1.6,1.8,3.3,3.5,4.9,5.3C2571.4,254,2573.1,252.1,2575.3,249.5z M2601.5,192.3
	c-0.6-2-2.2-3.7-3.7-6.1c-0.4,0.2-1,0.7-1.5,0.6c-3.7-0.4-6.3-0.1-4.5,4.8c0.5,1.5,0.7,3.3,0.3,4.9c-0.9,4.4,0.3,6.7,4.5,6.6
	c1.9-0.1,4.8-1.6,5.4-3.1C2602.7,197.7,2602.2,194.7,2601.5,192.3z M2613.7,155.6c-0.4-0.7-2.3-1.3-2.4-1.2c-2,3.3-3.3,0-4.9-0.4
	c-1.8-0.4-3.9-1.3-5.4-0.7c-1.1,0.4-2.1,3.3-1.6,4.5c0.7,1.9,2.6,3.3,4.6,5.6c3.6-2,6.5-3.6,9.2-5.4
	C2613.7,157.6,2614,156.1,2613.7,155.6z M2627.1,194.8c-6.9-3-4.3,3.6-7.7,5.9C2624.7,200.7,2626.1,198.1,2627.1,194.8z M2626.1,151
	c0,2.8-5.7,4.4-1.5,7.6c1.1,0.9,4.8,0.5,5.6-0.6C2633.5,153.6,2627.3,153.7,2626.1,151z M2635.2,139.5c-0.4-1.9-1.4-3.6-2.2-5.4
	c-0.6,0-1.2-0.1-1.8-0.1c-1.1,1.6-2.3,3.2-3.4,4.7c1.3,0.8,2.5,2.1,3.9,2.3C2632.9,141.2,2635.3,139.8,2635.2,139.5z M2679.4,99.2
	c0.1-1.5-2.1-3.5-3.7-4.7c-0.7-0.5-2.5,0.6-2.7,0.6c1,3.9,1.6,6.6,2.6,10.5C2677.2,103.2,2679.2,101.3,2679.4,99.2z M2698.9,78.7
	c-1.4-0.6-3-1.9-4.1-1.5c-1.1,0.4-1.7,2.3-2.4,3.7c-0.5,1-0.9,2.1-1.4,3.2c-0.4,0.9-0.8,1.8-1.2,2.8c0.4,0.4,0.7,0.7,1.1,1.1
	c1.2-0.8,2.5-1.4,3.6-2.3c0.7-0.6,1.2-1.5,1.7-2.3C2697.1,81.7,2698,80.2,2698.9,78.7z M2725.6,87.1c1.2,0.1,2.3,0.2,3.5,0.3
	c0.2-2.2,0.4-4.4,0.6-6.6c-0.9-0.1-1.8-0.2-2.6-0.4C2726.5,82.6,2726.1,84.8,2725.6,87.1z M2710.8,71.2c4.1,1.4,7,2.5,10.3,3.6
	c-0.1-1.9-0.3-3.3-0.4-5.3c-1.1,1-1.7,1.5-2.7,2.3c-0.6-1.7-1.2-3.2-1.9-5.1C2714.6,68.1,2713.4,69.1,2710.8,71.2z"/>
</svg>
