<?xml version="1.0" encoding="utf-8"?>
<!-- Generator: Adobe Illustrator 20.1.0, SVG Export Plug-In . SVG Version: 6.00 Build 0)  -->
<!DOCTYPE svg PUBLIC "-//W3C//DTD SVG 1.1//EN" "http://www.w3.org/Graphics/SVG/1.1/DTD/svg11.dtd">
<svg version="1.1" id="Layer_1" xmlns="http://www.w3.org/2000/svg" xmlns:xlink="http://www.w3.org/1999/xlink" x="0px" y="0px"
	 viewBox="0 0 196.9 405.4" style="enable-background:new 0 0 196.9 405.4;" xml:space="preserve">
<style type="text/css">
	.st0{fill:#FFFFFF;}
</style>
<path class="st0" d="M194.5,239.8c-22.4-29.9-6.6-71.6-22.3-104.6c-4.3-9-9.3-15.1-11.2-23.9c-2.4-10.5-4.2-21.3-8.5-29.6
	c2.7-7.1-0.1-16.4-4.7-23.8c12.2-7.3,30.3-28.1,16-42.2c-7.3-7.1-21.2-3.2-30.3-1.8c-5.2,0.8-7.6,4.7-14.1,2.7
	c-0.8-0.3-1.7-10.6-2.9-11c-0.4,1.2-2.4,10.9-3.8,10.4c-0.8-1.9-3.3-9.1-3.9-9.6c0.1,1.5-0.6,8.1-1.6,9.1
	C105.5,1.1,80.3-4.6,71.4,4.1c-5.7,5.5-3.9,8.2-5,15.6c-1.2,7.6,4.7,21.1,3.8,26.4c-0.9,5.3-3.9,11.3-8,13.3
	c-13.4,12-21,45.5,3.2,62c4.9,3.3-4.8,2.8-6,6.2c-1.6,4.6-2.4,11.7-4.2,16.1c-1.9,4.9-5.4,8.3-7.5,12.4
	c-7.7,14.5-11.3,22.8-22.9,34.3c-4.7,4.6-8.9,11.4-12.1,17.5c0.9,2.3-9.5,23.1-10.7,27.4c-6.6,23.5,1.6,53.3,12.8,75.1
	c3.5,6.9,9.4,12.1,12.8,18.3c4.8,8.8,4.9,18.4,11.8,28.4c4.4,6.3-3.1,14.5,0.1,21.5c3.7,8.1-1.5,13.1,3,16.6
	c-5.3-4.2,8.1,6.5,3.3,4.9c5.9,2,6.3,8.1,10.6,4.1c6-5.6,10.5-20.5,7.3-24.4c-4.7-5.7,3.3-10.4,0.3-16.7c-7.4-15.5,6-21.7,9.3-34
	c17.5,3.6,38.4-0.9,56.1-2.3c5,17.2-12.8,27.5-0.3,40.6c9.5,9.9,36.2,19.1,48.8,20.7c6.2,0.8-6.5-16-7.7-16.9
	c-6.1-4.4-24.9-5.9-29.2-11.9c-1.5-2.1,30-34.5,33.2-39.8c4.9-8.1,32.4-58.6,15.3-61.1C194.5,255.8,201.1,248.6,194.5,239.8z
	 M79.2,55.1c-6.8,0,2.3-8.5,3-9.9C87.6,47.8,84.4,55.2,79.2,55.1z M103.3,76.6C97.2,82.5,82.2,86,82.7,71
	C83.3,51.9,114,66.3,103.3,76.6C103.2,76.7,104.4,75.5,103.3,76.6z M130.2,64.1c-6.5-0.2-14.2-2.9-11.3-9.2
	C124.6,42.5,133.2,64.2,130.2,64.1z"/>
</svg>
